<svg width="36" height="46" viewBox="0 0 36 46" fill="none" xmlns="http://www.w3.org/2000/svg">
<path d="M29.6852 24.4266C29.7064 22.7071 30.1426 21.0211 30.9533 19.5255C31.764 18.0299 32.9228 16.7734 34.3219 15.8727C33.4331 14.5436 32.2605 13.4498 30.8974 12.6782C29.5342 11.9066 28.018 11.4784 26.4691 11.4276C23.1651 11.0645 19.962 13.4977 18.2783 13.4977C16.5621 13.4977 13.9699 11.4637 11.1784 11.5238C9.37286 11.5849 7.61319 12.1347 6.07087 13.1195C4.52855 14.1044 3.25618 15.4908 2.37774 17.1436C-1.42742 24.0418 1.41089 34.1799 5.05598 39.7559C6.8797 42.4863 9.01109 45.5362 11.8 45.4281C14.5291 45.3095 15.5484 43.6059 18.8427 43.6059C22.1064 43.6059 23.0626 45.4281 25.9081 45.3593C28.8366 45.3095 30.6817 42.6168 32.4414 39.8605C33.7518 37.915 34.7601 35.7648 35.429 33.4895C33.7277 32.7361 32.2758 31.4749 31.2544 29.8632C30.233 28.2516 29.6872 26.3608 29.6852 24.4266Z" fill="white"/>
<path d="M24.3106 7.76033C25.9073 5.75333 26.694 3.17366 26.5035 0.569153C24.0641 0.837422 21.8107 2.05817 20.1924 3.98818C19.4012 4.93103 18.7952 6.02793 18.4091 7.21616C18.0229 8.40438 17.8643 9.66064 17.9421 10.9131C19.1623 10.9263 20.3694 10.6494 21.4725 10.1032C22.5756 9.55713 23.546 8.75605 24.3106 7.76033Z" fill="white"/>
</svg>
