<svg width="320" height="100" viewBox="0 0 320 100" fill="none" xmlns="http://www.w3.org/2000/svg">
<path d="M12.3244 39.495C11.3649 40.3536 10.4558 41.3637 9.59726 42.3738C10.5063 42.5758 11.3649 42.6768 12.3244 42.6768C13.284 42.6768 14.1931 42.5758 15.0516 42.3738C14.2436 41.3132 13.3345 40.3536 12.3244 39.495ZM0.658208 33.6869C1.61777 37.2728 4.19343 40.2526 7.57714 41.7172C8.5872 40.5051 9.69827 39.3435 10.9103 38.3334C7.98117 36.0102 4.44594 34.394 0.658208 33.6869ZM17.0717 41.7172C20.4554 40.3031 23.0311 37.3233 23.9907 33.6869C20.2534 34.394 16.7182 36.0102 13.688 38.3334C14.9506 39.3435 16.0617 40.4546 17.0717 41.7172ZM12.3244 18.5859C5.65802 18.5859 0.304688 23.99 0.304688 30.6566C0.304688 31.3637 0.355188 32.1213 0.506697 32.7779C4.79946 33.2324 8.89022 34.7981 12.3244 37.2728C15.8092 34.7981 19.8494 33.2324 24.1927 32.7779C24.3442 32.0708 24.3947 31.3637 24.3947 30.6566C24.3947 23.99 18.9908 18.5859 12.3244 18.5859ZM19.3949 28.889C19.3949 29.1415 19.3444 29.394 19.3444 29.6465C19.0919 27.5758 17.9808 25.7577 16.3142 24.596C17.7788 27.2728 17.3748 30.6566 15.1021 32.9294C14.9001 33.1314 14.6981 33.2829 14.4961 33.4344C16.7182 30.6566 16.5667 26.6162 13.991 24.0405C13.7385 23.788 13.5365 23.5859 13.284 23.3839C13.2335 23.3839 13.1325 23.3839 13.1325 23.3839V34.495C13.1325 34.9496 12.779 35.3031 12.3244 35.3031C11.8699 35.3031 11.5669 34.9496 11.5669 34.495V23.3839C11.5164 23.3839 11.4154 23.3839 11.3649 23.3839C11.1124 23.5859 10.8598 23.788 10.6578 24.0405C8.08217 26.6162 7.88016 30.6566 10.1528 33.4344C9.95079 33.2829 9.74877 33.0809 9.59726 32.9294C7.32462 30.6566 6.9206 27.2728 8.38519 24.596C6.71859 25.7071 5.60752 27.5253 5.355 29.6465C5.3045 29.394 5.3045 29.1415 5.3045 28.889C5.3045 25.7071 7.42563 22.9799 10.3548 22.1213C8.38519 21.7678 6.26406 22.2223 4.64796 23.5354C4.79947 23.3334 5.00148 23.1314 5.15299 22.9799C7.12261 21.0102 9.90028 20.4546 12.3749 21.2627C14.8496 20.4546 17.6273 21.0102 19.5969 22.9799C19.7484 23.1819 19.9504 23.3839 20.1019 23.5354C18.4353 22.2223 16.3647 21.7173 14.3951 22.1213C17.2737 22.9799 19.3949 25.6566 19.3949 28.889Z" fill="#A7B2B9"/>
<path d="M34.874 37.8788C34.6709 38.5858 34.4 39.2424 34.0614 39.8485C33.452 40.8081 32.5378 41.7677 30.9803 41.7677C28.5764 41.7677 26.748 37.7778 26.748 33.3333C26.748 29.1919 28.6102 25.0505 31.5559 25.0505C33.3842 25.0505 34.5354 26.9192 34.9079 26.9192C35.348 26.9192 35.4157 25.8586 35.585 25.4545H36.2283C36.1267 26.2626 36.1268 27.2222 36.1268 27.9798V37.6768C36.1268 38.7374 36.2283 40.7071 37.7181 40.8586H40.2236V41.7677H38.4291C36.6346 41.7677 35.2126 41.4141 34.874 37.8788ZM31.522 25.9596C29.3551 25.9596 28.3394 29.596 28.3394 33.5354C28.3394 39.1414 30.1339 40.8081 31.285 40.8081C32.6732 40.8081 33.8583 39.3939 34.2984 37.3232C34.5354 36.1111 34.6031 34.798 34.6031 32.7778C34.6031 29.596 34.2646 25.9596 31.522 25.9596ZM30.337 21.1616C29.8291 21.1616 29.4228 20.6061 29.4228 19.8485C29.4228 19.0404 29.7953 18.4343 30.337 18.4343C30.8787 18.4343 31.2512 19.0404 31.2512 19.8485C31.2512 20.6566 30.8787 21.1616 30.337 21.1616ZM33.5535 21.1616C33.0118 21.1616 32.6394 20.6061 32.6394 19.8485C32.6394 19.0404 33.0118 18.4343 33.5535 18.4343C34.0614 18.4343 34.4677 19.0404 34.4677 19.8485C34.4677 20.6566 34.0953 21.1616 33.5535 21.1616Z" fill="#A7B2B9"/>
<path d="M39.8849 48.2323C39.377 48.2323 38.9707 47.6768 38.9707 46.8687C38.9707 46.1111 39.377 45.5051 39.8849 45.5051C40.4266 45.5051 40.799 46.1111 40.799 46.8687C40.799 47.6768 40.4266 48.2323 39.8849 48.2323ZM48.0785 41.7677C46.3518 41.7677 45.2683 40.7071 44.4557 38.2323C44.151 40.5051 42.9321 41.7677 41.2053 41.7677H39.7156V40.8586H40.7652C42.3227 40.8081 42.966 39.4445 42.966 37.1212V27.7778C42.966 26.8687 42.9321 26.7172 42.1195 26.3637L44.5234 25.6061V34.8485C44.5234 37.2727 45.6069 40.8586 47.5368 40.8586H48.2817V41.7677H48.0785ZM43.1353 48.2323C42.5935 48.2323 42.2211 47.6768 42.2211 46.8687C42.2211 46.1111 42.6274 45.5051 43.1353 45.5051C43.6431 45.5051 44.0494 46.1111 44.0494 46.8687C44.0494 47.6768 43.6431 48.2323 43.1353 48.2323Z" fill="#A7B2B9"/>
<path d="M47.8418 40.8586H48.0788C49.704 40.8586 50.3812 39.4444 50.3812 37.1212V20.8081C50.3812 19.899 50.3473 19.5454 49.5347 19.1919L51.9386 18.4343V37.1212C51.9386 40.1515 50.6182 41.8182 48.6205 41.8182H47.8757V40.8586H47.8418Z" fill="#A7B2B9"/>
<path d="M56.2046 37.3232V20.9595C56.2046 19.9494 55.8322 19.5454 54.4102 19.5454V18.5858L57.7621 18.3838V37.4747C57.7621 39.5454 58.4731 40.6565 59.692 40.808H60.7078V41.7171H59.5904C57.6267 41.7676 56.2046 40.707 56.2046 37.3232Z" fill="#A7B2B9"/>
<path d="M75.7404 41.7677C74.0137 41.7677 73.0995 40.7071 72.2192 38.6364C71.6436 41.2121 70.0861 43.3838 67.5806 43.3838C65.4137 43.3838 64.3302 41.4646 63.6192 39.9495L63.5176 39.798C62.9082 41.0101 62.2987 41.7677 60.9444 41.7677H60.2334V40.8586H60.9783C61.1476 40.8081 61.7909 40.6566 62.1295 40.1515C64.5672 36.7677 62.8066 28.1818 68.2239 28.1818C71.0341 28.1818 72.5578 32.5757 72.5578 35.9596C72.5578 36.4141 72.5239 36.8687 72.49 37.2727C72.8963 39.1414 73.8782 40.8586 75.2326 40.8586H75.7743C77.3995 40.8586 78.0766 39.4444 78.0766 37.1212V20.8081C78.0766 19.899 78.0428 19.5454 77.1963 19.1919L79.6003 18.4343V37.1212C79.6003 40.1515 78.2798 41.8182 76.2822 41.8182H75.7404V41.7677ZM67.8176 28.9899C64.9735 28.9899 65.2783 35.1515 63.9239 38.9394C64.0255 39.0404 64.0932 39.1414 64.1271 39.2424C64.8042 40.404 65.8877 42.4242 67.716 42.4242C69.4428 42.4242 70.9326 39.5959 70.9326 36.1111C70.9326 32.4747 69.9168 29.0909 67.8853 28.9899H67.8176Z" fill="#A7B2B9"/>
<path d="M83.1557 20.7575C83.1557 19.8484 83.1218 19.4949 82.2754 19.1414L84.6793 18.3838V41.7676H83.1557V20.7575Z" fill="#A7B2B9"/>
<path d="M105.536 36.1111C105.536 42.0202 103.2 48.2323 98.5949 48.2323C93.9564 48.2323 91.6202 42.0707 91.6202 36.1111V30.9091C91.6202 29.9495 91.2477 29.5455 89.8257 29.5455V28.5859L93.1776 28.3839V36.1111C93.1776 44.8485 95.8863 47.2222 98.5949 47.2222C100.931 47.2222 103.301 45.4041 103.843 39.1414C103.2 40.7576 102.252 41.7677 100.491 41.7677C98.9335 41.7677 97.0036 39.596 97.0036 36.1616C97.0036 29.7475 99.9154 25.6566 103.978 25.6566H105.536V36.1111ZM104.012 26.6162C103.809 26.5152 103.606 26.5152 103.437 26.5152C101.067 26.5152 98.5611 30.2525 98.5611 35.9091C98.5611 38.1313 99.4075 40.8586 101.033 40.9596C102.726 40.9596 104.012 38.1818 104.012 35.202V26.6162ZM101.439 21.5657C100.931 21.5657 100.559 21.0101 100.559 20.2525C100.559 19.4445 100.931 18.8889 101.439 18.8889C101.981 18.8889 102.387 19.495 102.387 20.2525C102.387 21.0101 101.981 21.5657 101.439 21.5657ZM104.689 21.5657C104.148 21.5657 103.775 21.0101 103.775 20.2525C103.775 19.4445 104.148 18.8889 104.689 18.8889C105.197 18.8889 105.57 19.495 105.57 20.2525C105.57 21.0101 105.197 21.5657 104.689 21.5657Z" fill="#A7B2B9"/>
<path d="M120.332 41.7677H116.844C116.032 47.3233 113.323 48.6364 111.326 48.6364C110.987 48.6364 110.648 48.5859 109.734 48.4849C111.935 47.7778 114.44 46.7677 115.253 41.7677H112.003C110.479 41.7677 108.481 39.596 108.481 36.1617C108.481 29.7475 111.393 25.6566 115.456 25.6566H117.048V38.6869C117.048 39.495 116.98 40.2021 116.912 40.8586H120.298V41.7677H120.332ZM115.524 38.7879V26.6162C115.321 26.5152 115.118 26.5152 114.948 26.5152C112.612 26.5152 110.073 30.2526 110.073 35.9091C110.073 38.1819 110.919 40.7071 112.578 40.8081H115.389C115.456 40.2021 115.49 39.5455 115.524 38.7879Z" fill="#A7B2B9"/>
<path d="M119.858 40.8586H120.095C121.72 40.8586 122.363 39.4444 122.363 37.1212V30.505C122.363 29.596 122.33 29.4444 121.517 29.0909L123.921 28.3838V34.899C123.921 37.2727 125.004 40.9091 126.9 40.9091C128.559 40.9091 129.203 39.4949 129.203 37.1717V29.1414C129.203 28.1818 129.203 28.0808 128.322 27.6768L130.726 26.9697V34.798C130.726 37.2222 131.844 40.8081 133.74 40.8081C135.399 40.8081 136.076 39.3939 136.076 37.0707V27.7273C136.076 26.8182 136.042 26.6667 135.196 26.3131L137.6 25.5555V34.798C137.6 37.2222 138.717 40.8081 140.613 40.8081H141.358V41.7172H141.121C139.394 41.7172 138.344 40.606 137.498 38.1818C137.227 40.4545 135.974 41.7172 134.281 41.7172C132.555 41.7172 131.539 40.7071 130.659 38.1818C130.354 40.4545 129.135 41.7172 127.476 41.7172C125.749 41.7172 124.801 40.6566 123.955 38.5353L123.887 38.3838C123.548 40.5555 122.33 41.7677 120.637 41.7677H119.858V40.8586Z" fill="#A7B2B9"/>
<path d="M140.951 40.8586H141.154C142.78 40.8586 143.457 39.4444 143.457 37.1212V20.8081C143.457 19.899 143.423 19.5454 142.61 19.1919L145.014 18.4343V37.1212C145.014 40.1515 143.66 41.8182 141.662 41.8182H140.917V40.8586H140.951Z" fill="#A7B2B9"/>
<path d="M148.637 20.7575C148.637 19.8484 148.603 19.4949 147.757 19.1414L150.161 18.3838V41.7676H148.637V20.7575Z" fill="#A7B2B9"/>
<path d="M165.228 37.8788C165.025 38.5858 164.754 39.2424 164.415 39.8485C163.806 40.8081 162.892 41.7677 161.368 41.7677C158.93 41.7677 157.136 37.7778 157.136 33.3333C157.136 29.1919 158.998 25.0505 161.944 25.0505C163.772 25.0505 164.957 26.9192 165.296 26.9192C165.736 26.9192 165.803 25.8586 165.973 25.4545H166.616C166.514 26.2626 166.514 27.2222 166.514 27.9798V37.6768C166.514 38.7374 166.616 40.7071 168.106 40.8586H170.577V41.7677H168.783C167.022 41.7677 165.6 41.4141 165.228 37.8788ZM161.91 25.9596C159.777 25.9596 158.727 29.596 158.727 33.5354C158.727 39.1414 160.522 40.8081 161.673 40.8081C163.061 40.8081 164.246 39.3939 164.686 37.3232C164.923 36.1111 164.991 34.798 164.991 32.7778C164.991 29.596 164.652 25.9596 161.91 25.9596ZM160.725 21.1616C160.217 21.1616 159.811 20.6061 159.811 19.8485C159.811 19.0404 160.217 18.4343 160.725 18.4343C161.233 18.4343 161.639 19.0404 161.639 19.8485C161.639 20.6566 161.233 21.1616 160.725 21.1616ZM163.975 21.1616C163.433 21.1616 163.027 20.6061 163.027 19.8485C163.027 19.0404 163.433 18.4343 163.975 18.4343C164.483 18.4343 164.855 19.0404 164.855 19.8485C164.855 20.6566 164.449 21.1616 163.975 21.1616Z" fill="#A7B2B9"/>
<path d="M178.432 41.7677C176.706 41.7677 175.622 40.7071 174.843 38.2323C174.572 40.5051 173.32 41.7677 171.593 41.7677H170.069V40.8586H171.153C172.71 40.8081 173.354 39.4444 173.354 37.1212V27.7778C173.354 26.8687 173.32 26.7172 172.507 26.3636L174.911 25.6061V34.8485C174.911 37.2727 175.995 40.8586 177.924 40.8586H178.669V41.7677H178.432ZM175.317 21.2121V20.404H174.471C173.286 20.404 172.676 18.5354 172.676 17.3737C172.676 16.5657 172.981 15.7071 173.624 15.7071C173.929 15.7071 174.2 15.7576 174.302 16.1616C174.166 16.3131 173.997 16.6667 173.997 16.9697C173.997 17.3737 174.234 17.7273 174.505 17.7273C174.776 17.7273 174.979 17.5253 174.979 16.8182C174.979 15.7576 174.403 15 173.658 15C172.575 15 171.898 16.3131 171.898 17.8283C171.898 18.9899 172.473 19.9495 172.981 20.404H171.695L171.491 21.2121H175.317Z" fill="#A7B2B9"/>
<path d="M178.432 48.2323C177.924 48.2323 177.518 47.6768 177.518 46.8687C177.518 46.1111 177.924 45.5051 178.432 45.5051C178.974 45.5051 179.346 46.1111 179.346 46.8687C179.313 47.6768 178.94 48.2323 178.432 48.2323ZM186.592 41.7677C184.865 41.7677 183.782 40.7071 182.969 38.2323C182.698 40.5051 181.446 41.7677 179.719 41.7677H178.195V40.8586H179.279C180.836 40.8081 181.479 39.4445 181.479 37.1212V27.7778C181.479 26.8687 181.446 26.7172 180.633 26.3637L183.037 25.6061V34.8485C183.037 37.2727 184.12 40.8586 186.05 40.8586H186.795V41.7677H186.592ZM181.649 48.2323C181.107 48.2323 180.701 47.6768 180.701 46.8687C180.701 46.1111 181.073 45.5051 181.649 45.5051C182.157 45.5051 182.563 46.1111 182.563 46.8687C182.563 47.6768 182.157 48.2323 181.649 48.2323Z" fill="#A7B2B9"/>
<path d="M199.932 41.7677H186.355V40.8586H188.386C188.42 40.5556 188.454 40.3031 188.488 40.0505C188.522 39.5455 188.59 39.0909 188.657 38.6364C189.097 35.5051 190.452 32.6768 192.754 32.6768C194.752 32.6768 195.869 34.7475 195.869 36.9192C195.869 38.4849 195.226 40.101 193.77 40.8586H198.104C198.104 32.2223 195.7 27.8788 193.533 27.8788C190.689 27.8788 189.842 30.3536 189.436 33.8889H189.165C189.199 28.7879 191.298 26.9697 193.533 26.9697H193.567C197.257 26.9697 200 34.0909 200 40.9091V41.7677H199.932ZM188.928 40.8586H190.249C192.043 40.8586 194.413 39.697 194.413 36.3132C194.413 34.596 193.431 33.6869 192.449 33.6869C191.027 33.6869 189.572 35.7071 189.199 38.4344L188.928 40.8586Z" fill="#A7B2B9"/>
<path d="M10.8346 66.2626H10.259C9.85272 63.0808 8.70154 59.3939 6.12832 59.3939C4.13069 59.3939 1.8622 61.5656 1.8622 69.3434C1.8622 77.1212 3.82597 79.2929 6.2299 79.2929C8.87083 79.2929 10.3606 76.1616 10.4622 71.7171H11.1393C11.1393 76.8687 9.31099 80.1515 6.2299 80.1515C2.09921 80.1515 0 74.5959 0 69.3434C0 63.1818 2.84408 58.5353 6.2299 58.5353C8.19367 58.5353 9.17556 60.505 9.61571 60.505C9.98815 60.505 10.1574 59.5959 10.259 59.2424H10.8346V66.2626Z" fill="#A7B2B9"/>
<path d="M18.7909 69.5959V77.6767C18.7909 78.5858 19.0279 78.7878 19.3326 78.7878C19.7389 78.7878 19.9759 78.2322 19.9759 76.4141H20.5515C20.5515 78.4343 20.1791 79.7979 18.8925 79.7979C17.9444 79.7979 17.5043 78.8888 17.4704 77.1716H17.4366C16.861 78.8383 15.8114 80.1515 14.3216 80.1515C13.0011 80.1515 11.5791 78.9393 11.5791 76.6161C11.5791 72.7777 15.5744 71.7171 17.4366 70.9595V68.7878C17.4366 67.0706 16.8271 65.9595 15.3712 65.9595C14.5248 65.9595 13.6444 66.4141 13.1027 67.0706L13.1366 67.1212C13.5429 67.1212 13.983 67.5757 13.983 68.4343C13.983 69.1413 13.6444 69.8989 13.035 69.8989C12.4594 69.8989 12.1208 69.2424 12.1208 68.1817C12.1208 66.5151 13.509 65.101 15.3374 65.101C17.5381 65.202 18.7909 66.2626 18.7909 69.5959ZM17.4027 71.8181C15.5405 72.4242 13.1027 73.2828 13.1027 76.8686C13.1027 78.2828 13.9492 79.1918 14.7618 79.1918C16.2177 79.1918 17.4027 76.8181 17.4027 74.0404V71.8181Z" fill="#A7B2B9"/>
<path d="M21.8042 67.6264C21.8042 66.7173 21.4657 66.4142 20.1791 66.4142V65.5556L23.1586 65.3536V68.0304H23.1924C23.8696 66.6163 24.3436 65.1516 26.1719 65.1516C28.6097 65.1516 30.2688 68.8385 30.2688 72.6769C30.2688 76.4648 28.6097 80.2021 25.8334 80.2021C24.716 80.2021 23.8019 79.5456 23.1924 78.2829H23.1586V82.9294C23.1586 83.8385 23.4972 84.1415 24.8176 84.1415V85.0001H20.0098V84.1415C21.4318 84.1415 21.7704 83.8385 21.7704 82.9294V67.6264H21.8042ZM23.1924 72.6769C23.1924 77.8789 23.9035 79.3436 26.0027 79.3436C27.4924 79.3436 28.8129 77.4749 28.8129 72.6769C28.8129 67.9294 27.4924 66.0102 26.0027 66.0102C24.479 66.0102 23.1924 67.9294 23.1924 72.6769Z" fill="#A7B2B9"/>
<path d="M35.6868 79.798H30.8789V78.9394C32.3009 78.9394 32.6395 78.6363 32.6395 77.7273V67.5757C32.6395 66.6666 32.3009 66.3636 31.0143 66.3636V65.505L34.0277 65.303V77.6767C34.0277 78.5858 34.3663 78.8889 35.6868 78.8889V79.798ZM34.1293 60.606C34.1293 61.4141 33.723 62.0202 33.1474 62.0202C32.6057 62.0202 32.1655 61.4141 32.1655 60.606C32.1655 59.7979 32.6057 59.1414 33.1474 59.1414C33.6891 59.0909 34.1293 59.7474 34.1293 60.606Z" fill="#A7B2B9"/>
<path d="M41.6459 65.2021V66.0606H38.5986V76.8182C38.5986 78.6869 39.2081 79.3435 39.9191 79.3435C40.5286 79.3435 41.4089 78.6869 41.4089 76.2626V74.9495H41.9845V76.0606C41.9845 78.4849 41.2396 80.202 39.5805 80.202C38.0908 80.202 37.2443 78.9899 37.2443 76.6667V66.0101H35.7207V65.1515C37.4136 65.1515 37.9215 62.6768 38.0569 60.6061H38.6325V65.1515H41.6459V65.2021Z" fill="#A7B2B9"/>
<path d="M49.9068 69.5959V77.6767C49.9068 78.5858 50.1438 78.7878 50.4485 78.7878C50.8209 78.7878 51.058 78.2322 51.058 76.4141H51.6335C51.6335 78.4343 51.2611 79.7979 49.9745 79.7979C49.0265 79.7979 48.5863 78.8888 48.5525 77.1716H48.5186C47.943 78.8383 46.8934 80.1515 45.4036 80.1515C44.0832 80.1515 42.6611 78.9393 42.6611 76.6161C42.6611 72.7777 46.6564 71.7171 48.5186 70.9595V68.7878C48.5186 67.0706 47.9091 65.9595 46.4532 65.9595C45.6068 65.9595 44.7265 66.4141 44.1847 67.0706L44.2186 67.1212C44.6249 67.1212 45.0651 67.5757 45.0651 68.4343C45.0651 69.1413 44.7265 69.8989 44.117 69.8989C43.5414 69.8989 43.2029 69.2424 43.2029 68.1817C43.2029 66.5151 44.591 65.101 46.4194 65.101C48.6202 65.202 49.9068 66.2626 49.9068 69.5959ZM48.5186 71.8181C46.6564 72.4242 44.2186 73.2828 44.2186 76.8686C44.2186 78.2828 45.0651 79.1918 45.8777 79.1918C47.3336 79.1918 48.5186 76.8181 48.5186 74.0404V71.8181Z" fill="#A7B2B9"/>
<path d="M54.85 77.7273C54.85 78.6364 55.1886 78.9394 56.509 78.9394V79.798H51.7012V78.9394C53.1232 78.9394 53.4618 78.6364 53.4618 77.7273V61.1112C53.4618 60.2021 53.1232 59.8991 51.8705 59.8991V59.0405L54.85 58.9395V77.7273Z" fill="#A7B2B9"/>
<path d="M62.1299 58.9395H66.0913L69.748 75.7576H69.8157L73.6755 58.9395H77.4676V59.798C75.8763 59.798 75.6054 59.9495 75.6054 61.8687V76.8687C75.6054 78.7879 75.8763 78.9394 77.5015 78.9394V79.798H72.1519V78.9394C73.8448 78.9394 74.0818 78.7879 74.0818 76.8687V60.5051H74.048L69.5448 79.798H69.0708L64.7708 60.5051H64.737V76.7677C64.737 78.2829 65.211 78.8889 66.6669 78.9394V79.798H62.1299V78.9394C63.5519 78.8889 64.0259 78.2324 64.0259 76.7677V61.8687C64.0259 59.9495 63.7551 59.798 62.1299 59.798V58.9395Z" fill="#A7B2B9"/>
<path d="M85.2548 69.5959V77.6767C85.2548 78.5858 85.4918 78.7878 85.7965 78.7878C86.1689 78.7878 86.4398 78.2322 86.4398 76.4141H87.0154C87.0154 78.4343 86.6429 79.7979 85.3563 79.7979C84.4083 79.7979 83.9681 78.8888 83.9343 77.1716H83.9004C83.3248 78.8383 82.2752 80.1515 80.7855 80.1515C79.465 80.1515 78.043 78.9393 78.043 76.6161C78.043 72.7777 82.0382 71.7171 83.9004 70.9595V68.7878C83.9004 67.0706 83.291 65.9595 81.8351 65.9595C80.9886 65.9595 80.1083 66.4141 79.5666 67.0706L79.6004 67.1212C80.0067 67.1212 80.4469 67.5757 80.4469 68.4343C80.4469 69.1413 80.1083 69.8989 79.4989 69.8989C78.9233 69.8989 78.5847 69.2424 78.5847 68.1817C78.5847 66.5151 79.9729 65.101 81.8012 65.101C84.002 65.202 85.2548 66.2626 85.2548 69.5959ZM83.8666 71.8181C82.0044 72.4242 79.5327 73.2828 79.5327 76.8686C79.5327 78.2828 80.3792 79.1918 81.1918 79.1918C82.6477 79.1918 83.8327 76.8181 83.8327 74.0404V71.8181H83.8666Z" fill="#A7B2B9"/>
<path d="M88.7422 67.6264C88.7422 66.7173 88.4036 66.4142 87.117 66.4142V65.5556L90.0965 65.3536V68.99H90.1643C90.6044 67.2223 91.3493 65.1516 92.8052 65.1516C93.6178 65.1516 94.3627 65.9092 94.3627 67.2223C94.3627 68.1314 93.9902 68.687 93.4146 68.687C92.8729 68.687 92.4666 68.2324 92.4666 67.3233C92.4666 66.7678 92.6359 66.3637 92.9406 66.1112C92.8729 66.0102 92.7713 65.9597 92.6359 65.9597C92.0942 65.9597 90.8753 66.8688 90.3336 70.3536C90.0627 72.2728 90.0627 75.1011 90.0627 77.0708C90.0627 78.586 90.4013 78.889 91.891 78.889V79.7476H87.0493V78.889C88.3698 78.889 88.6745 78.586 88.6745 77.6769V67.6264H88.7422Z" fill="#A7B2B9"/>
<path d="M104.182 65.5556V66.4142C102.658 66.6163 102.082 67.3233 99.5431 71.1112L102.184 77.1213C102.963 78.9395 103.2 78.99 104.351 78.99V79.8486H101.845L98.5612 72.4244L97.6132 73.687V77.7779C97.6132 78.687 97.9517 78.99 99.2722 78.99V79.8486H94.4644V78.99C95.8864 78.99 96.225 78.687 96.225 77.7779V61.1617C96.225 60.2526 95.8864 59.9496 94.5998 59.9496V59.091L97.5793 58.99V72.6769L100.694 68.4344C101.033 67.9294 101.338 67.5254 101.338 67.0203C101.338 66.5153 100.965 66.4142 99.7801 66.4142V65.5556H104.182Z" fill="#A7B2B9"/>
<path d="M105.908 72.3232V73.1818C105.908 76.6161 107.026 79.2929 109.023 79.2929C110.784 79.2929 111.495 78.0807 112.274 76.3636L112.782 76.8686C111.563 79.5454 110.615 80.1515 108.888 80.1515C106.112 80.1515 104.385 76.4141 104.385 72.6262C104.385 68.1817 106.044 65.101 108.786 65.101C111.326 65.101 112.782 68.6868 112.782 72.2727H105.908V72.3232ZM111.224 71.4646C111.224 68.9898 110.716 66.01 108.651 66.01C106.789 66.01 105.942 68.8383 105.942 71.4646H111.224Z" fill="#A7B2B9"/>
<path d="M118.673 65.2021V66.0606H115.626V76.8182C115.626 78.6869 116.235 79.3435 116.946 79.3435C117.556 79.3435 118.436 78.6869 118.436 76.2626V74.9495H119.011V76.0606C119.011 78.4849 118.267 80.202 116.574 80.202C115.084 80.202 114.237 78.9899 114.237 76.6667V66.0101H112.714V65.1515C114.441 65.1515 114.915 62.6768 115.016 60.6061H115.592V65.1515H118.673V65.2021Z" fill="#A7B2B9"/>
<path d="M123.142 79.798V78.9394C124.463 78.9394 124.903 78.6869 125.174 77.6263L129.846 58.9395H130.354L135.026 77.8284C135.263 78.788 135.737 78.99 136.787 78.99V79.8486H131.607V78.99C133.13 78.99 133.401 78.7374 133.401 78.1314C133.401 77.2728 132.385 73.7374 132.182 72.7273H127.103C127.002 73.2324 125.952 77.2728 125.952 78.1819C125.952 78.8889 126.392 78.99 127.781 78.99V79.8486H123.142V79.798ZM127.374 71.6667H131.979L129.711 62.3233L127.374 71.6667Z" fill="#A7B2B9"/>
<path d="M144.71 77.7273C144.71 78.6364 145.015 78.9394 146.234 78.9394V79.798L143.322 79.9495V77.6768H143.288C142.577 79.1919 141.832 80.101 140.241 80.101C138.48 80.101 137.193 79.1414 137.193 76.1111V67.5252C137.193 66.6162 136.855 66.3131 135.602 66.3131V65.4546L138.582 65.2525V76.2626C138.582 78.1818 139.293 79.1919 140.511 79.1919C142.204 79.1919 143.356 77.1212 143.356 73.7374V67.4748C143.356 66.5657 143.017 66.2626 141.73 66.2626V65.404L144.744 65.202V77.7273H144.71Z" fill="#A7B2B9"/>
<path d="M151.718 65.2021V66.0606H148.671V76.8182C148.671 78.6869 149.281 79.3435 149.992 79.3435C150.567 79.3435 151.481 78.6869 151.481 76.2626V74.9495H152.057V76.0606C152.057 78.4849 151.312 80.202 149.653 80.202C148.163 80.202 147.317 78.9899 147.317 76.6667V66.0101H145.827V65.1515C147.52 65.1515 148.028 62.6768 148.13 60.6061H148.705V65.1515H151.718V65.2021Z" fill="#A7B2B9"/>
<path d="M160.284 79.798V69.9495C160.284 68.3839 160.284 66.0102 158.422 66.0102C156.831 66.0102 155.544 68.3334 155.544 72.3233V77.7273C155.544 78.6364 155.883 78.9394 157.169 78.9394V79.798H152.429V78.9394C153.851 78.9394 154.156 78.6364 154.156 77.7273V61.1112C154.156 60.2021 153.817 59.8991 152.531 59.8991V59.0405L155.51 58.9395V68.0304H155.544C156.255 66.1112 157.135 65.2021 158.727 65.2021C160.521 65.2021 161.672 66.5152 161.672 69.697V77.7778C161.672 78.6869 161.909 78.99 163.264 78.99V79.8486H160.284V79.798Z" fill="#A7B2B9"/>
<path d="M163.128 72.6769C163.128 68.889 164.787 65.1516 167.53 65.1516C170.306 65.1516 171.932 68.8385 171.932 72.6769C171.932 76.4648 170.306 80.2021 167.53 80.2021C164.787 80.2021 163.128 76.4648 163.128 72.6769ZM170.408 72.6769C170.408 68.3839 169.494 66.0102 167.53 66.0102C165.566 66.0102 164.652 68.3839 164.652 72.6769C164.652 76.9698 165.566 79.3436 167.53 79.3436C169.528 79.3436 170.408 76.9698 170.408 72.6769Z" fill="#A7B2B9"/>
<path d="M173.388 67.6264C173.388 66.7173 173.049 66.4142 171.762 66.4142V65.5556L174.776 65.3536V68.99H174.81C175.284 67.2223 175.995 65.1516 177.484 65.1516C178.297 65.1516 179.042 65.9092 179.042 67.2223C179.042 68.1314 178.669 68.687 178.094 68.687C177.552 68.687 177.146 68.2324 177.146 67.3233C177.146 66.7678 177.315 66.3637 177.62 66.1112C177.552 66.0102 177.451 65.9597 177.315 65.9597C176.773 65.9597 175.554 66.8688 175.013 70.3536C174.742 72.2728 174.742 75.1011 174.742 77.0708C174.742 78.586 175.047 78.889 176.57 78.889V79.7476H171.729V78.889C173.015 78.889 173.354 78.586 173.354 77.6769V67.6264H173.388Z" fill="#A7B2B9"/>
<path d="M184.323 79.798H179.516V78.9394C180.938 78.9394 181.276 78.6363 181.276 77.7273V67.5757C181.276 66.6666 180.938 66.3636 179.685 66.3636V65.505L182.664 65.303V77.6767C182.664 78.5858 182.969 78.8889 184.323 78.8889V79.798ZM182.766 60.606C182.766 61.4141 182.326 62.0202 181.784 62.0202C181.242 62.0202 180.802 61.4141 180.802 60.606C180.802 59.7979 181.242 59.1414 181.784 59.1414C182.326 59.0909 182.766 59.7474 182.766 60.606Z" fill="#A7B2B9"/>
<path d="M189.877 65.3537V66.2123H186.829V77.0203C186.829 78.889 187.439 79.5456 188.15 79.5456C188.759 79.5456 189.64 78.889 189.64 76.4648V75.1011H190.215V76.2123C190.215 78.6365 189.47 80.3537 187.777 80.3537C186.288 80.3537 185.441 79.1416 185.441 76.8183V66.1617H183.917V65.3031C185.61 65.3031 186.118 62.8284 186.22 60.7577H186.795V65.3031H189.877V65.3537Z" fill="#A7B2B9"/>
<path d="M189.673 65.3535H194.244V66.2121C192.755 66.2121 192.585 66.4646 192.585 66.9192C192.585 67.6767 193.77 71.7171 195.125 76.6666H195.159C196.513 71.5151 197.562 68.1818 197.562 67.1717C197.562 66.4646 197.258 66.2121 196.039 66.2121V65.3535H199.899V66.2121C198.849 66.2121 198.544 66.5151 198.138 67.9293L195.091 79.2929C193.973 83.4848 193.296 84.7474 191.773 84.7474C190.723 84.7474 189.843 83.6868 189.843 82.3232C189.843 81.3636 190.317 80.707 190.859 80.707C191.366 80.707 191.773 81.2121 191.773 81.8687C191.773 82.7778 191.434 83.2828 190.825 83.3333C190.96 83.6868 191.366 83.8889 191.874 83.8889C193.025 83.8889 193.872 82.0707 194.38 79.2424L191.197 67.3232C190.96 66.3636 190.452 66.1616 189.64 66.1616V65.3535H189.673Z" fill="#A7B2B9"/>
<mask id="mask0_306_14201" style="mask-type:luminance" maskUnits="userSpaceOnUse" x="220" y="0" width="34" height="100">
<path d="M220 100L253.909 66.0663L220.072 0L220 100Z" fill="white"/>
</mask>
<g mask="url(#mask0_306_14201)">
<path d="M246.855 -13.7623L294.515 79.1772L227.128 113.759L179.468 20.8919L246.855 -13.7623Z" fill="#CBD2D6"/>
</g>
<path d="M286.091 33.9337L320 0H220.073L286.091 33.9337Z" fill="#A7B2B9"/>
<path d="M253.909 66.0656L220 99.9993H320L253.909 66.0656Z" fill="#A7B2B9"/>
<mask id="mask1_306_14201" style="mask-type:luminance" maskUnits="userSpaceOnUse" x="286" y="0" width="34" height="100">
<path d="M286.09 33.9337L319.999 100V0L286.09 33.9337Z" fill="white"/>
</mask>
<g mask="url(#mask1_306_14201)">
<path d="M293.146 113.831L245.486 20.8919L312.944 -13.7623L360.604 79.1772L293.146 113.831Z" fill="#CBD2D6"/>
</g>
</svg>
