<svg width="223" height="68" viewBox="0 0 223 68" fill="none" xmlns="http://www.w3.org/2000/svg">
<path d="M9.05361 26.8135C8.4095 27.3899 7.7993 28.0679 7.22299 28.7459C7.8332 28.8815 8.4095 28.9493 9.05361 28.9493C9.69771 28.9493 10.3079 28.8815 10.8842 28.7459C10.3418 28.034 9.73161 27.3899 9.05361 26.8135ZM1.22265 22.9149C1.86676 25.3219 3.59567 27.3221 5.86698 28.3052C6.54499 27.4916 7.2908 26.7118 8.1044 26.0338C6.13819 24.4743 3.76517 23.3895 1.22265 22.9149ZM12.2402 28.3052C14.5115 27.356 16.2405 25.3558 16.8846 22.9149C14.3759 23.3895 12.0029 24.4743 9.96891 26.0338C10.8164 26.7118 11.5622 27.4577 12.2402 28.3052ZM9.05361 12.7783C4.57878 12.7783 0.985352 16.4058 0.985352 20.8808C0.985352 21.3554 1.01925 21.8639 1.12095 22.3046C4.00247 22.6098 6.74839 23.6607 9.05361 25.3219C11.3927 23.6607 14.1047 22.6098 17.0202 22.3046C17.1219 21.83 17.1558 21.3554 17.1558 20.8808C17.1558 16.4058 13.5284 12.7783 9.05361 12.7783ZM13.7996 19.6942C13.7996 19.8637 13.7657 20.0332 13.7657 20.2028C13.5962 18.8128 12.8504 17.5923 11.7317 16.8126C12.7148 18.6094 12.4436 20.8808 10.9181 22.4063C10.7825 22.542 10.6469 22.6437 10.5113 22.7454C12.0029 20.8808 11.9012 18.1687 10.1723 16.4397C10.0028 16.2702 9.86721 16.1346 9.69771 15.999C9.66381 15.999 9.59601 15.999 9.59601 15.999V23.4573C9.59601 23.7624 9.35871 23.9997 9.05361 23.9997C8.7485 23.9997 8.5451 23.7624 8.5451 23.4573V15.999C8.5112 15.999 8.4434 15.999 8.4095 15.999C8.24 16.1346 8.0705 16.2702 7.9349 16.4397C6.20599 18.1687 6.07039 20.8808 7.5959 22.7454C7.4603 22.6437 7.32469 22.5081 7.22299 22.4063C5.69748 20.8808 5.42628 18.6094 6.40939 16.8126C5.29068 17.5584 4.54488 18.7789 4.37538 20.2028C4.34148 20.0332 4.34147 19.8637 4.34147 19.6942C4.34147 17.5584 5.76528 15.7278 7.7315 15.1514C6.40939 14.9141 4.98558 15.2192 3.90077 16.1007C4.00247 15.9651 4.13807 15.8295 4.23977 15.7277C5.56188 14.4056 7.42639 14.0327 9.08751 14.5751C10.7486 14.0327 12.6131 14.4056 13.9352 15.7277C14.0369 15.8634 14.1725 15.999 14.2742 16.1007C13.1555 15.2192 11.7656 14.8802 10.4435 15.1514C12.3758 15.7278 13.7996 17.5245 13.7996 19.6942Z" fill="#292D32"/>
<path d="M24.1899 25.7284C24.0535 26.203 23.8717 26.6437 23.6444 27.0505C23.2354 27.6947 22.6217 28.3388 21.5763 28.3388C19.9626 28.3388 18.7354 25.6606 18.7354 22.6772C18.7354 19.8973 19.9854 17.1174 21.9626 17.1174C23.1899 17.1174 23.9626 18.3717 24.2126 18.3717C24.5081 18.3717 24.5535 17.6598 24.6672 17.3886H25.099C25.0308 17.931 25.0308 18.5751 25.0308 19.0837V25.5928C25.0308 26.3047 25.099 27.6268 26.099 27.7286H27.7808V28.3388H26.5763C25.3717 28.3388 24.4172 28.1015 24.1899 25.7284ZM21.9399 17.7276C20.4854 17.7276 19.8035 20.1685 19.8035 22.8128C19.8035 26.5759 21.0081 27.6946 21.7808 27.6946C22.7126 27.6946 23.5081 26.7454 23.8035 25.3554C23.9626 24.5418 24.0081 23.6604 24.0081 22.3043C24.0081 20.1685 23.7808 17.7276 21.9399 17.7276ZM21.1444 14.507C20.8035 14.507 20.5308 14.134 20.5308 13.6255C20.5308 13.0831 20.7808 12.6763 21.1444 12.6763C21.5081 12.6763 21.7581 13.0831 21.7581 13.6255C21.7581 14.1679 21.5081 14.507 21.1444 14.507ZM23.3035 14.507C22.9399 14.507 22.6899 14.134 22.6899 13.6255C22.6899 13.0831 22.9399 12.6763 23.3035 12.6763C23.6444 12.6763 23.9172 13.0831 23.9172 13.6255C23.9172 14.1679 23.6672 14.507 23.3035 14.507Z" fill="#292D32"/>
<path d="M27.5541 32.6781C27.2132 32.6781 26.9404 32.3052 26.9404 31.7628C26.9404 31.2543 27.2132 30.8474 27.5541 30.8474C27.9177 30.8474 28.1677 31.2543 28.1677 31.7628C28.1677 32.3052 27.9177 32.6781 27.5541 32.6781ZM33.0541 28.3387C31.895 28.3387 31.1677 27.6268 30.6222 25.9656C30.4177 27.4912 29.5995 28.3387 28.4404 28.3387H27.4404V27.7285H28.145C29.1904 27.6946 29.6222 26.7792 29.6222 25.2198V18.948C29.6222 18.3378 29.5995 18.2361 29.0541 17.9988L30.6677 17.4902V23.6942C30.6677 25.3215 31.395 27.7285 32.6904 27.7285H33.1904V28.3387H33.0541ZM29.7359 32.6781C29.3722 32.6781 29.1222 32.3052 29.1222 31.7628C29.1222 31.2543 29.395 30.8474 29.7359 30.8474C30.0768 30.8474 30.3495 31.2543 30.3495 31.7628C30.3495 32.3052 30.0768 32.6781 29.7359 32.6781Z" fill="#292D32"/>
<path d="M32.8945 27.7286H33.0536C34.1445 27.7286 34.5991 26.7793 34.5991 25.2198V14.2696C34.5991 13.6594 34.5763 13.4221 34.0309 13.1848L35.6445 12.6763V25.2198C35.6445 27.2539 34.7582 28.3727 33.4173 28.3727H32.9173V27.7286H32.8945Z" fill="#292D32"/>
<path d="M38.5092 25.3556V14.3715C38.5092 13.6935 38.2592 13.4223 37.3047 13.4223V12.7782L39.5547 12.6426V25.4573C39.5547 26.8473 40.032 27.5931 40.8501 27.6949H41.532V28.3051H40.782C39.4638 28.339 38.5092 27.6271 38.5092 25.3556Z" fill="#292D32"/>
<path d="M51.623 28.3388C50.4639 28.3388 49.8502 27.6268 49.2593 26.2369C48.873 27.9659 47.8275 29.4236 46.1457 29.4236C44.6911 29.4236 43.9639 28.1354 43.4866 27.1183L43.4184 27.0166C43.0093 27.8303 42.6002 28.3388 41.6911 28.3388H41.2139V27.7286H41.7139C41.8275 27.6947 42.2593 27.5929 42.4866 27.2539C44.123 24.9825 42.9411 19.2193 46.5775 19.2193C48.4639 19.2193 49.4866 22.1687 49.4866 24.4401C49.4866 24.7452 49.4639 25.0503 49.4411 25.3215C49.7139 26.5759 50.373 27.7286 51.2821 27.7286H51.6457C52.7366 27.7286 53.1911 26.7793 53.1911 25.2198V14.2696C53.1911 13.6594 53.1684 13.4221 52.6002 13.1848L54.2139 12.6763V25.2198C54.2139 27.2539 53.3275 28.3727 51.9866 28.3727H51.623V28.3388ZM46.3048 19.7617C44.3957 19.7617 44.6002 23.8977 43.6911 26.4403C43.7593 26.5081 43.8048 26.5759 43.8275 26.6437C44.282 27.4234 45.0093 28.7795 46.2366 28.7795C47.3957 28.7795 48.3957 26.881 48.3957 24.5418C48.3957 22.1009 47.7139 19.8295 46.3502 19.7617H46.3048Z" fill="#292D32"/>
<path d="M56.5997 14.2359C56.5997 13.6257 56.577 13.3884 56.0088 13.1511L57.6224 12.6426V28.339H56.5997V14.2359Z" fill="#292D32"/>
<path d="M71.6226 24.5419C71.6226 28.5083 70.0544 32.6782 66.9635 32.6782C63.8499 32.6782 62.2817 28.5422 62.2817 24.5419V21.05C62.2817 20.4059 62.0317 20.1347 61.0771 20.1347V19.4905L63.3271 19.3549V24.5419C63.3271 30.4068 65.1453 32.0002 66.9635 32.0002C68.5317 32.0002 70.1226 30.7797 70.4862 26.5759C70.0544 27.6608 69.4181 28.3388 68.2362 28.3388C67.1908 28.3388 65.8953 26.8811 65.8953 24.5758C65.8953 20.2703 67.8499 17.5242 70.5771 17.5242H71.6226V24.5419ZM70.5999 18.1684C70.4635 18.1006 70.3271 18.1006 70.2135 18.1006C68.6226 18.1006 66.9408 20.6093 66.9408 24.4063C66.9408 25.8979 67.509 27.7286 68.5999 27.7964C69.7362 27.7964 70.5999 25.9318 70.5999 23.9316V18.1684ZM68.8726 14.7782C68.5317 14.7782 68.2817 14.4053 68.2817 13.8968C68.2817 13.3544 68.5317 12.9814 68.8726 12.9814C69.2362 12.9814 69.509 13.3883 69.509 13.8968C69.509 14.4053 69.2362 14.7782 68.8726 14.7782ZM71.0544 14.7782C70.6908 14.7782 70.4408 14.4053 70.4408 13.8968C70.4408 13.3544 70.6908 12.9814 71.0544 12.9814C71.3953 12.9814 71.6453 13.3883 71.6453 13.8968C71.6453 14.4053 71.3953 14.7782 71.0544 14.7782Z" fill="#292D32"/>
<path d="M81.5542 28.339H79.2132C78.6678 32.0682 76.8496 32.9496 75.5087 32.9496C75.2814 32.9496 75.0542 32.9157 74.4405 32.8479C75.9178 32.3733 77.5996 31.6952 78.1451 28.339H75.9633C74.9405 28.339 73.5996 26.8812 73.5996 24.5759C73.5996 20.2704 75.5542 17.5244 78.2814 17.5244H79.3496V26.271C79.3496 26.8134 79.3042 27.2881 79.2587 27.7288H81.5314V28.339H81.5542ZM78.3269 26.3388V18.1685C78.1905 18.1007 78.0542 18.1007 77.9405 18.1007C76.3723 18.1007 74.6678 20.6094 74.6678 24.4064C74.6678 25.932 75.236 27.6271 76.3496 27.6949H78.236C78.2814 27.2881 78.3042 26.8473 78.3269 26.3388Z" fill="#292D32"/>
<path d="M81.2363 27.7287H81.3954C82.4863 27.7287 82.9181 26.7795 82.9181 25.22V20.7789C82.9181 20.1687 82.8954 20.067 82.35 19.8296L83.9636 19.355V23.7283C83.9636 25.3217 84.6909 27.7626 85.9636 27.7626C87.0772 27.7626 87.5091 26.8134 87.5091 25.2539V19.8636C87.5091 19.2194 87.5091 19.1516 86.9181 18.8804L88.5318 18.4058V23.6605C88.5318 25.2878 89.2818 27.6948 90.5545 27.6948C91.6681 27.6948 92.1227 26.7456 92.1227 25.1861V18.9143C92.1227 18.3041 92.1 18.2024 91.5318 17.9651L93.1454 17.4565V23.6605C93.1454 25.2878 93.8954 27.6948 95.1682 27.6948H95.6682V28.305H95.5091C94.35 28.305 93.6454 27.5592 93.0772 25.9319C92.8954 27.4575 92.0545 28.305 90.9181 28.305C89.7591 28.305 89.0772 27.627 88.4863 25.9319C88.2818 27.4575 87.4636 28.305 86.35 28.305C85.1909 28.305 84.5545 27.5931 83.9863 26.1692L83.9409 26.0675C83.7136 27.5253 82.8954 28.3389 81.7591 28.3389H81.2363V27.7287Z" fill="#292D32"/>
<path d="M95.3948 27.7286H95.5312C96.6221 27.7286 97.0766 26.7793 97.0766 25.2198V14.2696C97.0766 13.6594 97.0539 13.4221 96.5084 13.1848L98.1221 12.6763V25.2198C98.1221 27.2539 97.213 28.3727 95.8721 28.3727H95.3721V27.7286H95.3948Z" fill="#292D32"/>
<path d="M100.554 14.2359C100.554 13.6257 100.532 13.3884 99.9634 13.1511L101.577 12.6426V28.339H100.554V14.2359Z" fill="#292D32"/>
<path d="M111.69 25.7284C111.554 26.203 111.372 26.6437 111.145 27.0505C110.736 27.6947 110.122 28.3388 109.099 28.3388C107.463 28.3388 106.258 25.6606 106.258 22.6772C106.258 19.8973 107.508 17.1174 109.486 17.1174C110.713 17.1174 111.508 18.3717 111.736 18.3717C112.031 18.3717 112.076 17.6598 112.19 17.3886H112.622C112.554 17.931 112.554 18.5751 112.554 19.0837V25.5928C112.554 26.3047 112.622 27.6268 113.622 27.7286H115.281V28.3388H114.076C112.895 28.3388 111.94 28.1015 111.69 25.7284ZM109.463 17.7276C108.031 17.7276 107.326 20.1685 107.326 22.8128C107.326 26.5759 108.531 27.6946 109.304 27.6946C110.236 27.6946 111.031 26.7454 111.326 25.3554C111.486 24.5418 111.531 23.6604 111.531 22.3043C111.531 20.1685 111.304 17.7276 109.463 17.7276ZM108.667 14.507C108.326 14.507 108.054 14.134 108.054 13.6255C108.054 13.0831 108.326 12.6763 108.667 12.6763C109.008 12.6763 109.281 13.0831 109.281 13.6255C109.281 14.1679 109.008 14.507 108.667 14.507ZM110.849 14.507C110.486 14.507 110.213 14.134 110.213 13.6255C110.213 13.0831 110.486 12.6763 110.849 12.6763C111.19 12.6763 111.44 13.0831 111.44 13.6255C111.44 14.1679 111.167 14.507 110.849 14.507Z" fill="#292D32"/>
<path d="M120.554 28.3389C119.395 28.3389 118.668 27.627 118.145 25.9658C117.963 27.4914 117.122 28.3389 115.963 28.3389H114.94V27.7287H115.668C116.713 27.6948 117.145 26.7794 117.145 25.22V18.9482C117.145 18.3379 117.122 18.2362 116.577 17.9989L118.19 17.4904V23.6944C118.19 25.3217 118.918 27.7287 120.213 27.7287H120.713V28.3389H120.554ZM118.463 14.541V13.9986H117.895C117.1 13.9986 116.69 12.7442 116.69 11.9645C116.69 11.422 116.895 10.8457 117.327 10.8457C117.531 10.8457 117.713 10.8796 117.781 11.1508C117.69 11.2525 117.577 11.4898 117.577 11.6933C117.577 11.9645 117.736 12.2018 117.918 12.2018C118.1 12.2018 118.236 12.0662 118.236 11.5916C118.236 10.8796 117.85 10.3711 117.35 10.3711C116.622 10.3711 116.168 11.2525 116.168 12.2696C116.168 13.0493 116.554 13.6934 116.895 13.9986H116.031L115.895 14.541H118.463Z" fill="#292D32"/>
<path d="M120.554 32.6781C120.213 32.6781 119.94 32.3052 119.94 31.7628C119.94 31.2543 120.213 30.8474 120.554 30.8474C120.917 30.8474 121.167 31.2543 121.167 31.7628C121.144 32.3052 120.894 32.6781 120.554 32.6781ZM126.031 28.3387C124.872 28.3387 124.144 27.6268 123.599 25.9656C123.417 27.4912 122.576 28.3387 121.417 28.3387H120.394V27.7285H121.122C122.167 27.6946 122.599 26.7792 122.599 25.2198V18.948C122.599 18.3378 122.576 18.2361 122.031 17.9988L123.644 17.4902V23.6942C123.644 25.3215 124.372 27.7285 125.667 27.7285H126.167V28.3387H126.031ZM122.713 32.6781C122.349 32.6781 122.076 32.3052 122.076 31.7628C122.076 31.2543 122.326 30.8474 122.713 30.8474C123.054 30.8474 123.326 31.2543 123.326 31.7628C123.326 32.3052 123.054 32.6781 122.713 32.6781Z" fill="#292D32"/>
<path d="M134.986 28.3389H125.872V27.7287H127.236C127.258 27.5253 127.281 27.3558 127.304 27.1863C127.327 26.8472 127.372 26.5421 127.418 26.237C127.713 24.1351 128.622 22.2366 130.168 22.2366C131.508 22.2366 132.258 23.6266 132.258 25.0844C132.258 26.1353 131.827 27.2202 130.849 27.7287H133.758C133.758 21.9315 132.145 19.016 130.69 19.016C128.781 19.016 128.213 20.6772 127.94 23.0503H127.758C127.781 19.6262 129.19 18.4058 130.69 18.4058H130.713C133.19 18.4058 135.031 23.1859 135.031 27.7626V28.3389H134.986ZM127.599 27.7287H128.486C129.69 27.7287 131.281 26.9489 131.281 24.6775C131.281 23.5249 130.622 22.9147 129.963 22.9147C129.008 22.9147 128.031 24.2707 127.781 26.1014L127.599 27.7287Z" fill="#292D32"/>
<path d="M8.05398 44.7812H7.66761C7.39489 42.6454 6.62216 40.1706 4.89489 40.1706C3.55398 40.1706 2.03125 41.6283 2.03125 46.8492C2.03125 52.07 3.34943 53.5278 4.96307 53.5278C6.7358 53.5278 7.7358 51.4259 7.80398 48.4425H8.25852C8.25852 51.9005 7.03125 54.1041 4.96307 54.1041C2.19034 54.1041 0.78125 50.3749 0.78125 46.8492C0.78125 42.7132 2.69034 39.5942 4.96307 39.5942C6.28125 39.5942 6.94034 40.9164 7.2358 40.9164C7.4858 40.9164 7.59943 40.3062 7.66761 40.0688H8.05398V44.7812Z" fill="#292D32"/>
<path d="M13.3946 47.0187V52.4429C13.3946 53.0532 13.5537 53.1888 13.7583 53.1888C14.031 53.1888 14.1901 52.8158 14.1901 51.5954H14.5764C14.5764 52.9515 14.3264 53.8668 13.4628 53.8668C12.8264 53.8668 12.531 53.2566 12.5083 52.1039H12.4855C12.0992 53.2227 11.3946 54.1041 10.3946 54.1041C9.50825 54.1041 8.55371 53.2905 8.55371 51.731C8.55371 49.1545 11.2355 48.4426 12.4855 47.934V46.4763C12.4855 45.3236 12.0764 44.5778 11.0992 44.5778C10.531 44.5778 9.94007 44.8829 9.57644 45.3236L9.59916 45.3575C9.87189 45.3575 10.1673 45.6626 10.1673 46.239C10.1673 46.7136 9.94007 47.2221 9.53098 47.2221C9.14462 47.2221 8.91735 46.7814 8.91735 46.0694C8.91735 44.9507 9.84916 44.0015 11.0764 44.0015C12.5537 44.0693 13.3946 44.7812 13.3946 47.0187ZM12.4628 48.5104C11.2128 48.9172 9.57644 49.4935 9.57644 51.9005C9.57644 52.8498 10.1446 53.46 10.6901 53.46C11.6673 53.46 12.4628 51.8666 12.4628 50.002V48.5104Z" fill="#292D32"/>
<path d="M15.4174 45.6963C15.4174 45.0861 15.1902 44.8827 14.3265 44.8827V44.3064L16.3265 44.1708V45.9675H16.3493C16.8038 45.0183 17.122 44.0352 18.3493 44.0352C19.9856 44.0352 21.0993 46.51 21.0993 49.0865C21.0993 51.6291 19.9856 54.1378 18.122 54.1378C17.372 54.1378 16.7583 53.6971 16.3493 52.8496H16.3265V55.9685C16.3265 56.5787 16.5538 56.7821 17.4402 56.7821V57.3584H14.2129V56.7821C15.1674 56.7821 15.3947 56.5787 15.3947 55.9685V45.6963H15.4174ZM16.3493 49.0865C16.3493 52.5783 16.8265 53.5615 18.2356 53.5615C19.2356 53.5615 20.122 52.3071 20.122 49.0865C20.122 45.8997 19.2356 44.6115 18.2356 44.6115C17.2129 44.6115 16.3493 45.8997 16.3493 49.0865Z" fill="#292D32"/>
<path d="M24.7351 53.8666H21.5078V53.2902C22.4624 53.2902 22.6896 53.0868 22.6896 52.4766V45.6624C22.6896 45.0522 22.4624 44.8488 21.5987 44.8488V44.2724L23.6214 44.1368V52.4427C23.6214 53.0529 23.8487 53.2563 24.7351 53.2563V53.8666ZM23.6896 40.984C23.6896 41.5264 23.4169 41.9332 23.0305 41.9332C22.6669 41.9332 22.3714 41.5264 22.3714 40.984C22.3714 40.4416 22.6669 40.0009 23.0305 40.0009C23.3942 39.967 23.6896 40.4077 23.6896 40.984Z" fill="#292D32"/>
<path d="M28.7351 44.0689V44.6452H26.6896V51.8663C26.6896 53.1206 27.0987 53.5614 27.576 53.5614C27.9851 53.5614 28.576 53.1206 28.576 51.4934V50.6119H28.9624V51.3578C28.9624 52.985 28.4624 54.1377 27.3487 54.1377C26.3487 54.1377 25.7805 53.324 25.7805 51.7646V44.6114H24.7578V44.035C25.8942 44.035 26.2351 42.3738 26.326 40.9839H26.7124V44.035H28.7351V44.0689Z" fill="#292D32"/>
<path d="M34.2816 47.0187V52.4429C34.2816 53.0532 34.4407 53.1888 34.6452 53.1888C34.8952 53.1888 35.0543 52.8158 35.0543 51.5954H35.4407C35.4407 52.9515 35.1907 53.8668 34.3271 53.8668C33.6907 53.8668 33.3952 53.2566 33.3725 52.1039H33.3498C32.9634 53.2227 32.2589 54.1041 31.2589 54.1041C30.3725 54.1041 29.418 53.2905 29.418 51.731C29.418 49.1545 32.0998 48.4426 33.3498 47.934V46.4763C33.3498 45.3236 32.9407 44.5778 31.9634 44.5778C31.3952 44.5778 30.8043 44.8829 30.4407 45.3236L30.4634 45.3575C30.7362 45.3575 31.0316 45.6626 31.0316 46.239C31.0316 46.7136 30.8043 47.2221 30.3952 47.2221C30.0089 47.2221 29.7816 46.7814 29.7816 46.0694C29.7816 44.9507 30.7134 44.0015 31.9407 44.0015C33.418 44.0693 34.2816 44.7812 34.2816 47.0187ZM33.3498 48.5104C32.0998 48.9172 30.4634 49.4935 30.4634 51.9005C30.4634 52.8498 31.0316 53.46 31.5771 53.46C32.5543 53.46 33.3498 51.8666 33.3498 50.002V48.5104Z" fill="#292D32"/>
<path d="M37.599 52.4771C37.599 53.0873 37.8263 53.2907 38.7126 53.2907V53.867H35.4854V53.2907C36.4399 53.2907 36.6672 53.0873 36.6672 52.4771V41.3235C36.6672 40.7133 36.4399 40.5099 35.599 40.5099V39.9335L37.599 39.8657V52.4771Z" fill="#292D32"/>
<path d="M42.4863 39.8657H45.1454L47.6 51.1549H47.6454L50.2363 39.8657H52.7818V40.4421C51.7136 40.4421 51.5318 40.5437 51.5318 41.832V51.9008C51.5318 53.189 51.7136 53.2907 52.8045 53.2907V53.867H49.2136V53.2907C50.35 53.2907 50.5091 53.189 50.5091 51.9008V40.9167H50.4863L47.4636 53.867H47.1454L44.2591 40.9167H44.2363V51.833C44.2363 52.85 44.5545 53.2568 45.5318 53.2907V53.867H42.4863V53.2907C43.4409 53.2568 43.7591 52.8161 43.7591 51.833V41.832C43.7591 40.5437 43.5772 40.4421 42.4863 40.4421V39.8657Z" fill="#292D32"/>
<path d="M58.0079 47.0187V52.4429C58.0079 53.0532 58.167 53.1888 58.3715 53.1888C58.6215 53.1888 58.8034 52.8158 58.8034 51.5954H59.1897C59.1897 52.9515 58.9397 53.8668 58.0761 53.8668C57.4397 53.8668 57.1443 53.2566 57.1215 52.1039H57.0988C56.7125 53.2227 56.0079 54.1041 55.0079 54.1041C54.1215 54.1041 53.167 53.2905 53.167 51.731C53.167 49.1545 55.8488 48.4426 57.0988 47.934V46.4763C57.0988 45.3236 56.6897 44.5778 55.7124 44.5778C55.1443 44.5778 54.5534 44.8829 54.1897 45.3236L54.2124 45.3575C54.4852 45.3575 54.7806 45.6626 54.7806 46.239C54.7806 46.7136 54.5534 47.2221 54.1443 47.2221C53.7579 47.2221 53.5306 46.7814 53.5306 46.0694C53.5306 44.9507 54.4624 44.0015 55.6897 44.0015C57.167 44.0693 58.0079 44.7812 58.0079 47.0187ZM57.0761 48.5104C55.8261 48.9172 54.167 49.4935 54.167 51.9005C54.167 52.8498 54.7352 53.46 55.2806 53.46C56.2579 53.46 57.0534 51.8666 57.0534 50.002V48.5104H57.0761Z" fill="#292D32"/>
<path d="M60.3493 45.6963C60.3493 45.0861 60.122 44.8827 59.2583 44.8827V44.3064L61.2583 44.1708V46.6117H61.3038C61.5993 45.4251 62.0993 44.0352 63.0765 44.0352C63.622 44.0352 64.122 44.5437 64.122 45.4251C64.122 46.0354 63.872 46.4083 63.4856 46.4083C63.122 46.4083 62.8493 46.1031 62.8493 45.4929C62.8493 45.12 62.9629 44.8488 63.1674 44.6793C63.122 44.6115 63.0538 44.5776 62.9629 44.5776C62.5993 44.5776 61.7811 45.1878 61.4174 47.527C61.2356 48.8153 61.2356 50.7138 61.2356 52.0359C61.2356 53.053 61.4629 53.2564 62.4629 53.2564V53.8327H59.2129V53.2564C60.0993 53.2564 60.3038 53.053 60.3038 52.4427V45.6963H60.3493Z" fill="#292D32"/>
<path d="M70.7132 44.3066V44.8829C69.6904 45.0185 69.3041 45.4932 67.5995 48.0358L69.3723 52.0701C69.895 53.2905 70.0541 53.3244 70.8268 53.3244V53.9008H69.145L66.9404 48.9172L66.3041 49.7648V52.5108C66.3041 53.121 66.5313 53.3244 67.4177 53.3244V53.9008H64.1904V53.3244C65.145 53.3244 65.3723 53.121 65.3723 52.5108V41.3572C65.3723 40.747 65.145 40.5436 64.2813 40.5436V39.9672L66.2813 39.8994V49.0867L68.3722 46.239C68.5995 45.9 68.8041 45.6288 68.8041 45.2898C68.8041 44.9507 68.5541 44.8829 67.7586 44.8829V44.3066H70.7132Z" fill="#292D32"/>
<path d="M71.8723 48.8494V49.4257C71.8723 51.731 72.6223 53.5278 73.9632 53.5278C75.1451 53.5278 75.6223 52.7142 76.1451 51.5615L76.486 51.9005C75.6678 53.6973 75.0314 54.1041 73.8723 54.1041C72.0087 54.1041 70.8496 51.5954 70.8496 49.0528C70.8496 46.0694 71.9632 44.0015 73.8042 44.0015C75.5087 44.0015 76.486 46.4085 76.486 48.8155H71.8723V48.8494ZM75.4405 48.273C75.4405 46.6119 75.0996 44.6117 73.7132 44.6117C72.4632 44.6117 71.8951 46.5102 71.8951 48.273H75.4405Z" fill="#292D32"/>
<path d="M80.4404 44.0689V44.6452H78.395V51.8663C78.395 53.1206 78.8041 53.5614 79.2813 53.5614C79.6904 53.5614 80.2813 53.1206 80.2813 51.4934V50.6119H80.6677V51.3578C80.6677 52.985 80.1677 54.1377 79.0313 54.1377C78.0313 54.1377 77.4632 53.324 77.4632 51.7646V44.6114H76.4404V44.035C77.5995 44.035 77.9177 42.3738 77.9859 40.9839H78.3722V44.035H80.4404V44.0689Z" fill="#292D32"/>
<path d="M83.4399 53.867V53.2907C84.3263 53.2907 84.6218 53.1212 84.8036 52.4093L87.9399 39.8657H88.2808L91.4172 52.5449C91.5763 53.189 91.8945 53.3246 92.599 53.3246V53.901H89.1218V53.3246C90.1445 53.3246 90.3263 53.1551 90.3263 52.7483C90.3263 52.172 89.6445 49.7989 89.5081 49.1208H86.099C86.0308 49.4598 85.3263 52.172 85.3263 52.7822C85.3263 53.2568 85.6218 53.3246 86.5536 53.3246V53.901H83.4399V53.867ZM86.2809 48.4089H89.3718L87.849 42.1371L86.2809 48.4089Z" fill="#292D32"/>
<path d="M97.9178 52.4769C97.9178 53.0871 98.1224 53.2905 98.9406 53.2905V53.8669L96.986 53.9686V52.443H96.9633C96.486 53.46 95.986 54.0703 94.9178 54.0703C93.736 54.0703 92.8724 53.4261 92.8724 51.3921V45.6288C92.8724 45.0186 92.6451 44.8152 91.8042 44.8152V44.2388L93.8042 44.1032V51.4938C93.8042 52.782 94.2815 53.46 95.0997 53.46C96.236 53.46 97.0087 52.0701 97.0087 49.7987V45.5949C97.0087 44.9847 96.7815 44.7813 95.9178 44.7813V44.2049L97.9406 44.0693V52.4769H97.9178Z" fill="#292D32"/>
<path d="M102.622 44.0689V44.6452H100.577V51.8663C100.577 53.1206 100.986 53.5614 101.463 53.5614C101.849 53.5614 102.463 53.1206 102.463 51.4934V50.6119H102.849V51.3578C102.849 52.985 102.349 54.1377 101.236 54.1377C100.236 54.1377 99.6675 53.324 99.6675 51.7646V44.6114H98.6675V44.035C99.8038 44.035 100.145 42.3738 100.213 40.9839H100.599V44.035H102.622V44.0689Z" fill="#292D32"/>
<path d="M108.372 53.867V47.2562C108.372 46.2053 108.372 44.6119 107.122 44.6119C106.054 44.6119 105.19 46.1714 105.19 48.8496V52.4771C105.19 53.0873 105.417 53.2907 106.281 53.2907V53.867H103.099V53.2907C104.054 53.2907 104.258 53.0873 104.258 52.4771V41.3235C104.258 40.7133 104.031 40.5099 103.167 40.5099V39.9335L105.167 39.8657V45.968H105.19C105.667 44.6797 106.258 44.0695 107.326 44.0695C108.531 44.0695 109.304 44.9509 109.304 47.0867V52.511C109.304 53.1212 109.463 53.3246 110.372 53.3246V53.901H108.372V53.867Z" fill="#292D32"/>
<path d="M110.281 49.0865C110.281 46.5439 111.395 44.0352 113.236 44.0352C115.099 44.0352 116.19 46.51 116.19 49.0865C116.19 51.6291 115.099 54.1378 113.236 54.1378C111.395 54.1378 110.281 51.6291 110.281 49.0865ZM115.168 49.0865C115.168 46.2049 114.554 44.6115 113.236 44.6115C111.918 44.6115 111.304 46.2049 111.304 49.0865C111.304 51.9681 111.918 53.5615 113.236 53.5615C114.577 53.5615 115.168 51.9681 115.168 49.0865Z" fill="#292D32"/>
<path d="M117.167 45.6963C117.167 45.0861 116.94 44.8827 116.076 44.8827V44.3064L118.099 44.1708V46.6117H118.122C118.44 45.4251 118.917 44.0352 119.917 44.0352C120.463 44.0352 120.963 44.5437 120.963 45.4251C120.963 46.0354 120.713 46.4083 120.326 46.4083C119.963 46.4083 119.69 46.1031 119.69 45.4929C119.69 45.12 119.804 44.8488 120.008 44.6793C119.963 44.6115 119.895 44.5776 119.804 44.5776C119.44 44.5776 118.622 45.1878 118.258 47.527C118.076 48.8153 118.076 50.7138 118.076 52.0359C118.076 53.053 118.281 53.2564 119.304 53.2564V53.8327H116.054V53.2564C116.917 53.2564 117.145 53.053 117.145 52.4427V45.6963H117.167Z" fill="#292D32"/>
<path d="M124.509 53.8666H121.281V53.2902C122.236 53.2902 122.463 53.0868 122.463 52.4766V45.6624C122.463 45.0522 122.236 44.8488 121.395 44.8488V44.2724L123.395 44.1368V52.4427C123.395 53.0529 123.599 53.2563 124.509 53.2563V53.8666ZM123.463 40.984C123.463 41.5264 123.168 41.9332 122.804 41.9332C122.44 41.9332 122.145 41.5264 122.145 40.984C122.145 40.4416 122.44 40.0009 122.804 40.0009C123.168 39.967 123.463 40.4077 123.463 40.984Z" fill="#292D32"/>
<path d="M128.236 44.171V44.7473H126.19V52.0022C126.19 53.2566 126.599 53.6973 127.077 53.6973C127.486 53.6973 128.077 53.2566 128.077 51.6293V50.714H128.463V51.4598C128.463 53.0871 127.963 54.2397 126.827 54.2397C125.827 54.2397 125.259 53.4261 125.259 51.8666V44.7134H124.236V44.1371C125.372 44.1371 125.713 42.4759 125.781 41.0859H126.168V44.1371H128.236V44.171Z" fill="#292D32"/>
<path d="M128.099 44.1709H131.168V44.7472C130.168 44.7472 130.054 44.9167 130.054 45.2218C130.054 45.7304 130.849 48.4425 131.758 51.7648H131.781C132.69 48.3069 133.395 46.0694 133.395 45.3913C133.395 44.9167 133.19 44.7472 132.372 44.7472V44.1709H134.963V44.7472C134.258 44.7472 134.054 44.9506 133.781 45.8999L131.736 53.5277C130.986 56.3415 130.531 57.1891 129.508 57.1891C128.804 57.1891 128.213 56.4771 128.213 55.5618C128.213 54.9177 128.531 54.4769 128.895 54.4769C129.236 54.4769 129.508 54.816 129.508 55.2567C129.508 55.8669 129.281 56.2059 128.872 56.2398C128.963 56.4771 129.236 56.6128 129.577 56.6128C130.349 56.6128 130.918 55.3923 131.258 53.4938L129.122 45.493C128.963 44.8489 128.622 44.7133 128.077 44.7133V44.1709H128.099Z" fill="#292D32"/>
<mask id="mask0_306_16988" style="mask-type:luminance" maskUnits="userSpaceOnUse" x="155" y="0" width="23" height="68">
<path d="M155.031 67.4272L177.793 44.6492L155.08 0.302246L155.031 67.4272Z" fill="white"/>
</mask>
<g mask="url(#mask0_306_16988)">
<path d="M173.058 -8.93555L205.05 53.4501L159.817 76.6634L127.825 14.3261L173.058 -8.93555Z" fill="#606F7A"/>
</g>
<path d="M199.394 23.0802L222.156 0.302246H155.08L199.394 23.0802Z" fill="#292D32"/>
<path d="M177.793 44.6489L155.031 67.4269H222.156L177.793 44.6489Z" fill="#292D32"/>
<mask id="mask1_306_16988" style="mask-type:luminance" maskUnits="userSpaceOnUse" x="199" y="0" width="24" height="68">
<path d="M199.394 23.0803L222.156 67.4272V0.302246L199.394 23.0803Z" fill="white"/>
</mask>
<g mask="url(#mask1_306_16988)">
<path d="M204.13 76.7117L172.139 14.3261L217.42 -8.93555L249.412 53.4501L204.13 76.7117Z" fill="#606F7A"/>
</g>
</svg>
