<svg width="320" height="100" viewBox="0 0 320 100" fill="none" xmlns="http://www.w3.org/2000/svg">
<path d="M6.08983 74.3025C4.03068 73.1862 2.97919 72.3025 2.97919 70.5816C2.97919 68.8607 3.63637 67.8839 5.43265 67.8839C7.22893 67.8839 8.41184 69.6513 8.80615 71.3258V71.4653L9.85763 71.2327V71.0932C9.68238 69.5583 9.55095 68.5351 9.46332 67.6048V67.1862H9.33189C9.20045 67.1862 9.06902 67.0932 8.93758 67.0932C8.28041 66.9537 7.1413 66.6746 5.95839 66.6746C3.28588 66.6746 0.569553 68.3025 0.569553 71.4653C0.569553 74.6281 2.05915 75.3257 4.77548 76.9071C6.87844 78.1164 7.8861 78.9071 7.8861 80.8606C7.8861 82.8141 6.79081 83.6978 5.16978 83.6978C2.71632 83.6978 1.57722 81.4653 1.05148 79.6048V79.4653L0 79.7443V79.8839C0.175247 81.2327 0.481931 83.2792 0.700989 84.0234C0.700989 84.0699 0.788611 84.1164 0.788611 84.1164C1.8839 84.535 3.19825 85.0001 4.73166 85.0001C8.06135 85.0001 10.471 82.8141 10.471 79.8374C10.471 76.8606 8.9814 75.9304 6.08983 74.3025Z" fill="#A7B2B9"/>
<path d="M16.6488 79.1856L16.9117 79.046C17.4374 78.8135 18.1384 78.4414 18.6204 78.2088V82.1158C18.1822 82.5809 17.4374 82.9065 16.8679 82.9065C16.2983 82.9065 15.2469 82.3949 15.2469 80.9995C15.2469 79.6042 15.8164 79.6042 16.6488 79.1856ZM22.5634 82.4879C22.2567 82.674 21.9939 82.767 21.731 82.767C21.1176 82.767 20.9862 81.9763 20.9862 81.2786V76.2554C20.9862 74.8135 20.5919 73.8368 19.628 73.0461C19.0147 72.5345 18.2261 72.3019 17.3498 72.3019C15.7726 72.674 14.2392 73.7437 13.6258 74.1623C13.1001 74.5809 12.7496 74.9065 12.7496 75.3717C12.7496 76.1158 13.4506 76.7205 14.0639 76.7205C14.6773 76.7205 14.8526 76.4879 14.984 75.9298C15.2031 75.1856 15.3783 74.6275 15.5974 74.2554C15.904 73.8833 16.2107 73.6972 16.6488 73.6972C17.8756 73.6972 18.6204 74.7205 18.6204 76.3949V76.953C18.0508 77.4181 16.386 78.0228 15.0278 78.5344L14.7211 78.6275C13.2753 79.1856 12.6182 80.0693 12.6182 81.4181C12.6182 82.767 13.8449 84.86 15.8602 84.86C17.8756 84.86 17.5689 84.1158 18.4889 83.4181C18.5766 83.3716 18.6642 83.2786 18.7518 83.2321C18.8832 83.6042 19.0147 83.9298 19.3213 84.2553C19.5842 84.5809 20.1538 84.8135 20.6795 84.8135L23.0453 83.3716L22.6948 82.3484L22.5634 82.4414V82.4879Z" fill="#A7B2B9"/>
<path d="M34.5674 81.3721V72.3489H34.436C33.6912 72.535 31.9387 72.7675 30.3615 72.8606H30.2301V73.8373L31.1063 73.9768C31.8511 74.1164 32.114 74.2094 32.114 75.5582V81.7443C31.3692 82.4884 30.5806 82.8605 29.7043 82.8605C28.8281 82.8605 27.6452 82.4884 27.6452 80.1164V76.4419C27.6452 74.721 27.6452 73.4187 27.7328 72.535V72.3489H27.6014C26.8128 72.4885 25.0165 72.7675 23.8336 72.8141H23.7021V73.7443L24.4908 73.9303C25.0165 74.0698 25.2356 74.1164 25.2356 75.5117V80.721C25.2356 84.3954 27.5138 84.814 28.5214 84.814C29.5291 84.814 30.9311 84.0233 32.1578 82.9535V84.8605H32.333C33.8226 84.3489 35.1808 84.0698 36.3199 83.8838H36.4075V82.8605H35.6189C34.7865 82.7675 34.6113 82.6745 34.6113 81.3721" fill="#A7B2B9"/>
<path d="M46.2207 74.8602V82.0695C45.695 82.4881 44.8626 82.8602 44.074 82.8602C42.4968 82.8602 40.7881 81.1393 40.7881 78.0695C40.7881 74.9998 43.3292 73.5579 43.8549 73.5579C44.8626 73.5579 45.7826 74.023 46.2207 74.8137M48.6742 81.2788V65.1858H48.499C47.4913 65.6044 45.695 65.9765 44.4245 66.1626H44.293V67.1393H44.4245C46.0893 67.3254 46.2207 67.3253 46.2207 68.9067V72.4881C45.6074 72.3021 44.8626 72.3021 44.775 72.3021C41.0948 72.3021 38.0718 75.2788 38.0718 78.9067C38.0718 82.5346 40.9195 84.9067 42.9349 84.9067C44.9502 84.9067 43.7673 84.8137 44.8626 84.1625C45.0816 84.023 45.3445 83.8369 45.6512 83.6509C45.8264 83.5114 46.0455 83.4183 46.2207 83.2788V84.9067H46.396C47.7542 84.3486 49.3752 84.0695 50.1638 83.9299C50.2952 83.9299 50.3829 83.93 50.4267 83.8834H50.5143V82.8602H49.6381C48.8056 82.7207 48.6304 82.6276 48.6304 81.2788" fill="#A7B2B9"/>
<path d="M55.2894 81.5113V72.1624L55.1142 72.2555C54.0189 72.7206 52.7483 73.0927 51.3902 73.2787H51.3026V74.2089H51.3902C52.7922 74.4415 52.7921 74.5345 52.7921 76.1159V81.5578C52.7921 83.3252 52.6607 83.4182 51.2149 83.5577H51.0835V84.581H56.9981V83.5577H56.8666C55.377 83.3717 55.2018 83.3252 55.2018 81.5578" fill="#A7B2B9"/>
<path d="M53.9318 70.0222C54.7643 70.0222 55.4653 69.278 55.4653 68.3943C55.4653 67.5106 54.8081 66.7199 53.9757 66.7199C53.1432 66.7199 52.3984 67.4641 52.3984 68.3943C52.3984 69.3246 53.0994 70.0222 53.9318 70.0222Z" fill="#A7B2B9"/>
<path d="M76.0126 79.7432C74.6544 82.5804 73.3401 83.6037 71.0619 83.6037C67.2503 83.6037 64.753 80.3479 64.753 75.3712C64.753 70.3944 67.075 67.8828 70.799 67.8828C74.523 67.8828 72.7267 68.0689 73.2963 68.3479C74.4354 68.8595 75.0925 69.7898 75.6621 71.7433V71.8828L76.7574 71.6503V71.5107C76.4945 69.8363 76.3193 67.9293 76.2755 67.3247V67.2317H76.1878C76.0126 67.2317 75.7935 67.1386 75.4869 67.0921C74.523 66.9061 73.121 66.5805 71.4124 66.5805C65.7168 66.5805 61.73 70.4409 61.73 75.8828C61.73 81.3246 64.5777 84.906 70.9742 84.906C77.3708 84.906 74.523 84.4874 75.3992 84.3014H75.6621C75.6621 84.2549 75.6621 84.1618 75.6621 84.1618C76.0564 83.3246 76.6698 81.4177 77.0641 80.0688V79.9293L76.1002 79.5572V79.6502H76.0564L76.0126 79.7432Z" fill="#A7B2B9"/>
<path d="M81.8396 76.6275C82.1463 74.7671 83.1102 73.5578 84.2055 73.5578C85.3008 73.5578 85.1693 73.7438 85.5198 74.1624C85.9579 74.674 86.2208 75.3717 86.2208 76.1159C86.2208 76.395 86.177 76.5345 85.7389 76.5345C84.3807 76.581 83.0664 76.6275 81.8396 76.6275ZM84.775 72.2555C83.373 72.2555 82.0149 72.9996 80.9196 74.2089C79.8243 75.4182 79.2109 77.1392 79.2109 78.9996C79.2109 81.9298 80.9634 84.8601 84.2931 84.8601C87.6228 84.8601 86.7465 84.7205 88.6304 82.1624V82.0694C88.6743 82.0694 88.1485 81.2322 88.1485 81.2322L88.0609 81.3252C87.1408 82.2089 86.2208 82.6275 85.2569 82.6275C84.2931 82.6275 83.5045 82.2554 82.8911 81.5578C82.1025 80.7205 81.7082 79.5112 81.7082 77.9764C84.4245 77.8833 87.7104 77.6508 88.2799 77.5113C88.7619 77.3717 88.8057 76.9996 88.8495 76.488C88.8495 75.3717 88.4114 74.2555 87.6666 73.4182C86.9218 72.581 85.9141 72.1624 84.8626 72.1624" fill="#A7B2B9"/>
<path d="M102.432 81.6042V76.5345C102.432 73.8833 101.117 72.2554 99.0582 72.2554C96.9991 72.2554 97.5686 72.6275 96.9553 73.0461C96.3857 73.4647 95.86 73.8368 95.4657 74.1159V72.1159L95.2904 72.2089C94.2828 72.674 93.0122 73.0461 91.6103 73.2787H91.5226V74.2554H91.6103C92.8808 74.4879 93.0122 74.5345 93.0122 76.1624V81.6507C93.0122 83.3717 92.8808 83.3716 91.3912 83.5577H91.2598V84.5809H96.9991V83.5577H96.8677C95.5095 83.3716 95.4657 83.3717 95.4657 81.6507V75.4647C96.3419 74.674 97.1743 74.2554 97.9629 74.2554C99.3211 74.2554 100.022 75.2321 100.022 77.1391V81.5577C100.022 83.3716 99.8907 83.4182 98.6201 83.5577H98.4887V84.5809H104.009V83.5577H103.878C102.519 83.3716 102.432 83.3717 102.432 81.6507" fill="#A7B2B9"/>
<path d="M111.764 82.6277C111.282 82.8602 110.8 82.9997 110.362 82.9997C109.486 82.9997 109.047 82.2091 109.047 80.6277V74.023H111.632C111.808 73.837 111.939 73.6044 111.983 73.2789C111.983 73.0463 111.983 72.7672 111.808 72.6277H109.091C109.091 71.3254 109.091 69.837 109.179 68.7672V68.6742L108.653 68.5347C108.39 68.8603 108.04 69.1393 107.733 69.4649C107.383 69.7905 107.032 70.1161 106.769 70.3951V72.5812H105.718L104.929 73.5114L105.104 73.9765H106.769V81.5114C106.769 83.6974 107.689 84.8602 109.442 84.8602C111.194 84.8602 110.099 84.7672 110.537 84.4881L112.333 83.5114L112.027 82.5346H111.895C111.895 82.5811 111.895 82.5812 111.895 82.5812L111.764 82.6277Z" fill="#A7B2B9"/>
<path d="M121.928 72.2554C120.789 72.2554 119.782 73.4182 118.905 74.8135V72.1159L118.73 72.2089C117.591 72.7205 116.408 73.0461 115.05 73.2787H114.962V74.2089H115.094C116.408 74.3949 116.496 74.3949 116.496 76.0694V81.6507C116.496 83.3251 116.364 83.3717 114.919 83.5112H114.787V84.5344H120.921V83.5112H120.789C118.949 83.3251 118.862 83.2786 118.862 81.6042V76.6275C119.387 75.3252 120.264 74.7205 120.658 74.7205C121.052 74.7205 121.315 74.9531 121.709 75.3717C121.972 75.6042 122.235 75.6042 122.498 75.4647C122.98 75.1856 123.506 74.5345 123.506 73.7438C123.506 72.9531 122.936 72.2554 121.885 72.2554" fill="#A7B2B9"/>
<path d="M129.069 79.1856L129.332 79.046C129.858 78.8135 130.558 78.4414 131.04 78.2088V82.1158C130.602 82.5809 129.858 82.9065 129.288 82.9065C128.718 82.9065 127.667 82.3949 127.667 80.9995C127.667 79.6042 128.236 79.6042 129.069 79.1856ZM135.027 82.4879C134.721 82.674 134.458 82.767 134.195 82.767C133.581 82.767 133.45 81.9763 133.45 81.2786V76.2554C133.45 74.8135 133.056 73.8368 132.092 73.0461C131.479 72.5345 130.69 72.3019 129.814 72.3019C128.236 72.674 126.703 73.7437 126.09 74.1623C125.564 74.5809 125.213 74.9065 125.213 75.3717C125.213 76.1158 125.914 76.7205 126.484 76.7205C127.054 76.7205 127.273 76.4879 127.404 75.9763C127.623 75.1856 127.798 74.6275 128.061 74.3019C128.368 73.9298 128.675 73.7438 129.113 73.7438C130.339 73.7438 131.084 74.767 131.084 76.4414V76.9996C130.515 77.4647 128.85 78.0693 127.492 78.5809L127.185 78.674C125.739 79.2321 125.082 80.1158 125.082 81.4646C125.082 82.8135 126.309 84.9065 128.324 84.9065C130.339 84.9065 130.033 84.1623 130.953 83.4646C131.04 83.4181 131.128 83.3251 131.216 83.2786C131.347 83.6507 131.479 83.9763 131.785 84.3019C132.048 84.6274 132.618 84.86 133.143 84.86L135.509 83.4181L135.159 82.3949L135.027 82.4879Z" fill="#A7B2B9"/>
<path d="M140.066 81.6044V65.1858H139.891C139.058 65.5579 137.437 65.9765 136.035 66.1626H135.904V67.1393H135.992C137.481 67.3719 137.569 67.4649 137.569 68.9998V81.6044C137.569 83.2788 137.437 83.3718 135.948 83.5114H135.816V84.5346H141.731V83.5114H141.6C140.066 83.3253 139.979 83.2323 139.979 81.6044" fill="#A7B2B9"/>
<path d="M152.377 74.5807H151.282V69.6505C151.282 68.9063 151.325 68.6272 151.501 68.4877C151.72 68.3016 152.158 68.2551 152.815 68.2551C154.83 68.2551 156.057 69.4179 156.057 71.4179C156.057 73.4179 154.918 74.5807 152.421 74.5807M153.385 83.2783C152.508 83.2783 152.026 83.1388 151.72 82.8132C151.413 82.4876 151.282 81.9295 151.282 80.9528V75.7435H152.289C155.356 75.7435 156.89 76.9528 156.89 79.4644C156.89 81.976 155.006 83.2318 153.341 83.2318M155.838 74.9993C157.372 74.4877 158.817 73.1854 158.817 71.0458C158.817 68.9063 158.292 68.6737 157.284 67.9761C156.364 67.3249 155.093 67.0458 153.341 67.0458H146.462V68.0691H146.594C148.565 68.2551 148.697 68.4412 148.697 70.5342V81.0923C148.697 83.1853 148.565 83.3249 146.594 83.5109H146.462V84.5807H152.903C154.787 84.5807 156.101 84.2551 157.372 83.5109C158.949 82.5807 159.869 81.0458 159.869 79.3249C159.869 77.6039 158.467 75.6505 155.882 75.0458" fill="#A7B2B9"/>
<path d="M166.396 79.1856L166.659 79.046C167.185 78.8135 167.886 78.4414 168.368 78.2088V82.1158C167.929 82.5809 167.185 82.9065 166.615 82.9065C166.046 82.9065 164.994 82.3949 164.994 80.9995C164.994 79.6042 165.564 79.6042 166.396 79.1856ZM172.354 82.4879C172.048 82.674 171.785 82.767 171.522 82.767C170.909 82.767 170.777 81.9763 170.777 81.2786V76.2554C170.777 74.8135 170.383 73.8368 169.419 73.0461C168.806 72.5345 168.017 72.3019 167.141 72.3019C165.564 72.674 164.03 73.7437 163.417 74.1623C162.891 74.5809 162.541 74.9065 162.541 75.3717C162.541 76.1158 163.242 76.7205 163.855 76.7205C164.468 76.7205 164.644 76.4879 164.775 75.9298C164.994 75.1856 165.169 74.6275 165.388 74.2554C165.695 73.8833 166.002 73.6972 166.44 73.6972C167.667 73.6972 168.411 74.7205 168.411 76.3949V76.953C167.842 77.4181 166.177 78.0228 164.819 78.5344L164.512 78.6275C163.066 79.1856 162.409 80.0693 162.409 81.4181C162.409 82.767 163.636 84.86 165.651 84.86C167.667 84.86 167.36 84.1158 168.28 83.4181C168.368 83.3716 168.455 83.2786 168.543 83.2321C168.674 83.6042 168.806 83.9298 169.112 84.2553C169.375 84.5809 169.945 84.8135 170.471 84.8135L172.836 83.3716L172.486 82.3484L172.354 82.4414V82.4879Z" fill="#A7B2B9"/>
<path d="M184.404 81.6042V76.5345C184.404 73.8833 183.09 72.2554 181.031 72.2554C178.972 72.2554 179.541 72.6275 178.928 73.0461C178.358 73.4647 177.833 73.8368 177.438 74.1159V72.1159L177.263 72.2089C176.255 72.674 174.985 73.0461 173.583 73.2787H173.495V74.2554H173.583C174.853 74.4879 174.985 74.5345 174.985 76.1624V81.6507C174.985 83.3717 174.853 83.3716 173.364 83.5577H173.232V84.5809H178.972V83.5577H178.84C177.482 83.3716 177.438 83.3717 177.438 81.6507V75.4647C178.315 74.674 179.147 74.2554 179.936 74.2554C181.294 74.2554 181.995 75.2321 181.995 77.1391V81.5577C181.995 83.3716 181.863 83.4182 180.593 83.5577H180.461V84.5809H185.982V83.5577H185.85C184.492 83.3716 184.404 83.3717 184.404 81.6507" fill="#A7B2B9"/>
<path d="M199.65 83.5114C198.73 83.4183 198.38 83.3718 197.284 82.1625C196.54 81.3253 194.13 78.3021 193.517 77.3718C194.086 76.6277 195.05 75.4649 195.488 74.9998C196.54 73.837 197.065 73.6509 198.73 73.3719H198.818V72.3486L193.385 72.5812V73.6044H193.517C193.911 73.6044 194.437 73.7439 194.524 73.93C194.612 74.116 194.524 74.2091 194.305 74.4881C193.911 75.1393 192.991 76.3021 192.421 76.9067C192.027 77.3253 191.633 77.6044 191.063 77.7905V65.1858H190.888C189.793 65.6509 188.303 66.023 187.033 66.1626H186.901V67.0928H186.989C188.435 67.3719 188.566 67.3719 188.566 68.9533V81.5579C188.566 83.1858 188.478 83.3253 186.945 83.4648H186.813V84.4881H192.684V83.4648H192.553C191.019 83.2788 190.976 83.2323 190.976 81.5579V78.7207C191.107 78.7207 191.195 78.7207 191.238 78.7207C191.414 78.7207 191.501 78.8137 191.852 79.2323C191.939 79.3718 194.042 82.0695 195.138 83.5579C195.576 84.0695 195.839 84.4881 195.882 84.5346H195.926C196.496 84.5346 197.985 84.4881 199.519 84.4881H199.65V83.4648H199.519L199.65 83.5114Z" fill="#A7B2B9"/>
<path d="M81.8398 16.8603C81.9712 16.3022 82.9351 16.0231 82.7598 17.372C82.5408 17.5115 81.9712 17.1394 81.8398 16.8603ZM82.4532 18.5813C82.2779 18.8138 82.1027 18.9534 81.9274 19.1859C81.7084 19.4185 81.6207 19.558 81.3579 19.7906C80.9198 20.2092 80.5255 20.5347 80.0873 20.9068C79.693 21.2324 77.5901 22.8603 77.5024 23.1394C78.2034 22.9999 80.175 21.6975 80.7007 21.2789C81.2264 20.8603 82.3655 19.6975 82.716 19.0929C82.8037 18.9069 82.8037 18.9068 82.9351 18.7208C83.2418 18.9068 83.3294 18.9068 83.5923 19.1394C83.5923 19.1394 83.9428 18.4417 83.9428 18.2092C83.9428 17.8836 83.5485 17.7441 83.2418 17.6045C83.2418 16.9999 83.5046 16.2557 83.198 15.651C82.716 14.6278 81.095 16.2557 81.2702 17.465C81.3141 17.8371 81.5769 17.9766 81.7522 18.1627C81.8398 18.2557 81.9712 18.3487 82.1027 18.3952C82.1465 18.3952 82.2341 18.3952 82.2779 18.4882L82.4532 18.6278V18.5813ZM81.4893 22.2557C81.3579 22.3487 81.4455 22.2557 81.3579 22.4417C81.2264 22.7208 81.2264 23.6975 80.7445 24.0696C80.5255 24.2557 80.0435 24.3952 79.8683 24.0696C79.693 23.744 79.8683 23.2324 79.8683 22.8603C79.1673 23.2324 78.773 26.1161 80.5255 25.1859C82.2779 24.2557 80.7883 24.9999 80.9636 24.8603C81.2264 24.6743 81.2702 24.7673 81.5769 24.7673C83.198 24.7673 83.8551 22.1627 83.198 21.4185C83.0227 21.558 82.716 22.1161 82.7598 22.3952C82.8913 22.7673 83.3294 23.2789 82.2341 23.651C82.1465 23.651 82.015 23.6975 81.9274 23.6975C81.6646 23.6975 81.7522 23.6975 81.6646 23.558C81.4893 23.1394 81.8398 22.5347 81.4893 22.2557ZM111.719 24.2092C112.114 23.8371 112.771 22.2092 112.289 21.558C111.763 20.8603 110.274 21.2789 109.573 21.558C108.083 22.1626 106.331 23.3719 105.235 24.2557C104.184 25.0464 102.344 26.5812 101.467 27.651C100.372 29.0464 97.2615 33.4649 100.723 34.4882C103.264 35.2324 107.776 34.6742 110.317 34.4417C114.48 33.9766 118.685 33.5114 122.891 33.1394C125.301 32.9533 128.324 32.8138 129.945 34.6277C130.033 34.7208 130.734 35.5114 130.602 35.651C130.515 35.837 127.973 36.0231 127.623 36.0696C121.402 36.8603 115.356 37.7905 109.178 38.5347C106.287 38.8603 98.9702 39.3254 96.4291 38.1626C95.29 37.651 94.2823 36.6742 93.669 35.6045C93.4937 35.3254 93.187 34.5812 93.0994 34.4882C92.8803 34.5812 92.7927 34.7673 92.7051 35.0928C92.3546 36.3487 92.3546 36.6742 92.7051 37.5114C93.0994 38.3486 93.5375 39.3719 93.7566 40.3486C94.0633 41.744 93.9756 41.8835 92.8365 42.9998L90.7336 44.7207C89.1563 45.8835 84.6437 48.8137 82.8037 46.7207C82.1903 46.023 81.6207 45.1393 81.6646 44.023C82.1465 43.8835 82.7598 43.4649 83.198 43.2324C84.2933 42.6742 86.3962 41.2324 87.3163 40.3486C88.0173 39.651 88.8059 38.7207 88.8059 37.1393C88.8059 35.558 87.9734 35.0928 86.5715 34.6742C85.3885 34.3022 84.118 34.1626 83.0665 33.6045C82.5408 33.3254 81.9712 33.0463 82.3217 32.2091C82.8913 30.9068 84.2933 29.0929 85.3009 28.2091C87.4915 26.3487 87.6668 28.3487 87.9734 28.6278C88.3239 28.5347 88.5868 27.837 88.6306 27.3254C88.7621 26.1626 88.3239 24.8138 87.141 24.9998C86.44 25.0929 85.8267 25.651 85.3447 26.0231C85.1257 26.2092 85.0381 26.3022 84.8628 26.4882C83.8551 27.465 83.1103 28.5347 82.4532 29.7905C82.0151 30.5812 81.6207 31.651 81.4455 32.6742C81.1826 34.2091 81.2702 34.9533 82.1465 35.6975C83.417 36.7673 86.8343 36.7673 87.7106 37.651C87.8858 38.0231 86.7467 38.7207 86.5276 38.9068C86.0457 39.2324 85.6076 39.5114 85.0819 39.837C84.4685 40.2556 82.6284 41.3254 81.9274 41.5114C82.015 40.9068 82.4532 39.6975 82.4094 39.1858C81.9274 39.4184 81.6207 41.4184 81.4455 41.6975C81.3141 41.8835 80.4816 42.1626 80.2626 42.2091C77.8529 43.0928 74.3042 43.651 72.6832 41.3254C70.0983 37.651 73.2089 33.0463 73.2965 31.837C73.0775 31.837 72.9898 32.0231 72.8584 32.2091C72.727 32.3952 72.6394 32.5347 72.5517 32.7673C70.2735 36.8138 69.5725 44.9998 75.6624 45.4184C78.0282 45.6044 79.2987 44.7672 81.095 44.2091C80.9636 46.6277 81.6646 48.7207 83.2856 49.4184C85.3009 50.3486 88.2801 48.6742 89.9012 47.5579C91.566 46.3951 93.4937 44.8137 94.4137 42.9068C94.9833 41.651 94.7642 41.0928 94.8957 39.6975C95.2462 39.837 95.5967 40.0696 95.991 40.2556C96.3853 40.4417 96.7796 40.5812 97.1739 40.7207C99.5397 41.3719 103.746 41.3254 106.155 41.0928C110.011 40.7207 113.822 40.1626 117.634 39.6045C121.884 38.9998 126.221 38.3486 130.383 37.7905C131.084 37.6975 131.084 37.651 131.391 37.1393C133.012 34.3487 131.172 32.0696 128.718 31.1394C126.747 30.3952 125.082 30.4882 122.935 30.6743C121.007 30.8138 118.992 31.0463 117.108 31.2789C113.209 31.7905 105.98 32.7673 102.256 32.1161C101.774 32.0231 99.934 31.6975 100.285 30.9068C100.504 30.3487 102.826 28.1626 103.57 27.558C104.753 26.5812 105.892 25.651 107.382 24.7673C111.588 22.2557 111.106 23.9301 111.807 24.1161M35.6185 36.8138C35.0927 36.9068 34.4794 36.9998 33.9098 36.9068C33.4717 36.8138 32.8145 36.3952 33.2526 35.93C33.7346 35.3719 34.9613 35.651 35.6185 36.8138ZM0.306268 31.4184L0.218639 32.2091C0.0433921 33.651 0.569138 34.3952 1.1825 34.2091C1.00725 34.5347 0.875815 34.9068 0.788192 35.2789C0.350075 36.5812 0.131021 37.837 0.0872091 39.2789C-0.000414237 42.0231 0.700571 44.4882 3.24165 45.5114C6.52752 46.8602 12.1354 44.0696 14.8956 41.93C15.1146 41.744 15.3337 41.651 15.5527 41.4184C15.6842 41.3254 15.7718 41.2324 15.8594 41.1393L16.2099 40.8603C16.0785 41.5114 15.8594 42.1626 15.728 42.8603C15.4213 44.6742 15.246 47.7905 17.1299 48.3951C18.4881 48.8137 19.7587 47.8835 20.6787 47.3719C21.2921 47.0463 23.1322 45.6975 23.5265 45.5114C23.6579 45.744 23.7893 46.4882 24.0084 46.8602C25.7608 50.3486 29.7039 48.7672 32.0259 46.9998C33.4717 45.837 35.3556 44.1626 36.4509 42.6742C37.2395 41.6044 37.7652 40.1626 37.8091 38.7672C38.2034 38.5347 39.1234 38.1626 39.6053 37.93L44.337 35.744C43.8551 37.2324 43.1979 39.6975 43.636 41.2324C43.8113 41.744 44.1179 42.2091 44.4684 42.4417C45.8266 43.3719 47.7981 42.6742 48.981 41.651C49.8135 40.9068 50.5583 39.5114 51.0402 39.6045C51.2592 40.2091 50.9526 41.0463 51.8726 41.8835C52.3983 42.3951 53.5374 42.4882 54.3261 42.3021C55.1147 42.1161 55.7718 41.5579 56.2538 41.1393C57.4805 39.8835 57.0862 40.0696 57.5681 39.5114C57.6996 39.3719 57.5681 39.5114 57.7434 39.3719C57.9186 40.9533 58.6196 42.3021 60.3721 41.9765C61.1169 41.837 61.5988 41.3719 61.9493 40.9068C62.1245 40.6277 62.2998 40.3951 62.4312 40.0696C62.5627 39.7905 62.6941 39.4184 62.8693 39.1858C63.2198 39.651 63.3513 40.8603 64.4466 41.4184C65.5857 41.9765 66.4619 41.5114 67.1191 40.8603C68.302 39.744 68.9592 37.2324 69.003 34.9998C69.003 32.0231 68.5211 25.4185 68.2582 21.8836C68.2582 21.372 68.1267 20.5348 68.1706 20.0231C68.4772 20.1627 68.6525 20.7673 69.222 20.8603C69.3097 20.1627 68.6525 18.6743 68.4334 18.0231C68.2582 17.5115 67.6448 15.6045 67.382 15.3255C67.1191 15.465 66.9 16.3952 66.7686 16.7208C66.4181 17.6975 66.681 17.5115 66.8124 18.3487C66.9 18.8138 66.9876 21.5115 67.0314 22.2557C67.1629 24.8603 67.382 27.6045 67.5572 30.2091C67.6448 31.6975 68.1267 36.9068 67.7324 38.0231C67.601 38.3952 66.9876 38.7207 66.6371 38.9068C65.6733 39.3719 64.4027 39.2789 63.9208 38.1626C63.6141 37.4184 63.9208 36.8138 63.7456 36.3952C63.3513 36.3952 63.3075 36.7673 63.0884 37.0928C62.6065 37.93 62.0369 38.9068 61.0293 39.3254C60.153 39.6975 59.4958 39.5579 59.0139 38.9533C58.1377 37.744 59.0139 37.2789 58.751 36.7207C58.2253 36.7673 57.0862 39.1393 55.1147 39.744C54.2384 40.0231 53.1432 39.9765 52.4422 39.5114C51.2154 38.6742 52.1355 37.2789 51.8288 36.9998C51.3469 36.5347 49.9011 39.2789 47.9296 40.0231C47.0971 40.3486 45.8704 40.5347 44.9942 40.2091C43.1979 39.5114 44.6437 36.6277 44.8627 35.4184L48.3239 33.837C48.8934 33.558 49.6382 33.3254 49.9011 32.8603C50.1201 32.4882 50.7335 31.4184 50.6897 31.0463C50.1201 31.0463 46.3962 32.9533 45.0818 33.2789C43.2417 33.6975 42.1026 33.0928 40.7444 32.0231C39.8682 31.3254 38.5977 29.5115 38.4662 28.3022C38.4662 27.7905 39.0358 27.5115 39.4739 27.3254C41.314 26.4882 44.1179 26.1626 46.1333 26.4882C46.6152 26.5812 47.3162 26.8138 47.7543 26.8138C47.6667 26.5347 47.5791 26.4882 47.36 26.3022C46.8781 25.9301 46.3962 25.6045 45.8704 25.3254C44.2494 24.5347 42.1464 24.2557 40.4816 24.9533C37.0205 26.3952 36.5385 30.6277 39.1234 33.6975C39.3863 34.0231 40.4378 34.9533 40.9635 35.1394C40.9197 35.1859 40.9635 35.1394 40.8321 35.2324C40.613 35.3719 40.3501 35.4649 40.1311 35.558C39.8682 35.6975 39.5615 35.7905 39.2987 35.93C38.7291 36.1626 38.1596 36.4882 37.5462 36.5812C37.4148 36.1161 36.9328 35.3719 36.67 34.9998C33.866 30.6742 30.5801 37.3254 32.7269 38.7672C33.8222 39.4649 35.4432 39.2789 36.67 38.9998C36.889 40.2556 36.67 40.2091 36.1004 40.9533C35.7937 41.3719 35.2242 42.0231 34.7861 42.3486L33.3841 43.6044C31.8507 44.8137 30.0982 46.1161 28.1267 46.4416C26.418 46.7207 24.9284 46.0696 24.4027 44.8603C24.4465 44.7672 24.4027 44.8602 24.5341 44.7207C24.6217 44.6277 24.5341 44.7207 24.6217 44.6277L27.0752 42.7672C28.0391 41.9765 28.6524 41.4184 28.9153 39.8835C29.0905 38.9533 29.0467 37.8835 28.74 37.0463C28.4334 36.2556 27.8638 35.8835 27.1628 35.4649C26.5056 35.0928 25.8047 34.7673 25.1037 34.3952C24.2274 33.9301 21.8616 32.6277 21.4235 31.837C21.8616 31.837 22.475 31.9301 22.7378 31.651C22.6502 31.1859 21.5111 30.7673 21.073 30.5347C20.7663 30.3487 20.4596 30.2556 20.153 30.0696C19.9777 29.9766 19.8463 29.8835 19.7148 29.837C19.1453 29.5115 19.2767 30.1161 19.2767 30.5812C19.2767 32.3487 19.1453 31.7905 19.9339 32.4882C20.2844 32.7673 20.4158 33.0928 20.6787 33.4184C21.1606 34.0696 21.7302 34.6277 22.3874 35.1394C22.5626 35.2789 22.694 35.3719 22.8693 35.5114C23.0007 35.6045 23.176 35.744 23.3512 35.837C24.0522 36.2556 24.7532 36.6277 25.498 36.9998C26.0675 37.2789 29.2658 38.7207 28.3457 39.6975C27.9952 40.0696 24.6217 42.5812 24.0522 42.8603C24.0522 41.2789 24.8408 39.5579 24.8408 38.4417C24.6217 38.5347 24.6217 38.6742 24.4903 38.9533C24.4027 39.1393 24.3589 39.3254 24.2713 39.5114C24.1398 39.8835 24.0084 40.3021 23.9208 40.6742C23.7017 41.5579 23.5703 42.3486 23.4826 43.2789C23.2636 43.3719 22.9131 43.6509 22.6502 43.7905C21.8178 44.3021 20.9416 44.9068 20.0653 45.3254C18.8824 45.8835 17.0423 46.7207 16.2975 45.0463C15.9908 44.3486 16.1223 43.3254 16.2537 42.5812C16.3413 42.1626 16.648 40.5347 16.7795 40.3021C16.8671 40.1626 16.9547 40.1161 17.0861 39.93C17.1738 39.7905 17.2614 39.6975 17.3928 39.5114C17.9186 38.5812 18.2691 37.1859 17.7871 36.1626C17.1738 34.7207 13.6688 34.6742 12.0478 33.6975C11.2154 33.1859 11.303 32.7673 11.7849 31.8836C12.3983 30.6743 13.2307 29.6045 14.1946 28.7208C14.326 28.5812 14.3698 28.4882 14.5451 28.3952C14.7203 28.3022 14.7641 28.2091 14.9394 28.1161C15.1584 27.9301 15.5089 27.744 15.8594 27.651C16.9109 27.4184 16.9109 28.5812 17.2614 28.8138C17.6119 28.6743 17.8748 28.0231 17.9186 27.5115C18.0062 26.9068 17.9186 26.2557 17.6557 25.7905C15.9908 23.2324 11.303 29.1394 10.6896 32.9998C10.4706 34.4882 10.5582 35.2324 11.4782 35.93C12.6612 36.8603 16.9985 37.2324 17.0423 37.9765C16.8233 38.7207 13.0117 40.9068 11.9602 41.4184C10.1201 42.3021 7.79806 43.2789 5.43223 43.2324C2.97878 43.1858 1.35775 41.5579 1.05106 39.1393C0.612948 36.0231 2.45304 33.2789 2.58447 32.1161C2.6721 31.7905 2.75972 31.4184 2.84734 30.9998C2.58447 31.1859 2.62829 31.2324 2.36542 31.651C2.19017 31.9301 2.10254 32.1626 1.79586 32.2556C0.96344 32.4882 1.05106 31.1394 1.13869 30.3952C1.31393 28.6743 2.23398 27.0464 2.62828 25.558L2.27779 26.0696C1.53299 27.4185 0.656758 29.651 0.481512 31.2324M153.253 40.5812C151.719 40.5812 150.536 40.5812 149.178 39.6975C148.609 39.3254 147.514 38.3486 147.514 37.2789C147.514 34.8603 148.521 33.8835 148.434 32.9533C148.083 33.0928 147.601 34.3487 147.426 34.8603C146.988 36.0696 146.944 36.8603 146.944 38.1161C146.944 41.0928 149.222 43.0928 152.026 43.0928H152.815C155.794 43.0928 158.948 41.1393 161.227 39.651C161.708 39.3254 162.103 38.9068 162.541 38.5347C164.031 37.3254 164.074 35.837 164.337 35.4184C164.512 37.4649 164.512 41.5114 167.404 41.5114C170.296 41.5114 168.631 41.5114 169.288 40.9533C169.726 40.5812 169.945 40.3951 170.252 39.8835C170.558 39.4184 171.479 37.6045 171.741 37.3719C172.223 37.837 172.048 39.3719 174.501 40.7207C177.568 42.3951 182.037 41.8835 185.235 40.8138C186.155 40.4882 187.601 39.9765 188.477 39.5114C188.784 39.3719 189.222 38.9998 189.529 39.0463C189.704 39.93 189.704 40.2556 190.23 40.8138C190.712 41.3254 191.413 41.4649 192.245 41.4649C193.472 41.4649 194.48 40.0696 194.874 39.1393C196.057 36.2091 195.75 33.4649 195.531 30.3022L195.093 23.6975C195.005 22.7208 194.786 20.9534 194.918 20.0231C195.093 20.1161 195.969 21.372 195.969 20.5813C195.969 19.7906 194.392 15.558 194.085 15.2789C193.866 15.4185 193.34 16.9069 193.297 17.2324C193.297 17.558 193.472 18.0231 193.516 18.3952C193.603 18.8138 193.603 19.2324 193.603 19.6975C193.603 22.2557 194.042 27.558 194.261 30.2557C194.348 31.1394 194.392 31.9766 194.436 32.8603C194.523 34.4417 194.611 35.0928 194.611 36.6742C194.611 38.2556 194.523 37.93 193.954 38.3021C193.034 38.9533 191.369 39.2789 190.712 38.3021C190.318 37.744 190.712 36.9998 190.58 36.4417C190.318 36.4417 188.828 37.2324 188.434 37.3719C185.98 38.3952 183.57 39.0463 180.81 39.1858C179.014 39.2789 176.736 39.2324 175.29 38.4882C174.239 37.93 173.187 37.3254 172.837 36.1626C172.705 35.6975 172.749 35.0463 172.618 34.7673C172.223 34.6742 172.179 34.9533 172.004 35.2324C170.646 37.1859 170.033 38.9533 167.711 38.9533C165.389 38.9533 165.695 36.1161 165.564 34.2091C165.432 31.9766 165.432 29.6975 165.345 27.465C165.257 25.2324 165.17 23.1394 164.863 20.9999C164.644 19.5115 164.162 16.3952 163.68 15.2324C163.417 15.372 163.417 15.6045 163.33 16.0697C163.023 17.7906 163.067 17.558 163.33 19.2324C164.074 24.2092 164.206 27.5115 164.293 32.6742C164.293 34.4882 164.031 34.9068 162.979 36.0696C162.497 36.6277 160.876 37.6975 160.307 38.0231C158.598 38.9998 155.75 40.4417 153.428 40.4417M142.65 35.93C143.132 35.837 143.614 35.744 144.052 35.93C144.447 36.0696 144.797 36.2556 144.753 36.7207C144.359 37.0928 143.22 36.9068 142.65 35.9766M140.547 34.3487C140.022 34.9068 136.911 36.4882 135.684 35.558C135.202 35.1859 135.202 34.5347 134.808 34.1626C134.545 34.3952 134.37 35.3254 134.239 35.7905C134.063 36.4882 134.458 36.9998 134.677 37.5579C134.94 38.2091 135.728 40.5812 135.421 41.2789C135.378 41.4184 135.027 41.7905 134.94 41.93L133.143 43.5114C131.478 44.8603 129.638 46.2091 127.579 46.8602C126.09 47.3254 125.126 47.2323 124.249 46.3021C123.505 45.5114 123.067 44.3021 123.242 42.8138C123.373 41.5114 123.987 39.4184 123.987 38.9533C123.768 39.0463 123.724 39.2324 123.549 39.651C122.76 41.6975 122.234 44.5812 122.891 46.6742C124.644 52.5346 131.259 47.837 133.976 45.2789C135.991 43.3719 136.166 41.3719 136.166 38.2556C137.13 38.4417 138.138 38.1161 138.883 37.7905C139.803 37.4184 140.635 36.8138 141.073 36.6277C141.73 38.6277 144.972 40.9998 145.849 37.7905C146.243 36.4417 145.849 34.8603 145.191 34.0696C144.534 33.3254 143.57 33.3719 142.607 33.6045C142.3 33.6975 141.993 33.837 141.73 33.8835C140.942 32.6277 140.372 21.9301 140.372 19.651C140.591 19.744 140.504 19.651 140.635 19.8836C140.723 19.9766 140.766 20.0696 140.854 20.1161C140.986 20.3022 141.161 20.4882 141.38 20.4882C141.555 19.9766 140.109 16.2557 139.715 15.2789C139.627 15.0929 139.671 15.0929 139.54 14.9999C139.277 15.1859 138.795 16.7673 138.751 16.9999C138.751 17.2789 138.926 17.7441 138.97 18.1162C139.058 18.5348 139.058 18.9999 139.058 19.4185C139.102 23.0929 139.452 28.4417 140.066 32.0696C140.197 32.7208 140.328 33.837 140.504 34.3952M198.773 38.5347C198.773 39.6975 198.598 41.0928 198.642 41.93C198.992 41.744 199.43 40.1161 199.562 39.5114C200.131 36.9068 199.868 34.6277 199.693 31.9766L199.167 24.1161C199.167 23.4185 198.905 20.5813 198.948 20.1161C199.255 20.2557 200 21.4185 200 20.8138C200 20.2092 199.343 18.6278 199.167 18.0696C198.992 17.558 198.379 15.651 198.116 15.465C197.853 15.651 197.284 17.2789 197.327 17.7441C197.371 18.2092 197.546 18.4417 197.634 19.0464C197.634 19.558 197.634 20.0696 197.678 20.5813C197.809 22.6278 197.941 24.5812 198.028 26.5812C198.16 28.5347 198.291 30.5347 198.423 32.4882C198.51 34.0231 198.773 37.1393 198.773 38.5347ZM73.428 17.3255C73.428 17.465 73.647 18.1162 73.6908 18.3952L73.9099 22.3487C73.9975 24.1161 74.1289 25.8836 74.2604 27.6045C74.3918 29.3719 74.4794 31.0929 74.6109 32.9068C74.7423 34.6277 74.9614 37.0928 74.9176 38.7672C74.9176 39.651 74.7423 40.8138 74.7861 41.6045C75.0052 41.5114 75.0052 41.4184 75.1366 41.0928C76.451 37.837 76.0567 35.0463 75.8376 31.651L75.3119 23.7905C75.268 22.9999 75.0052 20.3952 75.0928 19.8371C75.3995 19.9301 75.6185 20.6743 76.1443 20.6743C76.1443 19.8836 75.1804 17.4185 74.8299 16.4417C74.6985 16.0696 74.4794 15.3255 74.2604 15.1394C74.0413 15.3255 73.4718 16.8603 73.4718 17.2789M150.361 34.7673C150.361 35.9766 150.186 37.6975 150.23 38.3952C150.931 38.0231 151.5 34.3021 151.5 33.1859L150.712 19.7441C151.106 19.9301 151.325 20.5813 151.763 20.5813C151.938 20.1161 150.756 17.1394 150.493 16.3952C150.361 16.0696 150.142 15.2324 149.923 15.0464C149.66 15.2324 149.266 16.4883 149.135 16.9534C149.047 17.372 149.266 17.651 149.354 18.0696C149.441 18.4417 149.441 18.9069 149.441 19.3255C149.485 22.1627 149.879 26.6277 150.055 29.6045C150.186 31.2789 150.361 33.1859 150.361 34.8138M113.034 27.8371C113.34 27.744 113.822 27.3719 114.129 27.1859C114.479 26.9533 114.874 26.7673 115.224 26.5347C117.678 25.0464 123.987 21.5115 126.265 20.4417C127.36 19.9301 128.543 19.2789 129.682 18.7208C130.033 18.5813 129.989 18.6278 130.033 18.2092C130.033 17.9301 130.12 17.6975 130.164 17.372C129.507 17.5115 122.147 21.372 121.051 21.9766C119.43 22.8603 114.83 25.465 113.516 26.4417C113.253 26.6278 113.121 27.3254 113.078 27.7905M177.218 36.2091L180.591 34.2091C181.161 33.8835 181.73 33.558 182.3 33.2324C182.782 32.9533 183.527 32.4882 184.052 32.3022C183.527 33.558 183.001 34.4882 183.045 36.1626C183.045 37.8835 184.534 37.744 184.797 35.4184C184.534 35.5114 184.271 36.6742 183.702 36.1161C183.132 35.5114 183.833 33.4184 184.052 32.6742C184.228 32.1161 184.052 32.3022 185.192 31.651C185.673 31.3719 190.23 28.9998 190.712 28.8603L190.887 27.8836C190.493 27.9766 187.733 29.3719 187.207 29.6975C184.228 31.2324 182.125 32.4417 179.277 34.1161C179.014 34.3021 178.707 34.4882 178.445 34.6277C177.656 35.0463 177.393 35.0928 177.218 36.2091ZM156.32 34.1161C156.101 34.5812 155.181 34.9533 154.655 35.2324C154.436 35.3719 152.946 36.0231 152.902 36.3021C153.647 36.4417 154.742 36.1161 155.443 35.93C156.276 35.744 156.407 35.5114 157.021 34.4417C158.905 31.3254 156.144 32.5812 155.049 31.744C155.049 31.2789 155.662 30.7208 156.013 30.5347C156.495 30.2091 156.363 30.7208 156.67 30.7208C156.933 30.7208 157.108 30.3487 157.196 30.1626C157.941 28.3022 156.67 27.558 154.742 30.6277C154.26 31.4184 153.384 33.2324 154.523 33.7905C155.137 34.1161 155.882 33.9301 156.32 34.1161ZM180.635 20.0231C180.504 19.7906 180.504 19.372 180.416 19.1394C180.197 18.3487 179.715 17.3255 178.839 17.3255C178.62 17.7441 178.006 18.3487 178.839 18.8603C179.233 19.0929 179.189 18.8603 179.452 18.8138C179.715 19.0464 180.328 20.6743 180.416 21.2789C180.197 21.465 180.109 21.558 180.022 21.9301C179.934 22.2092 179.847 22.6278 179.934 22.8603C180.022 22.7673 180.285 22.3952 180.328 22.3487C180.46 22.2557 180.504 22.2557 180.679 22.3487C180.723 22.3487 180.767 22.3487 180.81 22.4417C180.942 22.5347 180.854 22.4417 180.942 22.5813C180.635 22.7673 179.934 22.8138 179.715 23.744C179.54 24.3952 179.759 25.2324 179.89 25.8836C180.022 26.5812 180.153 27.2324 180.241 27.9301C180.285 28.3487 180.328 30.0696 180.416 30.2557C180.767 29.744 180.635 27.7905 180.548 27.0929C180.416 26.1161 180.197 25.1394 179.934 24.2557C180.241 23.7905 181.117 23.6045 181.643 23.465C181.949 23.372 181.949 23.3254 182.081 23.0464C182.3 22.4882 182.212 22.2557 181.862 21.9301C181.248 21.3719 181.029 21.3719 180.81 21.2324C181.161 20.0231 181.117 19.9766 181.336 18.9999C181.818 17.1394 182.169 18.2092 182.519 18.3487C183.264 17.8371 182.256 16.0231 181.511 17.2789C180.942 18.3022 180.986 19.651 180.723 20.0696M157.546 17.9301C158.642 17.1394 158.466 18.4882 158.379 18.7208C158.204 18.6743 158.028 18.5813 157.897 18.4882C157.678 18.3487 157.546 18.3022 157.546 17.9766M157.984 19.8371C157.853 20.0231 157.59 20.2557 157.415 20.4417C156.626 21.2324 155.049 22.3022 154.041 22.9533C153.691 23.1859 152.859 23.6975 152.683 23.9766C153.078 23.9301 153.998 23.465 154.392 23.2789C154.961 22.9999 155.487 22.7673 155.969 22.3952C158.028 20.9068 157.853 20.5347 158.423 19.9766L158.905 20.2557C158.948 20.9534 158.116 22.5813 158.466 23.8836C158.861 25.2324 160.131 24.3487 160.087 22.5813C159.868 22.8138 159.606 23.744 159.08 23.4185C158.423 22.9533 159.08 20.8603 159.255 20.2092C159.562 19.2324 159.124 19.2789 158.817 18.9068C159.825 14.2092 155.619 17.9766 157.284 19.372C157.59 19.6045 157.765 19.651 157.984 19.8371ZM79.2549 49.2788C79.474 49.0463 80.0873 47.8835 80.0873 47.3719C79.8245 47.1393 78.5977 46.1161 78.1596 46.0696L77.5024 47.4649C77.3272 47.3719 77.2834 47.2788 77.0643 47.0928C76.7576 46.8602 75.969 46.2556 75.6624 46.2091C75.5309 46.3486 74.8737 47.744 74.8299 48.023C74.9176 48.1161 76.5386 49.3719 76.7577 49.4184C76.8453 49.2323 77.3272 48.1626 77.4586 48.023C77.9406 48.2556 78.9482 49.1858 79.2549 49.2788ZM143.176 44.2091C143.658 43.651 144.271 44.2091 144.228 44.8603C143.921 44.8603 143.308 44.4417 143.176 44.2091ZM134.37 49.744C134.72 49.837 136.473 49.3254 136.911 49.1858C138.05 48.9067 138.357 48.8602 139.277 48.3021C140.591 47.5114 141.774 46.6277 142.3 45.1393C142.3 45.0928 142.3 44.9998 142.388 44.9533C142.431 44.8137 142.388 44.8603 142.475 44.8137C142.65 44.9998 143.833 46.1161 144.315 45.6509C144.578 45.4184 144.885 44.1626 144.359 43.3719C143.527 42.1626 142.913 43.6975 142.826 43.7905C142.563 44.023 142.826 43.3719 142.212 44.5347C142.037 44.8603 141.862 45.2789 141.687 45.5114C139.846 47.6044 135.027 49.1858 134.37 49.744ZM10.602 49.2788C10.8211 49.0463 11.4344 47.8835 11.4344 47.3719C11.0839 47.0928 9.90103 46.1161 9.50672 46.0696C9.37529 46.3951 8.98098 47.1393 8.89335 47.4649C8.49905 47.2789 7.53519 46.3021 7.00945 46.2091C6.87801 46.3486 6.22084 47.7905 6.17703 48.023C6.22084 48.1161 7.92949 49.3719 8.10474 49.4184C8.19236 49.2323 8.6743 48.1626 8.80573 48.023C9.28766 48.2556 10.2953 49.1858 10.602 49.2788ZM40.0435 45.93C39.9996 46.0695 38.3786 48.3951 39.8244 48.9533C40.3501 49.1393 41.1826 48.9533 41.6207 48.8137C42.0588 48.6277 42.716 48.2091 42.8912 47.8835C42.3655 47.93 41.7959 48.1626 41.1826 48.2556C38.6853 48.5347 39.6492 47.1393 40.7006 46.0696C41.2264 45.5114 41.9274 45.2789 41.7959 44.2556C41.4454 44.3951 41.0073 45.3719 40.2187 45.0463C39.4739 44.7207 40.1311 44.1161 40.3501 44.1161C40.5692 44.1161 40.613 44.2556 40.7006 44.3951C41.1387 44.0696 41.1826 43.4184 40.8759 43.3254C40.3939 43.1393 39.3863 44.4417 39.2987 45.0463C39.211 45.6044 39.5615 45.8835 39.9996 46.023M59.8463 21.2789C59.934 20.9533 60.2407 20.7673 60.5911 20.8138C60.7664 21.0929 60.8102 21.3254 60.7664 21.744C60.4597 21.744 59.9778 21.465 59.8463 21.2324M60.4597 23.0464L59.3644 24.2557C58.4882 25.1859 56.4728 26.7673 55.5966 27.651C55.728 27.744 55.509 27.744 55.8157 27.651L56.3852 27.3254C57.2176 26.8138 57.8748 26.4882 58.6634 25.8371C59.4082 25.1859 60.635 23.9301 60.8102 23.1394C61.2045 23.1394 61.3797 23.4185 61.6426 23.558C61.7302 23.2324 61.9493 22.8603 61.9055 22.4882C61.6864 22.3022 61.4236 22.2092 61.1607 21.9766C61.2045 21.4185 61.3359 20.5813 61.0293 20.0231C60.4159 18.8603 58.1815 21.651 59.6711 22.6278C59.9778 22.8138 60.2406 22.8138 60.4159 23.0464M39.2548 17.6045C39.3863 17.0464 40.3501 16.7673 40.1749 18.1162C39.9558 18.2557 39.3863 17.8836 39.2548 17.6045ZM39.8244 19.3255C39.6492 19.558 39.4739 19.6975 39.2987 19.9301C39.0796 20.1627 38.992 20.3022 38.7291 20.5347C38.291 20.9533 37.8967 21.2789 37.4586 21.651C37.0643 21.9766 34.9613 23.6045 34.8737 23.8836C35.5747 23.744 37.5462 22.4417 38.0719 22.0231C38.5977 21.6045 39.7368 20.4417 40.0873 19.8371C40.1749 19.651 40.1749 19.651 40.3063 19.465C40.613 19.651 40.7006 19.651 40.9635 19.8836C40.9635 19.8836 41.314 19.2324 41.314 18.9999C41.314 18.7673 40.9197 18.5348 40.613 18.3952C40.613 17.7906 40.8759 17.0464 40.5692 16.4417C40.0873 15.4185 38.4662 17.0464 38.6415 18.2557C38.6853 18.6278 38.9482 18.7673 39.1234 18.9068C39.211 18.9999 39.3425 19.0929 39.4739 19.1394C39.5177 19.1394 39.6053 19.1394 39.6491 19.2324L39.8244 19.372V19.3255ZM58.0939 45.2323V45.0928C58.1377 44.9068 58.2253 44.9533 58.2253 44.6277C57.8748 44.6742 57.6996 45.2323 57.4367 45.4649C56.9986 45.837 56.6043 45.4649 56.1662 45.3719C54.9832 45.1393 53.8879 46.2556 53.187 46.9998C51.4345 48.8602 51.0402 48.6277 50.6021 48.9998C50.5144 49.0463 50.6021 48.9998 50.5145 49.0928C52.1355 48.9533 52.7926 47.744 53.8441 46.9533C55.3775 45.7905 55.9909 46.4882 56.6043 46.5347C57.1738 46.5347 57.6558 46.023 57.7872 46.023C57.9624 46.023 58.1815 46.2556 58.4444 46.2556C59.1892 46.2556 59.452 44.7672 59.1453 44.3951C58.6634 44.6277 58.8387 45.2789 58.8387 45.4184C58.5758 45.4184 58.3129 45.4184 58.0939 45.2789M102.387 19.558C102.212 19.1394 101.949 16.5348 100.372 16.5348C100.241 16.8138 99.7588 17.4185 99.934 17.7441C100.679 18.9534 100.898 17.7441 101.292 18.4417L101.73 19.5115C101.949 20.0696 102.125 21.0464 102.212 21.1394C102.738 20.8603 102.869 19.2789 103.001 18.5813C103.527 16.1627 104.009 17.5115 104.403 17.651C104.972 17.1859 104.49 15.8371 103.746 16.0231C103.045 16.2092 102.694 17.9766 102.563 18.7208C102.519 18.9999 102.475 19.372 102.387 19.558ZM116.101 46.7207C115.881 46.023 115.619 43.6975 114.129 43.6975C113.998 43.93 113.472 44.5812 113.647 44.9068C114.129 45.837 114.742 45.3254 114.786 45.3254C115.049 45.3719 115.575 46.9998 115.706 47.4184C115.794 47.6975 115.838 48.1161 115.881 48.3021C116.626 48.1626 116.539 44.9068 117.327 44.3486C117.809 44.3486 117.765 44.6277 118.072 44.8137C118.904 44.4882 117.897 42.2091 117.021 43.651C116.539 44.3951 116.32 46.4882 116.101 46.7207ZM17.4804 51.4184C17.7433 51.3254 20.1968 49.93 20.7225 49.6044L23.2198 48.2556C23.395 48.0695 23.4388 47.4184 23.395 47.1393C23.0445 47.2789 20.5035 48.6277 20.1091 48.8602C19.5834 49.1858 19.0139 49.4649 18.4443 49.7905C18.2691 49.8835 17.7433 50.1626 17.6995 50.3021C17.5681 50.4881 17.5243 51.1393 17.5243 51.3719M93.0994 48.8137C93.4499 48.6742 94.3699 48.1161 94.7204 47.93L98.7949 45.6975C98.9702 45.5114 98.9702 44.8603 98.9702 44.5812L95.6843 46.3021C95.1147 46.6277 94.589 46.9068 94.0194 47.2323C93.8442 47.3254 93.3185 47.6044 93.2308 47.744C93.0994 47.93 93.0556 48.5812 93.0556 48.8137M9.24385 21.8836C9.11241 21.9766 9.20004 21.8836 9.11241 22.0696C8.98098 22.3487 8.98098 23.3254 8.49905 23.6975C8.27999 23.8836 7.79806 24.0231 7.62282 23.6975C7.44757 23.372 7.62282 22.8603 7.62282 22.4882C6.92183 22.8603 6.52752 25.744 8.27999 24.8138C8.49905 24.6743 8.54286 24.6278 8.71811 24.4882C8.98098 24.3022 9.02479 24.3952 9.33147 24.3952C10.9525 24.3952 11.6097 21.7906 10.9525 21.0464C10.7773 21.1859 10.4706 21.744 10.5144 22.0231C10.6458 22.3952 11.0839 22.9068 9.98864 23.2789C9.90102 23.2789 9.76959 23.3254 9.68196 23.3254C9.41909 23.3254 9.50671 23.3254 9.41909 23.1859C9.24384 22.7673 9.59434 22.1627 9.24385 21.8836ZM61.0731 29.1394C60.8978 29.2789 60.8102 29.4184 60.5473 29.5115C59.4082 30.0231 59.934 28.9533 59.7149 28.2091C59.4958 28.2556 59.5397 28.0696 59.4082 28.8138C59.3644 29.0464 59.2768 29.3254 59.233 29.558C59.1015 29.9301 58.6196 30.3952 58.1377 30.1161C57.7872 29.837 58.0501 29.2789 58.0062 28.8138C57.6996 28.9533 57.13 30.1626 57.5243 30.9998C58.0063 31.9766 59.1015 30.6743 59.3644 30.7208C59.8901 30.7208 60.153 30.8138 60.5035 30.4882C61.5988 29.651 61.8179 27.8836 61.2921 27.4184L61.1607 27.6045C61.1607 27.6975 61.0731 27.744 61.0731 27.7905C61.0731 27.8836 60.8978 28.1161 60.8978 28.1626C60.8978 28.3487 61.0731 28.7208 61.0731 29.1394ZM170.909 23.9301C170.777 24.1161 169.945 24.7208 169.507 24.4882C169.069 24.2557 169.507 23.0929 169.726 22.8603C170.12 22.9999 170.821 23.5115 170.909 23.9301ZM168.937 24.5812C168.937 25.2324 169.025 25.651 169.726 25.651C170.909 25.651 171.216 24.5347 171.216 23.465C171.216 22.3952 170.339 21.9766 170.12 21.744C170.208 21.4185 170.515 20.7673 170.558 20.4417C170.12 20.3487 170.077 20.7673 169.901 21.1394C169.726 21.5115 169.638 21.7906 169.463 22.1626C169.288 22.6743 168.937 24.0231 168.937 24.5812ZM135.641 27.8371C135.421 28.3022 134.545 28.6743 134.239 28.4882C133.888 28.2557 134.239 27.1394 134.458 26.8603C134.896 27.0464 135.421 27.4184 135.641 27.8371ZM133.669 28.5347C133.669 30.2556 135.202 29.5115 135.597 29.0464C135.947 28.6277 135.991 28.0696 135.991 27.4184C135.991 26.7673 135.202 25.9301 134.896 25.7905C134.896 25.558 135.027 25.2789 135.115 25.0464C135.115 24.9068 135.246 24.8138 135.246 24.7208C135.29 24.5347 135.378 24.4882 135.246 24.3952C134.72 24.1161 133.713 27.6975 133.713 28.5812M186.155 44.1161C186.374 44.3021 187.908 45.4184 188.039 45.4649C188.258 45.1858 188.916 44.023 188.872 43.5579C188.872 43.4649 187.382 42.3021 186.944 42.2556C186.813 42.4882 186.155 43.8835 186.155 44.1161ZM92.3984 29.6975C92.7051 29.9766 93.0118 30.1161 93.3185 30.3487C93.5375 30.5347 94.0194 30.9068 94.2385 30.9998C94.4576 30.8138 95.3338 29.3719 95.0271 28.9998C94.9395 28.9068 94.7642 28.7673 94.589 28.6743C94.3261 28.4417 93.5375 27.837 93.2308 27.7905C93.0556 27.9766 92.3984 29.3254 92.3984 29.651M168.806 32.2556L170.69 33.651C170.953 33.4184 171.566 32.2556 171.522 31.744C171.172 31.5115 170.12 30.5812 169.682 30.4882C169.507 30.6743 168.894 31.9766 168.806 32.3022M27.2505 23.8371C26.8561 24.0696 26.9438 24.7208 26.3742 24.6743C25.2789 24.5347 26.5056 21.0929 26.6371 20.5813C25.9799 21.2324 25.0599 24.3952 25.717 25.4184C25.8485 25.651 26.2428 25.7906 26.5495 25.6045C26.9438 25.3254 27.1628 24.4882 27.2943 23.7905" fill="#A7B2B9"/>
<path d="M89.3327 56.5352C89.1136 55.791 88.8508 55.0003 87.8431 55.0003C86.8354 55.0003 86.7478 55.5119 86.7478 56.1631C86.7478 56.8143 87.1859 57.2328 88.106 57.7445C89.3327 58.3956 89.9899 58.9538 89.9899 60.07C89.9899 61.1863 88.9384 62.3491 87.4488 62.3491C85.9592 62.3491 86.1783 62.1631 85.6963 61.977C85.6087 61.698 85.4773 60.6282 85.3896 60.07L85.784 59.977C86.003 60.7212 86.5726 61.884 87.624 61.884C88.6755 61.884 88.7632 61.3724 88.7632 60.6747C88.7632 59.977 88.3688 59.5584 87.4488 59.0468C86.3097 58.3956 85.6087 57.8375 85.6087 56.6747C85.6087 55.5119 86.4411 54.5817 88.0183 54.5817C89.5956 54.5817 89.2889 54.7677 89.508 54.7677C89.508 55.1863 89.6394 55.7445 89.6832 56.4887L89.2889 56.5817L89.3327 56.5352Z" fill="#A7B2B9"/>
<path d="M93.7569 56.4422C93.4503 57.3259 93.0998 58.2096 92.8369 59.0468H94.677L93.8008 56.4422H93.7569ZM94.7646 62.1631V61.791C95.4656 61.698 95.5094 61.5584 95.3342 61.0933C95.2027 60.7212 95.0275 60.1631 94.8522 59.6049H92.6616C92.5302 60.0235 92.355 60.4421 92.2235 60.8607C92.0045 61.6049 92.2235 61.698 93.0559 61.791V62.1631H90.4272V61.791C91.1282 61.698 91.2597 61.6049 91.654 60.6282L93.8884 54.6747L94.3703 54.5817C95.0713 56.5817 95.7723 58.6747 96.4733 60.5817C96.8676 61.6515 96.9552 61.698 97.6562 61.791V62.1631H94.677H94.7646Z" fill="#A7B2B9"/>
<path d="M103.922 62.1625V61.7904C104.754 61.6974 104.798 61.6043 104.798 60.5346V55.9765C103.965 57.9765 102.914 60.5811 102.3 62.1625H101.95C101.38 60.5811 100.417 58.0695 99.628 56.023C99.4527 59.7904 99.4527 60.5346 99.4527 60.9067C99.4527 61.5113 99.7156 61.6974 100.504 61.7439V62.116H97.8755V61.7439C98.4889 61.6974 98.7517 61.5578 98.8394 60.9067C98.8832 60.4881 98.927 59.9299 99.1898 56.023C99.1898 55.4648 99.146 55.1858 98.1822 55.0927V54.7206H100.373L102.563 60.0695L104.842 54.7206H106.988V55.0927C106.112 55.1858 105.981 55.2788 106.024 56.1625L106.112 60.4881C106.112 61.6044 106.156 61.6509 107.076 61.7439V62.116H103.922V62.1625Z" fill="#A7B2B9"/>
<path d="M110.712 56.4422C110.405 57.3259 110.054 58.2096 109.792 59.0468H111.632L110.755 56.4422H110.712ZM111.719 62.1631V61.791C112.42 61.698 112.464 61.5584 112.289 61.0933C112.157 60.7212 111.982 60.1631 111.807 59.6049H109.616C109.485 60.0235 109.31 60.4421 109.178 60.8607C108.959 61.6049 109.178 61.698 110.054 61.791V62.1631H107.426V61.791C108.127 61.698 108.258 61.6049 108.653 60.6282L110.887 54.6747L111.369 54.5817C112.07 56.5817 112.771 58.6747 113.472 60.5817C113.866 61.6515 113.954 61.698 114.655 61.791V62.1631H111.676H111.719Z" fill="#A7B2B9"/>
<path d="M82.5383 58.0224H0.0410156V58.8596H82.5383V58.0224Z" fill="#A7B2B9"/>
<path d="M199.562 58.0224H117.064V58.8596H199.562V58.0224Z" fill="#A7B2B9"/>
<path d="M259.073 86.6512C258.945 85.9284 258.69 85.1631 258.478 84.4828C258.138 83.3774 257.585 81.5917 258.18 80.4862C258.265 80.3162 258.35 80.1886 258.478 80.0611L258.605 79.9335L258.775 80.0185C259.116 80.1886 259.371 80.9964 259.456 81.3366C259.711 82.1019 259.923 82.8672 260.093 83.6325C260.264 84.3553 260.434 85.0355 260.561 85.7583C260.646 86.141 260.731 86.5662 260.774 86.9488C261.794 87.1614 262.772 87.374 263.75 87.544L263.537 86.0559L262.219 85.8009L261.199 81.8468C261.029 81.124 260.816 80.4012 260.646 79.7209C260.476 78.9556 260.264 78.2328 260.136 77.425L259.923 77.6801C259.668 77.9352 259.286 78.1053 258.945 78.1903C258.563 78.3179 258.18 78.4029 257.84 78.573C256.82 79.0407 256.437 79.8059 256.267 80.8689C256.054 82.3144 256.82 83.8026 257.032 85.2056V85.3757L256.905 85.4607C256.437 85.8009 255.884 86.0134 255.374 86.2685C254.524 86.7362 254.099 87.374 253.758 88.2668C253.843 88.2668 253.928 88.3519 253.971 88.3519C259.031 90.4352 264.473 91.4556 269.957 91.4556C275.442 91.4556 271.956 91.4556 272.934 91.3281L273.486 89.6699C272.338 89.7549 271.148 89.84 269.957 89.84C265.748 89.84 261.539 89.2022 257.542 87.9267C257.372 87.8842 257.245 87.8417 257.075 87.7566L256.692 87.6291L256.947 87.374C257.415 86.8638 258.265 86.6087 258.988 86.6087M235.093 39.1172C235.008 39.0321 234.881 38.9896 234.753 38.9471C234.583 38.9471 234.456 38.9471 234.286 38.9471H234.116L234.031 38.8196C233.648 38.0117 233.435 37.2039 232.713 36.6512C232.5 36.4811 232.245 36.3536 231.99 36.226C231.522 36.056 231.054 35.9709 230.587 36.056C229.439 36.2685 229.014 37.4165 228.843 38.4369V38.692L228.546 38.6495C226.675 38.1818 226.803 36.2685 227.015 34.6954C225.952 35.7583 225.23 37.1614 226.037 38.6495C226.505 39.4998 227.355 40.2226 228.206 40.6903L228.376 40.7753V40.9454C227.823 43.624 227.568 46.3451 227.568 49.0662C227.568 60.6733 232.287 71.6852 240.663 79.7209L240.791 79.8485C241.131 80.1886 241.514 80.5287 241.854 80.8689L242.024 81.0389C242.789 81.7617 243.639 82.3995 244.447 83.0373L249.167 75.6393C249.422 75.2566 249.719 74.8315 250.187 74.7039C250.357 74.6614 250.57 74.6189 250.74 74.6189C250.57 74.1087 250.485 73.556 250.357 73.0458C250.272 72.6206 250.187 72.1954 250.059 71.7702C250.059 71.6002 249.974 71.4726 249.932 71.3025C247.976 74.3213 246.063 77.34 244.107 80.3162L243.937 80.5287L243.724 80.3587C243.044 79.806 242.406 79.2107 241.769 78.6155C241.003 77.8927 240.281 77.1274 239.558 76.3621L239.388 76.192L242.874 73.3434C242.406 73.1308 241.939 72.8332 241.556 72.5355C241.173 72.2379 241.131 72.2379 240.961 72.1104C240.961 72.1529 240.961 72.2379 240.961 72.2805C240.961 72.4505 240.961 72.5781 240.961 72.7481C240.876 72.9182 240.748 73.0457 240.578 73.1733C240.323 73.3859 240.025 73.5985 239.728 73.8111C239.345 74.1087 238.963 74.4488 238.537 74.7464L238.367 74.9165L238.197 74.7464C237.262 73.5985 236.411 72.4505 235.604 71.2175L235.476 71.0049L239.43 68.624C238.835 68.1563 238.24 67.6886 237.73 67.1359C237.559 67.6461 237.134 68.0287 236.667 68.3264L234.626 69.5594L234.498 69.3468C233.818 68.1988 233.223 67.0083 232.67 65.7753L232.542 65.5627L236.794 63.7345C236.709 63.6495 236.624 63.5644 236.539 63.5219C236.284 63.2668 236.029 63.0543 235.774 62.7566C235.604 62.544 235.434 62.289 235.264 62.0764C235.264 62.0764 235.264 62.1189 235.264 62.1614C235.136 62.544 234.796 62.7566 234.498 62.9267C234.201 63.0968 233.903 63.2668 233.605 63.3944C233.138 63.607 232.67 63.8196 232.202 64.0321L231.99 64.1172L231.905 63.9046C230.714 60.8434 229.906 57.6971 229.481 54.4233V54.0832L229.779 54.1682C230.969 54.4658 232.16 55.1461 233.265 55.6988C233.435 55.7839 233.605 55.8689 233.775 55.9539L233.605 53.7855L230.629 52.8927L231.054 52.5951C231.437 52.34 231.862 52.1274 232.287 51.9148C232.67 51.7447 233.053 51.5747 233.435 51.4046L233.265 49.2362C232.798 49.5764 232.372 49.959 231.905 50.2992C231.267 50.7668 230.332 51.4046 229.566 51.6597L229.269 51.7447L229.184 50.8944C229.184 50.2566 229.184 49.6614 229.184 49.0662C229.184 46.5151 229.439 43.9641 229.906 41.4131V41.2005H230.161C231.692 41.4556 232.968 40.8179 234.031 39.7974C234.328 39.4998 234.711 39.2872 235.093 39.1172ZM232.542 38.777C232.415 39.3723 231.82 39.7549 231.224 39.6274C230.629 39.4998 230.247 38.9046 230.374 38.3094C230.502 37.7141 231.097 37.3315 231.692 37.459C232.287 37.5866 232.67 38.1818 232.542 38.777ZM241.684 26.0219C241.216 25.1291 240.791 24.2787 240.536 23.3008C239.558 24.4913 238.622 25.6818 237.73 26.9573C236.964 28.0627 236.284 29.1682 235.646 30.3587C235.391 30.8264 235.178 31.2515 234.966 31.7192C234.626 32.442 233.69 32.1444 233.18 31.8043L233.01 31.6767L233.095 31.5066C234.753 28.0627 236.794 24.9165 239.26 22.0253C238.877 21.6427 238.495 21.26 238.112 20.8774C236.071 23.3008 234.243 25.8519 232.713 28.658C232.075 29.8485 231.479 31.0389 230.969 32.2719C231.777 32.7396 232.67 33.2923 233.563 33.5474C234.073 33.7175 234.711 33.8025 235.264 33.5474C235.774 33.2923 236.114 32.7821 236.326 32.2719C236.497 31.8893 236.667 31.5491 236.837 31.209C237.304 30.2311 237.9 29.2957 238.452 28.4029C238.877 27.7226 239.388 27.0423 239.898 26.4046C240.025 26.2345 240.195 26.107 240.408 26.0645C240.663 25.9794 240.918 26.0645 241.173 26.0645C241.343 26.0645 241.471 26.0645 241.641 26.0645M254.311 77.8502L253.418 74.3213C252.355 75.8944 251.335 77.51 250.357 79.1257C249.932 79.8485 249.507 80.5713 249.039 81.294C248.359 82.442 247.678 83.59 246.956 84.6954L248.444 85.6308L252.525 79.0832C252.781 78.7005 253.036 78.2753 253.503 78.0628C253.673 77.9777 253.801 77.9352 253.971 77.9352C254.099 77.9352 254.184 77.8927 254.311 77.8502ZM279.056 17.476C279.609 18.5389 280.119 19.6869 280.757 20.7498C281.394 18.8791 282.032 17.0083 282.627 15.1376C282.84 14.4148 283.053 13.692 283.308 12.9267C283.69 11.6087 284.116 10.3332 284.541 9.05765L282.883 8.50492L280.544 15.8604C280.417 16.2855 280.246 16.7107 279.906 17.0083C279.779 17.1359 279.609 17.1784 279.481 17.2634C279.354 17.3485 279.226 17.391 279.141 17.4335M312.389 51.4896C310.476 51.4896 308.563 51.3621 306.65 51.277C305.969 51.277 305.289 51.277 304.566 51.277C304.269 51.277 303.886 51.277 303.588 51.1495C303.376 51.0645 303.206 50.9369 303.078 50.7668C302.866 50.5968 302.695 50.4267 302.483 50.2566C302.313 50.4267 302.1 50.5968 301.93 50.7668C301.165 51.4471 300.485 52.1274 299.719 52.7651L312.347 53.1903L312.432 51.4896H312.389ZM312.007 55.4437L305.884 55.2311C305.119 55.2311 304.354 55.2311 303.588 55.2311C303.121 55.2311 302.61 55.2311 302.185 54.9335C301.888 54.7634 301.675 54.5083 301.505 54.2532C300.74 55.0185 299.932 55.7839 299.124 56.5492C302.695 56.3791 306.309 56.8042 309.881 57.0593H310.136L310.093 57.357C309.796 58.76 309.413 60.2056 308.988 61.5662V61.7362H308.775C307.755 61.7362 306.862 62.2039 306.309 63.0543C305.544 64.2447 305.714 65.8179 306.777 66.7532L306.905 66.8808L306.82 67.0508C306.224 68.2413 305.587 69.3893 304.906 70.5372L304.779 70.7073L301.888 69.2617C301.973 69.6869 302.058 70.1546 302.058 70.5372V72.0679C302.78 71.8978 303.461 72.0679 304.099 72.408C304.524 72.6631 304.906 72.8757 305.332 73.1308C305.629 73.3009 305.927 73.4709 306.224 73.641C306.607 73.8961 307.032 74.1937 307.202 74.6189C307.415 75.0866 307.287 75.7668 307.202 76.3196C307.5 76.2345 307.798 75.9794 307.968 75.7668C308.393 75.2991 308.563 74.6614 308.478 74.0236C308.435 73.3434 308.053 72.8757 307.585 72.408C307.372 72.2379 307.16 72.0254 306.905 71.8553C306.735 71.7277 306.522 71.5576 306.394 71.3876L306.267 71.26L306.905 70.1546C307.372 69.3468 307.797 68.4964 308.223 67.6886L308.308 67.5185H308.478C309.541 67.6036 310.519 67.0934 311.071 66.2005C311.879 64.9675 311.624 63.3519 310.519 62.374L310.391 62.2464V62.0764C310.689 61.3111 310.901 60.5458 311.114 59.7379C311.326 58.8876 311.496 58.0373 311.667 57.1869C311.794 56.5917 311.879 55.9964 311.964 55.3587M307.5 63.8196C307.925 63.1818 308.775 63.0117 309.456 63.3944C310.136 63.777 310.263 64.6699 309.881 65.3502C309.498 66.0304 308.605 66.158 307.925 65.7753C307.245 65.3927 307.117 64.4998 307.5 63.8196ZM303.333 40.8179C304.141 41.4556 304.949 42.0934 305.757 42.7736C306.479 43.3689 307.16 43.9216 307.84 44.5594C308.223 44.8995 308.605 45.2396 308.945 45.5798C308.86 44.7719 308.775 43.9641 308.648 43.1563C307.712 37.0764 305.374 31.294 301.76 26.3195C301.207 25.5542 301.42 24.7889 302.1 24.1937L302.27 24.0236L303.461 25.6393C307.372 31.209 309.838 37.6716 310.604 44.4318C310.731 45.6648 310.774 46.8553 310.051 47.8332L312.474 47.7056C312.432 46.6002 312.389 45.4947 312.262 44.3893C311.539 37.8417 309.286 31.5491 305.672 26.0219C305.204 25.2991 304.736 24.6614 304.269 23.9811C303.418 22.8332 302.525 21.7702 301.547 20.7073C301.08 20.1971 300.655 19.6869 300.187 19.2192C298.826 17.8587 297.423 16.6257 295.935 15.4777C294.915 14.7124 293.894 13.9896 292.832 13.3094C291.854 12.6716 290.876 12.1189 289.898 11.6087C288.835 11.056 287.772 10.5457 286.709 10.0781L284.626 17.1784C284.456 17.7736 284.328 18.3264 284.158 18.9216C284.073 19.2192 283.988 19.5593 283.775 19.7719C283.563 19.942 283.223 20.0695 282.883 20.1546C283.435 21.1325 283.988 22.1529 284.541 23.1308C285.561 19.6019 286.582 16.1155 287.644 12.6291L287.729 12.3315L287.985 12.459C288.665 12.7991 289.345 13.1818 290.025 13.5219C290.621 13.8621 291.173 14.2022 291.769 14.5423L291.981 14.6699L289.133 18.7515C290.11 18.7515 290.663 18.9216 291.513 19.3468C291.513 19.2192 291.514 19.0917 291.471 18.9641C291.471 18.794 291.471 18.5815 291.471 18.3689C291.556 18.0287 291.769 17.7311 291.939 17.476C292.364 16.9233 292.789 16.3281 293.172 15.7753L293.299 15.5627L293.512 15.6903C294.872 16.6682 296.105 17.6886 297.338 18.7515L297.508 18.9216L294.107 22.7906C294.447 22.7906 294.787 22.8757 295.127 23.0032C295.595 23.1733 296.063 23.3434 296.488 23.5559C296.488 23.4284 296.488 23.3434 296.488 23.2158C296.488 23.0457 296.488 22.8757 296.488 22.7056C296.573 22.408 296.828 22.1529 297.041 21.8978C297.551 21.3451 298.061 20.7923 298.571 20.2396L298.741 20.0696L298.911 20.2396C299.804 21.0049 300.57 21.9828 301.335 22.8757L301.505 23.0883L301.292 23.2583C299.762 24.2362 299.549 25.7668 300.57 27.2124C303.758 31.6342 305.927 36.6512 306.947 42.0083L307.16 43.0713L306.692 42.7311C305.672 42.0508 304.524 41.4131 303.376 40.9454M275.485 82.1869C274.932 82.1869 274.507 82.6546 274.507 83.2073C274.507 83.76 274.974 84.1852 275.527 84.1852C276.08 84.1852 276.505 83.7175 276.505 83.1648C276.505 82.6121 276.037 82.1869 275.485 82.1869ZM281.224 86.4386C281.99 86.1835 282.798 85.9709 283.52 85.6733C289.303 83.5475 294.49 80.1036 298.656 75.5968C299.294 74.874 300.102 74.959 300.782 75.5117L300.995 75.6818L299.634 77.1274C295.212 81.8042 289.77 85.3332 283.733 87.459C281.99 88.0968 280.204 88.5645 278.376 88.9896H278.163C278.163 89.0322 277.398 85.9709 277.398 85.9709C276.93 86.7362 276.122 87.4165 275.442 87.9267C276.335 88.607 276.803 90.1801 276.973 91.158C277.058 91.7107 277.143 92.391 277.1 92.9437C277.1 93.2838 276.973 93.624 276.675 93.8366C276.548 93.9641 276.42 94.0066 276.25 94.0917C276.973 94.0917 277.781 94.0066 278.248 93.5815C278.886 92.9012 278.673 91.6257 278.503 90.8179V90.6053C278.461 90.6053 278.673 90.5628 278.673 90.5628C280.459 90.1376 282.202 89.6699 283.945 89.0747C289.855 87.0339 295.212 83.675 299.677 79.2958C300.272 78.7005 300.867 78.1053 301.42 77.51C301.93 76.9148 302.483 76.3196 302.951 75.6818L301.547 74.3213C300.272 73.0032 298.699 73.2158 297.508 74.5339C293.809 78.5304 289.303 81.6767 284.286 83.7175L283.265 84.1427L283.478 83.59C283.945 82.4845 284.328 81.209 284.541 79.976C284.073 80.9114 283.605 81.8043 283.138 82.7396C282.712 83.5475 282.287 84.3553 281.82 85.1206C281.565 85.5457 281.309 85.9709 281.054 86.3961M254.141 13.1818C254.694 13.6495 255.417 14.0321 256.012 14.4573C256.99 15.0951 258.605 16.0304 258.86 17.3059C258.86 17.476 258.86 17.6461 258.86 17.8161V17.9862H258.69C258.308 18.0713 257.585 17.6036 257.287 17.4335C256.607 17.0083 255.927 16.5832 255.289 16.1155C254.694 15.6903 254.141 15.2651 253.546 14.7974C253.206 14.5423 252.908 14.2872 252.568 14.0321C251.675 14.4998 250.782 15.01 249.932 15.5202L251.08 16.4981L252.228 15.8179L255.587 18.1138C256.182 18.5389 256.777 18.9641 257.415 19.3893C258.053 19.8145 258.69 20.2821 259.286 20.7923V20.4522C259.286 20.0696 259.498 19.7294 259.711 19.4318C259.923 19.0917 260.136 18.7515 260.306 18.4114C260.774 17.391 260.561 16.5406 260.008 15.6478C259.243 14.4148 257.67 13.777 256.607 12.8842L256.479 12.7991V12.6291C256.692 12.0764 256.947 11.5661 257.117 11.0134C257.457 10.1206 257.33 9.35526 257.032 8.4624C256.947 8.4624 256.862 8.50492 256.777 8.54744C251.59 10.3332 246.828 13.0542 242.661 16.6682C241.896 17.3059 241.173 17.9862 240.493 18.709L241.173 20.3247C241.981 19.4743 242.832 18.6665 243.724 17.9012C246.913 15.1376 250.485 12.8842 254.354 11.226C254.524 11.141 254.651 11.0985 254.779 11.0559L255.119 10.8859V11.2685C255.076 11.9488 254.609 12.6716 254.056 13.1818M295.17 10.8008C294.617 10.8008 294.192 11.2685 294.192 11.8213C294.192 12.374 294.66 12.7991 295.212 12.7991C295.765 12.7991 296.19 12.3315 296.19 11.7787C296.19 11.226 295.723 10.8008 295.17 10.8008ZM293.469 24.5338C292.917 24.5338 292.491 25.0015 292.491 25.5542C292.491 26.107 292.959 26.5321 293.512 26.5321C294.065 26.5321 294.49 26.0644 294.49 25.5117C294.49 24.959 294.022 24.5338 293.469 24.5338Z" fill="#A7B2B9"/>
<path d="M270 98.767C243.087 98.767 221.233 76.9133 221.233 50C221.233 23.0867 239.813 4.63436 263.878 1.61565C264.133 3.7415 265.536 5.56973 267.406 6.42007C265.281 7.39796 263.835 9.52382 263.835 12.0323C263.835 14.5408 265.281 16.6667 267.406 17.6446C265.281 18.6224 263.835 20.7483 263.835 23.2568C263.835 25.7653 263.835 23.2993 263.835 23.3418C251.675 26.148 242.619 37.0323 242.619 50.0425C242.619 63.0527 254.906 77.4235 270 77.4235C285.094 77.4235 297.381 65.1361 297.381 50.0425C297.381 34.949 288.325 26.148 276.165 23.3418V23.2568C276.165 20.7908 274.719 18.6224 272.594 17.6446C274.719 16.6667 276.165 14.5408 276.165 12.0323C276.165 9.52382 274.719 7.39796 272.594 6.42007C274.464 5.52721 275.825 3.7415 276.122 1.61565C300.145 4.63436 318.767 25.1276 318.767 50C318.767 74.8725 296.913 98.767 270 98.767ZM265.111 12.0323C265.111 9.31123 267.321 7.14287 270 7.14287C272.679 7.14287 274.889 9.35375 274.889 12.0323C274.889 14.7109 272.679 16.9218 270 16.9218C267.321 16.9218 265.111 14.7109 265.111 12.0323ZM280.162 25.8929C283.265 27.2109 286.071 29.0816 288.452 31.5051C290.833 33.8861 292.747 36.6922 294.065 39.7959C295.425 43.0272 296.105 46.4286 296.105 49.9575C296.105 53.4864 295.425 56.8878 294.065 60.119C292.747 63.2228 290.876 66.0289 288.452 68.4099C286.071 70.7908 283.265 72.7041 280.162 74.0221C276.93 75.3827 273.529 76.0629 270 76.0629C266.471 76.0629 263.07 75.3827 259.838 74.0221C256.735 72.7041 253.929 70.8333 251.548 68.4099C249.167 66.0289 247.253 63.2228 245.935 60.119C244.575 56.8878 243.895 53.4864 243.895 49.9575C243.895 46.4286 244.575 43.0272 245.935 39.7959C247.253 36.6922 249.124 33.8861 251.548 31.5051C253.929 29.1242 256.735 27.2109 259.838 25.8929C263.07 24.5323 266.471 23.852 270 23.852C273.529 23.852 276.93 24.5323 280.162 25.8929ZM270 22.6191C268.342 22.6191 266.684 22.7891 265.111 23.0442C265.196 20.4507 267.364 18.3248 270 18.3248C272.636 18.3248 274.804 20.4082 274.889 23.0442C273.316 22.7466 271.658 22.6191 270 22.6191ZM270 1.23299C271.658 1.23299 273.274 1.31803 274.847 1.4881C274.549 3.86905 272.466 5.7398 270 5.7398C267.534 5.7398 265.451 3.86905 265.153 1.4881C266.769 1.31803 268.384 1.23299 270 1.23299ZM316.088 30.5272C313.58 24.5748 309.966 19.2177 305.374 14.6258C300.782 10.034 295.425 6.42007 289.473 3.91157C283.308 1.31803 276.76 0 270 0C263.24 0 256.692 1.31803 250.527 3.91157C244.575 6.42007 239.218 10.034 234.626 14.6258C230.034 19.2177 226.42 24.5748 223.912 30.5272C221.318 36.6922 220 43.2398 220 50C220 56.7602 221.318 63.3078 223.912 69.4728C226.42 75.4252 230.034 80.7823 234.626 85.3742C239.218 89.966 244.575 93.5799 250.527 96.0885C256.692 98.682 263.24 100 270 100C276.76 100 283.308 98.682 289.473 96.0885C295.425 93.5799 300.782 89.966 305.374 85.3742C309.966 80.7823 313.58 75.4252 316.088 69.4728C318.682 63.3078 320 56.7602 320 50C320 43.2398 318.682 36.6922 316.088 30.5272Z" fill="#A7B2B9"/>
<path d="M278.886 67.3034C279.694 67.2608 280.587 67.3034 281.437 67.3034C281.055 68.7489 279.907 68.9615 278.248 68.9615C278.376 69.2591 278.546 69.2591 278.844 69.4292C282.118 71.0874 284.754 67.2608 283.265 64.4122C282.075 62.0313 279.779 62.584 279.056 64.7948C278.716 65.7727 278.674 66.8782 278.886 67.3459M281.692 65.4326C281.692 65.4326 281.522 65.9853 280.885 65.7302C280.544 65.5602 280.502 65.1775 280.629 64.8799C280.927 64.2846 281.99 64.7098 281.692 65.4326ZM258.053 61.3084C258.436 61.6486 258.818 61.7336 258.818 62.4989V63.0091C256.182 63.1792 256.31 65.4326 256.31 67.2183H260.476V59.6928C259.966 60.288 258.776 61.0108 258.01 61.3084M258.053 65.5601C258.095 65.0499 258.35 64.7948 258.818 64.7098V65.5601H258.053ZM273.529 62.0738L277.823 67.2183C278.291 67.8136 276.76 68.0261 276.208 67.5584L275.825 67.2183H261.794V65.5176H269.065C268.98 64.6248 268.342 64.7098 267.492 64.7098C265.493 64.7098 263.41 64.7948 261.709 64.7098C261.794 64.4547 262.22 64.1571 262.56 63.6469C262.73 63.4343 263.197 62.4564 263.325 62.3289C264.09 63.0091 263.197 63.0942 265.451 63.0942H267.237C268.172 63.0942 269.065 63.0942 269.745 63.5619C270.298 63.987 270.723 64.6248 270.723 65.5601H274.464C273.359 64.2421 272.296 62.9241 271.191 61.6061C271.701 61.1809 272.466 60.7983 273.572 62.1163M278.801 54.1231C279.566 53.4003 279.566 53.4428 279.566 52.72V50.1265C279.566 48.4683 279.269 48.1282 280.332 47.5329L280.119 47.3629C278.631 46.3425 278.759 45.7472 277.866 45.0244C277.866 47.618 277.866 49.1486 277.866 51.7846V52.5074C277.866 52.7625 277.441 53.0601 277.271 53.3153C276.888 52.9326 276.633 52.635 276.633 52.5499V45.152C275.782 45.9173 275.485 46.9377 274.209 47.4479C274.294 47.5755 274.209 47.4479 274.337 47.5755C275.187 48.4258 274.975 47.0653 274.975 49.2336V52.9326C274.975 53.4428 275.442 54.038 275.868 54.2506L275.485 54.6333C275.272 54.8459 275.017 54.9309 275.017 55.3561V58.2047H279.651V55.9938C279.651 54.7183 279.524 54.7608 278.886 54.1231M277.441 55.0585C277.653 55.3561 278.036 55.7387 278.036 55.8663V56.5466H276.803V55.8663C276.803 55.7387 277.228 55.271 277.441 55.0585ZM258.01 56.5891C258.01 56.1214 258.308 55.7387 258.818 55.7812V56.5891H258.563H258.265H258.01ZM263.793 48.8085C263.793 47.8731 264.218 47.9581 264.558 47.4479C264.303 47.1928 263.878 47.0653 263.197 46.385C262.985 46.1724 262.815 45.9598 262.645 45.7472C262.475 45.5346 262.305 45.1945 262.135 45.067V56.5466H260.434V50.5942C260.221 50.6792 260.264 50.6792 260.094 50.8493C259.243 51.6996 258.35 51.9122 257.968 52.2098C258.563 52.5074 258.776 52.6775 258.776 53.4853C258.776 54.2932 258.776 53.3153 258.776 53.9955C257.84 54.2081 257.415 54.2931 256.905 54.8884C256.14 55.8238 256.267 57.0142 256.267 58.2047H267.959V48.8085C267.959 48.2557 268.087 48.0431 268.47 47.703C268.555 47.618 268.555 47.618 268.64 47.5755C268.725 47.5329 268.725 47.5329 268.767 47.4479C268.257 47.0227 268.044 47.0653 267.407 46.385C267.194 46.1724 267.024 45.9598 266.854 45.7472C266.684 45.4921 266.514 45.237 266.344 45.067V56.5466H263.793V48.7659V48.8085ZM271.573 58.2472C271.701 57.652 271.573 51.6996 271.573 50.084C271.573 48.4683 271.318 48.4683 272.169 47.8731L272.466 47.618C271.956 47.4054 271.276 46.8527 270.978 46.5125L269.873 45.152V58.2897H271.573V58.2472ZM282.84 49.1061C282.84 48.3408 283.223 47.9581 283.691 47.6605C283.393 47.4904 283.138 47.3204 282.883 47.1503C282.628 46.9377 282.458 46.7676 282.245 46.555C281.777 46.0874 281.267 45.2795 281.14 45.152V58.2897H282.84V49.1486V49.1061ZM258.01 41.6656C258.01 41.1129 258.265 40.8578 258.818 40.8152V41.6656H258.01ZM271.361 43.3238C271.488 42.6435 271.361 36.8612 271.361 35.1605C271.361 33.4598 271.233 33.5874 271.573 33.1197C271.743 32.822 271.998 32.8221 272.169 32.6095C271.658 32.1418 271.531 32.4394 270.298 30.9088C270.17 30.7387 270.128 30.7387 270.085 30.5686L269.788 30.2285V41.7081H260.476V35.7557C260.009 36.2234 258.903 37.0738 258.01 37.3289L258.521 37.754C258.903 38.1792 258.776 38.4343 258.733 39.1146C257.16 39.2421 256.225 40.3901 256.225 42.0057C256.225 43.6214 256.097 43.3238 256.905 43.3238C258.691 43.3238 269.873 43.4088 271.318 43.3238M273.316 43.3238H275.017C275.187 42.4309 274.932 36.5636 275.017 34.1401C275.017 33.6724 275.23 33.2472 275.527 32.9921L275.868 32.737C275.357 32.5244 274.72 31.9717 274.422 31.6741C273.997 31.2064 273.444 30.3561 273.316 30.271V43.3663V43.3238ZM282.16 39.4972C282.925 38.7744 282.925 38.817 282.925 38.0942V35.5006C282.925 33.8425 282.628 33.5023 283.691 32.9496L283.478 32.7795C281.99 31.7591 282.117 31.1639 281.225 30.4411C281.225 33.0346 281.225 34.5652 281.225 37.2013V37.9241C281.225 38.1792 280.799 38.4768 280.629 38.7319C280.247 38.3493 279.992 38.0517 279.992 37.9666V30.5686C279.141 31.334 278.844 32.3969 277.568 32.8646C277.653 32.9921 277.568 32.8646 277.696 32.9921C278.546 33.8425 278.333 32.4819 278.333 34.6503V38.3493C278.333 38.8595 278.801 39.4547 279.226 39.6673L278.844 40.0499C278.631 40.2625 278.376 40.3476 278.376 40.7727V43.6214H283.01V41.4105C283.01 40.135 282.883 40.1775 282.245 39.5397M280.629 40.4326C280.842 40.6877 281.225 41.1129 281.225 41.2404V41.9207H279.992V41.2404C279.992 41.1129 280.417 40.6452 280.629 40.4326Z" fill="#A7B2B9"/>
</svg>
