<svg width="223" height="68" viewBox="0 0 223 68" fill="none" xmlns="http://www.w3.org/2000/svg">
<path d="M4.26245 50.1003C2.87402 49.3476 2.16504 48.7518 2.16504 47.5914C2.16504 46.431 2.60815 45.7724 3.81933 45.7724C5.03051 45.7724 5.82812 46.9642 6.09399 48.0932V48.1872L6.80297 48.0304V47.9364C6.6848 46.9014 6.59618 46.2115 6.5371 45.5843V45.302H6.44848C6.35985 45.302 6.27123 45.2393 6.18261 45.2393C5.7395 45.1452 4.97143 44.957 4.17382 44.957C2.37182 44.957 0.540283 46.0547 0.540283 48.1872C0.540283 50.3198 1.54468 50.7902 3.37622 51.8565C4.79418 52.6719 5.47362 53.2051 5.47362 54.5223C5.47362 55.8394 4.7351 56.4353 3.64208 56.4353C1.98779 56.4353 1.21973 54.9299 0.865236 53.6755V53.5814L0.15625 53.7696V53.8637C0.274414 54.7732 0.481202 56.153 0.628907 56.6548C0.628907 56.6862 0.687988 56.7175 0.687988 56.7175C1.42651 56.9998 2.31274 57.3134 3.34668 57.3134C5.59179 57.3134 7.21654 55.8394 7.21654 53.8323C7.21654 51.8252 6.21215 51.198 4.26245 50.1003Z" fill="#292D32"/>
<path d="M11.3823 53.3925L11.5596 53.2984C11.9141 53.1416 12.3867 52.8907 12.7117 52.7339V55.3682C12.4163 55.6819 11.9141 55.9014 11.53 55.9014C11.146 55.9014 10.437 55.5564 10.437 54.6156C10.437 53.6747 10.821 53.6747 11.3823 53.3925ZM15.3703 55.6191C15.1636 55.7446 14.9863 55.8073 14.8091 55.8073C14.3955 55.8073 14.3069 55.2742 14.3069 54.8037V51.4167C14.3069 50.4445 14.041 49.7859 13.3911 49.2528C12.9775 48.9078 12.4458 48.751 11.855 48.751C10.7915 49.0019 9.75757 49.7232 9.34399 50.0054C8.9895 50.2877 8.75317 50.5072 8.75317 50.8208C8.75317 51.3226 9.22583 51.7303 9.6394 51.7303C10.053 51.7303 10.1711 51.5735 10.2598 51.1972C10.4075 50.6954 10.5256 50.319 10.6733 50.0682C10.8801 49.8173 11.0869 49.6918 11.3823 49.6918C12.2095 49.6918 12.7117 50.3818 12.7117 51.5108V51.8871C12.3276 52.2007 11.2051 52.6084 10.2893 52.9534L10.0825 53.0161C9.10767 53.3925 8.66455 53.9883 8.66455 54.8978C8.66455 55.8073 9.4917 57.2185 10.8506 57.2185C12.2095 57.2185 12.0027 56.7168 12.623 56.2464C12.6821 56.215 12.7412 56.1523 12.8003 56.1209C12.8889 56.3718 12.9775 56.5913 13.1843 56.8109C13.3616 57.0304 13.7456 57.1872 14.1001 57.1872L15.6953 56.215L15.459 55.525L15.3703 55.5878V55.6191Z" fill="#292D32"/>
<path d="M23.4639 54.8673V48.7832H23.3752C22.873 48.9086 21.6914 49.0654 20.6279 49.1282H20.5393V49.7868L21.1301 49.8809C21.6323 49.9749 21.8096 50.0376 21.8096 50.9471V55.1182C21.3074 55.62 20.7756 55.8709 20.1848 55.8709C19.594 55.8709 18.7964 55.62 18.7964 54.0206V51.543C18.7964 50.3826 18.7964 49.5045 18.8555 48.9086V48.7832H18.7668C18.2351 48.8773 17.0239 49.0655 16.2263 49.0968H16.1377V49.724L16.6694 49.8495C17.0239 49.9436 17.1716 49.9749 17.1716 50.9158V54.4282C17.1716 56.9058 18.7078 57.188 19.3872 57.188C20.0666 57.188 21.012 56.6549 21.8391 55.9336V57.2194H21.9573C22.9617 56.8744 23.8774 56.6863 24.6455 56.5608H24.7046V55.8709H24.1728C23.6116 55.8081 23.4934 55.7454 23.4934 54.8673" fill="#292D32"/>
<path d="M31.3223 50.4763V55.3373C30.9678 55.6196 30.4065 55.8704 29.8748 55.8704C28.8113 55.8704 27.6592 54.7101 27.6592 52.6402C27.6592 50.5704 29.3726 49.5982 29.727 49.5982C30.4065 49.5982 31.0268 49.9118 31.3223 50.4449M32.9766 54.8042V43.9531H32.8584C32.1789 44.2354 30.9678 44.4863 30.1111 44.6117H30.0225V45.2703H30.1111C31.2336 45.3958 31.3223 45.3957 31.3223 46.462V48.8769C30.9087 48.7514 30.4065 48.7514 30.3474 48.7514C27.866 48.7514 25.8276 50.7585 25.8276 53.2047C25.8276 55.6509 27.7478 57.2504 29.1067 57.2504C30.4656 57.2504 29.668 57.1876 30.4065 56.7486C30.5542 56.6545 30.7314 56.529 30.9382 56.4036C31.0564 56.3095 31.2041 56.2468 31.3223 56.1527V57.2504H31.4404C32.3562 56.874 33.4492 56.6858 33.9809 56.5918C34.0696 56.5918 34.1287 56.5918 34.1582 56.5604H34.2173V55.8704H33.6265C33.0652 55.7764 32.947 55.7137 32.947 54.8042" fill="#292D32"/>
<path d="M37.436 54.9609V48.6572L37.3179 48.72C36.5793 49.0336 35.7227 49.2845 34.8069 49.4099H34.7478V50.0371H34.8069C35.7522 50.1939 35.7522 50.2567 35.7522 51.3229V54.9922C35.7522 56.184 35.6636 56.2467 34.6887 56.3408H34.6001V57.0307H38.5881V56.3408H38.4995C37.4951 56.2153 37.3769 56.184 37.3769 54.9922" fill="#292D32"/>
<path d="M36.5212 47.214C37.0825 47.214 37.5552 46.7122 37.5552 46.1163C37.5552 45.5205 37.1121 44.9873 36.5508 44.9873C35.9895 44.9873 35.4873 45.4891 35.4873 46.1163C35.4873 46.7436 35.96 47.214 36.5212 47.214Z" fill="#292D32"/>
<path d="M51.4097 53.7683C50.4939 55.6814 49.6077 56.3713 48.0715 56.3713C45.5015 56.3713 43.8176 54.176 43.8176 50.8204C43.8176 47.4647 45.3833 45.7712 47.8943 45.7712C50.4053 45.7712 49.1941 45.8966 49.5781 46.0848C50.3462 46.4298 50.7893 47.057 51.1733 48.3742V48.4683L51.9119 48.3115V48.2174C51.7346 47.0884 51.6164 45.8026 51.5869 45.3949V45.3321H51.5278C51.4097 45.3321 51.262 45.2694 51.0552 45.2381C50.4053 45.1126 49.46 44.8931 48.3079 44.8931C44.4675 44.8931 41.7793 47.4961 41.7793 51.1653C41.7793 54.8346 43.6995 57.2495 48.0124 57.2495C52.3254 57.2495 50.4053 56.9672 50.9961 56.8418H51.1733C51.1733 56.8104 51.1733 56.7477 51.1733 56.7477C51.4392 56.1832 51.8528 54.8973 52.1186 53.9879V53.8938L51.4687 53.6429V53.7056H51.4392L51.4097 53.7683Z" fill="#292D32"/>
<path d="M55.3384 51.6679C55.5452 50.4135 56.1951 49.5981 56.9336 49.5981C57.6721 49.5981 57.5835 49.7235 57.8198 50.0058C58.1152 50.3507 58.2925 50.8212 58.2925 51.3229C58.2925 51.5111 58.2629 51.6052 57.9675 51.6052C57.0518 51.6366 56.1655 51.6679 55.3384 51.6679ZM57.3176 48.72C56.3723 48.72 55.4565 49.2217 54.718 50.0371C53.9795 50.8525 53.5659 52.0129 53.5659 53.2674C53.5659 55.2431 54.7475 57.2189 56.9927 57.2189C59.2378 57.2189 58.647 57.1248 59.9172 55.3999V55.3372C59.9468 55.3372 59.5923 54.7727 59.5923 54.7727L59.5332 54.8354C58.9128 55.4313 58.2925 55.7135 57.6426 55.7135C56.9927 55.7135 56.4609 55.4626 56.0474 54.9922C55.5156 54.4277 55.2497 53.6123 55.2497 52.5774C57.0813 52.5147 59.2969 52.3579 59.6809 52.2638C60.0058 52.1697 60.0354 51.9188 60.0649 51.5738C60.0649 50.8212 59.7695 50.0685 59.2673 49.504C58.7651 48.9395 58.0857 48.6572 57.3767 48.6572" fill="#292D32"/>
<path d="M69.2229 55.0237V51.6053C69.2229 49.8177 68.3367 48.7201 66.9482 48.7201C65.5598 48.7201 65.9438 48.971 65.5303 49.2532C65.1462 49.5355 64.7917 49.7863 64.5259 49.9745V48.626L64.4077 48.6887C63.7283 49.0023 62.8716 49.2532 61.9263 49.41H61.8672V50.0686H61.9263C62.783 50.2254 62.8716 50.2568 62.8716 51.3544V55.0551C62.8716 56.2154 62.783 56.2154 61.7786 56.3409H61.6899V57.0308H65.5598V56.3409H65.4712C64.5554 56.2154 64.5259 56.2154 64.5259 55.0551V50.884C65.1167 50.3509 65.678 50.0686 66.2097 50.0686C67.1255 50.0686 67.5981 50.7272 67.5981 52.013V54.9923C67.5981 56.2154 67.5095 56.2468 66.6528 56.3409H66.5642V57.0308H70.2864V56.3409H70.1977C69.282 56.2154 69.2229 56.2154 69.2229 55.0551" fill="#292D32"/>
<path d="M75.5156 55.7134C75.1907 55.8702 74.8657 55.9643 74.5703 55.9643C73.9795 55.9643 73.6841 55.4312 73.6841 54.3649V49.9116H75.427C75.5452 49.7861 75.6338 49.6293 75.6633 49.4098C75.6633 49.253 75.6633 49.0648 75.5452 48.9707H73.7136C73.7136 48.0926 73.7136 47.0891 73.7727 46.3677V46.305L73.4182 46.2109C73.241 46.4305 73.0046 46.6186 72.7978 46.8382C72.5615 47.0577 72.3252 47.2772 72.148 47.4654V48.9394H71.439L70.9072 49.5666L71.0254 49.8802H72.148V54.9608C72.148 56.4348 72.7683 57.2188 73.95 57.2188C75.1316 57.2188 74.3931 57.1561 74.6885 56.9679L75.8996 56.3093L75.6929 55.6507H75.6042C75.6042 55.6821 75.6042 55.6821 75.6042 55.6821L75.5156 55.7134Z" fill="#292D32"/>
<path d="M82.3689 48.7201C81.6008 48.7201 80.9214 49.5041 80.3306 50.4449V48.626L80.2124 48.6887C79.4443 49.0337 78.6467 49.2532 77.731 49.41H77.6719V50.0372H77.7605C78.6467 50.1627 78.7058 50.1627 78.7058 51.2917V55.0551C78.7058 56.1841 78.6172 56.2154 77.6423 56.3095H77.5537V56.9995H81.6894V56.3095H81.6008C80.3601 56.1841 80.301 56.1527 80.301 55.0237V51.668C80.6555 50.7899 81.2463 50.3822 81.5122 50.3822C81.7781 50.3822 81.9553 50.539 82.2212 50.8213C82.3984 50.9781 82.5757 50.9781 82.7529 50.884C83.0779 50.6958 83.4324 50.2568 83.4324 49.7236C83.4324 49.1905 83.0483 48.7201 82.3394 48.7201" fill="#292D32"/>
<path d="M87.1843 53.3925L87.3616 53.2984C87.7161 53.1416 88.1887 52.8907 88.5137 52.7339V55.3682C88.2183 55.6819 87.7161 55.9014 87.332 55.9014C86.948 55.9014 86.239 55.5564 86.239 54.6156C86.239 53.6747 86.623 53.6747 87.1843 53.3925ZM91.2019 55.6191C90.9951 55.7446 90.8179 55.8073 90.6406 55.8073C90.227 55.8073 90.1384 55.2742 90.1384 54.8037V51.4167C90.1384 50.4445 89.8725 49.7859 89.2226 49.2528C88.8091 48.9078 88.2773 48.751 87.6865 48.751C86.623 49.0019 85.5891 49.7232 85.1755 50.0054C84.821 50.2877 84.5847 50.5072 84.5847 50.8208C84.5847 51.3226 85.0574 51.7303 85.4414 51.7303C85.8254 51.7303 85.9731 51.5735 86.0618 51.2285C86.2095 50.6954 86.3276 50.3191 86.5049 50.0995C86.7117 49.8486 86.9185 49.7232 87.2139 49.7232C88.041 49.7232 88.5432 50.4131 88.5432 51.5421V51.9185C88.1592 52.2321 87.0366 52.6398 86.1208 52.9848L85.9141 53.0475C84.9392 53.4238 84.4961 54.0197 84.4961 54.9292C84.4961 55.8387 85.3232 57.2499 86.6821 57.2499C88.041 57.2499 87.8342 56.7481 88.4546 56.2777C88.5137 56.2463 88.5727 56.1836 88.6318 56.1523C88.7204 56.4032 88.8091 56.6227 89.0159 56.8422C89.1931 57.0618 89.5771 57.2185 89.9316 57.2185L91.5268 56.2464L91.2905 55.5564L91.2019 55.6191Z" fill="#292D32"/>
<path d="M94.5989 55.0237V43.9531H94.4807C93.9194 44.204 92.8264 44.4863 91.8811 44.6117H91.7925V45.2703H91.8516C92.856 45.4271 92.915 45.4898 92.915 46.5248V55.0237C92.915 56.1527 92.8264 56.2154 91.822 56.3095H91.7334V56.9995H95.7214V56.3095H95.6328C94.5989 56.1841 94.5398 56.1213 94.5398 55.0237" fill="#292D32"/>
<path d="M102.899 50.2876H102.161V46.9633C102.161 46.4615 102.19 46.2733 102.308 46.1792C102.456 46.0538 102.751 46.0224 103.195 46.0224C104.553 46.0224 105.381 46.8065 105.381 48.155C105.381 49.5035 104.613 50.2876 102.929 50.2876M103.579 56.1522C102.988 56.1522 102.663 56.0581 102.456 55.8385C102.249 55.619 102.161 55.2427 102.161 54.5841V51.0716H102.84C104.908 51.0716 105.942 51.887 105.942 53.5805C105.942 55.274 104.672 56.1208 103.549 56.1208M105.233 50.5698C106.267 50.2249 107.242 49.3467 107.242 47.9041C107.242 46.4615 106.887 46.3047 106.208 45.8343C105.587 45.3952 104.731 45.207 103.549 45.207H98.9111V45.897H98.9998C100.329 46.0224 100.418 46.1479 100.418 47.5591V54.6782C100.418 56.0894 100.329 56.1835 98.9998 56.309H98.9111V57.0303H103.254C104.524 57.0303 105.41 56.8107 106.267 56.309C107.33 55.6817 107.951 54.6468 107.951 53.4864C107.951 52.3261 107.005 51.0089 105.262 50.6012" fill="#292D32"/>
<path d="M112.352 53.3925L112.53 53.2984C112.884 53.1416 113.357 52.8907 113.682 52.7339V55.3682C113.386 55.6819 112.884 55.9014 112.5 55.9014C112.116 55.9014 111.407 55.5564 111.407 54.6156C111.407 53.6747 111.791 53.6747 112.352 53.3925ZM116.37 55.6191C116.163 55.7446 115.986 55.8073 115.809 55.8073C115.395 55.8073 115.306 55.2742 115.306 54.8037V51.4167C115.306 50.4445 115.041 49.7859 114.391 49.2528C113.977 48.9078 113.445 48.751 112.854 48.751C111.791 49.0019 110.757 49.7232 110.344 50.0054C109.989 50.2877 109.753 50.5072 109.753 50.8208C109.753 51.3226 110.225 51.7303 110.639 51.7303C111.052 51.7303 111.171 51.5735 111.259 51.1972C111.407 50.6954 111.525 50.319 111.673 50.0682C111.88 49.8173 112.086 49.6918 112.382 49.6918C113.209 49.6918 113.711 50.3818 113.711 51.5108V51.8871C113.327 52.2007 112.205 52.6084 111.289 52.9534L111.082 53.0161C110.107 53.3925 109.664 53.9883 109.664 54.8978C109.664 55.8073 110.491 57.2185 111.85 57.2185C113.209 57.2185 113.002 56.7168 113.623 56.2464C113.682 56.215 113.741 56.1523 113.8 56.1209C113.888 56.3718 113.977 56.5913 114.184 56.8109C114.361 57.0304 114.745 57.1872 115.1 57.1872L116.695 56.215L116.458 55.525L116.37 55.5878V55.6191Z" fill="#292D32"/>
<path d="M124.495 55.0237V51.6053C124.495 49.8177 123.609 48.7201 122.22 48.7201C120.832 48.7201 121.216 48.971 120.802 49.2532C120.418 49.5355 120.064 49.7863 119.798 49.9745V48.626L119.68 48.6887C119 49.0023 118.144 49.2532 117.198 49.41H117.139V50.0686H117.198C118.055 50.2254 118.144 50.2568 118.144 51.3544V55.0551C118.144 56.2154 118.055 56.2154 117.051 56.3409H116.962V57.0308H120.832V56.3409H120.743C119.827 56.2154 119.798 56.2154 119.798 55.0551V50.884C120.389 50.3509 120.95 50.0686 121.482 50.0686C122.397 50.0686 122.87 50.7272 122.87 52.013V54.9923C122.87 56.2154 122.781 56.2468 121.925 56.3409H121.836V57.0308H125.558V56.3409H125.47C124.554 56.2154 124.495 56.2154 124.495 55.0551" fill="#292D32"/>
<path d="M134.775 56.3095C134.155 56.2468 133.918 56.2154 133.18 55.4C132.678 54.8355 131.053 52.797 130.639 52.1698C131.023 51.668 131.673 50.884 131.969 50.5704C132.678 49.7864 133.032 49.6609 134.155 49.4727H134.214V48.7828L130.551 48.9396V49.6295H130.639C130.905 49.6295 131.26 49.7236 131.319 49.8491C131.378 49.9745 131.319 50.0372 131.171 50.2254C130.905 50.6645 130.285 51.4485 129.901 51.8562C129.635 52.1384 129.369 52.3266 128.985 52.4521V43.9531H128.867C128.128 44.2667 127.124 44.5176 126.267 44.6117H126.179V45.239H126.238C127.213 45.4271 127.301 45.4271 127.301 46.4934V54.9923C127.301 56.09 127.242 56.1841 126.208 56.2781H126.12V56.9681H130.078V56.2781H129.99C128.956 56.1527 128.926 56.1213 128.926 54.9923V53.0793C129.015 53.0793 129.074 53.0793 129.103 53.0793C129.221 53.0793 129.281 53.142 129.517 53.4243C129.576 53.5183 130.994 55.3373 131.732 56.3409C132.028 56.6858 132.205 56.9681 132.235 56.9995H132.264C132.648 56.9995 133.653 56.9681 134.687 56.9681H134.775V56.2781H134.687L134.775 56.3095Z" fill="#292D32"/>
<path d="M55.3387 11.3687C55.4273 10.9924 56.0772 10.8042 55.9591 11.7137C55.8114 11.8078 55.4273 11.5569 55.3387 11.3687ZM55.7523 12.5291C55.6341 12.6859 55.516 12.78 55.3978 12.9368C55.2501 13.0936 55.191 13.1877 55.0138 13.3445C54.7184 13.6267 54.4525 13.8463 54.1571 14.0972C53.8912 14.3167 52.4732 15.4143 52.4142 15.6025C52.8868 15.5084 54.2162 14.6303 54.5707 14.348C54.9251 14.0658 55.6932 13.2818 55.9295 12.8741C55.9886 12.7486 55.9886 12.7486 56.0772 12.6232C56.284 12.7486 56.3431 12.7486 56.5204 12.9054C56.5204 12.9054 56.7567 12.435 56.7567 12.2782C56.7567 12.0587 56.4908 11.9646 56.284 11.8705C56.284 11.4628 56.4613 10.961 56.2545 10.5533C55.9295 9.86336 54.8365 10.961 54.9547 11.7764C54.9842 12.0273 55.1615 12.1214 55.2796 12.2468C55.3387 12.3096 55.4273 12.3723 55.516 12.4036C55.5455 12.4036 55.6046 12.4036 55.6341 12.4664L55.7523 12.5605V12.5291ZM55.1024 15.0066C55.0138 15.0694 55.0728 15.0066 55.0138 15.1321C54.9251 15.3202 54.9251 15.9788 54.6002 16.2297C54.4525 16.3552 54.1275 16.4493 54.0094 16.2297C53.8912 16.0102 54.0094 15.6652 54.0094 15.4143C53.5367 15.6652 53.2709 17.6096 54.4525 16.9824C55.6341 16.3552 54.6297 16.857 54.7479 16.7629C54.9251 16.6374 54.9547 16.7001 55.1615 16.7001C56.2545 16.7001 56.6976 14.9439 56.2545 14.4421C56.1363 14.5362 55.9295 14.9125 55.9591 15.1007C56.0477 15.3516 56.3431 15.6966 55.6046 15.9475C55.5455 15.9475 55.4569 15.9788 55.3978 15.9788C55.2205 15.9788 55.2796 15.9788 55.2205 15.8847C55.1024 15.6025 55.3387 15.1948 55.1024 15.0066ZM75.4857 16.3238C75.7515 16.0729 76.1946 14.9753 75.8697 14.5362C75.5152 14.0658 74.5108 14.348 74.0382 14.5362C73.0338 14.9439 71.8521 15.7593 71.1136 16.3552C70.4046 16.8883 69.1639 17.9232 68.5731 18.6446C67.8345 19.5854 65.7371 22.5647 68.0709 23.2547C69.7842 23.7565 72.827 23.3801 74.5404 23.2233C77.3467 22.9097 80.1827 22.5961 83.0186 22.3452C84.6434 22.2197 86.6817 22.1257 87.7747 23.3488C87.8338 23.4115 88.3064 23.9446 88.2178 24.0387C88.1587 24.1642 86.4454 24.2896 86.209 24.321C82.0142 24.8541 77.9376 25.4813 73.7723 25.9831C71.8226 26.2026 66.8892 26.5163 65.1759 25.7322C64.4078 25.3873 63.7284 24.7287 63.3148 24.0074C63.1966 23.8192 62.9898 23.3174 62.9307 23.2547C62.783 23.3174 62.724 23.4428 62.6649 23.6624C62.4285 24.5091 62.4285 24.7287 62.6649 25.2932C62.9307 25.8577 63.2262 26.5476 63.3739 27.2062C63.5806 28.147 63.5216 28.2411 62.7535 28.9938L61.3355 30.1542C60.2721 30.9382 57.2293 32.914 55.9886 31.5027C55.575 31.0323 55.191 30.4364 55.2205 29.6838C55.5455 29.5897 55.9591 29.3074 56.2545 29.1506C56.993 28.7743 58.411 27.8021 59.0313 27.2062C59.504 26.7358 60.0357 26.1086 60.0357 25.0423C60.0357 23.976 59.4744 23.6624 58.5291 23.3801C57.7315 23.1292 56.8748 23.0351 56.1659 22.6588C55.8114 22.4706 55.4273 22.2825 55.6637 21.718C56.0477 20.8398 56.993 19.6168 57.6725 19.0209C59.1495 17.7664 59.2677 19.115 59.4745 19.3031C59.7108 19.2404 59.888 18.77 59.9176 18.425C60.0062 17.641 59.7108 16.7315 58.9132 16.857C58.4405 16.9197 58.0269 17.296 57.702 17.5469C57.5543 17.6724 57.4952 17.7351 57.377 17.8605C56.6976 18.5191 56.1954 19.2404 55.7523 20.0872C55.4569 20.6203 55.191 21.3416 55.0728 22.0316C54.8956 23.0665 54.9547 23.5683 55.5455 24.0701C56.4022 24.7914 58.7064 24.7914 59.2972 25.3873C59.4154 25.6381 58.6473 26.1086 58.4996 26.234C58.1746 26.4535 57.8792 26.6417 57.5247 26.8612C57.1112 27.1435 55.8704 27.8648 55.3978 27.9902C55.4569 27.5825 55.7523 26.7671 55.7227 26.4222C55.3978 26.579 55.191 27.9275 55.0728 28.1157C54.9842 28.2411 54.4229 28.4293 54.2752 28.4607C52.6505 29.0565 50.2577 29.4329 49.1646 27.8648C47.4217 25.3872 49.5191 22.2825 49.5782 21.4671C49.4305 21.4671 49.3714 21.5925 49.2828 21.718C49.1942 21.8434 49.1351 21.9375 49.076 22.0943C47.5399 24.8227 47.0672 30.3423 51.1734 30.6246C52.7687 30.75 53.6253 30.1855 54.8365 29.8092C54.7479 31.44 55.2206 32.8513 56.3136 33.3217C57.6725 33.9489 59.6812 32.8199 60.7743 32.0672C61.8968 31.2832 63.1966 30.2169 63.817 28.9311C64.201 28.0843 64.0533 27.708 64.1419 26.7671C64.3783 26.8612 64.6146 27.018 64.8804 27.1435C65.1463 27.2689 65.4122 27.363 65.6781 27.4571C67.2733 27.8962 70.1092 27.8648 71.734 27.708C74.3336 27.4571 76.9036 27.0808 79.4737 26.7044C82.3392 26.2967 85.2637 25.8577 88.0701 25.4813C88.5428 25.4186 88.5428 25.3872 88.7495 25.0423C89.8426 23.1606 88.6019 21.6239 86.9476 20.9967C85.6182 20.4949 84.4957 20.5576 83.0481 20.683C81.7483 20.7771 80.3895 20.9339 79.1192 21.0907C76.4901 21.4357 71.6158 22.0943 69.1048 21.6552C68.7799 21.5925 67.5391 21.373 67.7755 20.8399C67.9232 20.4635 69.4888 18.9895 69.991 18.5818C70.7886 17.9232 71.5567 17.296 72.5611 16.7001C75.397 15.0066 75.0721 16.1356 75.5447 16.2611M24.173 24.8227C23.8185 24.8855 23.4049 24.9482 23.0209 24.8855C22.7255 24.8227 22.2824 24.5405 22.5778 24.2269C22.9027 23.8505 23.7299 24.0387 24.173 24.8227ZM0.362962 21.1848L0.303877 21.718C0.185713 22.6902 0.540208 23.192 0.953782 23.0665C0.835618 23.286 0.746992 23.5369 0.68791 23.7878C0.392501 24.6659 0.244798 25.5127 0.215257 26.4849C0.156175 28.3352 0.62883 29.9974 2.34221 30.6873C4.55778 31.5968 8.33902 29.7151 10.2001 28.2725C10.3478 28.147 10.4955 28.0843 10.6432 27.9275C10.7318 27.8648 10.7909 27.8021 10.85 27.7394L11.0863 27.5512C10.9977 27.9902 10.85 28.4293 10.7614 28.8997C10.5546 30.1228 10.4364 32.224 11.7067 32.6317C12.6225 32.914 13.4792 32.2868 14.0995 31.9418C14.5131 31.7222 15.7538 30.8128 16.0197 30.6873C16.1083 30.8441 16.1969 31.3459 16.3446 31.5968C17.5263 33.9489 20.185 32.8826 21.7506 31.6909C22.7255 30.9069 23.9957 29.7778 24.7343 28.7743C25.266 28.053 25.6205 27.0808 25.65 26.1399C25.9159 25.9831 26.5363 25.7322 26.8612 25.5754L30.0516 24.1014C29.7267 25.105 29.2836 26.7671 29.579 27.8021C29.6971 28.147 29.9039 28.4607 30.1403 28.6175C31.056 29.2447 32.3854 28.7743 33.183 28.0843C33.7443 27.5825 34.2465 26.6417 34.5714 26.7044C34.7191 27.1121 34.5123 27.6766 35.1327 28.2411C35.4872 28.5861 36.2552 28.6488 36.787 28.5234C37.3187 28.3979 37.7618 28.0216 38.0868 27.7394C38.9139 26.8926 38.6481 27.018 38.973 26.6417C39.0616 26.5476 38.973 26.6417 39.0912 26.5476C39.2093 27.6139 39.682 28.5234 40.8636 28.3039C41.3658 28.2098 41.6908 27.8962 41.9271 27.5825C42.0453 27.3944 42.1634 27.2376 42.2521 27.018C42.3407 26.8299 42.4293 26.579 42.5475 26.4222C42.7838 26.7358 42.8724 27.5512 43.6109 27.9275C44.379 28.3039 44.9698 27.9902 45.4129 27.5512C46.2106 26.7985 46.6537 25.105 46.6832 23.5996C46.6832 21.5925 46.3583 17.1392 46.181 14.7557C46.181 14.4108 46.0924 13.8463 46.1219 13.5013C46.3287 13.5954 46.4469 14.0031 46.8309 14.0658C46.89 13.5954 46.4469 12.5918 46.2992 12.1527C46.181 11.8078 45.7674 10.522 45.5902 10.3338C45.413 10.4279 45.2652 11.0551 45.1766 11.2746C44.9403 11.9332 45.1175 11.8078 45.2062 12.3723C45.2652 12.6859 45.3243 14.5049 45.3539 15.0066C45.4425 16.7629 45.5902 18.6132 45.7084 20.3694C45.7674 21.373 46.0924 24.8855 45.8265 25.6381C45.7379 25.889 45.3243 26.1086 45.088 26.234C44.4381 26.5476 43.5814 26.4849 43.2565 25.7322C43.0497 25.2304 43.2565 24.8227 43.1383 24.5405C42.8724 24.5405 42.8429 24.7914 42.6952 25.0109C42.3702 25.5754 41.9862 26.234 41.3068 26.5163C40.7159 26.7672 40.2728 26.6731 39.9479 26.2654C39.357 25.45 39.9479 25.1364 39.7706 24.76C39.4161 24.7914 38.6481 26.3908 37.3187 26.7985C36.7279 26.9867 35.9894 26.9553 35.5167 26.6417C34.6896 26.0772 35.3099 25.1364 35.1031 24.9482C34.7782 24.6346 33.8033 26.4849 32.474 26.9867C31.9127 27.2062 31.0856 27.3317 30.4948 27.1121C29.2836 26.6417 30.2584 24.6973 30.4061 23.8819L32.7399 22.8156C33.1239 22.6274 33.6261 22.4706 33.8033 22.157C33.951 21.9061 34.3646 21.1848 34.3351 20.9339C33.951 20.9339 31.4401 22.2198 30.5538 22.4393C29.3131 22.7215 28.545 22.3138 27.6293 21.5925C27.0385 21.1221 26.1818 19.899 26.0931 19.0836C26.0931 18.7386 26.4772 18.5505 26.7726 18.425C28.0133 17.8605 29.9039 17.641 31.2628 17.8605C31.5878 17.9232 32.0604 18.08 32.3558 18.08C32.2967 17.8919 32.2377 17.8605 32.09 17.7351C31.765 17.4842 31.4401 17.2647 31.0856 17.0765C29.9926 16.5433 28.5746 16.3552 27.452 16.8256C25.1183 17.7978 24.7933 20.6517 26.5363 22.7215C26.7135 22.9411 27.4225 23.5683 27.777 23.6937C27.7474 23.7251 27.777 23.6937 27.6884 23.7565C27.5407 23.8505 27.3634 23.9133 27.2157 23.976C27.0385 24.0701 26.8317 24.1328 26.6544 24.2269C26.2704 24.3837 25.8864 24.6032 25.4728 24.6659C25.3842 24.3523 25.0592 23.8505 24.882 23.5996C22.9913 20.683 20.7758 25.1677 22.2233 26.1399C22.9618 26.6103 24.0548 26.4849 24.882 26.2967C25.0297 27.1435 24.882 27.1121 24.4979 27.6139C24.2911 27.8962 23.9071 28.3352 23.6117 28.5548L22.6664 29.4015C21.6325 30.2169 20.4508 31.095 19.1215 31.3145C17.9694 31.5027 16.965 31.0637 16.6105 30.2483C16.64 30.1855 16.6105 30.2483 16.6991 30.1542C16.7582 30.0915 16.6991 30.1542 16.7582 30.0915L18.4125 28.837C19.0624 28.3039 19.476 27.9275 19.6532 26.8926C19.7714 26.2654 19.7418 25.5441 19.5351 24.9795C19.3283 24.4464 18.9442 24.1955 18.4716 23.9133C18.0285 23.6624 17.5558 23.4428 17.0832 23.192C16.4923 22.8783 14.8971 22.0002 14.6017 21.4671C14.8971 21.4671 15.3107 21.5298 15.4879 21.3416C15.4289 21.028 14.6608 20.7458 14.3654 20.589C14.1586 20.4635 13.9518 20.4008 13.745 20.2753C13.6269 20.2126 13.5382 20.1499 13.4496 20.1185C13.0656 19.899 13.1542 20.3067 13.1542 20.6203C13.1542 21.8121 13.0656 21.4357 13.5973 21.9061C13.8336 22.0943 13.9223 22.3138 14.0995 22.5334C14.4245 22.9724 14.8085 23.3488 15.2516 23.6937C15.3698 23.7878 15.4584 23.8505 15.5766 23.9446C15.6652 24.0073 15.7833 24.1014 15.9015 24.1642C16.3742 24.4464 16.8468 24.6973 17.349 24.9482C17.7331 25.1364 19.8895 26.1086 19.2692 26.7671C19.0329 27.018 16.7582 28.7116 16.3742 28.8997C16.3742 27.8334 16.9059 26.6731 16.9059 25.9204C16.7582 25.9831 16.7582 26.0772 16.6696 26.2654C16.6105 26.3908 16.581 26.5163 16.5219 26.6417C16.4333 26.8926 16.3446 27.1748 16.2855 27.4257C16.1378 28.0216 16.0492 28.5548 15.9901 29.182C15.8424 29.2447 15.6061 29.4329 15.4289 29.5269C14.8676 29.8719 14.2768 30.2796 13.6859 30.5619C12.8883 30.9382 11.6476 31.5027 11.1454 30.3737C10.9386 29.9033 11.0273 29.2133 11.1159 28.7116C11.175 28.4293 11.3817 27.3316 11.4704 27.1748C11.5294 27.0808 11.5885 27.0494 11.6772 26.924C11.7362 26.8299 11.7953 26.7672 11.8839 26.6417C12.2384 26.0145 12.4748 25.0736 12.1498 24.3837C11.7362 23.4115 9.37296 23.3801 8.27994 22.7215C7.71866 22.3766 7.77775 22.0943 8.1027 21.4984C8.51627 20.683 9.07755 19.9617 9.72745 19.3659C9.81607 19.2718 9.84562 19.2091 9.96378 19.1463C10.0819 19.0836 10.1115 19.0209 10.2296 18.9582C10.3774 18.8327 10.6137 18.7073 10.85 18.6446C11.559 18.4877 11.559 19.2718 11.7953 19.4286C12.0316 19.3345 12.2089 18.8954 12.2384 18.5505C12.2975 18.1428 12.2384 17.7037 12.0612 17.3901C10.9386 15.6652 7.77775 19.6481 7.36417 22.2511C7.21647 23.2547 7.27555 23.7565 7.89591 24.2269C8.69352 24.8541 11.6181 25.105 11.6476 25.6068C11.4999 26.1086 8.92984 27.5825 8.22086 27.9275C6.98014 28.5234 5.41447 29.182 3.81926 29.1506C2.16496 29.1193 1.07194 28.0216 0.865158 26.3908C0.569748 24.2896 1.81047 22.4393 1.89909 21.6552C1.95817 21.4357 2.01725 21.1848 2.07634 20.9026C1.89909 21.028 1.92863 21.0594 1.75139 21.3416C1.63322 21.5298 1.57414 21.6866 1.36735 21.7493C0.806075 21.9061 0.865157 20.9967 0.924239 20.4949C1.0424 19.3345 1.66276 18.2369 1.92863 17.2333L1.69231 17.5783C1.19011 18.4878 0.599288 19.9931 0.481124 21.0594M103.491 27.363C102.457 27.363 101.659 27.363 100.743 26.7671C100.359 26.5163 99.6206 25.8577 99.6206 25.1364C99.6206 23.5056 100.3 22.847 100.241 22.2198C100.005 22.3138 99.6797 23.1606 99.5615 23.5056C99.2661 24.321 99.2366 24.8541 99.2366 25.7009C99.2366 27.708 100.773 29.0565 102.663 29.0565H103.195C105.204 29.0565 107.331 27.7393 108.867 26.7358C109.192 26.5163 109.458 26.234 109.753 25.9831C110.758 25.1677 110.787 24.1642 110.964 23.8819C111.083 25.2618 111.083 27.9902 113.032 27.9902C114.982 27.9902 113.859 27.9902 114.302 27.6139C114.598 27.363 114.746 27.2376 114.952 26.8926C115.159 26.579 115.78 25.3559 115.957 25.1991C116.282 25.5127 116.164 26.5476 117.818 27.4571C119.886 28.5861 122.899 28.2411 125.055 27.5198C125.676 27.3003 126.651 26.9553 127.241 26.6417C127.448 26.5476 127.744 26.2967 127.95 26.3281C128.069 26.924 128.069 27.1435 128.423 27.5198C128.748 27.8648 129.221 27.9589 129.782 27.9589C130.609 27.9589 131.289 27.018 131.554 26.3908C132.352 24.415 132.145 22.5647 131.998 20.4321L131.702 15.9788C131.643 15.3203 131.495 14.1285 131.584 13.5013C131.702 13.564 132.293 14.4108 132.293 13.8776C132.293 13.3445 131.229 10.4906 131.023 10.3024C130.875 10.3965 130.52 11.4001 130.491 11.6196C130.491 11.8391 130.609 12.1528 130.639 12.4036C130.698 12.6859 130.698 12.9681 130.698 13.2818C130.698 15.0066 130.993 18.5818 131.141 20.4008C131.2 20.9967 131.229 21.5612 131.259 22.157C131.318 23.2233 131.377 23.6624 131.377 24.7287C131.377 25.7949 131.318 25.5754 130.934 25.8263C130.314 26.2654 129.191 26.4849 128.748 25.8263C128.482 25.45 128.748 24.9482 128.659 24.5719C128.482 24.5719 127.478 25.105 127.212 25.1991C125.558 25.889 123.933 26.3281 122.072 26.4222C120.861 26.4849 119.324 26.4535 118.35 25.9518C117.641 25.5754 116.932 25.1677 116.695 24.3837C116.607 24.0701 116.636 23.631 116.548 23.4428C116.282 23.3801 116.252 23.5683 116.134 23.7565C115.218 25.0736 114.805 26.2654 113.239 26.2654C111.673 26.2654 111.88 24.3523 111.792 23.0665C111.703 21.5612 111.703 20.0245 111.644 18.5191C111.585 17.0138 111.526 15.6025 111.319 14.1599C111.171 13.1563 110.846 11.0551 110.521 10.2711C110.344 10.3651 110.344 10.522 110.285 10.8356C110.078 11.9959 110.108 11.8391 110.285 12.9681C110.787 16.3238 110.876 18.5505 110.935 22.0316C110.935 23.2547 110.758 23.5369 110.049 24.321C109.724 24.6973 108.631 25.4186 108.247 25.6381C107.094 26.2967 105.174 27.2689 103.609 27.2689M96.3416 24.2269C96.6665 24.1642 96.9915 24.1014 97.2869 24.2269C97.5528 24.321 97.7891 24.4464 97.7595 24.76C97.4937 25.0109 96.7256 24.8855 96.3416 24.2582M94.9236 23.1606C94.5691 23.5369 92.4717 24.6032 91.6446 23.976C91.3196 23.7251 91.3196 23.286 91.0537 23.0351C90.8765 23.192 90.7583 23.8192 90.6697 24.1328C90.5515 24.6032 90.8174 24.9482 90.9651 25.3245C91.1424 25.7636 91.6741 27.363 91.4673 27.8334C91.4378 27.9275 91.2014 28.1784 91.1424 28.2725L89.9312 29.3388C88.8086 30.2483 87.5679 31.1577 86.1795 31.5968C85.1751 31.9104 84.5252 31.8477 83.9344 31.2205C83.4322 30.6873 83.1368 29.8719 83.2549 28.8684C83.3436 27.9902 83.7571 26.579 83.7571 26.2654C83.6094 26.3281 83.5799 26.4535 83.4617 26.7358C82.93 28.1157 82.5755 30.0601 83.0186 31.4714C84.2002 35.4229 88.6609 32.2554 90.4925 30.5305C91.8514 29.2447 91.9695 27.8962 91.9695 25.7949C92.6194 25.9204 93.2989 25.7009 93.8011 25.4813C94.4214 25.2304 94.9827 24.8227 95.2781 24.6973C95.7212 26.0458 97.9072 27.6453 98.4981 25.4813C98.7639 24.5719 98.4981 23.5056 98.055 22.9724C97.6118 22.4706 96.9619 22.502 96.312 22.6588C96.1053 22.7215 95.8985 22.8156 95.7212 22.847C95.1895 22.0002 94.8055 14.7871 94.8055 13.2504C94.9532 13.3131 94.8941 13.2504 94.9827 13.4072C95.0418 13.4699 95.0713 13.5326 95.1304 13.564C95.219 13.6895 95.3372 13.8149 95.4849 13.8149C95.6031 13.4699 94.6282 10.961 94.3623 10.3024C94.3033 10.177 94.3328 10.177 94.2442 10.1143C94.0669 10.2397 93.742 11.306 93.7124 11.4628C93.7124 11.651 93.8306 11.9646 93.8601 12.2155C93.9192 12.4977 93.9192 12.8113 93.9192 13.0936C93.9488 15.5711 94.1851 19.1777 94.5987 21.6239C94.6873 22.0629 94.7759 22.8156 94.8941 23.192M134.184 25.9831C134.184 26.7671 134.065 27.708 134.095 28.2725C134.331 28.147 134.627 27.0494 134.715 26.6417C135.099 24.8855 134.922 23.3488 134.804 21.5612L134.449 16.2611C134.449 15.7907 134.272 13.8776 134.302 13.564C134.509 13.6581 135.011 14.4421 135.011 14.0344C135.011 13.6267 134.568 12.5604 134.449 12.1841C134.331 11.8391 133.918 10.5533 133.74 10.4279C133.563 10.5533 133.179 11.651 133.209 11.9646C133.238 12.2782 133.356 12.435 133.415 12.8427C133.415 13.1877 133.415 13.5326 133.445 13.8776C133.534 15.2575 133.622 16.5747 133.681 17.9232C133.77 19.2404 133.859 20.589 133.947 21.9061C134.006 22.9411 134.184 25.0423 134.184 25.9831ZM49.6668 11.6823C49.6668 11.7764 49.8146 12.2155 49.8441 12.4036L49.9918 15.0694C50.0509 16.2611 50.1395 17.4528 50.2281 18.6132C50.3167 19.8049 50.3758 20.9653 50.4645 22.1884C50.5531 23.3488 50.7008 25.0109 50.6712 26.1399C50.6712 26.7358 50.5531 27.5198 50.5826 28.053C50.7303 27.9902 50.7303 27.9275 50.8189 27.708C51.7052 25.5127 51.4393 23.631 51.2916 21.3416L50.9371 16.0416C50.9076 15.5084 50.7303 13.7522 50.7894 13.3758C50.9962 13.4386 51.1439 13.9403 51.4984 13.9403C51.4984 13.4072 50.8485 11.7451 50.6122 11.0865C50.5235 10.8356 50.3758 10.3338 50.2281 10.2083C50.0804 10.3338 49.6964 11.3687 49.6964 11.651M101.541 23.4428C101.541 24.2582 101.423 25.4186 101.452 25.889C101.925 25.6381 102.309 23.1292 102.309 22.3766L101.777 13.3131C102.043 13.4386 102.191 13.8776 102.486 13.8776C102.604 13.564 101.807 11.5569 101.629 11.0551C101.541 10.8356 101.393 10.2711 101.245 10.1456C101.068 10.2711 100.802 11.1178 100.714 11.4314C100.655 11.7137 100.802 11.9019 100.861 12.1841C100.92 12.435 100.92 12.7486 100.92 13.0309C100.95 14.9439 101.216 17.9546 101.334 19.9617C101.423 21.0907 101.541 22.3766 101.541 23.4742M76.3719 18.77C76.5787 18.7073 76.9036 18.4564 77.1104 18.3309C77.3467 18.1741 77.6126 18.0487 77.8489 17.8919C79.5032 16.8883 83.7571 14.5049 85.2933 13.7835C86.0318 13.4386 86.8294 12.9995 87.5975 12.6232C87.8338 12.5291 87.8042 12.5604 87.8338 12.2782C87.8338 12.09 87.8929 11.9332 87.9224 11.7137C87.4793 11.8078 82.5164 14.4108 81.7779 14.8185C80.6849 15.4143 77.5831 17.1706 76.6968 17.8292C76.5196 17.9546 76.431 18.425 76.4014 18.7386M119.649 24.415L121.924 23.0665C122.308 22.847 122.692 22.6274 123.076 22.4079C123.401 22.2198 123.903 21.9061 124.258 21.7807C123.903 22.6274 123.549 23.2547 123.578 24.3837C123.578 25.5441 124.583 25.45 124.76 23.8819C124.583 23.9446 124.406 24.7287 124.021 24.3523C123.637 23.9446 124.11 22.5334 124.258 22.0316C124.376 21.6552 124.258 21.7807 125.026 21.3416C125.351 21.1535 128.423 19.554 128.748 19.46L128.866 18.8014C128.6 18.8641 126.739 19.8049 126.385 20.0245C124.376 21.0594 122.958 21.8748 121.038 23.0038C120.861 23.1292 120.654 23.2547 120.477 23.3488C119.945 23.631 119.768 23.6624 119.649 24.415ZM105.558 23.0038C105.411 23.3174 104.79 23.5683 104.436 23.7565C104.288 23.8505 103.284 24.2896 103.254 24.4778C103.756 24.5719 104.495 24.3523 104.968 24.2269C105.529 24.1014 105.617 23.9446 106.031 23.2233C107.301 21.1221 105.44 21.9689 104.702 21.4044C104.702 21.0907 105.115 20.7144 105.352 20.589C105.677 20.3694 105.588 20.7144 105.795 20.7144C105.972 20.7144 106.09 20.4635 106.149 20.3381C106.651 19.0836 105.795 18.5818 104.495 20.6517C104.17 21.1848 103.579 22.4079 104.347 22.7843C104.761 23.0038 105.263 22.8783 105.558 23.0038ZM121.954 13.5013C121.865 13.3445 121.865 13.0622 121.806 12.9054C121.658 12.3723 121.333 11.6823 120.742 11.6823C120.595 11.9646 120.181 12.3723 120.742 12.7173C121.008 12.8741 120.979 12.7173 121.156 12.6859C121.333 12.8427 121.747 13.9403 121.806 14.348C121.658 14.4735 121.599 14.5362 121.54 14.7871C121.481 14.9753 121.422 15.2575 121.481 15.4143C121.54 15.3516 121.717 15.1007 121.747 15.0694C121.835 15.0066 121.865 15.0066 121.983 15.0694C122.013 15.0694 122.042 15.0694 122.072 15.1321C122.16 15.1948 122.101 15.1321 122.16 15.2262C121.954 15.3516 121.481 15.383 121.333 16.0102C121.215 16.4493 121.363 17.0138 121.451 17.4528C121.54 17.9232 121.629 18.3623 121.688 18.8327C121.717 19.115 121.747 20.2753 121.806 20.4008C122.042 20.0558 121.954 18.7386 121.895 18.2682C121.806 17.6096 121.658 16.951 121.481 16.3552C121.688 16.0416 122.279 15.9161 122.633 15.822C122.84 15.7593 122.84 15.7279 122.928 15.5398C123.076 15.1634 123.017 15.0066 122.781 14.7871C122.367 14.4108 122.219 14.4108 122.072 14.3167C122.308 13.5013 122.279 13.4699 122.426 12.8113C122.751 11.5569 122.988 12.2782 123.224 12.3723C123.726 12.0273 123.047 10.8042 122.544 11.651C122.16 12.3409 122.19 13.2504 122.013 13.5326M106.386 12.09C107.124 11.5569 107.006 12.4664 106.947 12.6232C106.829 12.5918 106.71 12.5291 106.622 12.4664C106.474 12.3723 106.386 12.3409 106.386 12.1214M106.681 13.3758C106.592 13.5013 106.415 13.6581 106.297 13.7835C105.765 14.3167 104.702 15.038 104.022 15.4771C103.786 15.6339 103.225 15.9788 103.106 16.167C103.372 16.1356 103.993 15.822 104.259 15.6966C104.643 15.5084 104.997 15.3516 105.322 15.1007C106.71 14.0972 106.592 13.8463 106.976 13.4699L107.301 13.6581C107.331 14.1285 106.77 15.2262 107.006 16.1043C107.272 17.0138 108.128 16.4179 108.099 15.2262C107.951 15.383 107.774 16.0102 107.419 15.7907C106.976 15.4771 107.419 14.0658 107.538 13.6267C107.744 12.9681 107.449 12.9995 107.242 12.7486C107.922 9.58111 105.086 12.1214 106.208 13.0622C106.415 13.219 106.533 13.2504 106.681 13.3758ZM53.5958 33.2276C53.7435 33.0708 54.1571 32.2868 54.1571 31.9418C53.9798 31.785 53.1527 31.095 52.8573 31.0637L52.4142 32.0045C52.296 31.9418 52.2664 31.8791 52.1187 31.7536C51.912 31.5968 51.3802 31.1891 51.1734 31.1577C51.0848 31.2518 50.6417 32.1927 50.6122 32.3808C50.6712 32.4436 51.7643 33.2903 51.912 33.3217C51.971 33.1962 52.296 32.4749 52.3846 32.3808C52.7096 32.5376 53.389 33.1649 53.5958 33.2276ZM96.6961 29.8092C97.021 29.4329 97.4346 29.8092 97.4051 30.2483C97.1983 30.2483 96.7847 29.966 96.6961 29.8092ZM90.7583 33.5412C90.9947 33.6039 92.1763 33.259 92.4717 33.1649C93.2398 32.9767 93.4466 32.9453 94.0669 32.569C94.9532 32.0359 95.7508 31.44 96.1053 30.4364C96.1053 30.4051 96.1053 30.3423 96.1643 30.311C96.1939 30.2169 96.1643 30.2483 96.2234 30.2169C96.3416 30.3423 97.1392 31.095 97.4641 30.7814C97.6414 30.6246 97.8482 29.7778 97.4937 29.2447C96.9324 28.4293 96.5188 29.4642 96.4597 29.5269C96.2825 29.6838 96.4597 29.2447 96.0462 30.0287C95.928 30.2483 95.8098 30.5305 95.6917 30.6873C94.451 32.0986 91.2015 33.1649 90.7583 33.5412ZM7.30509 33.2276C7.4528 33.0708 7.86637 32.2868 7.86637 31.9418C7.63004 31.7536 6.83244 31.095 6.56657 31.0637C6.47794 31.2832 6.21207 31.785 6.15299 32.0045C5.88712 31.8791 5.23722 31.2205 4.88273 31.1577C4.7941 31.2518 4.35099 32.224 4.32145 32.3808C4.35099 32.4436 5.50309 33.2903 5.62125 33.3217C5.68033 33.1962 6.00529 32.4749 6.09391 32.3808C6.41886 32.5376 7.0983 33.1649 7.30509 33.2276ZM27.1566 30.9696C27.1271 31.0637 26.0341 32.6317 27.0089 33.0081C27.3634 33.1335 27.9247 33.0081 28.2201 32.914C28.5155 32.7885 28.9586 32.5063 29.0768 32.2868C28.7223 32.3181 28.3383 32.4749 27.9247 32.5376C26.2409 32.7258 26.8908 31.785 27.5997 31.0637C27.9542 30.6873 28.4269 30.5305 28.3383 29.8406C28.1019 29.9346 27.8065 30.5932 27.2748 30.3737C26.7726 30.1542 27.2157 29.7465 27.3634 29.7465C27.5111 29.7465 27.5407 29.8406 27.5997 29.9347C27.8951 29.7151 27.9247 29.2761 27.7179 29.2133C27.393 29.0879 26.7135 29.966 26.6544 30.3737C26.5953 30.75 26.8317 30.9382 27.1271 31.0323M40.5091 14.348C40.5682 14.1285 40.775 14.0031 41.0113 14.0344C41.1295 14.2226 41.159 14.3794 41.1295 14.6617C40.9227 14.6617 40.5978 14.4735 40.5091 14.3167M40.9227 15.5398L40.1842 16.3552C39.5934 16.9824 38.2345 18.0487 37.6437 18.6446C37.7323 18.7073 37.5846 18.7073 37.7914 18.6446L38.1754 18.425C38.7367 18.08 39.1798 17.8605 39.7115 17.4215C40.2137 16.9824 41.0409 16.1356 41.159 15.6025C41.4249 15.6025 41.5431 15.7907 41.7203 15.8847C41.7794 15.6652 41.9271 15.4143 41.8976 15.1634C41.7499 15.038 41.5726 14.9753 41.3954 14.8185C41.4249 14.4421 41.5135 13.8776 41.3068 13.5013C40.8932 12.7173 39.3866 14.5989 40.391 15.2575C40.5978 15.383 40.775 15.383 40.8932 15.5398M26.6249 11.8705C26.7135 11.4942 27.3634 11.306 27.2452 12.2155C27.0975 12.3096 26.7135 12.0587 26.6249 11.8705ZM27.0089 13.0309C26.8908 13.1877 26.7726 13.2818 26.6544 13.4386C26.5067 13.5954 26.4476 13.6895 26.2704 13.8463C25.975 14.1285 25.7091 14.348 25.4137 14.5989C25.1478 14.8185 23.7299 15.9161 23.6708 16.1043C24.1434 16.0102 25.4728 15.1321 25.8273 14.8498C26.1818 14.5676 26.9498 13.7835 27.1862 13.3758C27.2452 13.2504 27.2452 13.2504 27.3339 13.125C27.5407 13.2504 27.5997 13.2504 27.777 13.4072C27.777 13.4072 28.0133 12.9681 28.0133 12.8113C28.0133 12.6545 27.7474 12.4977 27.5407 12.4036C27.5407 11.9959 27.7179 11.4942 27.5111 11.0865C27.1862 10.3965 26.0931 11.4942 26.2113 12.3096C26.2409 12.5604 26.4181 12.6545 26.5363 12.7486C26.5953 12.8113 26.684 12.8741 26.7726 12.9054C26.8021 12.9054 26.8612 12.9054 26.8908 12.9681L27.0089 13.0622V13.0309ZM39.3275 30.4992V30.4051C39.357 30.2796 39.4161 30.311 39.4161 30.0915C39.1798 30.1228 39.0616 30.4992 38.8844 30.656C38.589 30.9068 38.3231 30.656 38.0277 30.5932C37.2301 30.4364 36.4916 31.1891 36.0189 31.6909C34.8373 32.9453 34.5714 32.7885 34.276 33.0394C34.2169 33.0708 34.276 33.0394 34.2169 33.1021C35.3099 33.0081 35.753 32.1927 36.462 31.6595C37.496 30.8755 37.9095 31.3459 38.3231 31.3773C38.7071 31.3773 39.0321 31.0323 39.1207 31.0323C39.2389 31.0323 39.3866 31.1891 39.5638 31.1891C40.066 31.1891 40.2433 30.1855 40.0365 29.9347C39.7115 30.0915 39.8297 30.5305 39.8297 30.6246C39.6525 30.6246 39.4752 30.6246 39.3275 30.5305M69.1934 13.1877C69.0753 12.9054 68.898 11.1492 67.8345 11.1492C67.7459 11.3374 67.421 11.745 67.5391 11.9646C68.0413 12.78 68.189 11.9646 68.4549 12.435L68.7503 13.1563C68.898 13.5327 69.0162 14.1912 69.0753 14.254C69.4298 14.0658 69.5184 12.9995 69.607 12.5291C69.9615 10.8983 70.2865 11.8078 70.5523 11.9019C70.9364 11.5882 70.6114 10.6788 70.1092 10.8042C69.6366 10.9297 69.4002 12.1214 69.3116 12.6232C69.2821 12.8113 69.2525 13.0622 69.1934 13.1877ZM78.4398 31.5027C78.292 31.0323 78.1148 29.4642 77.1104 29.4642C77.0218 29.621 76.6673 30.0601 76.7855 30.2796C77.1104 30.9069 77.524 30.5619 77.5535 30.5619C77.7308 30.5932 78.0853 31.6909 78.1739 31.9731C78.233 32.1613 78.2625 32.4436 78.292 32.569C78.7942 32.4749 78.7352 30.2796 79.2669 29.9033C79.5919 29.9033 79.5623 30.0915 79.7691 30.2169C80.3304 29.9974 79.6509 28.4607 79.0601 29.4329C78.7352 29.9346 78.5875 31.3459 78.4398 31.5027ZM11.943 34.6702C12.1203 34.6075 13.7746 33.6666 14.1291 33.4471L15.8129 32.5376C15.9311 32.4122 15.9606 31.9731 15.9311 31.785C15.6947 31.8791 13.9814 32.7885 13.7155 32.9453C13.361 33.1649 12.977 33.353 12.5929 33.5726C12.4748 33.6353 12.1203 33.8235 12.0907 33.9175C12.0021 34.043 11.9726 34.482 11.9726 34.6389M62.9307 32.914C63.1671 32.8199 63.7874 32.4436 64.0238 32.3181L66.7711 30.8128C66.8892 30.6873 66.8892 30.2483 66.8892 30.0601L64.6737 31.2205C64.2896 31.44 63.9351 31.6282 63.5511 31.8477C63.4329 31.9104 63.0785 32.0986 63.0194 32.1927C62.9307 32.3181 62.9012 32.7572 62.9012 32.914M6.38932 14.7557C6.3007 14.8185 6.35978 14.7557 6.3007 14.8812C6.21207 15.0694 6.21207 15.7279 5.88712 15.9788C5.73942 16.1043 5.41447 16.1984 5.2963 15.9788C5.17814 15.7593 5.2963 15.4143 5.2963 15.1634C4.82365 15.4143 4.55778 17.3587 5.73942 16.7315C5.88712 16.6374 5.91666 16.6061 6.03483 16.512C6.21207 16.3865 6.24161 16.4493 6.4484 16.4493C7.54142 16.4493 7.98453 14.693 7.54142 14.1912C7.42325 14.2853 7.21646 14.6617 7.24601 14.8498C7.33463 15.1007 7.63004 15.4457 6.89152 15.6966C6.83243 15.6966 6.74381 15.7279 6.68473 15.7279C6.50748 15.7279 6.56656 15.7279 6.50748 15.6339C6.38932 15.3516 6.62565 14.9439 6.38932 14.7557ZM41.3363 19.6481C41.2181 19.7422 41.159 19.8363 40.9818 19.899C40.2137 20.244 40.5682 19.5227 40.4205 19.0209C40.2728 19.0522 40.3024 18.9268 40.2137 19.4286C40.1842 19.5854 40.1251 19.7736 40.0956 19.9304C40.007 20.1813 39.682 20.4949 39.357 20.3067C39.1207 20.1185 39.298 19.7422 39.2684 19.4286C39.0616 19.5227 38.6776 20.3381 38.9435 20.9026C39.2684 21.5612 40.0069 20.683 40.1842 20.7144C40.5387 20.7144 40.7159 20.7771 40.9523 20.5576C41.6908 19.9931 41.8385 18.8014 41.484 18.4877L41.3954 18.6132C41.3954 18.6759 41.3363 18.7073 41.3363 18.7386C41.3363 18.8014 41.2181 18.9582 41.2181 18.9895C41.2181 19.115 41.3363 19.3659 41.3363 19.6481ZM115.396 16.1356C115.307 16.2611 114.746 16.6688 114.45 16.512C114.155 16.3552 114.45 15.5711 114.598 15.4143C114.864 15.5084 115.336 15.8534 115.396 16.1356ZM114.066 16.5747C114.066 17.0138 114.125 17.296 114.598 17.296C115.396 17.296 115.602 16.5433 115.602 15.822C115.602 15.1007 115.011 14.8185 114.864 14.6617C114.923 14.4421 115.13 14.0031 115.159 13.7835C114.864 13.7208 114.834 14.0031 114.716 14.254C114.598 14.5049 114.539 14.693 114.421 14.9439C114.302 15.2889 114.066 16.1984 114.066 16.5747ZM91.615 18.77C91.4673 19.0836 90.8765 19.3345 90.6697 19.2091C90.4334 19.0522 90.6697 18.2996 90.8174 18.1114C91.1128 18.2369 91.4673 18.4877 91.615 18.77ZM90.2857 19.2404C90.2857 20.4008 91.3196 19.899 91.5855 19.5854C91.8218 19.3031 91.8513 18.9268 91.8513 18.4877C91.8513 18.0487 91.3196 17.4842 91.1128 17.3901C91.1128 17.2333 91.2014 17.0451 91.2605 16.8883C91.2605 16.7942 91.3492 16.7315 91.3492 16.6688C91.3787 16.5433 91.4378 16.512 91.3492 16.4493C90.9947 16.2611 90.3152 18.6759 90.3152 19.2718M125.676 29.7465C125.823 29.8719 126.857 30.6246 126.946 30.656C127.094 30.4678 127.537 29.6838 127.507 29.3701C127.507 29.3074 126.503 28.5234 126.207 28.492C126.119 28.6488 125.676 29.5897 125.676 29.7465ZM62.4581 20.0245C62.6649 20.2126 62.8717 20.3067 63.0784 20.4635C63.2262 20.589 63.5511 20.8398 63.6988 20.9026C63.8465 20.7771 64.4373 19.8049 64.2305 19.554C64.1715 19.4913 64.0533 19.3972 63.9351 19.3345C63.7579 19.1777 63.2262 18.77 63.0194 18.7386C62.9012 18.8641 62.4581 19.7736 62.4581 19.9931M113.978 21.7493L115.248 22.6902C115.425 22.5334 115.839 21.7493 115.809 21.4044C115.573 21.2475 114.864 20.6203 114.568 20.5576C114.45 20.683 114.037 21.5612 113.978 21.7807M18.5307 16.0729C18.2648 16.2297 18.3239 16.6688 17.9398 16.6374C17.2013 16.5433 18.0285 14.2226 18.1171 13.8776C17.674 14.3167 17.0536 16.4493 17.4967 17.1392C17.5854 17.296 17.8512 17.3901 18.058 17.2647C18.3239 17.0765 18.4716 16.512 18.5602 16.0416" fill="#292D32"/>
<path d="M60.3906 38.1199C60.2429 37.6181 60.0657 37.085 59.3862 37.085C58.7068 37.085 58.6477 37.43 58.6477 37.869C58.6477 38.3081 58.9431 38.5903 59.5635 38.9353C60.3906 39.3744 60.8337 39.7507 60.8337 40.5034C60.8337 41.256 60.1248 42.0401 59.1204 42.0401C58.116 42.0401 58.2637 41.9146 57.9387 41.7892C57.8796 41.601 57.791 40.8797 57.7319 40.5034L57.9978 40.4406C58.1455 40.9424 58.5295 41.7265 59.2385 41.7265C59.9475 41.7265 60.0066 41.3815 60.0066 40.9111C60.0066 40.4406 59.7407 40.1584 59.1204 39.8134C58.3523 39.3744 57.8796 38.998 57.8796 38.214C57.8796 37.43 58.4409 36.8027 59.5044 36.8027C60.5679 36.8027 60.3611 36.9282 60.5088 36.9282C60.5088 37.2104 60.5974 37.5868 60.627 38.0885L60.3611 38.1513L60.3906 38.1199Z" fill="#292D32"/>
<path d="M63.374 38.0572C63.1672 38.6531 62.9309 39.2489 62.7537 39.8134H63.9944L63.4036 38.0572H63.374ZM64.0535 41.9146V41.6637C64.5261 41.601 64.5557 41.5069 64.4375 41.1933C64.3489 40.9424 64.2307 40.5661 64.1125 40.1898H62.6355C62.5469 40.472 62.4287 40.7543 62.3401 41.0365C62.1924 41.5383 62.3401 41.601 62.9014 41.6637V41.9146H61.1289V41.6637C61.6016 41.601 61.6902 41.5383 61.9561 40.8797L63.4626 36.8655L63.7876 36.8027C64.2602 38.1513 64.7329 39.5625 65.2056 40.8484C65.4714 41.5697 65.5305 41.601 66.0032 41.6637V41.9146H63.9944H64.0535Z" fill="#292D32"/>
<path d="M70.228 41.9143V41.6634C70.7893 41.6007 70.8188 41.538 70.8188 40.8167V37.7432C70.2576 39.0918 69.5486 40.848 69.135 41.9143H68.8987C68.5147 40.848 67.8647 39.1545 67.333 37.7746C67.2148 40.3149 67.2148 40.8167 67.2148 41.0675C67.2148 41.4752 67.3921 41.6007 67.9238 41.6321V41.8829H66.1514V41.6321C66.5649 41.6007 66.7422 41.5066 66.8013 41.0675C66.8308 40.7853 66.8604 40.409 67.0376 37.7746C67.0376 37.3983 67.0081 37.2101 66.3582 37.1474V36.8965H67.8352L69.3123 40.503L70.8484 36.8965H72.2959V37.1474C71.7051 37.2101 71.6164 37.2728 71.646 37.8687L71.7051 40.7853C71.7051 41.538 71.7346 41.5693 72.355 41.6321V41.8829H70.228V41.9143Z" fill="#292D32"/>
<path d="M74.8059 38.0572C74.5991 38.6531 74.3628 39.2489 74.1855 39.8134H75.4263L74.8354 38.0572H74.8059ZM75.4853 41.9146V41.6637C75.958 41.601 75.9875 41.5069 75.8694 41.1933C75.7808 40.9424 75.6626 40.5661 75.5444 40.1898H74.0674C73.9788 40.472 73.8606 40.7543 73.772 41.0365C73.6243 41.5383 73.772 41.601 74.3628 41.6637V41.9146H72.5903V41.6637C73.063 41.601 73.1516 41.5383 73.4175 40.8797L74.9241 36.8655L75.249 36.8027C75.7217 38.1513 76.1943 39.5625 76.667 40.8484C76.9329 41.5697 76.9919 41.601 77.4646 41.6637V41.9146H75.4558H75.4853Z" fill="#292D32"/>
<path d="M55.8097 39.123H0.184082V39.6875H55.8097V39.123Z" fill="#292D32"/>
<path d="M134.715 39.123H79.0894V39.6875H134.715V39.123Z" fill="#292D32"/>
<path d="M181.356 58.4261C181.27 57.9387 181.098 57.4227 180.955 56.964C180.726 56.2186 180.353 55.0146 180.754 54.2692C180.812 54.1545 180.869 54.0685 180.955 53.9825L181.041 53.8965L181.156 53.9538C181.385 54.0685 181.557 54.6132 181.614 54.8426C181.786 55.3586 181.93 55.8746 182.044 56.3906C182.159 56.878 182.274 57.3367 182.36 57.824C182.417 58.082 182.474 58.3687 182.503 58.6267C183.191 58.7701 183.851 58.9134 184.51 59.0281L184.367 58.0247L183.478 57.8527L182.79 55.1866C182.675 54.6992 182.532 54.2119 182.417 53.7532C182.302 53.2371 182.159 52.7498 182.073 52.2051L181.93 52.3771C181.758 52.5491 181.5 52.6638 181.27 52.7211C181.012 52.8071 180.754 52.8645 180.525 52.9791C179.837 53.2945 179.579 53.8105 179.464 54.5272C179.321 55.5019 179.837 56.5053 179.98 57.4513V57.566L179.894 57.6234C179.579 57.8527 179.206 57.996 178.862 58.168C178.289 58.4834 178.002 58.9134 177.773 59.5154C177.83 59.5154 177.888 59.5728 177.916 59.5728C181.328 60.9775 184.997 61.6655 188.695 61.6655C192.394 61.6655 190.043 61.6655 190.702 61.5795L191.075 60.4615C190.301 60.5188 189.498 60.5762 188.695 60.5762C185.857 60.5762 183.019 60.1461 180.324 59.2861C180.21 59.2574 180.124 59.2288 180.009 59.1714L179.751 59.0854L179.923 58.9134C180.238 58.5694 180.812 58.3974 181.299 58.3974M165.188 26.3752C165.13 26.3179 165.044 26.2892 164.958 26.2605C164.844 26.2605 164.758 26.2605 164.643 26.2605H164.528L164.471 26.1745C164.213 25.6298 164.07 25.0851 163.582 24.7125C163.439 24.5978 163.267 24.5118 163.095 24.4258C162.78 24.3111 162.464 24.2538 162.149 24.3111C161.375 24.4545 161.088 25.2285 160.973 25.9165V26.0885L160.773 26.0599C159.511 25.7445 159.597 24.4545 159.741 23.3937C159.024 24.1104 158.537 25.0565 159.081 26.0599C159.397 26.6332 159.97 27.1206 160.543 27.4359L160.658 27.4933V27.6079C160.285 29.414 160.113 31.2488 160.113 33.0835C160.113 40.9099 163.296 48.3349 168.943 53.7532L169.029 53.8392C169.259 54.0685 169.517 54.2979 169.746 54.5272L169.861 54.6419C170.377 55.1292 170.95 55.5593 171.495 55.9893L174.677 51.001C174.849 50.743 175.049 50.4563 175.365 50.3703C175.479 50.3417 175.623 50.313 175.737 50.313C175.623 49.969 175.566 49.5963 175.479 49.2523C175.422 48.9656 175.365 48.6789 175.279 48.3923C175.279 48.2776 175.221 48.1916 175.193 48.0769C173.874 50.1123 172.584 52.1478 171.265 54.1545L171.151 54.2979L171.007 54.1832C170.549 53.8105 170.119 53.4091 169.689 53.0078C169.173 52.5204 168.685 52.0044 168.198 51.4884L168.083 51.3737L170.434 49.453C170.119 49.3096 169.803 49.1089 169.545 48.9083C169.287 48.7076 169.259 48.7076 169.144 48.6216C169.144 48.6503 169.144 48.7076 169.144 48.7363C169.144 48.8509 169.144 48.9369 169.144 49.0516C169.087 49.1663 169.001 49.2523 168.886 49.3383C168.714 49.4816 168.513 49.625 168.312 49.7683C168.054 49.969 167.796 50.1983 167.51 50.399L167.395 50.5137L167.28 50.399C166.65 49.625 166.076 48.8509 165.532 48.0196L165.446 47.8762L168.112 46.2708C167.71 45.9555 167.309 45.6401 166.965 45.2674C166.85 45.6114 166.564 45.8695 166.248 46.0701L164.872 46.9015L164.786 46.7582C164.328 45.9841 163.926 45.1814 163.554 44.35L163.468 44.2067L166.334 42.974C166.277 42.9167 166.22 42.8593 166.162 42.8306C165.99 42.6586 165.818 42.5153 165.646 42.3146C165.532 42.1713 165.417 41.9993 165.302 41.8559C165.302 41.8559 165.302 41.8846 165.302 41.9133C165.216 42.1713 164.987 42.3146 164.786 42.4293C164.586 42.544 164.385 42.6586 164.184 42.7446C163.869 42.888 163.554 43.0313 163.238 43.1747L163.095 43.232L163.038 43.0887C162.235 41.0246 161.69 38.9031 161.403 36.6957V36.4664L161.604 36.5237C162.407 36.7244 163.21 37.1831 163.955 37.5557C164.07 37.6131 164.184 37.6704 164.299 37.7277L164.184 36.2657L162.178 35.6636L162.464 35.463C162.722 35.291 163.009 35.1476 163.296 35.0043C163.554 34.8896 163.812 34.7749 164.07 34.6603L163.955 33.1982C163.64 33.4275 163.353 33.6856 163.038 33.9149C162.608 34.2302 161.977 34.6603 161.461 34.8323L161.26 34.8896L161.203 34.3163C161.203 33.8862 161.203 33.4849 161.203 33.0835C161.203 31.3634 161.375 29.6434 161.69 27.9233V27.7799H161.862C162.894 27.9519 163.754 27.5219 164.471 26.8339C164.672 26.6332 164.93 26.4899 165.188 26.3752ZM163.468 26.1459C163.382 26.5472 162.98 26.8052 162.579 26.7192C162.178 26.6332 161.92 26.2319 162.006 25.8305C162.092 25.4292 162.493 25.1712 162.894 25.2572C163.296 25.3432 163.554 25.7445 163.468 26.1459ZM169.631 17.5455C169.316 16.9434 169.029 16.3701 168.857 15.7107C168.198 16.5134 167.567 17.3161 166.965 18.1762C166.449 18.9215 165.99 19.6669 165.56 20.4696C165.388 20.7849 165.245 21.0716 165.102 21.387C164.872 21.8743 164.242 21.6737 163.898 21.4443L163.783 21.3583L163.84 21.2436C164.958 18.9215 166.334 16.8001 167.997 14.8507C167.739 14.5927 167.481 14.3346 167.223 14.0766C165.847 15.7107 164.614 17.4308 163.582 19.3229C163.152 20.1256 162.751 20.9283 162.407 21.7597C162.952 22.075 163.554 22.4477 164.156 22.6197C164.5 22.7344 164.93 22.7917 165.302 22.6197C165.646 22.4477 165.876 22.1037 166.019 21.7597C166.134 21.5016 166.248 21.2723 166.363 21.043C166.678 20.3836 167.08 19.7529 167.452 19.1509C167.739 18.6922 168.083 18.2335 168.427 17.8035C168.513 17.6888 168.628 17.6028 168.771 17.5741C168.943 17.5168 169.115 17.5741 169.287 17.5741C169.402 17.5741 169.488 17.5741 169.603 17.5741M178.146 52.4918L177.544 50.1123C176.827 51.173 176.139 52.2624 175.479 53.3518C175.193 53.8392 174.906 54.3265 174.591 54.8139C174.132 55.5879 173.673 56.3619 173.186 57.1073L174.189 57.738L176.942 53.3232C177.114 53.0651 177.286 52.7785 177.601 52.6351C177.716 52.5778 177.802 52.5491 177.916 52.5491C178.002 52.5491 178.06 52.5204 178.146 52.4918ZM194.83 11.7832C195.203 12.4999 195.547 13.2739 195.977 13.9906C196.407 12.7292 196.837 11.4678 197.238 10.2064C197.382 9.71909 197.525 9.23173 197.697 8.71571C197.955 7.827 198.242 6.96697 198.529 6.10693L197.411 5.73424L195.834 10.6938C195.748 10.9805 195.633 11.2672 195.404 11.4678C195.318 11.5538 195.203 11.5825 195.117 11.6398C195.031 11.6972 194.945 11.7259 194.888 11.7545M217.306 34.7176C216.016 34.7176 214.726 34.6316 213.436 34.5743C212.977 34.5743 212.519 34.5743 212.031 34.5743C211.831 34.5743 211.573 34.5743 211.372 34.4883C211.228 34.4309 211.114 34.3449 211.028 34.2302C210.884 34.1156 210.77 34.0009 210.626 33.8862C210.512 34.0009 210.368 34.1156 210.254 34.2302C209.738 34.6889 209.279 35.1476 208.763 35.5776L217.277 35.8643L217.335 34.7176H217.306ZM217.048 37.3837L212.92 37.2404C212.404 37.2404 211.888 37.2404 211.372 37.2404C211.056 37.2404 210.712 37.2404 210.426 37.0397C210.225 36.925 210.082 36.753 209.967 36.581C209.451 37.097 208.906 37.6131 208.362 38.1291C210.77 38.0144 213.207 38.3011 215.615 38.4731H215.787L215.758 38.6738C215.557 39.6198 215.299 40.5945 215.013 41.5119V41.6266H214.869C214.181 41.6266 213.579 41.9419 213.207 42.5153C212.691 43.318 212.805 44.3787 213.522 45.0094L213.608 45.0954L213.551 45.2101C213.149 46.0128 212.719 46.7868 212.261 47.5609L212.175 47.6755L210.225 46.7008C210.282 46.9875 210.34 47.3029 210.34 47.5609V48.5929C210.827 48.4783 211.286 48.5929 211.716 48.8223C212.003 48.9943 212.261 49.1376 212.547 49.3096C212.748 49.4243 212.949 49.539 213.149 49.6536C213.407 49.8256 213.694 50.0263 213.809 50.313C213.952 50.6284 213.866 51.087 213.809 51.4597C214.009 51.4024 214.21 51.2304 214.325 51.087C214.611 50.7717 214.726 50.3417 214.669 49.9117C214.64 49.453 214.382 49.1376 214.067 48.8223C213.923 48.7076 213.78 48.5643 213.608 48.4496C213.493 48.3636 213.35 48.2489 213.264 48.1342L213.178 48.0482L213.608 47.3029C213.923 46.7582 214.21 46.1848 214.497 45.6401L214.554 45.5254H214.669C215.385 45.5828 216.045 45.2388 216.417 44.6367C216.962 43.8054 216.79 42.716 216.045 42.0566L215.959 41.9706V41.8559C216.159 41.3399 216.303 40.8239 216.446 40.2792C216.589 39.7058 216.704 39.1325 216.819 38.5591C216.905 38.1578 216.962 37.7564 217.019 37.3264M214.009 43.0313C214.296 42.6013 214.869 42.4866 215.328 42.7446C215.787 43.0027 215.873 43.6047 215.615 44.0634C215.357 44.5221 214.755 44.6081 214.296 44.35C213.837 44.092 213.751 43.49 214.009 43.0313ZM211.2 27.5219C211.745 27.9519 212.289 28.382 212.834 28.8407C213.321 29.242 213.78 29.6147 214.239 30.0447C214.497 30.2741 214.755 30.5034 214.984 30.7327C214.927 30.1881 214.869 29.6434 214.783 29.0987C214.153 24.9991 212.576 21.1003 210.139 17.7461C209.766 17.2301 209.91 16.7141 210.368 16.3127L210.483 16.1981L211.286 17.2875C213.923 21.043 215.586 25.4005 216.102 29.9587C216.188 30.7901 216.217 31.5928 215.729 32.2522L217.363 32.1662C217.335 31.4208 217.306 30.6754 217.22 29.93C216.733 25.5152 215.213 21.2723 212.777 17.5455C212.461 17.0581 212.146 16.6281 211.831 16.1694C211.257 15.3954 210.655 14.6787 209.996 13.962C209.68 13.6179 209.394 13.2739 209.078 12.9586C208.161 12.0412 207.215 11.2098 206.212 10.4358C205.524 9.91976 204.836 9.43242 204.119 8.97373C203.459 8.54371 202.8 8.17102 202.141 7.82701C201.424 7.45432 200.707 7.1103 199.991 6.79496L198.586 11.5825C198.471 11.9839 198.385 12.3565 198.271 12.7579C198.213 12.9586 198.156 13.1879 198.013 13.3313C197.869 13.4459 197.64 13.5319 197.411 13.5893C197.783 14.2486 198.156 14.9367 198.529 15.596C199.217 13.2166 199.905 10.8658 200.621 8.51504L200.679 8.31436L200.851 8.40037C201.309 8.62971 201.768 8.88772 202.227 9.11707C202.628 9.34641 203.001 9.57575 203.402 9.8051L203.545 9.8911L201.625 12.6432C202.284 12.6432 202.657 12.7579 203.23 13.0446C203.23 12.9586 203.23 12.8726 203.201 12.7866C203.201 12.6719 203.201 12.5286 203.201 12.3852C203.259 12.1559 203.402 11.9552 203.517 11.7832C203.803 11.4105 204.09 11.0092 204.348 10.6365L204.434 10.4931L204.578 10.5791C205.495 11.2385 206.326 11.9265 207.158 12.6432L207.272 12.7579L204.979 15.3667C205.208 15.3667 205.438 15.424 205.667 15.51C205.982 15.6247 206.298 15.7394 206.584 15.8827C206.584 15.7967 206.584 15.7394 206.584 15.6534C206.584 15.5387 206.584 15.424 206.584 15.3094C206.642 15.1087 206.814 14.9367 206.957 14.7647C207.301 14.392 207.645 14.0193 207.989 13.6466L208.104 13.5319L208.218 13.6466C208.82 14.1626 209.336 14.822 209.852 15.424L209.967 15.5674L209.824 15.682C208.792 16.3414 208.648 17.3735 209.336 18.3482C211.486 21.3296 212.949 24.7125 213.637 28.3246L213.78 29.0413L213.465 28.812C212.777 28.3533 212.003 27.9233 211.228 27.6079M192.422 55.4159C192.05 55.4159 191.763 55.7313 191.763 56.1039C191.763 56.4766 192.078 56.7633 192.451 56.7633C192.824 56.7633 193.11 56.448 193.11 56.0753C193.11 55.7026 192.795 55.4159 192.422 55.4159ZM196.292 58.2827C196.808 58.1107 197.353 57.9674 197.841 57.7667C201.739 56.3333 205.237 54.0112 208.046 50.9724C208.476 50.485 209.021 50.5423 209.48 50.915L209.623 51.0297L208.706 52.0044C205.724 55.1579 202.055 57.5373 197.984 58.9707C196.808 59.4008 195.604 59.7161 194.372 60.0028H194.228C194.228 60.0315 193.712 57.9674 193.712 57.9674C193.397 58.4834 192.852 58.9421 192.394 59.2861C192.996 59.7448 193.311 60.8055 193.426 61.4649C193.483 61.8375 193.54 62.2962 193.512 62.6689C193.512 62.8983 193.426 63.1276 193.225 63.2709C193.139 63.3569 193.053 63.3856 192.938 63.443C193.426 63.443 193.97 63.3856 194.286 63.0989C194.716 62.6403 194.572 61.7802 194.458 61.2355V61.0922C194.429 61.0922 194.572 61.0635 194.572 61.0635C195.776 60.7768 196.952 60.4615 198.127 60.0601C202.112 58.6841 205.724 56.4193 208.734 53.4665C209.136 53.0651 209.537 52.6638 209.91 52.2624C210.254 51.8611 210.626 51.4597 210.942 51.0297L209.996 50.1123C209.136 49.2236 208.075 49.367 207.272 50.2557C204.778 52.9505 201.739 55.0719 198.357 56.448L197.669 56.7346L197.812 56.362C198.127 55.6166 198.385 54.7565 198.529 53.9252C198.213 54.5559 197.898 55.1579 197.583 55.7886C197.296 56.3333 197.009 56.878 196.694 57.394C196.522 57.6807 196.35 57.9674 196.178 58.254M178.031 8.88772C178.404 9.20307 178.891 9.46108 179.292 9.74776C179.952 10.1778 181.041 10.8085 181.213 11.6685C181.213 11.7832 181.213 11.8979 181.213 12.0125V12.1272H181.098C180.84 12.1845 180.353 11.8692 180.152 11.7545C179.694 11.4678 179.235 11.1812 178.805 10.8658C178.404 10.5791 178.031 10.2925 177.63 9.97711C177.4 9.8051 177.2 9.63309 176.97 9.46108C176.368 9.77643 175.766 10.1204 175.193 10.4645L175.967 11.1238L176.741 10.6651L179.006 12.2132C179.407 12.4999 179.808 12.7866 180.238 13.0733C180.668 13.3599 181.098 13.6753 181.5 14.0193V13.79C181.5 13.5319 181.643 13.3026 181.786 13.1019C181.93 12.8726 182.073 12.6432 182.188 12.4139C182.503 11.7259 182.36 11.1525 181.987 10.5505C181.471 9.7191 180.41 9.28908 179.694 8.68705L179.608 8.62971V8.51504C179.751 8.14235 179.923 7.79833 180.038 7.42565C180.267 6.82362 180.181 6.30759 179.98 5.70557C179.923 5.70557 179.866 5.73424 179.808 5.76291C176.311 6.96696 173.1 8.80172 170.291 11.2385C169.775 11.6685 169.287 12.1272 168.829 12.6146L169.287 13.7039C169.832 13.1306 170.405 12.5859 171.007 12.0699C173.157 10.2064 175.565 8.68704 178.174 7.56899C178.289 7.51165 178.375 7.48299 178.461 7.45432L178.69 7.33965V7.59766C178.662 8.05635 178.346 8.5437 177.974 8.88772M205.696 7.28231C205.323 7.28231 205.036 7.59766 205.036 7.97035C205.036 8.34303 205.352 8.62971 205.724 8.62971C206.097 8.62971 206.384 8.31436 206.384 7.94168C206.384 7.56899 206.068 7.28231 205.696 7.28231ZM204.549 16.5421C204.176 16.5421 203.889 16.8574 203.889 17.2301C203.889 17.6028 204.205 17.8895 204.578 17.8895C204.95 17.8895 205.237 17.5741 205.237 17.2014C205.237 16.8288 204.922 16.5421 204.549 16.5421Z" fill="#292D32"/>
<path d="M188.724 66.5958C170.577 66.5958 155.842 51.8604 155.842 33.7136C155.842 15.5667 168.37 3.12482 184.596 1.08939C184.768 2.52279 185.714 3.75551 186.976 4.32887C185.542 4.98824 184.567 6.42164 184.567 8.11305C184.567 9.80447 185.542 11.2379 186.976 11.8972C185.542 12.5566 184.567 13.99 184.567 15.6814C184.567 17.3728 184.567 15.7101 184.567 15.7387C176.368 17.6308 170.262 24.9698 170.262 33.7423C170.262 42.5147 178.547 52.2045 188.724 52.2045C198.901 52.2045 207.187 43.9194 207.187 33.7423C207.187 23.5651 201.08 17.6308 192.881 15.7387V15.6814C192.881 14.0187 191.906 12.5566 190.473 11.8972C191.906 11.2379 192.881 9.80447 192.881 8.11305C192.881 6.42164 191.906 4.98824 190.473 4.32887C191.734 3.72684 192.652 2.52279 192.853 1.08939C209.05 3.12482 221.607 16.9428 221.607 33.7136C221.607 50.4844 206.871 66.5958 188.724 66.5958ZM185.428 8.11305C185.428 6.2783 186.918 4.81623 188.724 4.81623C190.53 4.81623 192.021 6.30697 192.021 8.11305C192.021 9.91914 190.53 11.4099 188.724 11.4099C186.918 11.4099 185.428 9.91914 185.428 8.11305ZM195.576 17.4588C197.669 18.3475 199.561 19.6089 201.166 21.243C202.772 22.8484 204.062 24.7405 204.95 26.8333C205.868 29.012 206.326 31.3055 206.326 33.6849C206.326 36.0644 205.868 38.3578 204.95 40.5366C204.062 42.6293 202.8 44.5214 201.166 46.1268C199.561 47.7322 197.669 49.0223 195.576 49.911C193.397 50.8284 191.104 51.2871 188.724 51.2871C186.345 51.2871 184.051 50.8284 181.873 49.911C179.78 49.0223 177.888 47.7609 176.282 46.1268C174.677 44.5214 173.387 42.6293 172.498 40.5366C171.581 38.3578 171.122 36.0644 171.122 33.6849C171.122 31.3055 171.581 29.012 172.498 26.8333C173.387 24.7405 174.648 22.8484 176.282 21.243C177.888 19.6376 179.78 18.3475 181.873 17.4588C184.051 16.5414 186.345 16.0828 188.724 16.0828C191.104 16.0828 193.397 16.5414 195.576 17.4588ZM188.724 15.2514C187.606 15.2514 186.488 15.3661 185.428 15.5381C185.485 13.7893 186.947 12.3559 188.724 12.3559C190.502 12.3559 191.964 13.7607 192.021 15.5381C190.96 15.3374 189.842 15.2514 188.724 15.2514ZM188.724 0.831371C189.842 0.831371 190.932 0.888708 191.992 1.00338C191.792 2.60879 190.387 3.87018 188.724 3.87018C187.062 3.87018 185.657 2.60879 185.456 1.00338C186.546 0.888708 187.635 0.831371 188.724 0.831371ZM219.8 20.5836C218.109 16.5701 215.672 12.9579 212.576 9.8618C209.48 6.76565 205.868 4.32887 201.854 2.63746C197.697 0.888712 193.283 0 188.724 0C184.166 0 179.751 0.888712 175.594 2.63746C171.581 4.32887 167.969 6.76565 164.873 9.8618C161.776 12.9579 159.34 16.5701 157.648 20.5836C155.899 24.7405 155.011 29.1554 155.011 33.7136C155.011 38.2718 155.899 42.6867 157.648 46.8435C159.34 50.8571 161.776 54.4692 164.873 57.5654C167.969 60.6615 171.581 63.0983 175.594 64.7897C179.751 66.5385 184.166 67.4272 188.724 67.4272C193.283 67.4272 197.697 66.5385 201.854 64.7897C205.868 63.0983 209.48 60.6615 212.576 57.5654C215.672 54.4692 218.109 50.8571 219.8 46.8435C221.549 42.6867 222.438 38.2718 222.438 33.7136C222.438 29.1554 221.549 24.7405 219.8 20.5836Z" fill="#292D32"/>
<path d="M194.716 45.3808C195.261 45.3522 195.863 45.3808 196.436 45.3808C196.178 46.3556 195.404 46.4989 194.286 46.4989C194.372 46.6996 194.487 46.6996 194.687 46.8142C196.895 47.9323 198.672 45.3522 197.669 43.4314C196.866 41.826 195.318 42.1987 194.831 43.6894C194.601 44.3488 194.573 45.0942 194.716 45.4095M196.608 44.1194C196.608 44.1194 196.494 44.4921 196.064 44.3201C195.834 44.2054 195.806 43.9474 195.892 43.7468C196.092 43.3454 196.809 43.6321 196.608 44.1194ZM180.669 41.3386C180.927 41.568 181.185 41.6253 181.185 42.1414V42.4854C179.407 42.6 179.493 44.1194 179.493 45.3235H182.303V40.2493C181.959 40.6506 181.156 41.138 180.64 41.3386M180.669 44.2054C180.697 43.8614 180.87 43.6894 181.185 43.6321V44.2054H180.669ZM191.104 41.8547L193.999 45.3235C194.315 45.7248 193.283 45.8682 192.91 45.5528L192.652 45.3235H183.192V44.1768H188.094C188.037 43.5747 187.606 43.6321 187.033 43.6321C185.686 43.6321 184.281 43.6894 183.134 43.6321C183.192 43.4601 183.478 43.2594 183.708 42.9154C183.822 42.772 184.138 42.1127 184.224 42.0267C184.74 42.4854 184.138 42.5427 185.657 42.5427H186.861C187.492 42.5427 188.094 42.5427 188.553 42.8581C188.925 43.1447 189.212 43.5747 189.212 44.2054H191.735C190.989 43.3167 190.273 42.428 189.527 41.5393C189.871 41.2526 190.387 40.9946 191.133 41.8833M194.659 36.4938C195.175 36.0064 195.175 36.0351 195.175 35.5477V33.799C195.175 32.6809 194.974 32.4516 195.691 32.0502L195.548 31.9355C194.544 31.2475 194.63 30.8461 194.028 30.3588C194.028 32.1075 194.028 33.1396 194.028 34.917V35.4044C194.028 35.5764 193.741 35.777 193.627 35.9491C193.369 35.691 193.197 35.4904 193.197 35.433V30.4448C192.623 30.9608 192.423 31.6489 191.563 31.9929C191.62 32.0789 191.563 31.9929 191.649 32.0789C192.222 32.6522 192.079 31.7349 192.079 33.1969V35.691C192.079 36.0351 192.394 36.4364 192.681 36.5798L192.423 36.8378C192.279 36.9811 192.107 37.0384 192.107 37.3251V39.2459H195.232V37.7551C195.232 36.8951 195.146 36.9238 194.716 36.4938M193.741 37.1244C193.885 37.3251 194.143 37.5831 194.143 37.6691V38.1278H193.311V37.6691C193.311 37.5831 193.598 37.2678 193.741 37.1244ZM180.64 38.1565C180.64 37.8411 180.841 37.5831 181.185 37.6118V38.1565H181.013H180.812H180.64ZM184.539 32.9103C184.539 32.2796 184.826 32.3369 185.055 31.9929C184.883 31.8209 184.596 31.7349 184.138 31.2762C183.994 31.1328 183.88 30.9895 183.765 30.8462C183.65 30.7028 183.536 30.4735 183.421 30.3875V38.1278H182.274V34.1143C182.131 34.1716 182.16 34.1716 182.045 34.2863C181.472 34.8597 180.87 35.003 180.611 35.2037C181.013 35.4044 181.156 35.519 181.156 36.0637C181.156 36.6084 181.156 35.9491 181.156 36.4077C180.525 36.5511 180.239 36.6084 179.895 37.0098C179.379 37.6405 179.465 38.4432 179.465 39.2459H187.348V32.9103C187.348 32.5376 187.434 32.3942 187.692 32.1649C187.75 32.1075 187.75 32.1075 187.807 32.0789C187.865 32.0502 187.865 32.0502 187.893 31.9929C187.549 31.7062 187.406 31.7349 186.976 31.2762C186.832 31.1328 186.718 30.9895 186.603 30.8462C186.488 30.6741 186.374 30.5021 186.259 30.3875V38.1278H184.539V32.8816V32.9103ZM189.785 39.2746C189.871 38.8732 189.785 34.8597 189.785 33.7703C189.785 32.6809 189.613 32.6809 190.187 32.2796L190.387 32.1075C190.043 31.9642 189.585 31.5915 189.384 31.3622L188.639 30.4448V39.3032H189.785V39.2746ZM197.382 33.1109C197.382 32.5949 197.64 32.3369 197.956 32.1362C197.755 32.0215 197.583 31.9069 197.411 31.7922C197.239 31.6489 197.124 31.5342 196.981 31.3908C196.666 31.0755 196.322 30.5308 196.236 30.4448V39.3032H197.382V33.1396V33.1109ZM180.64 28.094C180.64 27.7213 180.812 27.5493 181.185 27.5207V28.094H180.64ZM189.642 29.2121C189.728 28.7534 189.642 24.8545 189.642 23.7078C189.642 22.5611 189.556 22.6471 189.785 22.3317C189.9 22.1311 190.072 22.1311 190.187 21.9877C189.843 21.6724 189.757 21.8731 188.925 20.841C188.839 20.7263 188.811 20.7263 188.782 20.6117L188.581 20.3823V28.1227H182.303V24.1092C181.988 24.4245 181.242 24.9979 180.64 25.1699L180.984 25.4566C181.242 25.7432 181.156 25.9152 181.128 26.3739C180.067 26.4599 179.436 27.234 179.436 28.3234C179.436 29.4128 179.35 29.2121 179.895 29.2121C181.099 29.2121 188.639 29.2694 189.613 29.2121M190.961 29.2121H192.107C192.222 28.61 192.05 24.6539 192.107 23.0198C192.107 22.7044 192.251 22.4178 192.451 22.2457L192.681 22.0737C192.337 21.9304 191.907 21.5577 191.706 21.357C191.419 21.0417 191.047 20.4683 190.961 20.411V29.2407V29.2121ZM196.924 26.6319C197.44 26.1446 197.44 26.1733 197.44 25.6859V23.9372C197.44 22.8191 197.239 22.5898 197.956 22.2171L197.812 22.1024C196.809 21.4144 196.895 21.013 196.293 20.5257C196.293 22.2744 196.293 23.3065 196.293 25.0839V25.5712C196.293 25.7432 196.006 25.9439 195.892 26.1159C195.634 25.8579 195.462 25.6572 195.462 25.5999V20.6117C194.888 21.1277 194.687 21.8444 193.827 22.1597C193.885 22.2457 193.827 22.1597 193.913 22.2457C194.487 22.8191 194.343 21.9017 194.343 23.3638V25.8579C194.343 26.2019 194.659 26.6033 194.946 26.7466L194.687 27.0046C194.544 27.148 194.372 27.2053 194.372 27.492V29.4127H197.497V27.922C197.497 27.062 197.411 27.0906 196.981 26.6606M195.892 27.2626C196.035 27.4347 196.293 27.7213 196.293 27.8073V28.266H195.462V27.8073C195.462 27.7213 195.748 27.406 195.892 27.2626Z" fill="#292D32"/>
</svg>
