<svg width="36" height="36" viewBox="0 0 36 36" fill="none" xmlns="http://www.w3.org/2000/svg">
<path d="M27.2034 21.2697L27.9611 21.5641C28.9818 21.9606 29.4921 22.1589 30.0009 22.152C30.3368 22.1474 30.6687 22.0781 30.9784 21.948C31.4475 21.7509 31.836 21.3651 32.6129 20.5935C33.7697 19.4446 34.3481 18.8701 34.5198 18.1417C34.6251 17.6949 34.599 17.1399 34.4523 16.705C34.213 15.9959 33.6383 15.5235 32.489 14.5787C22.9524 6.73919 13.389 6.70651 3.79897 14.4807C2.64325 15.4176 2.06539 15.886 1.82125 16.5935C1.67152 17.0274 1.64164 17.5822 1.7439 18.0297C1.91064 18.7593 2.48511 19.3377 3.63404 20.4945C4.40565 21.2714 4.79145 21.6598 5.25926 21.8601C5.56806 21.9924 5.89943 22.0639 6.23527 22.0707C6.74405 22.0812 7.25571 21.8864 8.27904 21.4968L9.03876 21.2076C9.93543 20.8662 10.3838 20.6955 10.7219 20.4119C11.0815 20.1102 11.3533 19.7173 11.5088 19.2744C11.655 18.858 11.6567 18.3783 11.66 17.4189C11.6632 16.4749 11.6648 16.003 11.8347 15.5573C12 15.1235 12.3644 14.647 12.7397 14.3739C13.1254 14.0932 13.5089 13.9877 14.276 13.7766C16.9955 13.0286 19.3027 13.0365 22.017 13.8031C22.7827 14.0193 23.1655 14.1275 23.5493 14.4108C23.9227 14.6865 24.2838 15.1655 24.4462 15.6003C24.613 16.0472 24.6114 16.5192 24.6082 17.4631C24.6049 18.4226 24.6032 18.9023 24.7466 19.3197C24.8991 19.7636 25.1682 20.1584 25.5258 20.4625C25.8619 20.7484 26.3091 20.9222 27.2034 21.2697Z" fill="#E6EEED"/>
</svg>
