<svg width="489" height="488" viewBox="0 0 489 488" fill="none" xmlns="http://www.w3.org/2000/svg">
<g clip-path="url(#clip0_360_13811)">
<rect x="0.5" width="488" height="488" rx="32" fill="white"/>
<g filter="url(#filter0_f_360_13811)">
<circle cx="489" cy="-0.5" r="185.5" fill="#EDF7FF"/>
</g>
<g filter="url(#filter1_f_360_13811)">
<circle cx="489" cy="487.5" r="185.5" fill="#EDF7FF"/>
</g>
<g filter="url(#filter2_f_360_13811)">
<circle cx="1" cy="-0.5" r="185.5" fill="#EDF7FF"/>
</g>
<g filter="url(#filter3_f_360_13811)">
<circle cx="1" cy="487.5" r="185.5" fill="#EDF7FF"/>
</g>
<g clip-path="url(#clip1_360_13811)">
<rect x="49.5" y="48" width="390" height="392" rx="16" fill="white"/>
<mask id="path-7-inside-1_360_13811" fill="white">
<path d="M65.5 58L423.5 58V122H65.5V58Z"/>
</mask>
<path d="M423.5 121H65.5V123H423.5V121Z" fill="#F4F6F7" mask="url(#path-7-inside-1_360_13811)"/>
<rect width="40" height="40" rx="16" transform="matrix(-1 0 0 1 105.5 70)" fill="#EDF7FF"/>
<path d="M95.5 100H75.5" stroke="#0E3B96" stroke-width="1.5" stroke-miterlimit="10" stroke-linecap="round" stroke-linejoin="round"/>
<path d="M94.5498 100L94.4998 87.97C94.4998 87.36 94.2098 86.78 93.7298 86.4L86.7298 80.95C86.0098 80.39 84.9998 80.39 84.2698 80.95L77.2698 86.39C76.7798 86.77 76.4998 87.35 76.4998 87.97V100" stroke="#0E3B96" stroke-width="1.5" stroke-miterlimit="10" stroke-linejoin="round"/>
<path d="M84.5 95H86.5C87.33 95 88 95.67 88 96.5V100H83V96.5C83 95.67 83.67 95 84.5 95Z" stroke="#0E3B96" stroke-width="1.5" stroke-miterlimit="10" stroke-linejoin="round"/>
<path d="M88 91.75H90C90.55 91.75 91 91.3 91 90.75V89.25C91 88.7 90.55 88.25 90 88.25H88C87.45 88.25 87 88.7 87 89.25V90.75C87 91.3 87.45 91.75 88 91.75Z" stroke="#0E3B96" stroke-width="1.5" stroke-miterlimit="10" stroke-linejoin="round"/>
<path d="M81 91.75H83C83.55 91.75 84 91.3 84 90.75V89.25C84 88.7 83.55 88.25 83 88.25H81C80.45 88.25 80 88.7 80 89.25V90.75C80 91.3 80.45 91.75 81 91.75Z" stroke="#0E3B96" stroke-width="1.5" stroke-miterlimit="10" stroke-linejoin="round"/>
<path d="M78.4997 85L78.5297 82H82.9297" stroke="#0E3B96" stroke-width="1.5" stroke-miterlimit="10" stroke-linecap="round" stroke-linejoin="round"/>
<path d="M118.3 89.22V93.82C118.3 93.94 118.247 94 118.14 94H116.94C116.833 94 116.78 93.94 116.78 93.82V83.06C116.78 82.94 116.833 82.88 116.94 82.88H117.08C117.893 82.88 118.3 83.3533 118.3 84.3V87.8H123.22V83.06C123.22 82.94 123.273 82.88 123.38 82.88H123.52C124.333 82.88 124.74 83.3533 124.74 84.3V93.82C124.74 93.94 124.687 94 124.58 94H123.38C123.273 94 123.22 93.94 123.22 93.82V89.22H118.3ZM130.507 94.18C129.374 94.18 128.467 93.8333 127.787 93.14C127.12 92.4333 126.787 91.5 126.787 90.34C126.787 89.18 127.12 88.2467 127.787 87.54C128.467 86.82 129.367 86.46 130.487 86.46C131.62 86.46 132.527 86.82 133.207 87.54C133.887 88.2467 134.227 89.1733 134.227 90.32C134.227 91.48 133.887 92.4133 133.207 93.12C132.54 93.8267 131.64 94.18 130.507 94.18ZM130.487 92.76C131.114 92.76 131.634 92.56 132.047 92.16C132.474 91.76 132.687 91.1533 132.687 90.34C132.687 89.5533 132.474 88.9467 132.047 88.52C131.634 88.0933 131.114 87.88 130.487 87.88C129.847 87.88 129.327 88.0933 128.927 88.52C128.527 88.9467 128.327 89.5533 128.327 90.34C128.327 91.1267 128.527 91.7267 128.927 92.14C129.327 92.5533 129.847 92.76 130.487 92.76ZM139.252 94.2C138.159 94.2 137.339 93.88 136.792 93.24C136.246 92.5867 135.972 91.6933 135.972 90.56V86.82C135.972 86.7 136.026 86.64 136.132 86.64H136.232C137.046 86.64 137.452 87.1 137.452 88.02V90.72C137.452 91.4267 137.612 91.9533 137.932 92.3C138.266 92.6467 138.706 92.82 139.252 92.82C139.799 92.82 140.232 92.6667 140.552 92.36C140.886 92.04 141.052 91.5133 141.052 90.78V86.82C141.052 86.7 141.106 86.64 141.212 86.64H141.312C142.139 86.64 142.552 87.1 142.552 88.02V90.66C142.552 91.7533 142.272 92.62 141.712 93.26C141.166 93.8867 140.346 94.2 139.252 94.2ZM148.688 88.24C148.368 88.0667 148.061 87.94 147.768 87.86C147.474 87.78 147.154 87.74 146.808 87.74C146.461 87.74 146.174 87.8067 145.948 87.94C145.734 88.0733 145.628 88.2733 145.628 88.54C145.628 88.7933 145.754 89 146.008 89.16C146.261 89.32 146.574 89.4667 146.948 89.6C147.321 89.7333 147.694 89.8867 148.068 90.06C148.454 90.2333 148.774 90.46 149.028 90.74C149.281 91.0067 149.408 91.3733 149.408 91.84C149.408 92.5467 149.154 93.12 148.648 93.56C148.154 94 147.474 94.22 146.608 94.22C146.061 94.22 145.588 94.1267 145.188 93.94C144.788 93.74 144.481 93.4933 144.268 93.2C144.054 92.9067 143.948 92.6133 143.948 92.32C143.948 92.0933 144.021 91.98 144.168 91.98C144.221 91.98 144.281 92.0133 144.348 92.08C144.601 92.3067 144.894 92.5067 145.228 92.68C145.561 92.8533 145.974 92.94 146.468 92.94C146.948 92.94 147.308 92.8533 147.548 92.68C147.788 92.5067 147.908 92.2733 147.908 91.98C147.908 91.7133 147.781 91.5 147.528 91.34C147.274 91.18 146.954 91.04 146.568 90.92C146.194 90.7867 145.814 90.6333 145.428 90.46C145.054 90.2867 144.741 90.06 144.488 89.78C144.234 89.5 144.108 89.1267 144.108 88.66C144.108 87.9533 144.374 87.4133 144.908 87.04C145.441 86.6533 146.081 86.46 146.828 86.46C147.481 86.46 148.048 86.58 148.528 86.82C148.794 86.9267 148.968 87.0667 149.048 87.24C149.128 87.4 149.134 87.62 149.068 87.9L149.008 88.16C148.994 88.2533 148.948 88.3 148.868 88.3C148.841 88.3 148.808 88.2933 148.768 88.28C148.741 88.2667 148.714 88.2533 148.688 88.24ZM150.775 84.66C150.775 84.3933 150.862 84.1733 151.035 84C151.209 83.8267 151.422 83.74 151.675 83.74C151.915 83.74 152.122 83.8267 152.295 84C152.469 84.1733 152.555 84.3933 152.555 84.66C152.555 84.9133 152.469 85.1267 152.295 85.3C152.122 85.4733 151.915 85.56 151.675 85.56C151.422 85.56 151.209 85.4733 151.035 85.3C150.862 85.1267 150.775 84.9133 150.775 84.66ZM151.075 94C150.969 94 150.915 93.94 150.915 93.82V86.82C150.915 86.7 150.969 86.64 151.075 86.64H151.175C151.562 86.64 151.862 86.7533 152.075 86.98C152.302 87.2067 152.415 87.5533 152.415 88.02V93.82C152.415 93.94 152.362 94 152.255 94H151.075ZM155.929 87.64C156.143 87.3067 156.449 87.0333 156.849 86.82C157.249 86.5933 157.716 86.48 158.249 86.48C159.183 86.48 159.916 86.7667 160.449 87.34C160.983 87.9133 161.249 88.6933 161.249 89.68V93.82C161.249 93.94 161.196 94 161.089 94H159.909C159.803 94 159.749 93.94 159.749 93.82V89.96C159.749 89.2533 159.583 88.7267 159.249 88.38C158.916 88.0333 158.469 87.86 157.909 87.86C157.309 87.86 156.836 88.04 156.489 88.4C156.143 88.7467 155.969 89.2933 155.969 90.04V93.82C155.969 93.94 155.923 94 155.829 94H154.649C154.543 94 154.489 93.94 154.489 93.82V86.82C154.489 86.7 154.543 86.64 154.649 86.64H154.749C155.056 86.64 155.316 86.7267 155.529 86.9C155.743 87.0733 155.876 87.32 155.929 87.64ZM168.917 92.92C168.637 93.32 168.284 93.62 167.857 93.82C167.444 94.02 166.984 94.12 166.477 94.12C165.757 94.12 165.137 93.9533 164.617 93.62C164.111 93.2733 163.717 92.8133 163.437 92.24C163.171 91.6667 163.037 91.0267 163.037 90.32C163.037 89.5733 163.184 88.9133 163.477 88.34C163.771 87.7533 164.177 87.2933 164.697 86.96C165.231 86.6267 165.844 86.46 166.537 86.46C167.097 86.46 167.584 86.5667 167.997 86.78C168.424 86.9933 168.764 87.2733 169.017 87.62C169.071 87.2733 169.197 87.0267 169.397 86.88C169.597 86.72 169.851 86.64 170.157 86.64H170.257C170.364 86.64 170.417 86.6933 170.417 86.8V93.76C170.417 94.8533 170.104 95.7333 169.477 96.4C168.864 97.08 167.931 97.42 166.677 97.42C166.024 97.42 165.451 97.3133 164.957 97.1C164.477 96.8867 164.104 96.62 163.837 96.3C163.571 95.9933 163.437 95.68 163.437 95.36C163.437 95.2667 163.457 95.1867 163.497 95.12C163.537 95.0533 163.591 95.02 163.657 95.02C163.711 95.02 163.751 95.0333 163.777 95.06C163.804 95.0867 163.844 95.12 163.897 95.16C164.164 95.4 164.497 95.6 164.897 95.76C165.297 95.9333 165.804 96.02 166.417 96.02C167.337 96.02 167.984 95.82 168.357 95.42C168.731 95.02 168.917 94.4667 168.917 93.76V92.92ZM166.697 92.78C167.031 92.78 167.364 92.7133 167.697 92.58C168.044 92.4333 168.331 92.18 168.557 91.82C168.797 91.46 168.917 90.96 168.917 90.32C168.917 89.6667 168.797 89.1667 168.557 88.82C168.331 88.46 168.051 88.2133 167.717 88.08C167.384 87.9467 167.064 87.88 166.757 87.88C166.184 87.88 165.677 88.08 165.237 88.48C164.797 88.88 164.577 89.4933 164.577 90.32C164.577 90.92 164.684 91.4 164.897 91.76C165.124 92.12 165.397 92.38 165.717 92.54C166.051 92.7 166.377 92.78 166.697 92.78ZM182.35 90.4L183.61 88.42C183.703 88.2733 183.83 88.2 183.99 88.2H185.01C185.077 88.2 185.117 88.22 185.13 88.26C185.143 88.3 185.137 88.34 185.11 88.38L183.15 91.34L185.23 93.8C185.257 93.84 185.263 93.8867 185.25 93.94C185.237 93.98 185.203 94 185.15 94H184.19C183.923 94 183.717 93.9667 183.57 93.9C183.437 93.8333 183.31 93.72 183.19 93.56L182.31 92.54C181.99 92.9267 181.57 93.2933 181.05 93.64C180.543 93.9733 179.923 94.14 179.19 94.14C178.203 94.14 177.403 93.8467 176.79 93.26C176.177 92.6733 175.87 91.9333 175.87 91.04C175.87 90.2533 176.103 89.62 176.57 89.14C177.05 88.6467 177.63 88.22 178.31 87.86C177.91 87.42 177.583 87 177.33 86.6C177.077 86.1867 176.95 85.7333 176.95 85.24C176.95 84.4533 177.23 83.8267 177.79 83.36C178.35 82.8933 179.09 82.66 180.01 82.66C180.89 82.66 181.597 82.88 182.13 83.32C182.677 83.76 182.95 84.36 182.95 85.12C182.95 85.7333 182.717 86.2933 182.25 86.8C181.783 87.3067 181.17 87.7667 180.41 88.18L182.35 90.4ZM179.65 87.26C180.223 86.9667 180.677 86.66 181.01 86.34C181.343 86.0067 181.51 85.6133 181.51 85.16C181.51 84.7867 181.37 84.48 181.09 84.24C180.81 84 180.457 83.88 180.03 83.88C179.563 83.88 179.19 84 178.91 84.24C178.63 84.48 178.49 84.8067 178.49 85.22C178.49 85.54 178.603 85.8733 178.83 86.22C179.057 86.5667 179.33 86.9133 179.65 87.26ZM181.53 91.6L179.13 88.82C178.637 89.0867 178.223 89.3867 177.89 89.72C177.557 90.04 177.39 90.4533 177.39 90.96C177.39 91.56 177.563 92.0267 177.91 92.36C178.27 92.6933 178.737 92.86 179.31 92.86C179.83 92.86 180.257 92.74 180.59 92.5C180.923 92.26 181.237 91.96 181.53 91.6ZM192.167 89.94V93.82C192.167 93.94 192.114 94 192.007 94H190.807C190.701 94 190.647 93.94 190.647 93.82V83.06C190.647 82.94 190.701 82.88 190.807 82.88H194.607C195.901 82.88 196.874 83.2 197.527 83.84C198.181 84.4667 198.507 85.3267 198.507 86.42C198.507 87.2733 198.287 87.98 197.847 88.54C197.407 89.0867 196.854 89.48 196.187 89.72L198.587 93.82C198.614 93.86 198.621 93.9 198.607 93.94C198.594 93.98 198.554 94 198.487 94H197.227C197.054 94 196.921 93.9267 196.827 93.78L194.647 89.94H192.167ZM192.167 88.54H194.687C195.394 88.54 195.947 88.3667 196.347 88.02C196.761 87.66 196.967 87.1067 196.967 86.36C196.967 85.6933 196.767 85.1867 196.367 84.84C195.967 84.48 195.434 84.3 194.767 84.3H192.167V88.54ZM201.411 90.86C201.491 91.5533 201.745 92.0667 202.171 92.4C202.598 92.72 203.158 92.88 203.851 92.88C204.411 92.88 204.858 92.8067 205.191 92.66C205.525 92.5133 205.831 92.34 206.111 92.14C206.165 92.1133 206.211 92.08 206.251 92.04C206.305 92 206.351 91.98 206.391 91.98C206.458 91.98 206.505 92.0133 206.531 92.08C206.571 92.1333 206.591 92.1933 206.591 92.26C206.591 92.54 206.478 92.8333 206.251 93.14C206.038 93.4333 205.711 93.68 205.271 93.88C204.845 94.08 204.311 94.18 203.671 94.18C203.018 94.18 202.405 94.0467 201.831 93.78C201.271 93.5 200.811 93.08 200.451 92.52C200.105 91.9467 199.931 91.2133 199.931 90.32C199.931 89.5733 200.078 88.9133 200.371 88.34C200.665 87.7533 201.071 87.2933 201.591 86.96C202.125 86.6267 202.738 86.46 203.431 86.46C204.218 86.46 204.851 86.6267 205.331 86.96C205.811 87.28 206.158 87.7 206.371 88.22C206.598 88.7267 206.711 89.2667 206.711 89.84C206.711 90.0133 206.705 90.16 206.691 90.28C206.691 90.4 206.685 90.5133 206.671 90.62C206.658 90.78 206.558 90.86 206.371 90.86H201.411ZM201.451 89.72H205.231C205.245 89.4133 205.198 89.1133 205.091 88.82C204.998 88.5267 204.818 88.28 204.551 88.08C204.285 87.88 203.905 87.78 203.411 87.78C202.851 87.78 202.398 87.9533 202.051 88.3C201.718 88.6333 201.518 89.1067 201.451 89.72ZM209.914 87.64C210.127 87.3067 210.434 87.0333 210.834 86.82C211.234 86.5933 211.7 86.48 212.234 86.48C213.167 86.48 213.9 86.7667 214.434 87.34C214.967 87.9133 215.234 88.6933 215.234 89.68V93.82C215.234 93.94 215.18 94 215.074 94H213.894C213.787 94 213.734 93.94 213.734 93.82V89.96C213.734 89.2533 213.567 88.7267 213.234 88.38C212.9 88.0333 212.454 87.86 211.894 87.86C211.294 87.86 210.82 88.04 210.474 88.4C210.127 88.7467 209.954 89.2933 209.954 90.04V93.82C209.954 93.94 209.907 94 209.814 94H208.634C208.527 94 208.474 93.94 208.474 93.82V86.82C208.474 86.7 208.527 86.64 208.634 86.64H208.734C209.04 86.64 209.3 86.7267 209.514 86.9C209.727 87.0733 209.86 87.32 209.914 87.64ZM218.102 87.96H216.742C216.635 87.96 216.582 87.9067 216.582 87.8V86.8C216.582 86.6933 216.635 86.64 216.742 86.64H218.102V84.16C218.102 84.04 218.148 83.98 218.242 83.98H218.342C218.728 83.98 219.028 84.1 219.242 84.34C219.468 84.5667 219.582 84.9133 219.582 85.38V86.64H221.122C221.215 86.64 221.262 86.6933 221.262 86.8V87.8C221.262 87.9067 221.215 87.96 221.122 87.96H219.582V93.82C219.582 93.94 219.528 94 219.422 94H218.242C218.148 94 218.102 93.94 218.102 93.82V87.96Z" fill="#0E3B96"/>
<mask id="path-17-inside-2_360_13811" fill="white">
<path d="M65.5 122H423.5V186H65.5V122Z"/>
</mask>
<path d="M423.5 185H65.5V187H423.5V185Z" fill="#F4F6F7" mask="url(#path-17-inside-2_360_13811)"/>
<rect width="40" height="40" rx="16" transform="matrix(-1 0 0 1 105.5 134)" fill="#EDF7FF"/>
<path d="M90.5 162.5H80.5C77.5 162.5 75.5 161 75.5 157.5V150.5C75.5 147 77.5 145.5 80.5 145.5H90.5C93.5 145.5 95.5 147 95.5 150.5V157.5C95.5 161 93.5 162.5 90.5 162.5Z" stroke="#0E3B96" stroke-width="1.5" stroke-miterlimit="10" stroke-linecap="round" stroke-linejoin="round"/>
<path d="M85.5 157C87.1569 157 88.5 155.657 88.5 154C88.5 152.343 87.1569 151 85.5 151C83.8431 151 82.5 152.343 82.5 154C82.5 155.657 83.8431 157 85.5 157Z" stroke="#0E3B96" stroke-width="1.5" stroke-miterlimit="10" stroke-linecap="round" stroke-linejoin="round"/>
<path d="M79 151.5V156.5" stroke="#0E3B96" stroke-width="1.5" stroke-miterlimit="10" stroke-linecap="round" stroke-linejoin="round"/>
<path d="M92 151.5V156.5" stroke="#0E3B96" stroke-width="1.5" stroke-miterlimit="10" stroke-linecap="round" stroke-linejoin="round"/>
<path d="M118.3 156.58H121.64C121.933 156.58 122.153 156.66 122.3 156.82C122.447 156.98 122.52 157.193 122.52 157.46V157.78C122.52 157.927 122.453 158 122.32 158H116.94C116.833 158 116.78 157.94 116.78 157.82V147.06C116.78 146.94 116.833 146.88 116.94 146.88H117.08C117.893 146.88 118.3 147.353 118.3 148.3V156.58ZM127.226 158.18C126.092 158.18 125.186 157.833 124.506 157.14C123.839 156.433 123.506 155.5 123.506 154.34C123.506 153.18 123.839 152.247 124.506 151.54C125.186 150.82 126.086 150.46 127.206 150.46C128.339 150.46 129.246 150.82 129.926 151.54C130.606 152.247 130.946 153.173 130.946 154.32C130.946 155.48 130.606 156.413 129.926 157.12C129.259 157.827 128.359 158.18 127.226 158.18ZM127.206 156.76C127.832 156.76 128.352 156.56 128.766 156.16C129.192 155.76 129.406 155.153 129.406 154.34C129.406 153.553 129.192 152.947 128.766 152.52C128.352 152.093 127.832 151.88 127.206 151.88C126.566 151.88 126.046 152.093 125.646 152.52C125.246 152.947 125.046 153.553 125.046 154.34C125.046 155.127 125.246 155.727 125.646 156.14C126.046 156.553 126.566 156.76 127.206 156.76ZM138.331 156.96C138.038 157.373 137.684 157.68 137.271 157.88C136.858 158.08 136.398 158.18 135.891 158.18C135.158 158.18 134.531 158.007 134.011 157.66C133.504 157.313 133.118 156.847 132.851 156.26C132.584 155.673 132.451 155.027 132.451 154.32C132.451 153.573 132.598 152.913 132.891 152.34C133.184 151.753 133.591 151.293 134.111 150.96C134.644 150.627 135.258 150.46 135.951 150.46C136.511 150.46 136.998 150.567 137.411 150.78C137.838 150.993 138.171 151.273 138.411 151.62C138.478 151.273 138.611 151.027 138.811 150.88C139.011 150.72 139.264 150.64 139.571 150.64H139.671C139.764 150.64 139.811 150.7 139.811 150.82V157.82C139.811 157.94 139.764 158 139.671 158H138.491C138.384 158 138.331 157.94 138.331 157.82V156.96ZM136.111 156.78C136.444 156.78 136.778 156.713 137.111 156.58C137.458 156.433 137.744 156.18 137.971 155.82C138.211 155.46 138.331 154.96 138.331 154.32C138.331 153.667 138.211 153.167 137.971 152.82C137.744 152.46 137.464 152.213 137.131 152.08C136.798 151.947 136.478 151.88 136.171 151.88C135.598 151.88 135.091 152.08 134.651 152.48C134.211 152.88 133.991 153.493 133.991 154.32C133.991 154.92 134.098 155.4 134.311 155.76C134.538 156.12 134.811 156.38 135.131 156.54C135.464 156.7 135.791 156.78 136.111 156.78ZM143.371 151.64C143.584 151.307 143.891 151.033 144.291 150.82C144.691 150.593 145.157 150.48 145.691 150.48C146.624 150.48 147.357 150.767 147.891 151.34C148.424 151.913 148.691 152.693 148.691 153.68V157.82C148.691 157.94 148.637 158 148.531 158H147.351C147.244 158 147.191 157.94 147.191 157.82V153.96C147.191 153.253 147.024 152.727 146.691 152.38C146.357 152.033 145.911 151.86 145.351 151.86C144.751 151.86 144.277 152.04 143.931 152.4C143.584 152.747 143.411 153.293 143.411 154.04V157.82C143.411 157.94 143.364 158 143.271 158H142.091C141.984 158 141.931 157.94 141.931 157.82V150.82C141.931 150.7 141.984 150.64 142.091 150.64H142.191C142.497 150.64 142.757 150.727 142.971 150.9C143.184 151.073 143.317 151.32 143.371 151.64Z" fill="#0E3B96"/>
<mask id="path-25-inside-3_360_13811" fill="white">
<path d="M65.5 186H423.5V250H65.5V186Z"/>
</mask>
<path d="M423.5 249H65.5V251H423.5V249Z" fill="#F4F6F7" mask="url(#path-25-inside-3_360_13811)"/>
<rect width="40" height="40" rx="16" transform="matrix(-1 0 0 1 105.5 198)" fill="#EDF7FF"/>
<path d="M91.29 216.47V223.79C91.29 226.12 89.4 228 87.08 228H79.71C77.39 228 75.5 226.11 75.5 223.79V216.47C75.5 214.14 77.39 212.26 79.71 212.26H87.08C89.4 212.26 91.29 214.15 91.29 216.47Z" stroke="#0E3B96" stroke-width="1.5" stroke-linecap="round" stroke-linejoin="round"/>
<path d="M79 210V208.25" stroke="#0E3B96" stroke-width="1.5" stroke-linecap="round" stroke-linejoin="round"/>
<path d="M83 210V208.25" stroke="#0E3B96" stroke-width="1.5" stroke-linecap="round" stroke-linejoin="round"/>
<path d="M87 210V208.25" stroke="#0E3B96" stroke-width="1.5" stroke-linecap="round" stroke-linejoin="round"/>
<path d="M95.5 219.16C95.5 221.48 93.61 223.37 91.29 223.37V214.95C93.61 214.95 95.5 216.83 95.5 219.16Z" stroke="#0E3B96" stroke-width="1.5" stroke-linecap="round" stroke-linejoin="round"/>
<path d="M75.5 218H91.01" stroke="#0E3B96" stroke-width="1.5" stroke-linecap="round" stroke-linejoin="round"/>
<path d="M118.3 217.22V221.82C118.3 221.94 118.247 222 118.14 222H116.94C116.833 222 116.78 221.94 116.78 221.82V211.06C116.78 210.94 116.833 210.88 116.94 210.88H122.06C122.66 210.88 122.96 211.167 122.96 211.74V212.08C122.96 212.227 122.887 212.3 122.74 212.3H118.3V215.8H121.66C122.26 215.8 122.56 216.093 122.56 216.68V216.98C122.56 217.14 122.48 217.22 122.32 217.22H118.3ZM127.812 222.18C126.678 222.18 125.772 221.833 125.092 221.14C124.425 220.433 124.092 219.5 124.092 218.34C124.092 217.18 124.425 216.247 125.092 215.54C125.772 214.82 126.672 214.46 127.792 214.46C128.925 214.46 129.832 214.82 130.512 215.54C131.192 216.247 131.532 217.173 131.532 218.32C131.532 219.48 131.192 220.413 130.512 221.12C129.845 221.827 128.945 222.18 127.812 222.18ZM127.792 220.76C128.418 220.76 128.938 220.56 129.352 220.16C129.778 219.76 129.992 219.153 129.992 218.34C129.992 217.553 129.778 216.947 129.352 216.52C128.938 216.093 128.418 215.88 127.792 215.88C127.152 215.88 126.632 216.093 126.232 216.52C125.832 216.947 125.632 217.553 125.632 218.34C125.632 219.127 125.832 219.727 126.232 220.14C126.632 220.553 127.152 220.76 127.792 220.76ZM136.757 222.18C135.624 222.18 134.717 221.833 134.037 221.14C133.37 220.433 133.037 219.5 133.037 218.34C133.037 217.18 133.37 216.247 134.037 215.54C134.717 214.82 135.617 214.46 136.737 214.46C137.87 214.46 138.777 214.82 139.457 215.54C140.137 216.247 140.477 217.173 140.477 218.32C140.477 219.48 140.137 220.413 139.457 221.12C138.79 221.827 137.89 222.18 136.757 222.18ZM136.737 220.76C137.364 220.76 137.884 220.56 138.297 220.16C138.724 219.76 138.937 219.153 138.937 218.34C138.937 217.553 138.724 216.947 138.297 216.52C137.884 216.093 137.364 215.88 136.737 215.88C136.097 215.88 135.577 216.093 135.177 216.52C134.777 216.947 134.577 217.553 134.577 218.34C134.577 219.127 134.777 219.727 135.177 220.14C135.577 220.553 136.097 220.76 136.737 220.76ZM147.882 215.6V211.06C147.882 210.94 147.936 210.88 148.042 210.88H148.142C148.529 210.88 148.829 210.993 149.042 211.22C149.269 211.447 149.382 211.793 149.382 212.26V221.82C149.382 221.94 149.329 222 149.222 222H148.042C147.936 222 147.882 221.94 147.882 221.82V220.96C147.602 221.373 147.249 221.68 146.822 221.88C146.409 222.08 145.949 222.18 145.442 222.18C144.722 222.18 144.102 222.007 143.582 221.66C143.076 221.313 142.682 220.847 142.402 220.26C142.136 219.673 142.002 219.027 142.002 218.32C142.002 217.573 142.149 216.913 142.442 216.34C142.736 215.753 143.142 215.293 143.662 214.96C144.196 214.627 144.822 214.46 145.542 214.46C146.049 214.46 146.509 214.56 146.922 214.76C147.336 214.96 147.656 215.24 147.882 215.6ZM145.662 220.78C145.996 220.78 146.329 220.713 146.662 220.58C147.009 220.433 147.296 220.18 147.522 219.82C147.762 219.46 147.882 218.96 147.882 218.32C147.882 217.667 147.762 217.167 147.522 216.82C147.296 216.46 147.016 216.213 146.682 216.08C146.349 215.947 146.029 215.88 145.722 215.88C145.149 215.88 144.642 216.08 144.202 216.48C143.762 216.88 143.542 217.493 143.542 218.32C143.542 218.92 143.649 219.4 143.862 219.76C144.089 220.12 144.362 220.38 144.682 220.54C145.016 220.7 145.342 220.78 145.662 220.78ZM161.315 218.4L162.575 216.42C162.668 216.273 162.795 216.2 162.955 216.2H163.975C164.041 216.2 164.081 216.22 164.095 216.26C164.108 216.3 164.101 216.34 164.075 216.38L162.115 219.34L164.195 221.8C164.221 221.84 164.228 221.887 164.215 221.94C164.201 221.98 164.168 222 164.115 222H163.155C162.888 222 162.681 221.967 162.535 221.9C162.401 221.833 162.275 221.72 162.155 221.56L161.275 220.54C160.955 220.927 160.535 221.293 160.015 221.64C159.508 221.973 158.888 222.14 158.155 222.14C157.168 222.14 156.368 221.847 155.755 221.26C155.141 220.673 154.835 219.933 154.835 219.04C154.835 218.253 155.068 217.62 155.535 217.14C156.015 216.647 156.595 216.22 157.275 215.86C156.875 215.42 156.548 215 156.295 214.6C156.041 214.187 155.915 213.733 155.915 213.24C155.915 212.453 156.195 211.827 156.755 211.36C157.315 210.893 158.055 210.66 158.975 210.66C159.855 210.66 160.561 210.88 161.095 211.32C161.641 211.76 161.915 212.36 161.915 213.12C161.915 213.733 161.681 214.293 161.215 214.8C160.748 215.307 160.135 215.767 159.375 216.18L161.315 218.4ZM158.615 215.26C159.188 214.967 159.641 214.66 159.975 214.34C160.308 214.007 160.475 213.613 160.475 213.16C160.475 212.787 160.335 212.48 160.055 212.24C159.775 212 159.421 211.88 158.995 211.88C158.528 211.88 158.155 212 157.875 212.24C157.595 212.48 157.455 212.807 157.455 213.22C157.455 213.54 157.568 213.873 157.795 214.22C158.021 214.567 158.295 214.913 158.615 215.26ZM160.495 219.6L158.095 216.82C157.601 217.087 157.188 217.387 156.855 217.72C156.521 218.04 156.355 218.453 156.355 218.96C156.355 219.56 156.528 220.027 156.875 220.36C157.235 220.693 157.701 220.86 158.275 220.86C158.795 220.86 159.221 220.74 159.555 220.5C159.888 220.26 160.201 219.96 160.495 219.6ZM169.772 222C169.665 222 169.612 221.94 169.612 221.82V211.06C169.612 210.94 169.665 210.88 169.772 210.88H172.892C173.985 210.88 174.945 211.073 175.772 211.46C176.612 211.833 177.265 212.42 177.732 213.22C178.212 214.007 178.452 215.027 178.452 216.28C178.452 217.6 178.212 218.687 177.732 219.54C177.265 220.38 176.605 221 175.752 221.4C174.899 221.8 173.892 222 172.732 222H169.772ZM171.132 220.58H172.892C174.185 220.58 175.172 220.233 175.852 219.54C176.532 218.833 176.872 217.767 176.872 216.34C176.872 214.86 176.525 213.82 175.832 213.22C175.139 212.607 174.132 212.3 172.812 212.3H171.132V220.58ZM181.945 215.7C182.185 215.287 182.472 215.007 182.805 214.86C183.139 214.713 183.572 214.64 184.105 214.64H184.325C184.432 214.64 184.485 214.693 184.485 214.8V215.9C184.485 216.02 184.432 216.08 184.325 216.08H183.845C183.139 216.08 182.652 216.26 182.385 216.62C182.119 216.98 181.985 217.547 181.985 218.32V221.82C181.985 221.94 181.939 222 181.845 222H180.665C180.559 222 180.505 221.94 180.505 221.82V214.8C180.505 214.693 180.559 214.64 180.665 214.64H180.765C181.099 214.64 181.365 214.733 181.565 214.92C181.779 215.093 181.905 215.353 181.945 215.7ZM185.932 212.66C185.932 212.393 186.018 212.173 186.192 212C186.365 211.827 186.578 211.74 186.832 211.74C187.072 211.74 187.278 211.827 187.452 212C187.625 212.173 187.712 212.393 187.712 212.66C187.712 212.913 187.625 213.127 187.452 213.3C187.278 213.473 187.072 213.56 186.832 213.56C186.578 213.56 186.365 213.473 186.192 213.3C186.018 213.127 185.932 212.913 185.932 212.66ZM186.232 222C186.125 222 186.072 221.94 186.072 221.82V214.82C186.072 214.7 186.125 214.64 186.232 214.64H186.332C186.718 214.64 187.018 214.753 187.232 214.98C187.458 215.207 187.572 215.553 187.572 216.02V221.82C187.572 221.94 187.518 222 187.412 222H186.232ZM191.085 215.64C191.299 215.307 191.605 215.033 192.005 214.82C192.405 214.593 192.872 214.48 193.405 214.48C194.339 214.48 195.072 214.767 195.605 215.34C196.139 215.913 196.405 216.693 196.405 217.68V221.82C196.405 221.94 196.352 222 196.245 222H195.065C194.959 222 194.905 221.94 194.905 221.82V217.96C194.905 217.253 194.739 216.727 194.405 216.38C194.072 216.033 193.625 215.86 193.065 215.86C192.465 215.86 191.992 216.04 191.645 216.4C191.299 216.747 191.125 217.293 191.125 218.04V221.82C191.125 221.94 191.079 222 190.985 222H189.805C189.699 222 189.645 221.94 189.645 221.82V214.82C189.645 214.7 189.699 214.64 189.805 214.64H189.905C190.212 214.64 190.472 214.727 190.685 214.9C190.899 215.073 191.032 215.32 191.085 215.64ZM199.974 219.3V221.82C199.974 221.94 199.927 222 199.834 222H198.654C198.547 222 198.494 221.94 198.494 221.82V211.06C198.494 210.94 198.547 210.88 198.654 210.88H198.754C199.567 210.88 199.974 211.34 199.974 212.26V217.52L202.574 214.84C202.72 214.707 202.874 214.64 203.034 214.64H204.274C204.34 214.64 204.374 214.66 204.374 214.7C204.387 214.74 204.38 214.773 204.354 214.8L201.914 217.32L204.694 221.82C204.72 221.86 204.72 221.9 204.694 221.94C204.68 221.98 204.647 222 204.594 222H203.334C203.16 222 203.034 221.927 202.954 221.78L200.894 218.38L199.974 219.3Z" fill="#0E3B96"/>
<mask id="path-35-inside-4_360_13811" fill="white">
<path d="M65.5 250H423.5V314H65.5V250Z"/>
</mask>
<path d="M423.5 313H65.5V315H423.5V313Z" fill="#F4F6F7" mask="url(#path-35-inside-4_360_13811)"/>
<rect width="40" height="40" rx="16" transform="matrix(-1 0 0 1 105.5 262)" fill="#EDF7FF"/>
<path d="M89.01 272.83H81.99C79.5 272.83 78.95 274.07 78.63 275.59L77.5 281H93.5L92.37 275.59C92.05 274.07 91.5 272.83 89.01 272.83Z" stroke="#0E3B96" stroke-width="1.5" stroke-linecap="round" stroke-linejoin="round"/>
<path d="M95.4897 289.82C95.5997 290.99 94.6597 292 93.4597 292H91.5797C90.4997 292 90.3497 291.54 90.1597 290.97L89.9597 290.37C89.6797 289.55 89.4997 289 88.0597 289H82.9397C81.4997 289 81.2897 289.62 81.0397 290.37L80.8397 290.97C80.6497 291.54 80.4997 292 79.4197 292H77.5397C76.3397 292 75.3997 290.99 75.5097 289.82L76.0697 283.73C76.2097 282.23 76.4997 281 79.1197 281H91.8797C94.4997 281 94.7897 282.23 94.9297 283.73L95.4897 289.82Z" stroke="#0E3B96" stroke-width="1.5" stroke-linecap="round" stroke-linejoin="round"/>
<path d="M77.5 278H76.5" stroke="#0E3B96" stroke-width="1.5" stroke-linecap="round" stroke-linejoin="round"/>
<path d="M94.5 278H93.5" stroke="#0E3B96" stroke-width="1.5" stroke-linecap="round" stroke-linejoin="round"/>
<path d="M85.5 273V275" stroke="#0E3B96" stroke-width="1.5" stroke-linecap="round" stroke-linejoin="round"/>
<path d="M84 275H87" stroke="#0E3B96" stroke-width="1.5" stroke-linecap="round" stroke-linejoin="round"/>
<path d="M79.5 285H82.5" stroke="#0E3B96" stroke-width="1.5" stroke-linecap="round" stroke-linejoin="round"/>
<path d="M88.5 285H91.5" stroke="#0E3B96" stroke-width="1.5" stroke-linecap="round" stroke-linejoin="round"/>
<path d="M118.96 276.3H115.94C115.833 276.3 115.78 276.24 115.78 276.12V275.06C115.78 274.94 115.833 274.88 115.94 274.88H122.8C123.413 274.88 123.72 275.167 123.72 275.74V276.08C123.72 276.227 123.647 276.3 123.5 276.3H120.46V285.82C120.46 285.94 120.413 286 120.32 286H119.14C119.02 286 118.96 285.94 118.96 285.82V276.3ZM126.164 279.7C126.404 279.287 126.691 279.007 127.024 278.86C127.357 278.713 127.791 278.64 128.324 278.64H128.544C128.651 278.64 128.704 278.693 128.704 278.8V279.9C128.704 280.02 128.651 280.08 128.544 280.08H128.064C127.357 280.08 126.871 280.26 126.604 280.62C126.337 280.98 126.204 281.547 126.204 282.32V285.82C126.204 285.94 126.157 286 126.064 286H124.884C124.777 286 124.724 285.94 124.724 285.82V278.8C124.724 278.693 124.777 278.64 124.884 278.64H124.984C125.317 278.64 125.584 278.733 125.784 278.92C125.997 279.093 126.124 279.353 126.164 279.7ZM135.733 284.96C135.44 285.373 135.087 285.68 134.673 285.88C134.26 286.08 133.8 286.18 133.293 286.18C132.56 286.18 131.933 286.007 131.413 285.66C130.907 285.313 130.52 284.847 130.253 284.26C129.987 283.673 129.853 283.027 129.853 282.32C129.853 281.573 130 280.913 130.293 280.34C130.587 279.753 130.993 279.293 131.513 278.96C132.047 278.627 132.66 278.46 133.353 278.46C133.913 278.46 134.4 278.567 134.813 278.78C135.24 278.993 135.573 279.273 135.813 279.62C135.88 279.273 136.013 279.027 136.213 278.88C136.413 278.72 136.667 278.64 136.973 278.64H137.073C137.167 278.64 137.213 278.7 137.213 278.82V285.82C137.213 285.94 137.167 286 137.073 286H135.893C135.787 286 135.733 285.94 135.733 285.82V284.96ZM133.513 284.78C133.847 284.78 134.18 284.713 134.513 284.58C134.86 284.433 135.147 284.18 135.373 283.82C135.613 283.46 135.733 282.96 135.733 282.32C135.733 281.667 135.613 281.167 135.373 280.82C135.147 280.46 134.867 280.213 134.533 280.08C134.2 279.947 133.88 279.88 133.573 279.88C133 279.88 132.493 280.08 132.053 280.48C131.613 280.88 131.393 281.493 131.393 282.32C131.393 282.92 131.5 283.4 131.713 283.76C131.94 284.12 132.213 284.38 132.533 284.54C132.867 284.7 133.193 284.78 133.513 284.78ZM140.773 279.64C140.986 279.307 141.293 279.033 141.693 278.82C142.093 278.593 142.56 278.48 143.093 278.48C144.026 278.48 144.76 278.767 145.293 279.34C145.826 279.913 146.093 280.693 146.093 281.68V285.82C146.093 285.94 146.04 286 145.933 286H144.753C144.646 286 144.593 285.94 144.593 285.82V281.96C144.593 281.253 144.426 280.727 144.093 280.38C143.76 280.033 143.313 279.86 142.753 279.86C142.153 279.86 141.68 280.04 141.333 280.4C140.986 280.747 140.813 281.293 140.813 282.04V285.82C140.813 285.94 140.766 286 140.673 286H139.493C139.386 286 139.333 285.94 139.333 285.82V278.82C139.333 278.7 139.386 278.64 139.493 278.64H139.593C139.9 278.64 140.16 278.727 140.373 278.9C140.586 279.073 140.72 279.32 140.773 279.64ZM152.301 280.24C151.981 280.067 151.674 279.94 151.381 279.86C151.088 279.78 150.768 279.74 150.421 279.74C150.074 279.74 149.788 279.807 149.561 279.94C149.348 280.073 149.241 280.273 149.241 280.54C149.241 280.793 149.368 281 149.621 281.16C149.874 281.32 150.188 281.467 150.561 281.6C150.934 281.733 151.308 281.887 151.681 282.06C152.068 282.233 152.388 282.46 152.641 282.74C152.894 283.007 153.021 283.373 153.021 283.84C153.021 284.547 152.768 285.12 152.261 285.56C151.768 286 151.088 286.22 150.221 286.22C149.674 286.22 149.201 286.127 148.801 285.94C148.401 285.74 148.094 285.493 147.881 285.2C147.668 284.907 147.561 284.613 147.561 284.32C147.561 284.093 147.634 283.98 147.781 283.98C147.834 283.98 147.894 284.013 147.961 284.08C148.214 284.307 148.508 284.507 148.841 284.68C149.174 284.853 149.588 284.94 150.081 284.94C150.561 284.94 150.921 284.853 151.161 284.68C151.401 284.507 151.521 284.273 151.521 283.98C151.521 283.713 151.394 283.5 151.141 283.34C150.888 283.18 150.568 283.04 150.181 282.92C149.808 282.787 149.428 282.633 149.041 282.46C148.668 282.287 148.354 282.06 148.101 281.78C147.848 281.5 147.721 281.127 147.721 280.66C147.721 279.953 147.988 279.413 148.521 279.04C149.054 278.653 149.694 278.46 150.441 278.46C151.094 278.46 151.661 278.58 152.141 278.82C152.408 278.927 152.581 279.067 152.661 279.24C152.741 279.4 152.748 279.62 152.681 279.9L152.621 280.16C152.608 280.253 152.561 280.3 152.481 280.3C152.454 280.3 152.421 280.293 152.381 280.28C152.354 280.267 152.328 280.253 152.301 280.24ZM156.009 285.02V289.02C156.009 289.14 155.962 289.2 155.869 289.2H154.689C154.582 289.2 154.529 289.14 154.529 289.02V278.8C154.529 278.693 154.582 278.64 154.689 278.64H154.789C155.149 278.64 155.422 278.747 155.609 278.96C155.795 279.16 155.915 279.4 155.969 279.68C156.195 279.333 156.515 279.047 156.929 278.82C157.342 278.58 157.835 278.46 158.409 278.46C159.515 278.46 160.375 278.827 160.989 279.56C161.602 280.28 161.909 281.2 161.909 282.32C161.909 283.027 161.775 283.673 161.509 284.26C161.242 284.847 160.855 285.313 160.349 285.66C159.842 286.007 159.229 286.18 158.509 286.18C157.989 286.18 157.509 286.087 157.069 285.9C156.629 285.713 156.275 285.42 156.009 285.02ZM158.229 284.78C158.549 284.78 158.875 284.7 159.209 284.54C159.542 284.38 159.815 284.12 160.029 283.76C160.255 283.4 160.369 282.92 160.369 282.32C160.369 281.493 160.149 280.88 159.709 280.48C159.282 280.08 158.775 279.88 158.189 279.88C157.882 279.88 157.555 279.947 157.209 280.08C156.875 280.213 156.589 280.46 156.349 280.82C156.122 281.167 156.009 281.667 156.009 282.32C156.009 282.96 156.129 283.46 156.369 283.82C156.609 284.18 156.902 284.433 157.249 284.58C157.595 284.713 157.922 284.78 158.229 284.78ZM167.108 286.18C165.975 286.18 165.068 285.833 164.388 285.14C163.722 284.433 163.388 283.5 163.388 282.34C163.388 281.18 163.722 280.247 164.388 279.54C165.068 278.82 165.968 278.46 167.088 278.46C168.222 278.46 169.128 278.82 169.808 279.54C170.488 280.247 170.828 281.173 170.828 282.32C170.828 283.48 170.488 284.413 169.808 285.12C169.142 285.827 168.242 286.18 167.108 286.18ZM167.088 284.76C167.715 284.76 168.235 284.56 168.648 284.16C169.075 283.76 169.288 283.153 169.288 282.34C169.288 281.553 169.075 280.947 168.648 280.52C168.235 280.093 167.715 279.88 167.088 279.88C166.448 279.88 165.928 280.093 165.528 280.52C165.128 280.947 164.928 281.553 164.928 282.34C164.928 283.127 165.128 283.727 165.528 284.14C165.928 284.553 166.448 284.76 167.088 284.76ZM174.094 279.7C174.334 279.287 174.62 279.007 174.954 278.86C175.287 278.713 175.72 278.64 176.254 278.64H176.474C176.58 278.64 176.634 278.693 176.634 278.8V279.9C176.634 280.02 176.58 280.08 176.474 280.08H175.994C175.287 280.08 174.8 280.26 174.534 280.62C174.267 280.98 174.134 281.547 174.134 282.32V285.82C174.134 285.94 174.087 286 173.994 286H172.814C172.707 286 172.654 285.94 172.654 285.82V278.8C172.654 278.693 172.707 278.64 172.814 278.64H172.914C173.247 278.64 173.514 278.733 173.714 278.92C173.927 279.093 174.054 279.353 174.094 279.7ZM179.039 279.96H177.679C177.573 279.96 177.519 279.907 177.519 279.8V278.8C177.519 278.693 177.573 278.64 177.679 278.64H179.039V276.16C179.039 276.04 179.086 275.98 179.179 275.98H179.279C179.666 275.98 179.966 276.1 180.179 276.34C180.406 276.567 180.519 276.913 180.519 277.38V278.64H182.059C182.153 278.64 182.199 278.693 182.199 278.8V279.8C182.199 279.907 182.153 279.96 182.059 279.96H180.519V285.82C180.519 285.94 180.466 286 180.359 286H179.179C179.086 286 179.039 285.94 179.039 285.82V279.96ZM189.229 284.96C188.936 285.373 188.583 285.68 188.169 285.88C187.756 286.08 187.296 286.18 186.789 286.18C186.056 286.18 185.429 286.007 184.909 285.66C184.403 285.313 184.016 284.847 183.749 284.26C183.483 283.673 183.349 283.027 183.349 282.32C183.349 281.573 183.496 280.913 183.789 280.34C184.083 279.753 184.489 279.293 185.009 278.96C185.543 278.627 186.156 278.46 186.849 278.46C187.409 278.46 187.896 278.567 188.309 278.78C188.736 278.993 189.069 279.273 189.309 279.62C189.376 279.273 189.509 279.027 189.709 278.88C189.909 278.72 190.163 278.64 190.469 278.64H190.569C190.663 278.64 190.709 278.7 190.709 278.82V285.82C190.709 285.94 190.663 286 190.569 286H189.389C189.283 286 189.229 285.94 189.229 285.82V284.96ZM187.009 284.78C187.343 284.78 187.676 284.713 188.009 284.58C188.356 284.433 188.643 284.18 188.869 283.82C189.109 283.46 189.229 282.96 189.229 282.32C189.229 281.667 189.109 281.167 188.869 280.82C188.643 280.46 188.363 280.213 188.029 280.08C187.696 279.947 187.376 279.88 187.069 279.88C186.496 279.88 185.989 280.08 185.549 280.48C185.109 280.88 184.889 281.493 184.889 282.32C184.889 282.92 184.996 283.4 185.209 283.76C185.436 284.12 185.709 284.38 186.029 284.54C186.363 284.7 186.689 284.78 187.009 284.78ZM193.629 279.96H192.269C192.162 279.96 192.109 279.907 192.109 279.8V278.8C192.109 278.693 192.162 278.64 192.269 278.64H193.629V276.16C193.629 276.04 193.676 275.98 193.769 275.98H193.869C194.256 275.98 194.556 276.1 194.769 276.34C194.996 276.567 195.109 276.913 195.109 277.38V278.64H196.649C196.742 278.64 196.789 278.693 196.789 278.8V279.8C196.789 279.907 196.742 279.96 196.649 279.96H195.109V285.82C195.109 285.94 195.056 286 194.949 286H193.769C193.676 286 193.629 285.94 193.629 285.82V279.96ZM198.236 276.66C198.236 276.393 198.323 276.173 198.496 276C198.67 275.827 198.883 275.74 199.136 275.74C199.376 275.74 199.583 275.827 199.756 276C199.93 276.173 200.016 276.393 200.016 276.66C200.016 276.913 199.93 277.127 199.756 277.3C199.583 277.473 199.376 277.56 199.136 277.56C198.883 277.56 198.67 277.473 198.496 277.3C198.323 277.127 198.236 276.913 198.236 276.66ZM198.536 286C198.43 286 198.376 285.94 198.376 285.82V278.82C198.376 278.7 198.43 278.64 198.536 278.64H198.636C199.023 278.64 199.323 278.753 199.536 278.98C199.763 279.207 199.876 279.553 199.876 280.02V285.82C199.876 285.94 199.823 286 199.716 286H198.536ZM205.37 286.18C204.237 286.18 203.33 285.833 202.65 285.14C201.983 284.433 201.65 283.5 201.65 282.34C201.65 281.18 201.983 280.247 202.65 279.54C203.33 278.82 204.23 278.46 205.35 278.46C206.483 278.46 207.39 278.82 208.07 279.54C208.75 280.247 209.09 281.173 209.09 282.32C209.09 283.48 208.75 284.413 208.07 285.12C207.403 285.827 206.503 286.18 205.37 286.18ZM205.35 284.76C205.977 284.76 206.497 284.56 206.91 284.16C207.337 283.76 207.55 283.153 207.55 282.34C207.55 281.553 207.337 280.947 206.91 280.52C206.497 280.093 205.977 279.88 205.35 279.88C204.71 279.88 204.19 280.093 203.79 280.52C203.39 280.947 203.19 281.553 203.19 282.34C203.19 283.127 203.39 283.727 203.79 284.14C204.19 284.553 204.71 284.76 205.35 284.76ZM212.335 279.64C212.549 279.307 212.855 279.033 213.255 278.82C213.655 278.593 214.122 278.48 214.655 278.48C215.589 278.48 216.322 278.767 216.855 279.34C217.389 279.913 217.655 280.693 217.655 281.68V285.82C217.655 285.94 217.602 286 217.495 286H216.315C216.209 286 216.155 285.94 216.155 285.82V281.96C216.155 281.253 215.989 280.727 215.655 280.38C215.322 280.033 214.875 279.86 214.315 279.86C213.715 279.86 213.242 280.04 212.895 280.4C212.549 280.747 212.375 281.293 212.375 282.04V285.82C212.375 285.94 212.329 286 212.235 286H211.055C210.949 286 210.895 285.94 210.895 285.82V278.82C210.895 278.7 210.949 278.64 211.055 278.64H211.155C211.462 278.64 211.722 278.727 211.935 278.9C212.149 279.073 212.282 279.32 212.335 279.64Z" fill="#0E3B96"/>
<mask id="path-47-inside-5_360_13811" fill="white">
<path d="M65.5 314H423.5V378H65.5V314Z"/>
</mask>
<path d="M423.5 377H65.5V379H423.5V377Z" fill="#F4F6F7" mask="url(#path-47-inside-5_360_13811)"/>
<rect width="40" height="40" rx="16" transform="matrix(-1 0 0 1 105.5 326)" fill="#EDF7FF"/>
<path d="M82.4697 356H88.4697C93.4697 356 95.4697 354 95.4697 349V343C95.4697 338 93.4697 336 88.4697 336H82.4697C77.4697 336 75.4697 338 75.4697 343V349C75.4697 354 77.4697 356 82.4697 356Z" stroke="#0E3B96" stroke-width="1.5" stroke-linecap="round" stroke-linejoin="round"/>
<path d="M75.4697 346.7L81.4697 346.68C82.2197 346.68 83.0597 347.25 83.3397 347.95L84.4797 350.83C84.7397 351.48 85.1497 351.48 85.4097 350.83L87.6997 345.02C87.9197 344.46 88.3297 344.44 88.6097 344.97L89.6497 346.94C89.9597 347.53 90.7597 348.01 91.4197 348.01H95.4797" stroke="#0E3B96" stroke-width="1.5" stroke-linecap="round" stroke-linejoin="round"/>
<path d="M118.3 345.22V349.82C118.3 349.94 118.247 350 118.14 350H116.94C116.833 350 116.78 349.94 116.78 349.82V339.06C116.78 338.94 116.833 338.88 116.94 338.88H117.08C117.893 338.88 118.3 339.353 118.3 340.3V343.8H123.22V339.06C123.22 338.94 123.273 338.88 123.38 338.88H123.52C124.333 338.88 124.74 339.353 124.74 340.3V349.82C124.74 349.94 124.687 350 124.58 350H123.38C123.273 350 123.22 349.94 123.22 349.82V345.22H118.3ZM128.267 346.86C128.347 347.553 128.6 348.067 129.027 348.4C129.454 348.72 130.014 348.88 130.707 348.88C131.267 348.88 131.714 348.807 132.047 348.66C132.38 348.513 132.687 348.34 132.967 348.14C133.02 348.113 133.067 348.08 133.107 348.04C133.16 348 133.207 347.98 133.247 347.98C133.314 347.98 133.36 348.013 133.387 348.08C133.427 348.133 133.447 348.193 133.447 348.26C133.447 348.54 133.334 348.833 133.107 349.14C132.894 349.433 132.567 349.68 132.127 349.88C131.7 350.08 131.167 350.18 130.527 350.18C129.874 350.18 129.26 350.047 128.687 349.78C128.127 349.5 127.667 349.08 127.307 348.52C126.96 347.947 126.787 347.213 126.787 346.32C126.787 345.573 126.934 344.913 127.227 344.34C127.52 343.753 127.927 343.293 128.447 342.96C128.98 342.627 129.594 342.46 130.287 342.46C131.074 342.46 131.707 342.627 132.187 342.96C132.667 343.28 133.014 343.7 133.227 344.22C133.454 344.727 133.567 345.267 133.567 345.84C133.567 346.013 133.56 346.16 133.547 346.28C133.547 346.4 133.54 346.513 133.527 346.62C133.514 346.78 133.414 346.86 133.227 346.86H128.267ZM128.307 345.72H132.087C132.1 345.413 132.054 345.113 131.947 344.82C131.854 344.527 131.674 344.28 131.407 344.08C131.14 343.88 130.76 343.78 130.267 343.78C129.707 343.78 129.254 343.953 128.907 344.3C128.574 344.633 128.374 345.107 128.307 345.72ZM140.909 348.96C140.616 349.373 140.262 349.68 139.849 349.88C139.436 350.08 138.976 350.18 138.469 350.18C137.736 350.18 137.109 350.007 136.589 349.66C136.082 349.313 135.696 348.847 135.429 348.26C135.162 347.673 135.029 347.027 135.029 346.32C135.029 345.573 135.176 344.913 135.469 344.34C135.762 343.753 136.169 343.293 136.689 342.96C137.222 342.627 137.836 342.46 138.529 342.46C139.089 342.46 139.576 342.567 139.989 342.78C140.416 342.993 140.749 343.273 140.989 343.62C141.056 343.273 141.189 343.027 141.389 342.88C141.589 342.72 141.842 342.64 142.149 342.64H142.249C142.342 342.64 142.389 342.7 142.389 342.82V349.82C142.389 349.94 142.342 350 142.249 350H141.069C140.962 350 140.909 349.94 140.909 349.82V348.96ZM138.689 348.78C139.022 348.78 139.356 348.713 139.689 348.58C140.036 348.433 140.322 348.18 140.549 347.82C140.789 347.46 140.909 346.96 140.909 346.32C140.909 345.667 140.789 345.167 140.549 344.82C140.322 344.46 140.042 344.213 139.709 344.08C139.376 343.947 139.056 343.88 138.749 343.88C138.176 343.88 137.669 344.08 137.229 344.48C136.789 344.88 136.569 345.493 136.569 346.32C136.569 346.92 136.676 347.4 136.889 347.76C137.116 348.12 137.389 348.38 137.709 348.54C138.042 348.7 138.369 348.78 138.689 348.78ZM146.369 350.18C145.795 350.18 145.342 350 145.009 349.64C144.675 349.267 144.509 348.68 144.509 347.88V339.06C144.509 338.94 144.562 338.88 144.669 338.88H144.769C145.582 338.88 145.989 339.34 145.989 340.26V347.78C145.989 348.473 146.249 348.82 146.769 348.82C146.982 348.82 147.162 348.78 147.309 348.7C147.455 348.607 147.595 348.487 147.729 348.34C147.795 348.26 147.862 348.22 147.929 348.22C147.995 348.22 148.042 348.247 148.069 348.3C148.095 348.353 148.109 348.413 148.109 348.48C148.109 348.693 148.049 348.933 147.929 349.2C147.822 349.467 147.642 349.7 147.389 349.9C147.135 350.087 146.795 350.18 146.369 350.18ZM149.801 343.96H148.441C148.334 343.96 148.281 343.907 148.281 343.8V342.8C148.281 342.693 148.334 342.64 148.441 342.64H149.801V340.16C149.801 340.04 149.848 339.98 149.941 339.98H150.041C150.428 339.98 150.728 340.1 150.941 340.34C151.168 340.567 151.281 340.913 151.281 341.38V342.64H152.821C152.914 342.64 152.961 342.693 152.961 342.8V343.8C152.961 343.907 152.914 343.96 152.821 343.96H151.281V349.82C151.281 349.94 151.228 350 151.121 350H149.941C149.848 350 149.801 349.94 149.801 349.82V343.96ZM156.028 343.54C156.228 343.233 156.522 342.98 156.908 342.78C157.295 342.567 157.762 342.46 158.308 342.46C159.215 342.46 159.942 342.747 160.488 343.32C161.035 343.893 161.308 344.673 161.308 345.66V349.82C161.308 349.94 161.255 350 161.148 350H159.968C159.862 350 159.808 349.94 159.808 349.82V345.92C159.808 345.227 159.642 344.707 159.308 344.36C158.975 344.013 158.528 343.84 157.968 343.84C157.368 343.84 156.895 344.02 156.548 344.38C156.202 344.727 156.028 345.273 156.028 346.02V349.82C156.028 349.94 155.982 350 155.888 350H154.708C154.602 350 154.548 349.94 154.548 349.82V339.06C154.548 338.94 154.602 338.88 154.708 338.88H154.808C155.622 338.88 156.028 339.34 156.028 340.26V343.54ZM171.969 350.22C170.969 350.22 170.089 349.993 169.329 349.54C168.583 349.073 167.996 348.413 167.569 347.56C167.156 346.693 166.949 345.66 166.949 344.46C166.949 343.26 167.169 342.227 167.609 341.36C168.049 340.493 168.656 339.827 169.429 339.36C170.216 338.893 171.116 338.66 172.129 338.66C172.676 338.66 173.156 338.72 173.569 338.84C173.983 338.96 174.369 339.093 174.729 339.24C175.063 339.387 175.289 339.553 175.409 339.74C175.529 339.927 175.556 340.167 175.489 340.46L175.389 340.88C175.376 341.013 175.309 341.08 175.189 341.08C175.123 341.08 175.029 341.04 174.909 340.96C174.509 340.693 174.083 340.487 173.629 340.34C173.189 340.18 172.689 340.1 172.129 340.1C171.023 340.1 170.143 340.48 169.489 341.24C168.836 341.987 168.509 343.067 168.509 344.48C168.509 345.853 168.836 346.913 169.489 347.66C170.143 348.407 171.036 348.78 172.169 348.78C172.889 348.78 173.496 348.633 173.989 348.34C174.496 348.047 174.896 347.72 175.189 347.36C175.296 347.227 175.396 347.16 175.489 347.16C175.596 347.16 175.669 347.2 175.709 347.28C175.749 347.36 175.769 347.453 175.769 347.56C175.769 347.76 175.703 348.013 175.569 348.32C175.436 348.613 175.216 348.907 174.909 349.2C174.616 349.48 174.229 349.72 173.749 349.92C173.269 350.12 172.676 350.22 171.969 350.22ZM182.804 348.96C182.51 349.373 182.157 349.68 181.744 349.88C181.33 350.08 180.87 350.18 180.364 350.18C179.63 350.18 179.004 350.007 178.484 349.66C177.977 349.313 177.59 348.847 177.324 348.26C177.057 347.673 176.924 347.027 176.924 346.32C176.924 345.573 177.07 344.913 177.364 344.34C177.657 343.753 178.064 343.293 178.584 342.96C179.117 342.627 179.73 342.46 180.424 342.46C180.984 342.46 181.47 342.567 181.884 342.78C182.31 342.993 182.644 343.273 182.884 343.62C182.95 343.273 183.084 343.027 183.284 342.88C183.484 342.72 183.737 342.64 184.044 342.64H184.144C184.237 342.64 184.284 342.7 184.284 342.82V349.82C184.284 349.94 184.237 350 184.144 350H182.964C182.857 350 182.804 349.94 182.804 349.82V348.96ZM180.584 348.78C180.917 348.78 181.25 348.713 181.584 348.58C181.93 348.433 182.217 348.18 182.444 347.82C182.684 347.46 182.804 346.96 182.804 346.32C182.804 345.667 182.684 345.167 182.444 344.82C182.217 344.46 181.937 344.213 181.604 344.08C181.27 343.947 180.95 343.88 180.644 343.88C180.07 343.88 179.564 344.08 179.124 344.48C178.684 344.88 178.464 345.493 178.464 346.32C178.464 346.92 178.57 347.4 178.784 347.76C179.01 348.12 179.284 348.38 179.604 348.54C179.937 348.7 180.264 348.78 180.584 348.78ZM187.863 343.7C188.103 343.287 188.39 343.007 188.723 342.86C189.057 342.713 189.49 342.64 190.023 342.64H190.243C190.35 342.64 190.403 342.693 190.403 342.8V343.9C190.403 344.02 190.35 344.08 190.243 344.08H189.763C189.057 344.08 188.57 344.26 188.303 344.62C188.037 344.98 187.903 345.547 187.903 346.32V349.82C187.903 349.94 187.857 350 187.763 350H186.583C186.477 350 186.423 349.94 186.423 349.82V342.8C186.423 342.693 186.477 342.64 186.583 342.64H186.683C187.017 342.64 187.283 342.733 187.483 342.92C187.697 343.093 187.823 343.353 187.863 343.7ZM193.033 346.86C193.113 347.553 193.366 348.067 193.793 348.4C194.219 348.72 194.779 348.88 195.473 348.88C196.033 348.88 196.479 348.807 196.813 348.66C197.146 348.513 197.453 348.34 197.733 348.14C197.786 348.113 197.833 348.08 197.873 348.04C197.926 348 197.973 347.98 198.013 347.98C198.079 347.98 198.126 348.013 198.153 348.08C198.193 348.133 198.213 348.193 198.213 348.26C198.213 348.54 198.099 348.833 197.873 349.14C197.659 349.433 197.333 349.68 196.893 349.88C196.466 350.08 195.933 350.18 195.293 350.18C194.639 350.18 194.026 350.047 193.452 349.78C192.893 349.5 192.433 349.08 192.073 348.52C191.726 347.947 191.553 347.213 191.553 346.32C191.553 345.573 191.699 344.913 191.993 344.34C192.286 343.753 192.693 343.293 193.213 342.96C193.746 342.627 194.359 342.46 195.053 342.46C195.839 342.46 196.473 342.627 196.953 342.96C197.433 343.28 197.779 343.7 197.993 344.22C198.219 344.727 198.333 345.267 198.333 345.84C198.333 346.013 198.326 346.16 198.313 346.28C198.313 346.4 198.306 346.513 198.293 346.62C198.279 346.78 198.179 346.86 197.993 346.86H193.033ZM193.073 345.72H196.853C196.866 345.413 196.819 345.113 196.713 344.82C196.619 344.527 196.439 344.28 196.173 344.08C195.906 343.88 195.526 343.78 195.033 343.78C194.473 343.78 194.019 343.953 193.673 344.3C193.339 344.633 193.139 345.107 193.073 345.72Z" fill="#0E3B96"/>
<mask id="path-53-inside-6_360_13811" fill="white">
<path d="M65.5 378H423.5V442H65.5V378Z"/>
</mask>
<path d="M423.5 441H65.5V443H423.5V441Z" fill="#F4F6F7" mask="url(#path-53-inside-6_360_13811)"/>
<rect width="40" height="40" rx="16" transform="matrix(-1 0 0 1 105.5 390)" fill="#EDF7FF"/>
<path d="M93.8798 401.46L89.4998 400C89.4998 401.061 89.0784 402.078 88.3282 402.828C87.5781 403.579 86.5607 404 85.4998 404C84.4389 404 83.4215 403.579 82.6714 402.828C81.9212 402.078 81.4998 401.061 81.4998 400L77.1198 401.46C76.6672 401.611 76.2834 401.918 76.0377 402.327C75.7919 402.736 75.7005 403.22 75.7798 403.69L76.3598 407.16C76.3979 407.395 76.5185 407.609 76.6999 407.763C76.8814 407.916 77.1118 408.001 77.3498 408H79.4998V418C79.4998 419.1 80.3998 420 81.4998 420H89.4998C90.0302 420 90.5389 419.789 90.914 419.414C91.2891 419.039 91.4998 418.53 91.4998 418V408H93.6498C93.8878 408.001 94.1182 407.916 94.2997 407.763C94.4811 407.609 94.6017 407.395 94.6398 407.16L95.2198 403.69C95.2991 403.22 95.2077 402.736 94.9619 402.327C94.7162 401.918 94.3324 401.611 93.8798 401.46Z" stroke="#0E3B96" stroke-width="1.5" stroke-linecap="round" stroke-linejoin="round"/>
<path d="M121.52 414.22C120.52 414.22 119.64 413.993 118.88 413.54C118.133 413.073 117.547 412.413 117.12 411.56C116.707 410.693 116.5 409.66 116.5 408.46C116.5 407.26 116.72 406.227 117.16 405.36C117.6 404.493 118.207 403.827 118.98 403.36C119.767 402.893 120.667 402.66 121.68 402.66C122.227 402.66 122.707 402.72 123.12 402.84C123.533 402.96 123.92 403.093 124.28 403.24C124.613 403.387 124.84 403.553 124.96 403.74C125.08 403.927 125.107 404.167 125.04 404.46L124.94 404.88C124.927 405.013 124.86 405.08 124.74 405.08C124.673 405.08 124.58 405.04 124.46 404.96C124.06 404.693 123.633 404.487 123.18 404.34C122.74 404.18 122.24 404.1 121.68 404.1C120.573 404.1 119.693 404.48 119.04 405.24C118.387 405.987 118.06 407.067 118.06 408.48C118.06 409.853 118.387 410.913 119.04 411.66C119.693 412.407 120.587 412.78 121.72 412.78C122.44 412.78 123.047 412.633 123.54 412.34C124.047 412.047 124.447 411.72 124.74 411.36C124.847 411.227 124.947 411.16 125.04 411.16C125.147 411.16 125.22 411.2 125.26 411.28C125.3 411.36 125.32 411.453 125.32 411.56C125.32 411.76 125.253 412.013 125.12 412.32C124.987 412.613 124.767 412.907 124.46 413.2C124.167 413.48 123.78 413.72 123.3 413.92C122.82 414.12 122.227 414.22 121.52 414.22ZM128.634 414.18C128.061 414.18 127.608 414 127.274 413.64C126.941 413.267 126.774 412.68 126.774 411.88V403.06C126.774 402.94 126.828 402.88 126.934 402.88H127.034C127.848 402.88 128.254 403.34 128.254 404.26V411.78C128.254 412.473 128.514 412.82 129.034 412.82C129.248 412.82 129.428 412.78 129.574 412.7C129.721 412.607 129.861 412.487 129.994 412.34C130.061 412.26 130.128 412.22 130.194 412.22C130.261 412.22 130.308 412.247 130.334 412.3C130.361 412.353 130.374 412.413 130.374 412.48C130.374 412.693 130.314 412.933 130.194 413.2C130.088 413.467 129.908 413.7 129.654 413.9C129.401 414.087 129.061 414.18 128.634 414.18ZM134.823 414.18C133.69 414.18 132.783 413.833 132.103 413.14C131.437 412.433 131.103 411.5 131.103 410.34C131.103 409.18 131.437 408.247 132.103 407.54C132.783 406.82 133.683 406.46 134.803 406.46C135.937 406.46 136.843 406.82 137.523 407.54C138.203 408.247 138.543 409.173 138.543 410.32C138.543 411.48 138.203 412.413 137.523 413.12C136.857 413.827 135.957 414.18 134.823 414.18ZM134.803 412.76C135.43 412.76 135.95 412.56 136.363 412.16C136.79 411.76 137.003 411.153 137.003 410.34C137.003 409.553 136.79 408.947 136.363 408.52C135.95 408.093 135.43 407.88 134.803 407.88C134.163 407.88 133.643 408.093 133.243 408.52C132.843 408.947 132.643 409.553 132.643 410.34C132.643 411.127 132.843 411.727 133.243 412.14C133.643 412.553 134.163 412.76 134.803 412.76ZM141.051 407.96H139.691C139.584 407.96 139.531 407.907 139.531 407.8V406.8C139.531 406.693 139.584 406.64 139.691 406.64H141.051V404.16C141.051 404.04 141.098 403.98 141.191 403.98H141.291C141.678 403.98 141.978 404.1 142.191 404.34C142.418 404.567 142.531 404.913 142.531 405.38V406.64H144.071C144.164 406.64 144.211 406.693 144.211 406.8V407.8C144.211 407.907 144.164 407.96 144.071 407.96H142.531V413.82C142.531 413.94 142.478 414 142.371 414H141.191C141.098 414 141.051 413.94 141.051 413.82V407.96ZM147.278 407.54C147.478 407.233 147.772 406.98 148.158 406.78C148.545 406.567 149.012 406.46 149.558 406.46C150.465 406.46 151.192 406.747 151.738 407.32C152.285 407.893 152.558 408.673 152.558 409.66V413.82C152.558 413.94 152.505 414 152.398 414H151.218C151.112 414 151.058 413.94 151.058 413.82V409.92C151.058 409.227 150.892 408.707 150.558 408.36C150.225 408.013 149.778 407.84 149.218 407.84C148.618 407.84 148.145 408.02 147.798 408.38C147.452 408.727 147.278 409.273 147.278 410.02V413.82C147.278 413.94 147.232 414 147.138 414H145.958C145.852 414 145.798 413.94 145.798 413.82V403.06C145.798 402.94 145.852 402.88 145.958 402.88H146.058C146.872 402.88 147.278 403.34 147.278 404.26V407.54ZM154.486 404.66C154.486 404.393 154.573 404.173 154.746 404C154.92 403.827 155.133 403.74 155.386 403.74C155.626 403.74 155.833 403.827 156.006 404C156.18 404.173 156.266 404.393 156.266 404.66C156.266 404.913 156.18 405.127 156.006 405.3C155.833 405.473 155.626 405.56 155.386 405.56C155.133 405.56 154.92 405.473 154.746 405.3C154.573 405.127 154.486 404.913 154.486 404.66ZM154.786 414C154.68 414 154.626 413.94 154.626 413.82V406.82C154.626 406.7 154.68 406.64 154.786 406.64H154.886C155.273 406.64 155.573 406.753 155.786 406.98C156.013 407.207 156.126 407.553 156.126 408.02V413.82C156.126 413.94 156.073 414 155.966 414H154.786ZM159.64 407.64C159.853 407.307 160.16 407.033 160.56 406.82C160.96 406.593 161.427 406.48 161.96 406.48C162.893 406.48 163.627 406.767 164.16 407.34C164.693 407.913 164.96 408.693 164.96 409.68V413.82C164.96 413.94 164.907 414 164.8 414H163.62C163.513 414 163.46 413.94 163.46 413.82V409.96C163.46 409.253 163.293 408.727 162.96 408.38C162.627 408.033 162.18 407.86 161.62 407.86C161.02 407.86 160.547 408.04 160.2 408.4C159.853 408.747 159.68 409.293 159.68 410.04V413.82C159.68 413.94 159.633 414 159.54 414H158.36C158.253 414 158.2 413.94 158.2 413.82V406.82C158.2 406.7 158.253 406.64 158.36 406.64H158.46C158.767 406.64 159.027 406.727 159.24 406.9C159.453 407.073 159.587 407.32 159.64 407.64ZM172.628 412.92C172.348 413.32 171.995 413.62 171.568 413.82C171.155 414.02 170.695 414.12 170.188 414.12C169.468 414.12 168.848 413.953 168.328 413.62C167.822 413.273 167.428 412.813 167.148 412.24C166.882 411.667 166.748 411.027 166.748 410.32C166.748 409.573 166.895 408.913 167.188 408.34C167.482 407.753 167.888 407.293 168.408 406.96C168.942 406.627 169.555 406.46 170.248 406.46C170.808 406.46 171.295 406.567 171.708 406.78C172.135 406.993 172.475 407.273 172.728 407.62C172.782 407.273 172.908 407.027 173.108 406.88C173.308 406.72 173.562 406.64 173.868 406.64H173.968C174.075 406.64 174.128 406.693 174.128 406.8V413.76C174.128 414.853 173.815 415.733 173.188 416.4C172.575 417.08 171.642 417.42 170.388 417.42C169.735 417.42 169.162 417.313 168.668 417.1C168.188 416.887 167.815 416.62 167.548 416.3C167.282 415.993 167.148 415.68 167.148 415.36C167.148 415.267 167.168 415.187 167.208 415.12C167.248 415.053 167.302 415.02 167.368 415.02C167.422 415.02 167.462 415.033 167.488 415.06C167.515 415.087 167.555 415.12 167.608 415.16C167.875 415.4 168.208 415.6 168.608 415.76C169.008 415.933 169.515 416.02 170.128 416.02C171.048 416.02 171.695 415.82 172.068 415.42C172.442 415.02 172.628 414.467 172.628 413.76V412.92ZM170.408 412.78C170.742 412.78 171.075 412.713 171.408 412.58C171.755 412.433 172.042 412.18 172.268 411.82C172.508 411.46 172.628 410.96 172.628 410.32C172.628 409.667 172.508 409.167 172.268 408.82C172.042 408.46 171.762 408.213 171.428 408.08C171.095 407.947 170.775 407.88 170.468 407.88C169.895 407.88 169.388 408.08 168.948 408.48C168.508 408.88 168.288 409.493 168.288 410.32C168.288 410.92 168.395 411.4 168.608 411.76C168.835 412.12 169.108 412.38 169.428 412.54C169.762 412.7 170.088 412.78 170.408 412.78Z" fill="#0E3B96"/>
</g>
</g>
<defs>
<filter id="filter0_f_360_13811" x="103.5" y="-386" width="771" height="771" filterUnits="userSpaceOnUse" color-interpolation-filters="sRGB">
<feFlood flood-opacity="0" result="BackgroundImageFix"/>
<feBlend mode="normal" in="SourceGraphic" in2="BackgroundImageFix" result="shape"/>
<feGaussianBlur stdDeviation="100" result="effect1_foregroundBlur_360_13811"/>
</filter>
<filter id="filter1_f_360_13811" x="103.5" y="102" width="771" height="771" filterUnits="userSpaceOnUse" color-interpolation-filters="sRGB">
<feFlood flood-opacity="0" result="BackgroundImageFix"/>
<feBlend mode="normal" in="SourceGraphic" in2="BackgroundImageFix" result="shape"/>
<feGaussianBlur stdDeviation="100" result="effect1_foregroundBlur_360_13811"/>
</filter>
<filter id="filter2_f_360_13811" x="-384.5" y="-386" width="771" height="771" filterUnits="userSpaceOnUse" color-interpolation-filters="sRGB">
<feFlood flood-opacity="0" result="BackgroundImageFix"/>
<feBlend mode="normal" in="SourceGraphic" in2="BackgroundImageFix" result="shape"/>
<feGaussianBlur stdDeviation="100" result="effect1_foregroundBlur_360_13811"/>
</filter>
<filter id="filter3_f_360_13811" x="-384.5" y="102" width="771" height="771" filterUnits="userSpaceOnUse" color-interpolation-filters="sRGB">
<feFlood flood-opacity="0" result="BackgroundImageFix"/>
<feBlend mode="normal" in="SourceGraphic" in2="BackgroundImageFix" result="shape"/>
<feGaussianBlur stdDeviation="100" result="effect1_foregroundBlur_360_13811"/>
</filter>
<clipPath id="clip0_360_13811">
<rect x="0.5" width="488" height="488" rx="32" fill="white"/>
</clipPath>
<clipPath id="clip1_360_13811">
<rect x="49.5" y="48" width="390" height="392" rx="16" fill="white"/>
</clipPath>
</defs>
</svg>
