<svg width="489" height="488" viewBox="0 0 489 488" fill="none" xmlns="http://www.w3.org/2000/svg">
<g clip-path="url(#clip0_381_7624)">
<rect x="0.5" width="488" height="488" rx="32" fill="white"/>
<g filter="url(#filter0_f_381_7624)">
<circle cx="489" cy="-0.5" r="185.5" fill="#EDF7FF"/>
</g>
<g filter="url(#filter1_f_381_7624)">
<circle cx="489" cy="487.5" r="185.5" fill="#EDF7FF"/>
</g>
<g filter="url(#filter2_f_381_7624)">
<circle cx="1" cy="-0.5" r="185.5" fill="#EDF7FF"/>
</g>
<g filter="url(#filter3_f_381_7624)">
<circle cx="1" cy="487.5" r="185.5" fill="#EDF7FF"/>
</g>
<g clip-path="url(#clip1_381_7624)">
<rect x="49.5" y="48" width="390" height="392" rx="16" fill="white"/>
<mask id="path-7-inside-1_381_7624" fill="white">
<path d="M65.5 58H423.5V122H65.5V58Z"/>
</mask>
<path d="M423.5 121H65.5V123H423.5V121Z" fill="#F4F6F7" mask="url(#path-7-inside-1_381_7624)"/>
<path d="M268.723 96.86C269.429 96.8467 269.936 96.5933 270.243 96.1C270.563 95.6067 270.723 94.9333 270.723 94.08V88.18C270.723 87.2867 271.123 86.84 271.923 86.84H272.063C272.183 86.84 272.243 86.8933 272.243 87V93.74C272.243 95.14 271.983 96.2467 271.463 97.06C270.943 97.8867 270.116 98.2933 268.983 98.28C268.489 98.2667 268.023 98.14 267.583 97.9C267.129 97.66 266.816 97.3467 266.643 96.96C266.576 96.8133 266.576 96.6933 266.643 96.6C266.696 96.52 266.769 96.48 266.863 96.48C266.916 96.48 266.969 96.4867 267.023 96.5C267.076 96.5267 267.123 96.5467 267.163 96.56C267.456 96.6533 267.716 96.7267 267.943 96.78C268.169 96.8333 268.429 96.86 268.723 96.86ZM279.06 94H278.02C277.02 94 276.24 93.7067 275.68 93.12C275.12 92.52 274.84 91.6933 274.84 90.64V84.24C274.84 83.8 274.947 83.4667 275.16 83.24C275.387 83 275.687 82.88 276.06 82.88H276.2C276.307 82.88 276.36 82.9333 276.36 83.04V90.62C276.36 91.18 276.493 91.64 276.76 92C277.04 92.3467 277.447 92.52 277.98 92.52H279.06V94ZM289.571 92.52H290.491V94H289.391C289.018 94 288.658 93.9333 288.311 93.8C287.978 93.6533 287.711 93.4733 287.511 93.26C287.164 93.5133 286.791 93.7 286.391 93.82C286.004 93.94 285.471 94 284.791 94H278.811V92.52H284.871C285.364 92.52 285.731 92.48 285.971 92.4C286.224 92.3067 286.458 92.18 286.671 92.02C286.551 91.7933 286.431 91.52 286.311 91.2C286.191 90.8667 286.058 90.4733 285.911 90.02C285.698 89.3667 285.391 88.8467 284.991 88.46C284.604 88.0733 284.091 87.88 283.451 87.88C282.998 87.88 282.598 87.96 282.251 88.12C281.918 88.2667 281.564 88.5067 281.191 88.84C281.111 88.9067 281.038 88.9667 280.971 89.02C280.904 89.0733 280.818 89.1 280.711 89.1C280.578 89.1 280.498 89.0333 280.471 88.9C280.458 88.7667 280.478 88.6267 280.531 88.48C280.718 87.9333 281.084 87.46 281.631 87.06C282.178 86.6467 282.858 86.4467 283.671 86.46C284.658 86.46 285.458 86.7533 286.071 87.34C286.698 87.9267 287.178 88.7533 287.511 89.82C287.698 90.4467 287.864 90.96 288.011 91.36C288.171 91.7467 288.378 92.0333 288.631 92.22C288.738 92.2867 288.864 92.3533 289.011 92.42C289.171 92.4867 289.358 92.52 289.571 92.52ZM283.431 95.38C283.698 95.38 283.924 95.4733 284.111 95.66C284.298 95.86 284.391 96.1 284.391 96.38C284.391 96.66 284.298 96.8933 284.111 97.08C283.924 97.28 283.698 97.38 283.431 97.38C283.151 97.38 282.911 97.28 282.711 97.08C282.524 96.8933 282.431 96.66 282.431 96.38C282.431 96.1 282.524 95.86 282.711 95.66C282.911 95.4733 283.151 95.38 283.431 95.38ZM290.776 94H290.256V92.52H290.816C291.349 92.52 291.749 92.3467 292.016 92C292.296 91.64 292.436 91.18 292.436 90.62V88.18C292.436 87.7533 292.543 87.4267 292.756 87.2C292.969 86.96 293.263 86.84 293.636 86.84H293.776C293.896 86.84 293.956 86.8933 293.956 87V90.64C293.956 91.6933 293.669 92.52 293.096 93.12C292.536 93.7067 291.763 94 290.776 94ZM290.956 97.3C290.716 97.3 290.509 97.2133 290.336 97.04C290.176 96.8667 290.096 96.6467 290.096 96.38C290.096 96.1267 290.176 95.9133 290.336 95.74C290.509 95.58 290.716 95.5 290.956 95.5C291.209 95.5 291.423 95.58 291.596 95.74C291.769 95.9133 291.856 96.1267 291.856 96.38C291.856 96.6467 291.769 96.8667 291.596 97.04C291.423 97.2133 291.209 97.3 290.956 97.3ZM293.496 97.3C293.243 97.3 293.029 97.2133 292.856 97.04C292.696 96.8667 292.616 96.6467 292.616 96.38C292.616 96.1267 292.696 95.9133 292.856 95.74C293.029 95.58 293.243 95.5 293.496 95.5C293.736 95.5 293.936 95.58 294.096 95.74C294.269 95.9133 294.356 96.1267 294.356 96.38C294.356 96.6467 294.269 96.8667 294.096 97.04C293.936 97.2133 293.736 97.3 293.496 97.3ZM303.917 82.88H304.037C304.157 82.88 304.217 82.9333 304.217 83.04V90.64C304.217 91.6933 303.93 92.52 303.357 93.12C302.797 93.7067 302.024 94 301.037 94H296.577C296.39 94 296.297 93.92 296.297 93.76V93.62C296.297 93.3 296.404 93.04 296.617 92.84C296.844 92.6267 297.144 92.52 297.517 92.52H299.257L297.357 86.74C297.25 86.42 297.217 86.14 297.257 85.9C297.297 85.6467 297.424 85.4533 297.637 85.32C297.704 85.2667 297.77 85.22 297.837 85.18C297.917 85.14 298.024 85.1 298.157 85.06L298.277 85.04C298.357 85.0133 298.417 85.0467 298.457 85.14L300.897 92.52H301.177C301.67 92.52 302.044 92.34 302.297 91.98C302.55 91.62 302.677 91.1667 302.677 90.62V84.24C302.677 83.64 302.877 83.24 303.277 83.04C303.37 82.9867 303.457 82.9467 303.537 82.92C303.617 82.8933 303.744 82.88 303.917 82.88ZM300.977 97.76H301.917C302.13 97.76 302.297 97.82 302.417 97.94C302.55 98.06 302.617 98.22 302.617 98.42V98.48C302.617 98.6 302.557 98.66 302.437 98.66H300.157C299.944 98.66 299.757 98.66 299.597 98.66C299.437 98.6733 299.27 98.7133 299.097 98.78C299.044 98.8067 298.997 98.8267 298.957 98.84C298.917 98.8667 298.877 98.88 298.837 98.88C298.784 98.88 298.744 98.84 298.717 98.76C298.65 98.5067 298.684 98.2933 298.817 98.12C298.95 97.9467 299.164 97.8467 299.457 97.82H299.477C299.33 97.5533 299.257 97.2733 299.257 96.98C299.257 96.5267 299.404 96.1467 299.697 95.84C300.004 95.5467 300.384 95.3933 300.837 95.38C301.224 95.38 301.544 95.4667 301.797 95.64C302.05 95.8267 302.184 96.06 302.197 96.34C302.197 96.4867 302.144 96.56 302.037 96.56C302.01 96.5467 301.97 96.5267 301.917 96.5C301.877 96.4733 301.83 96.4533 301.777 96.44C301.684 96.3867 301.57 96.34 301.437 96.3C301.317 96.2733 301.177 96.26 301.017 96.26C300.484 96.26 300.217 96.5 300.217 96.98C300.217 97.22 300.284 97.4067 300.417 97.54C300.564 97.6867 300.75 97.76 300.977 97.76ZM307.171 94H307.031C306.925 94 306.871 93.9467 306.871 93.84V84.24C306.871 83.8 306.978 83.4667 307.191 83.24C307.418 83 307.718 82.88 308.091 82.88H308.231C308.338 82.88 308.391 82.9333 308.391 83.04V92.64C308.391 93.08 308.285 93.42 308.071 93.66C307.858 93.8867 307.558 94 307.171 94ZM317.271 88.48C317.444 88.88 317.564 89.36 317.631 89.92C317.711 90.48 317.751 91.0533 317.751 91.64C317.751 92.56 317.711 93.4267 317.631 94.24C317.564 95.0667 317.351 95.8133 316.991 96.48C316.698 97.0533 316.278 97.5 315.731 97.82C315.198 98.14 314.558 98.2933 313.811 98.28C313.198 98.28 312.638 98.1467 312.131 97.88C311.624 97.6133 311.331 97.2467 311.251 96.78C311.224 96.58 311.304 96.48 311.491 96.48C311.544 96.48 311.591 96.4867 311.631 96.5C311.684 96.5133 311.724 96.5267 311.751 96.54C312.031 96.6333 312.304 96.7067 312.571 96.76C312.838 96.8267 313.218 96.86 313.711 96.86C314.538 96.8467 315.144 96.5333 315.531 95.92C315.931 95.32 316.158 94.5733 316.211 93.68C315.864 93.8533 315.524 93.98 315.191 94.06C314.858 94.1533 314.518 94.1933 314.171 94.18C313.504 94.18 312.918 94.0133 312.411 93.68C311.904 93.3467 311.511 92.8933 311.231 92.32C310.964 91.7467 310.831 91.0933 310.831 90.36C310.831 89.5467 310.978 88.8533 311.271 88.28C311.578 87.6933 311.991 87.2467 312.511 86.94C313.031 86.62 313.611 86.46 314.251 86.46C315.038 86.46 315.671 86.64 316.151 87C316.644 87.36 317.018 87.8533 317.271 88.48ZM316.191 91.66C316.204 91.22 316.184 90.7467 316.131 90.24C316.078 89.72 315.984 89.3133 315.851 89.02C315.704 88.6733 315.504 88.4 315.251 88.2C314.998 87.9867 314.671 87.88 314.271 87.88C313.698 87.88 313.238 88.1133 312.891 88.58C312.558 89.0467 312.391 89.6267 312.391 90.32C312.391 91.04 312.558 91.6267 312.891 92.08C313.238 92.52 313.704 92.74 314.291 92.74C314.651 92.74 314.991 92.6933 315.311 92.6C315.631 92.5067 315.918 92.36 316.171 92.16C316.184 92.0933 316.191 92.02 316.191 91.94C316.191 91.8467 316.191 91.7533 316.191 91.66ZM328.664 87.4C328.384 87.4 328.144 87.3067 327.944 87.12C327.758 86.92 327.664 86.68 327.664 86.4C327.664 86.12 327.758 85.8867 327.944 85.7C328.144 85.5 328.384 85.4 328.664 85.4C328.931 85.4 329.158 85.5 329.344 85.7C329.544 85.8867 329.644 86.12 329.644 86.4C329.644 86.68 329.544 86.92 329.344 87.12C329.158 87.3067 328.931 87.4 328.664 87.4ZM335.244 92.52H336.324V94H335.144C334.838 94 334.551 93.9667 334.284 93.9C334.031 93.82 333.798 93.72 333.584 93.6C333.478 94.64 333.191 95.5067 332.724 96.2C332.271 96.8933 331.691 97.4133 330.984 97.76C330.278 98.1067 329.484 98.28 328.604 98.28C327.684 98.28 326.844 98.0733 326.084 97.66C325.324 97.26 324.724 96.68 324.284 95.92C323.844 95.1733 323.624 94.2733 323.624 93.22C323.624 92.3667 323.811 91.5933 324.184 90.9C324.571 90.2067 325.051 89.6933 325.624 89.36C325.731 89.3067 325.824 89.28 325.904 89.28C326.078 89.28 326.164 89.36 326.164 89.52C326.164 89.5733 326.131 89.6467 326.064 89.74C325.758 90.2467 325.518 90.7667 325.344 91.3C325.171 91.8333 325.084 92.3667 325.084 92.9C325.071 93.8067 325.231 94.5533 325.564 95.14C325.911 95.7267 326.351 96.16 326.884 96.44C327.431 96.72 328.004 96.86 328.604 96.86C329.244 96.86 329.831 96.7133 330.364 96.42C330.898 96.14 331.318 95.7 331.624 95.1C331.944 94.5 332.104 93.7467 332.104 92.84V88.18C332.104 87.7533 332.211 87.4267 332.424 87.2C332.651 86.96 332.951 86.84 333.324 86.84H333.464C333.571 86.84 333.624 86.8867 333.624 86.98V90.64C333.638 91.28 333.798 91.7533 334.104 92.06C334.411 92.3667 334.791 92.52 335.244 92.52ZM347.737 92.52H348.837V94H347.797C347.223 94 346.73 93.9 346.317 93.7C345.903 93.5 345.57 93.2533 345.317 92.96C345.01 93.3067 344.637 93.5667 344.197 93.74C343.757 93.9133 343.297 94 342.817 94H336.077V92.52H342.757C343.29 92.52 343.723 92.3467 344.057 92C344.403 91.64 344.577 91.1 344.577 90.38C344.577 89.6067 344.39 89.06 344.017 88.74C343.657 88.42 343.237 88.26 342.757 88.26H338.837C338.143 88.26 337.797 87.98 337.797 87.42V87.06C337.797 86.9 337.817 86.7467 337.857 86.6C337.91 86.4533 338.01 86.3333 338.157 86.24L342.977 82.94C343.043 82.8733 343.103 82.86 343.157 82.9C343.423 83.0867 343.55 83.34 343.537 83.66C343.523 83.98 343.37 84.24 343.077 84.44L339.677 86.76C339.623 86.8133 339.63 86.84 339.697 86.84H342.817C343.39 86.84 343.923 86.96 344.417 87.2C344.923 87.44 345.33 87.82 345.637 88.34C345.957 88.86 346.123 89.54 346.137 90.38V90.64C346.137 91.28 346.29 91.7533 346.597 92.06C346.903 92.3667 347.283 92.52 347.737 92.52ZM363.436 92.52H364.516V94H363.476C362.956 94 362.502 93.92 362.116 93.76C361.729 93.5867 361.402 93.3733 361.136 93.12C360.576 93.84 359.749 94.1933 358.656 94.18C358.096 94.18 357.629 94.0933 357.256 93.92C356.882 93.7333 356.569 93.4933 356.316 93.2C355.782 93.8533 354.969 94.18 353.876 94.18C353.329 94.18 352.856 94.08 352.456 93.88C352.069 93.6667 351.742 93.4 351.476 93.08C350.929 93.6933 350.149 94 349.136 94H348.616V92.52H349.176C349.709 92.52 350.109 92.3467 350.376 92C350.642 91.64 350.776 91.18 350.776 90.62V89.08C350.776 88.6533 350.882 88.3267 351.096 88.1C351.322 87.86 351.622 87.74 351.996 87.74H352.136C352.242 87.74 352.296 87.7933 352.296 87.9V90.82C352.296 91.3933 352.429 91.8533 352.696 92.2C352.976 92.5333 353.382 92.7 353.916 92.7C354.449 92.7 354.849 92.5333 355.116 92.2C355.396 91.8533 355.536 91.3933 355.536 90.82V88.58C355.536 88.14 355.642 87.8067 355.856 87.58C356.082 87.3533 356.382 87.24 356.756 87.24H356.896C357.002 87.24 357.056 87.2867 357.056 87.38V90.82C357.056 91.3933 357.189 91.8533 357.456 92.2C357.736 92.5333 358.142 92.7 358.676 92.7C359.209 92.7 359.609 92.5333 359.876 92.2C360.156 91.8533 360.296 91.3933 360.296 90.82V88.18C360.296 87.7533 360.402 87.4267 360.616 87.2C360.829 86.96 361.122 86.84 361.496 86.84H361.636C361.756 86.84 361.816 86.8933 361.816 87V90.64C361.829 91.28 361.989 91.7533 362.296 92.06C362.602 92.3667 362.982 92.52 363.436 92.52ZM364.819 94H364.299V92.52H364.859C365.393 92.52 365.793 92.3467 366.059 92C366.326 91.64 366.459 91.18 366.459 90.62V84.24C366.459 83.8 366.566 83.4667 366.779 83.24C367.006 83 367.306 82.88 367.679 82.88H367.819C367.926 82.88 367.979 82.9333 367.979 83.04V90.64C367.979 91.6933 367.699 92.52 367.139 93.12C366.579 93.7067 365.806 94 364.819 94ZM370.96 94H370.82C370.714 94 370.66 93.9467 370.66 93.84V84.24C370.66 83.8 370.767 83.4667 370.98 83.24C371.207 83 371.507 82.88 371.88 82.88H372.02C372.127 82.88 372.18 82.9333 372.18 83.04V92.64C372.18 93.08 372.074 93.42 371.86 93.66C371.647 93.8867 371.347 94 370.96 94Z" fill="#0E3B96"/>
<rect width="40" height="40" rx="16" transform="matrix(-1 0 0 1 423.5 70)" fill="#EDF7FF"/>
<path d="M413.5 100H393.5" stroke="#0E3B96" stroke-width="1.5" stroke-miterlimit="10" stroke-linecap="round" stroke-linejoin="round"/>
<path d="M412.55 100L412.5 87.97C412.5 87.36 412.21 86.78 411.73 86.4L404.73 80.95C404.01 80.39 403 80.39 402.27 80.95L395.27 86.39C394.78 86.77 394.5 87.35 394.5 87.97V100" stroke="#0E3B96" stroke-width="1.5" stroke-miterlimit="10" stroke-linejoin="round"/>
<path d="M402.5 95H404.5C405.33 95 406 95.67 406 96.5V100H401V96.5C401 95.67 401.67 95 402.5 95Z" stroke="#0E3B96" stroke-width="1.5" stroke-miterlimit="10" stroke-linejoin="round"/>
<path d="M406 91.75H408C408.55 91.75 409 91.3 409 90.75V89.25C409 88.7 408.55 88.25 408 88.25H406C405.45 88.25 405 88.7 405 89.25V90.75C405 91.3 405.45 91.75 406 91.75Z" stroke="#0E3B96" stroke-width="1.5" stroke-miterlimit="10" stroke-linejoin="round"/>
<path d="M399 91.75H401C401.55 91.75 402 91.3 402 90.75V89.25C402 88.7 401.55 88.25 401 88.25H399C398.45 88.25 398 88.7 398 89.25V90.75C398 91.3 398.45 91.75 399 91.75Z" stroke="#0E3B96" stroke-width="1.5" stroke-miterlimit="10" stroke-linejoin="round"/>
<path d="M396.5 85L396.53 82H400.93" stroke="#0E3B96" stroke-width="1.5" stroke-miterlimit="10" stroke-linecap="round" stroke-linejoin="round"/>
<mask id="path-17-inside-2_381_7624" fill="white">
<path d="M65.5 122H423.5V186H65.5V122Z"/>
</mask>
<path d="M423.5 185H65.5V187H423.5V185Z" fill="#F4F6F7" mask="url(#path-17-inside-2_381_7624)"/>
<path d="M351.642 149.22C351.362 149.22 351.122 149.12 350.922 148.92C350.735 148.72 350.642 148.487 350.642 148.22C350.642 147.927 350.735 147.687 350.922 147.5C351.122 147.313 351.362 147.22 351.642 147.22C351.909 147.22 352.135 147.313 352.322 147.5C352.522 147.687 352.622 147.927 352.622 148.22C352.622 148.487 352.522 148.72 352.322 148.92C352.135 149.12 351.909 149.22 351.642 149.22ZM352.242 150.46C353.015 150.46 353.702 150.62 354.302 150.94C354.915 151.247 355.395 151.693 355.742 152.28C356.089 152.867 356.262 153.56 356.262 154.36C356.262 155.133 356.109 155.793 355.802 156.34C355.495 156.873 355.082 157.287 354.562 157.58C354.055 157.86 353.489 158 352.862 158H345.242C344.935 158 344.649 157.967 344.382 157.9C344.129 157.82 343.895 157.713 343.682 157.58C343.589 158.62 343.309 159.487 342.842 160.18C342.389 160.887 341.802 161.413 341.082 161.76C340.375 162.107 339.582 162.28 338.702 162.28C337.782 162.28 336.942 162.073 336.182 161.66C335.422 161.26 334.822 160.68 334.382 159.92C333.942 159.173 333.722 158.273 333.722 157.22C333.722 156.367 333.909 155.593 334.282 154.9C334.669 154.207 335.149 153.693 335.722 153.36C335.829 153.307 335.922 153.28 336.002 153.28C336.175 153.28 336.262 153.36 336.262 153.52C336.262 153.573 336.229 153.647 336.162 153.74C335.855 154.247 335.615 154.767 335.442 155.3C335.269 155.833 335.182 156.367 335.182 156.9C335.169 157.807 335.329 158.553 335.662 159.14C336.009 159.727 336.449 160.16 336.982 160.44C337.529 160.72 338.102 160.86 338.702 160.86C339.342 160.86 339.929 160.713 340.462 160.42C340.995 160.14 341.415 159.7 341.722 159.1C342.042 158.5 342.202 157.747 342.202 156.84V152.18C342.202 151.753 342.309 151.427 342.522 151.2C342.749 150.96 343.049 150.84 343.422 150.84H343.562C343.669 150.84 343.722 150.887 343.722 150.98V154.64C343.735 155.28 343.895 155.753 344.202 156.06C344.509 156.367 344.889 156.52 345.342 156.52H345.362C345.669 155.413 346.135 154.407 346.762 153.5C347.402 152.58 348.182 151.847 349.102 151.3C350.022 150.74 351.069 150.46 352.242 150.46ZM347.022 156.52H352.762C353.362 156.52 353.835 156.3 354.182 155.86C354.542 155.407 354.715 154.88 354.702 154.28C354.702 153.72 354.575 153.267 354.322 152.92C354.082 152.56 353.769 152.3 353.382 152.14C353.009 151.967 352.602 151.88 352.162 151.88C351.335 151.88 350.582 152.087 349.902 152.5C349.222 152.913 348.635 153.473 348.142 154.18C347.662 154.873 347.289 155.653 347.022 156.52ZM362.808 156.52H363.908V158H362.848C362.221 158 361.674 157.873 361.208 157.62V157.74C361.208 159.14 360.948 160.247 360.428 161.06C359.908 161.887 359.081 162.293 357.948 162.28C357.454 162.267 356.988 162.14 356.548 161.9C356.094 161.66 355.781 161.347 355.608 160.96C355.541 160.813 355.541 160.693 355.608 160.6C355.661 160.52 355.734 160.48 355.828 160.48C355.881 160.48 355.934 160.487 355.988 160.5C356.041 160.527 356.088 160.547 356.128 160.56C356.421 160.653 356.681 160.727 356.908 160.78C357.134 160.833 357.394 160.86 357.688 160.86C358.394 160.847 358.901 160.593 359.208 160.1C359.528 159.607 359.688 158.933 359.688 158.08V152.18C359.688 151.287 360.088 150.84 360.888 150.84H361.028C361.148 150.84 361.208 150.893 361.208 151V154.64C361.208 155.28 361.361 155.753 361.668 156.06C361.974 156.367 362.354 156.52 362.808 156.52ZM367.676 149.12C367.436 149.12 367.229 149.033 367.056 148.86C366.896 148.687 366.816 148.473 366.816 148.22C366.816 147.953 366.896 147.74 367.056 147.58C367.229 147.407 367.436 147.32 367.676 147.32C367.929 147.32 368.142 147.407 368.316 147.58C368.489 147.74 368.576 147.953 368.576 148.22C368.576 148.473 368.489 148.687 368.316 148.86C368.142 149.033 367.929 149.12 367.676 149.12ZM370.216 149.12C369.962 149.12 369.749 149.033 369.576 148.86C369.416 148.687 369.336 148.473 369.336 148.22C369.336 147.953 369.416 147.74 369.576 147.58C369.749 147.407 369.962 147.32 370.216 147.32C370.456 147.32 370.656 147.407 370.816 147.58C370.989 147.74 371.076 147.953 371.076 148.22C371.076 148.473 370.989 148.687 370.816 148.86C370.656 149.033 370.456 149.12 370.216 149.12ZM368.956 150.46C369.622 150.46 370.209 150.62 370.716 150.94C371.236 151.26 371.642 151.707 371.936 152.28C372.229 152.84 372.376 153.493 372.376 154.24C372.376 154.973 372.229 155.62 371.936 156.18C371.656 156.74 371.262 157.18 370.756 157.5C370.262 157.82 369.689 157.987 369.036 158H363.616V156.52H366.256C366.016 156.24 365.836 155.9 365.716 155.5C365.596 155.1 365.536 154.68 365.536 154.24C365.536 153.493 365.682 152.84 365.976 152.28C366.269 151.707 366.676 151.26 367.196 150.94C367.716 150.62 368.302 150.46 368.956 150.46ZM368.956 156.52C369.369 156.52 369.716 156.407 369.996 156.18C370.276 155.94 370.482 155.647 370.616 155.3C370.762 154.94 370.836 154.573 370.836 154.2C370.836 153.827 370.762 153.467 370.616 153.12C370.482 152.76 370.276 152.467 369.996 152.24C369.716 152 369.369 151.88 368.956 151.88C368.542 151.88 368.196 152 367.916 152.24C367.636 152.467 367.422 152.76 367.276 153.12C367.142 153.467 367.076 153.827 367.076 154.2C367.076 154.573 367.142 154.94 367.276 155.3C367.422 155.647 367.636 155.94 367.916 156.18C368.196 156.407 368.542 156.52 368.956 156.52Z" fill="#0E3B96"/>
<rect width="40" height="40" rx="16" transform="matrix(-1 0 0 1 423.5 134)" fill="#EDF7FF"/>
<path d="M408.5 162.5H398.5C395.5 162.5 393.5 161 393.5 157.5V150.5C393.5 147 395.5 145.5 398.5 145.5H408.5C411.5 145.5 413.5 147 413.5 150.5V157.5C413.5 161 411.5 162.5 408.5 162.5Z" stroke="#0E3B96" stroke-width="1.5" stroke-miterlimit="10" stroke-linecap="round" stroke-linejoin="round"/>
<path d="M403.5 157C405.157 157 406.5 155.657 406.5 154C406.5 152.343 405.157 151 403.5 151C401.843 151 400.5 152.343 400.5 154C400.5 155.657 401.843 157 403.5 157Z" stroke="#0E3B96" stroke-width="1.5" stroke-miterlimit="10" stroke-linecap="round" stroke-linejoin="round"/>
<path d="M397 151.5V156.5" stroke="#0E3B96" stroke-width="1.5" stroke-miterlimit="10" stroke-linecap="round" stroke-linejoin="round"/>
<path d="M410 151.5V156.5" stroke="#0E3B96" stroke-width="1.5" stroke-miterlimit="10" stroke-linecap="round" stroke-linejoin="round"/>
<mask id="path-25-inside-3_381_7624" fill="white">
<path d="M65.5 186H423.5V250H65.5V186Z"/>
</mask>
<path d="M423.5 249H65.5V251H423.5V249Z" fill="#F4F6F7" mask="url(#path-25-inside-3_381_7624)"/>
<path d="M260.822 220.52H266.682C267.215 220.52 267.615 220.347 267.882 220C268.149 219.64 268.282 219.18 268.282 218.62V216.18C268.282 215.753 268.389 215.427 268.602 215.2C268.829 214.96 269.129 214.84 269.502 214.84H269.642C269.749 214.84 269.802 214.893 269.802 215V218.64C269.802 219.693 269.515 220.52 268.942 221.12C268.382 221.707 267.609 222 266.622 222H260.762C259.682 222 258.789 221.753 258.082 221.26C257.389 220.753 257.042 219.973 257.042 218.92C257.042 218.373 257.182 217.833 257.462 217.3C257.755 216.753 258.175 216.333 258.722 216.04C258.855 215.973 258.969 215.94 259.062 215.94C259.209 215.94 259.282 216.013 259.282 216.16C259.282 216.267 259.249 216.36 259.182 216.44C258.889 216.813 258.682 217.153 258.562 217.46C258.442 217.753 258.382 218.087 258.382 218.46C258.382 219.22 258.622 219.753 259.102 220.06C259.582 220.367 260.155 220.52 260.822 220.52ZM263.522 223.38C263.789 223.38 264.015 223.473 264.202 223.66C264.402 223.86 264.502 224.1 264.502 224.38C264.502 224.66 264.402 224.893 264.202 225.08C264.015 225.28 263.789 225.38 263.522 225.38C263.242 225.38 263.002 225.28 262.802 225.08C262.615 224.893 262.522 224.66 262.522 224.38C262.522 224.1 262.615 223.86 262.802 223.66C263.002 223.473 263.242 223.38 263.522 223.38ZM272.777 222H272.637C272.53 222 272.477 221.947 272.477 221.84V212.24C272.477 211.8 272.583 211.467 272.797 211.24C273.023 211 273.323 210.88 273.697 210.88H273.837C273.943 210.88 273.997 210.933 273.997 211.04V220.64C273.997 221.08 273.89 221.42 273.677 221.66C273.463 221.887 273.163 222 272.777 222ZM280.776 220.52H281.876V222H280.816C280.19 222 279.643 221.873 279.176 221.62V221.74C279.176 223.14 278.916 224.247 278.396 225.06C277.876 225.887 277.05 226.293 275.916 226.28C275.423 226.267 274.956 226.14 274.516 225.9C274.063 225.66 273.75 225.347 273.576 224.96C273.51 224.813 273.51 224.693 273.576 224.6C273.63 224.52 273.703 224.48 273.796 224.48C273.85 224.48 273.903 224.487 273.956 224.5C274.01 224.527 274.056 224.547 274.096 224.56C274.39 224.653 274.65 224.727 274.876 224.78C275.103 224.833 275.363 224.86 275.656 224.86C276.363 224.847 276.87 224.593 277.176 224.1C277.496 223.607 277.656 222.933 277.656 222.08V216.18C277.656 215.287 278.056 214.84 278.856 214.84H278.996C279.116 214.84 279.176 214.893 279.176 215V218.64C279.176 219.28 279.33 219.753 279.636 220.06C279.943 220.367 280.323 220.52 280.776 220.52ZM289.265 211.8C289.011 211.8 288.798 211.72 288.625 211.56C288.465 211.387 288.385 211.173 288.385 210.92C288.385 210.653 288.465 210.433 288.625 210.26C288.798 210.087 289.011 210 289.265 210C289.518 210 289.725 210.087 289.885 210.26C290.058 210.433 290.145 210.653 290.145 210.92C290.145 211.173 290.058 211.387 289.885 211.56C289.725 211.72 289.518 211.8 289.265 211.8ZM287.965 213.72C287.711 213.72 287.505 213.633 287.345 213.46C287.185 213.287 287.105 213.073 287.105 212.82C287.105 212.553 287.185 212.34 287.345 212.18C287.505 212.007 287.711 211.92 287.965 211.92C288.218 211.92 288.425 212.007 288.585 212.18C288.758 212.34 288.845 212.553 288.845 212.82C288.845 213.073 288.758 213.287 288.585 213.46C288.425 213.633 288.218 213.72 287.965 213.72ZM289.605 212.82C289.605 212.553 289.691 212.34 289.865 212.18C290.038 212.007 290.251 211.92 290.505 211.92C290.745 211.92 290.945 212.007 291.105 212.18C291.278 212.34 291.365 212.553 291.365 212.82C291.365 213.073 291.278 213.287 291.105 213.46C290.945 213.633 290.745 213.72 290.505 213.72C290.251 213.72 290.038 213.633 289.865 213.46C289.691 213.287 289.605 213.073 289.605 212.82ZM296.405 220.52H297.485V222H296.445C295.925 222 295.471 221.92 295.085 221.76C294.698 221.587 294.371 221.373 294.105 221.12C293.545 221.84 292.718 222.193 291.625 222.18C291.065 222.18 290.598 222.093 290.225 221.92C289.851 221.733 289.538 221.493 289.285 221.2C288.751 221.853 287.938 222.18 286.845 222.18C286.298 222.18 285.825 222.08 285.425 221.88C285.038 221.667 284.711 221.4 284.445 221.08C283.898 221.693 283.118 222 282.105 222H281.585V220.52H282.145C282.678 220.52 283.078 220.347 283.345 220C283.611 219.64 283.745 219.18 283.745 218.62V217.08C283.745 216.653 283.851 216.327 284.065 216.1C284.291 215.86 284.591 215.74 284.965 215.74H285.105C285.211 215.74 285.265 215.793 285.265 215.9V218.82C285.265 219.393 285.398 219.853 285.665 220.2C285.945 220.533 286.351 220.7 286.885 220.7C287.418 220.7 287.818 220.533 288.085 220.2C288.365 219.853 288.505 219.393 288.505 218.82V216.58C288.505 216.14 288.611 215.807 288.825 215.58C289.051 215.353 289.351 215.24 289.725 215.24H289.865C289.971 215.24 290.025 215.287 290.025 215.38V218.82C290.025 219.393 290.158 219.853 290.425 220.2C290.705 220.533 291.111 220.7 291.645 220.7C292.178 220.7 292.578 220.533 292.845 220.2C293.125 219.853 293.265 219.393 293.265 218.82V216.18C293.265 215.753 293.371 215.427 293.585 215.2C293.798 214.96 294.091 214.84 294.465 214.84H294.605C294.725 214.84 294.785 214.893 294.785 215V218.64C294.798 219.28 294.958 219.753 295.265 220.06C295.571 220.367 295.951 220.52 296.405 220.52ZM297.788 222H297.268V220.52H297.828C298.361 220.52 298.761 220.347 299.028 220C299.295 219.64 299.428 219.18 299.428 218.62V212.24C299.428 211.8 299.535 211.467 299.748 211.24C299.975 211 300.275 210.88 300.648 210.88H300.788C300.895 210.88 300.948 210.933 300.948 211.04V218.64C300.948 219.693 300.668 220.52 300.108 221.12C299.548 221.707 298.775 222 297.788 222ZM303.929 222H303.789C303.682 222 303.629 221.947 303.629 221.84V212.24C303.629 211.8 303.736 211.467 303.949 211.24C304.176 211 304.476 210.88 304.849 210.88H304.989C305.096 210.88 305.149 210.933 305.149 211.04V220.64C305.149 221.08 305.042 221.42 304.829 221.66C304.616 221.887 304.316 222 303.929 222ZM314.029 216.48C314.202 216.88 314.322 217.36 314.389 217.92C314.469 218.48 314.509 219.053 314.509 219.64C314.509 220.56 314.469 221.427 314.389 222.24C314.322 223.067 314.109 223.813 313.749 224.48C313.455 225.053 313.035 225.5 312.489 225.82C311.955 226.14 311.315 226.293 310.569 226.28C309.955 226.28 309.395 226.147 308.889 225.88C308.382 225.613 308.089 225.247 308.009 224.78C307.982 224.58 308.062 224.48 308.249 224.48C308.302 224.48 308.349 224.487 308.389 224.5C308.442 224.513 308.482 224.527 308.509 224.54C308.789 224.633 309.062 224.707 309.329 224.76C309.595 224.827 309.975 224.86 310.469 224.86C311.295 224.847 311.902 224.533 312.289 223.92C312.689 223.32 312.915 222.573 312.969 221.68C312.622 221.853 312.282 221.98 311.949 222.06C311.615 222.153 311.275 222.193 310.929 222.18C310.262 222.18 309.675 222.013 309.169 221.68C308.662 221.347 308.269 220.893 307.989 220.32C307.722 219.747 307.589 219.093 307.589 218.36C307.589 217.547 307.735 216.853 308.029 216.28C308.335 215.693 308.749 215.247 309.269 214.94C309.789 214.62 310.369 214.46 311.009 214.46C311.795 214.46 312.429 214.64 312.909 215C313.402 215.36 313.775 215.853 314.029 216.48ZM312.949 219.66C312.962 219.22 312.942 218.747 312.889 218.24C312.835 217.72 312.742 217.313 312.609 217.02C312.462 216.673 312.262 216.4 312.009 216.2C311.755 215.987 311.429 215.88 311.029 215.88C310.455 215.88 309.995 216.113 309.649 216.58C309.315 217.047 309.149 217.627 309.149 218.32C309.149 219.04 309.315 219.627 309.649 220.08C309.995 220.52 310.462 220.74 311.049 220.74C311.409 220.74 311.749 220.693 312.069 220.6C312.389 220.507 312.675 220.36 312.929 220.16C312.942 220.093 312.949 220.02 312.949 219.94C312.949 219.847 312.949 219.753 312.949 219.66ZM326.962 214.46C327.749 214.46 328.382 214.667 328.862 215.08C329.356 215.493 329.716 216.027 329.942 216.68C330.182 217.333 330.302 218.02 330.302 218.74C330.302 219.94 330.002 220.813 329.402 221.36C328.816 221.907 328.042 222.18 327.082 222.18C326.389 222.18 325.736 222.093 325.122 221.92C324.522 221.733 323.929 221.48 323.342 221.16H323.142C322.676 221.187 322.316 221.36 322.062 221.68C321.809 221.987 321.682 222.453 321.682 223.08V226.42C321.682 226.847 321.576 227.173 321.362 227.4C321.149 227.64 320.856 227.76 320.482 227.76H320.322C320.216 227.76 320.162 227.707 320.162 227.6V223.06C320.162 222.047 320.376 221.267 320.802 220.72C321.242 220.16 321.849 219.827 322.622 219.72C322.716 219.573 322.809 219.407 322.902 219.22C322.996 219.02 323.096 218.793 323.202 218.54C323.536 217.847 323.862 217.193 324.182 216.58C324.516 215.953 324.902 215.447 325.342 215.06C325.782 214.66 326.322 214.46 326.962 214.46ZM327.142 220.74C327.409 220.727 327.662 220.667 327.902 220.56C328.142 220.453 328.336 220.26 328.482 219.98C328.642 219.687 328.722 219.267 328.722 218.72C328.722 217.693 328.556 216.967 328.222 216.54C327.889 216.1 327.489 215.88 327.022 215.88C326.596 215.88 326.202 216.173 325.842 216.76C325.496 217.347 325.129 218.073 324.742 218.94C324.649 219.153 324.562 219.34 324.482 219.5C324.402 219.66 324.322 219.8 324.242 219.92C324.829 220.24 325.376 220.46 325.882 220.58C326.389 220.7 326.809 220.753 327.142 220.74ZM336.97 222H335.93C334.93 222 334.15 221.707 333.59 221.12C333.03 220.52 332.75 219.693 332.75 218.64V212.24C332.75 211.8 332.857 211.467 333.07 211.24C333.297 211 333.597 210.88 333.97 210.88H334.11C334.217 210.88 334.27 210.933 334.27 211.04V218.62C334.27 219.18 334.403 219.64 334.67 220C334.95 220.347 335.357 220.52 335.89 220.52H336.97V222ZM341.261 222H336.721V220.52H340.881L339.061 218.16C338.915 217.973 338.808 217.78 338.741 217.58C338.675 217.38 338.641 217.193 338.641 217.02C338.628 216.5 338.815 216.053 339.201 215.68C339.588 215.293 340.095 214.993 340.721 214.78C341.348 214.567 341.988 214.46 342.641 214.46C343.295 214.447 343.928 214.553 344.541 214.78C345.168 214.993 345.675 215.293 346.061 215.68C346.461 216.067 346.648 216.513 346.621 217.02C346.608 217.193 346.568 217.38 346.501 217.58C346.448 217.78 346.348 217.973 346.201 218.16L344.401 220.52H349.141V222H343.981C343.395 222 342.948 221.893 342.641 221.68C342.468 221.813 342.261 221.9 342.021 221.94C341.781 221.98 341.528 222 341.261 222ZM340.781 217.96L342.501 220.22C342.595 220.313 342.675 220.313 342.741 220.22L344.481 217.96C344.561 217.853 344.641 217.74 344.721 217.62C344.815 217.487 344.861 217.353 344.861 217.22C344.861 216.927 344.668 216.633 344.281 216.34C343.895 216.033 343.348 215.88 342.641 215.88C341.908 215.88 341.348 216.033 340.961 216.34C340.588 216.633 340.401 216.927 340.401 217.22C340.401 217.353 340.441 217.487 340.521 217.62C340.615 217.74 340.701 217.853 340.781 217.96ZM363.448 220.52H364.548V222H363.348C362.802 222 362.328 221.893 361.928 221.68C361.542 221.467 361.235 221.193 361.008 220.86C360.368 221.62 359.515 222 358.448 222H348.928V220.52H351.088V212.24C351.088 211.8 351.195 211.467 351.408 211.24C351.635 211 351.935 210.88 352.308 210.88H352.448C352.555 210.88 352.608 210.933 352.608 211.04V217.3C353.208 216.473 353.948 215.793 354.828 215.26C355.708 214.727 356.702 214.46 357.808 214.46C358.595 214.46 359.288 214.62 359.888 214.94C360.502 215.247 360.982 215.693 361.328 216.28C361.675 216.867 361.848 217.56 361.848 218.36V218.68C361.848 219.293 362.002 219.753 362.308 220.06C362.615 220.367 362.995 220.52 363.448 220.52ZM352.608 220.52H358.348C358.948 220.52 359.422 220.3 359.768 219.86C360.115 219.407 360.288 218.88 360.288 218.28C360.288 217.72 360.162 217.267 359.908 216.92C359.668 216.56 359.355 216.3 358.968 216.14C358.595 215.967 358.188 215.88 357.748 215.88C356.922 215.88 356.168 216.087 355.488 216.5C354.808 216.913 354.222 217.473 353.728 218.18C353.248 218.873 352.875 219.653 352.608 220.52ZM364.819 222H364.299V220.52H364.859C365.393 220.52 365.793 220.347 366.059 220C366.326 219.64 366.459 219.18 366.459 218.62V212.24C366.459 211.8 366.566 211.467 366.779 211.24C367.006 211 367.306 210.88 367.679 210.88H367.819C367.926 210.88 367.979 210.933 367.979 211.04V218.64C367.979 219.693 367.699 220.52 367.139 221.12C366.579 221.707 365.806 222 364.819 222ZM370.96 222H370.82C370.714 222 370.66 221.947 370.66 221.84V212.24C370.66 211.8 370.767 211.467 370.98 211.24C371.207 211 371.507 210.88 371.88 210.88H372.02C372.127 210.88 372.18 210.933 372.18 211.04V220.64C372.18 221.08 372.074 221.42 371.86 221.66C371.647 221.887 371.347 222 370.96 222Z" fill="#0E3B96"/>
<rect width="40" height="40" rx="16" transform="matrix(-1 0 0 1 423.5 198)" fill="#EDF7FF"/>
<path d="M409.29 216.47V223.79C409.29 226.12 407.4 228 405.08 228H397.71C395.39 228 393.5 226.11 393.5 223.79V216.47C393.5 214.14 395.39 212.26 397.71 212.26H405.08C407.4 212.26 409.29 214.15 409.29 216.47Z" stroke="#0E3B96" stroke-width="1.5" stroke-linecap="round" stroke-linejoin="round"/>
<path d="M397 210V208.25" stroke="#0E3B96" stroke-width="1.5" stroke-linecap="round" stroke-linejoin="round"/>
<path d="M401 210V208.25" stroke="#0E3B96" stroke-width="1.5" stroke-linecap="round" stroke-linejoin="round"/>
<path d="M405 210V208.25" stroke="#0E3B96" stroke-width="1.5" stroke-linecap="round" stroke-linejoin="round"/>
<path d="M413.5 219.16C413.5 221.48 411.61 223.37 409.29 223.37V214.95C411.61 214.95 413.5 216.83 413.5 219.16Z" stroke="#0E3B96" stroke-width="1.5" stroke-linecap="round" stroke-linejoin="round"/>
<path d="M393.5 218H409.01" stroke="#0E3B96" stroke-width="1.5" stroke-linecap="round" stroke-linejoin="round"/>
<mask id="path-35-inside-4_381_7624" fill="white">
<path d="M65.5 250H423.5V314H65.5V250Z"/>
</mask>
<path d="M423.5 313H65.5V315H423.5V313Z" fill="#F4F6F7" mask="url(#path-35-inside-4_381_7624)"/>
<path d="M346.162 284.52H347.242V286H346.062C345.756 286 345.469 285.967 345.202 285.9C344.949 285.82 344.716 285.72 344.502 285.6C344.396 286.64 344.109 287.507 343.642 288.2C343.189 288.893 342.609 289.413 341.902 289.76C341.196 290.107 340.402 290.28 339.522 290.28C338.602 290.28 337.762 290.073 337.002 289.66C336.242 289.26 335.642 288.68 335.202 287.92C334.762 287.173 334.542 286.273 334.542 285.22C334.542 284.367 334.729 283.593 335.102 282.9C335.489 282.207 335.969 281.693 336.542 281.36C336.649 281.307 336.742 281.28 336.822 281.28C336.996 281.28 337.082 281.36 337.082 281.52C337.082 281.573 337.049 281.647 336.982 281.74C336.676 282.247 336.436 282.767 336.262 283.3C336.089 283.833 336.002 284.367 336.002 284.9C335.989 285.807 336.149 286.553 336.482 287.14C336.829 287.727 337.269 288.16 337.802 288.44C338.349 288.72 338.922 288.86 339.522 288.86C340.162 288.86 340.749 288.713 341.282 288.42C341.816 288.14 342.236 287.7 342.542 287.1C342.862 286.5 343.022 285.747 343.022 284.84V276.24C343.022 275.8 343.129 275.467 343.342 275.24C343.569 275 343.869 274.88 344.242 274.88H344.382C344.489 274.88 344.542 274.933 344.542 275.04V282.64C344.556 283.28 344.716 283.753 345.022 284.06C345.329 284.367 345.709 284.52 346.162 284.52ZM351.055 277.12C350.815 277.12 350.608 277.033 350.435 276.86C350.275 276.687 350.195 276.473 350.195 276.22C350.195 275.953 350.275 275.74 350.435 275.58C350.608 275.407 350.815 275.32 351.055 275.32C351.308 275.32 351.521 275.407 351.695 275.58C351.868 275.74 351.955 275.953 351.955 276.22C351.955 276.473 351.868 276.687 351.695 276.86C351.521 277.033 351.308 277.12 351.055 277.12ZM353.595 277.12C353.341 277.12 353.128 277.033 352.955 276.86C352.795 276.687 352.715 276.473 352.715 276.22C352.715 275.953 352.795 275.74 352.955 275.58C353.128 275.407 353.341 275.32 353.595 275.32C353.835 275.32 354.035 275.407 354.195 275.58C354.368 275.74 354.455 275.953 354.455 276.22C354.455 276.473 354.368 276.687 354.195 276.86C354.035 277.033 353.835 277.12 353.595 277.12ZM354.575 284.52H358.375V286H353.815C353.561 286 353.295 285.98 353.015 285.94C352.735 285.887 352.501 285.787 352.315 285.64C352.141 285.787 351.915 285.887 351.635 285.94C351.368 285.98 351.101 286 350.835 286H346.995V284.52H350.055C349.681 284.227 349.395 283.847 349.195 283.38C348.995 282.9 348.888 282.433 348.875 281.98C348.875 281.367 349.008 280.793 349.275 280.26C349.555 279.727 349.955 279.293 350.475 278.96C350.995 278.627 351.608 278.46 352.315 278.46C353.035 278.46 353.648 278.627 354.155 278.96C354.675 279.293 355.075 279.727 355.355 280.26C355.635 280.793 355.768 281.367 355.755 281.98C355.741 282.433 355.635 282.9 355.435 283.38C355.248 283.847 354.961 284.227 354.575 284.52ZM352.315 284.36C352.821 284.213 353.261 283.913 353.635 283.46C354.021 283.007 354.208 282.513 354.195 281.98C354.181 281.34 353.995 280.833 353.635 280.46C353.275 280.073 352.835 279.88 352.315 279.88C351.795 279.88 351.355 280.073 350.995 280.46C350.635 280.833 350.448 281.34 350.435 281.98C350.421 282.513 350.608 283.007 350.995 283.46C351.381 283.913 351.821 284.213 352.315 284.36ZM361.127 277.44C360.86 277.44 360.627 277.34 360.427 277.14C360.24 276.94 360.147 276.707 360.147 276.44C360.147 276.147 360.24 275.907 360.427 275.72C360.627 275.533 360.86 275.44 361.127 275.44C361.407 275.44 361.64 275.533 361.827 275.72C362.014 275.907 362.107 276.147 362.107 276.44C362.107 276.707 362.014 276.94 361.827 277.14C361.64 277.34 361.407 277.44 361.127 277.44ZM363.447 284.52H364.527V286H363.487C362.954 286 362.48 285.913 362.067 285.74C361.667 285.553 361.34 285.313 361.087 285.02C360.514 285.673 359.707 286 358.667 286H358.147V284.52H358.707C359.24 284.52 359.64 284.347 359.907 284C360.174 283.64 360.307 283.18 360.307 282.62V280.18C360.307 279.753 360.414 279.427 360.627 279.2C360.854 278.96 361.154 278.84 361.527 278.84H361.667C361.774 278.84 361.827 278.893 361.827 279V282.64C361.84 283.28 362 283.753 362.307 284.06C362.614 284.367 362.994 284.52 363.447 284.52ZM364.819 286H364.299V284.52H364.859C365.393 284.52 365.793 284.347 366.059 284C366.326 283.64 366.459 283.18 366.459 282.62V276.24C366.459 275.8 366.566 275.467 366.779 275.24C367.006 275 367.306 274.88 367.679 274.88H367.819C367.926 274.88 367.979 274.933 367.979 275.04V282.64C367.979 283.693 367.699 284.52 367.139 285.12C366.579 285.707 365.806 286 364.819 286ZM370.96 286H370.82C370.714 286 370.66 285.947 370.66 285.84V276.24C370.66 275.8 370.767 275.467 370.98 275.24C371.207 275 371.507 274.88 371.88 274.88H372.02C372.127 274.88 372.18 274.933 372.18 275.04V284.64C372.18 285.08 372.074 285.42 371.86 285.66C371.647 285.887 371.347 286 370.96 286Z" fill="#0E3B96"/>
<rect width="40" height="40" rx="16" transform="matrix(-1 0 0 1 423.5 262)" fill="#EDF7FF"/>
<path d="M407.01 272.83H399.99C397.5 272.83 396.95 274.07 396.63 275.59L395.5 281H411.5L410.37 275.59C410.05 274.07 409.5 272.83 407.01 272.83Z" stroke="#0E3B96" stroke-width="1.5" stroke-linecap="round" stroke-linejoin="round"/>
<path d="M413.49 289.82C413.6 290.99 412.66 292 411.46 292H409.58C408.5 292 408.35 291.54 408.16 290.97L407.96 290.37C407.68 289.55 407.5 289 406.06 289H400.94C399.5 289 399.29 289.62 399.04 290.37L398.84 290.97C398.65 291.54 398.5 292 397.42 292H395.54C394.34 292 393.4 290.99 393.51 289.82L394.07 283.73C394.21 282.23 394.5 281 397.12 281H409.88C412.5 281 412.79 282.23 412.93 283.73L413.49 289.82Z" stroke="#0E3B96" stroke-width="1.5" stroke-linecap="round" stroke-linejoin="round"/>
<path d="M395.5 278H394.5" stroke="#0E3B96" stroke-width="1.5" stroke-linecap="round" stroke-linejoin="round"/>
<path d="M412.5 278H411.5" stroke="#0E3B96" stroke-width="1.5" stroke-linecap="round" stroke-linejoin="round"/>
<path d="M403.5 273V275" stroke="#0E3B96" stroke-width="1.5" stroke-linecap="round" stroke-linejoin="round"/>
<path d="M402 275H405" stroke="#0E3B96" stroke-width="1.5" stroke-linecap="round" stroke-linejoin="round"/>
<path d="M397.5 285H400.5" stroke="#0E3B96" stroke-width="1.5" stroke-linecap="round" stroke-linejoin="round"/>
<path d="M406.5 285H409.5" stroke="#0E3B96" stroke-width="1.5" stroke-linecap="round" stroke-linejoin="round"/>
<mask id="path-47-inside-5_381_7624" fill="white">
<path d="M65.5 314H423.5V378H65.5V314Z"/>
</mask>
<path d="M423.5 377H65.5V379H423.5V377Z" fill="#F4F6F7" mask="url(#path-47-inside-5_381_7624)"/>
<path d="M270.536 340.48C270.296 340.48 270.089 340.393 269.916 340.22C269.756 340.047 269.676 339.833 269.676 339.58C269.676 339.313 269.756 339.1 269.916 338.94C270.089 338.767 270.296 338.68 270.536 338.68C270.789 338.68 270.996 338.767 271.156 338.94C271.329 339.1 271.416 339.313 271.416 339.58C271.416 339.833 271.329 340.047 271.156 340.22C270.996 340.393 270.789 340.48 270.536 340.48ZM273.076 340.48C272.822 340.48 272.609 340.393 272.436 340.22C272.262 340.047 272.176 339.833 272.176 339.58C272.176 339.313 272.262 339.1 272.436 338.94C272.609 338.767 272.822 338.68 273.076 338.68C273.316 338.68 273.516 338.767 273.676 338.94C273.849 339.1 273.936 339.313 273.936 339.58C273.936 339.833 273.849 340.047 273.676 340.22C273.516 340.393 273.316 340.48 273.076 340.48ZM276.596 348.52H277.676V350H276.636C275.542 350 274.722 349.673 274.176 349.02C273.882 349.38 273.516 349.667 273.076 349.88C272.636 350.08 272.136 350.18 271.576 350.18C270.936 350.18 270.356 350.04 269.836 349.76C269.316 349.467 268.902 349.047 268.596 348.5C268.289 347.953 268.136 347.293 268.136 346.52C268.136 345.733 268.289 345.067 268.596 344.52C268.902 343.973 269.316 343.56 269.836 343.28C270.356 342.987 270.936 342.84 271.576 342.84H273.456V342.72C273.456 342.28 273.562 341.947 273.776 341.72C274.002 341.48 274.302 341.36 274.676 341.36H274.816C274.922 341.36 274.976 341.413 274.976 341.52V346.62C274.976 347.18 275.109 347.64 275.376 348C275.656 348.347 276.062 348.52 276.596 348.52ZM271.576 348.76C272.162 348.76 272.622 348.553 272.956 348.14C273.289 347.713 273.456 347.173 273.456 346.52V344.26H271.576C270.989 344.26 270.529 344.473 270.196 344.9C269.862 345.313 269.696 345.853 269.696 346.52C269.696 347.173 269.862 347.713 270.196 348.14C270.529 348.553 270.989 348.76 271.576 348.76ZM282.744 348.52H283.824V350H282.784C282.251 350 281.777 349.913 281.364 349.74C280.964 349.553 280.637 349.313 280.384 349.02C279.811 349.673 279.004 350 277.964 350H277.444V348.52H278.004C278.537 348.52 278.937 348.347 279.204 348C279.471 347.64 279.604 347.18 279.604 346.62V344.18C279.604 343.753 279.711 343.427 279.924 343.2C280.151 342.96 280.451 342.84 280.824 342.84H280.964C281.071 342.84 281.124 342.893 281.124 343V346.64C281.137 347.28 281.297 347.753 281.604 348.06C281.911 348.367 282.291 348.52 282.744 348.52ZM278.464 351.5C278.717 351.5 278.924 351.58 279.084 351.74C279.257 351.913 279.344 352.127 279.344 352.38C279.344 352.647 279.257 352.867 279.084 353.04C278.924 353.213 278.717 353.3 278.464 353.3C278.211 353.3 277.997 353.213 277.824 353.04C277.664 352.867 277.584 352.647 277.584 352.38C277.584 352.127 277.664 351.913 277.824 351.74C277.997 351.58 278.211 351.5 278.464 351.5ZM280.984 351.5C281.237 351.5 281.444 351.58 281.604 351.74C281.777 351.913 281.864 352.127 281.864 352.38C281.864 352.647 281.777 352.867 281.604 353.04C281.444 353.213 281.237 353.3 280.984 353.3C280.731 353.3 280.517 353.213 280.344 353.04C280.184 352.867 280.104 352.647 280.104 352.38C280.104 352.127 280.184 351.913 280.344 351.74C280.517 351.58 280.731 351.5 280.984 351.5ZM294.356 348.52H295.276V350H294.176C293.803 350 293.443 349.933 293.096 349.8C292.763 349.653 292.496 349.473 292.296 349.26C291.95 349.513 291.576 349.7 291.176 349.82C290.79 349.94 290.256 350 289.576 350H283.596V348.52H289.656C290.15 348.52 290.516 348.48 290.756 348.4C291.01 348.307 291.243 348.18 291.456 348.02C291.336 347.793 291.216 347.52 291.096 347.2C290.976 346.867 290.843 346.473 290.696 346.02C290.483 345.367 290.176 344.847 289.776 344.46C289.39 344.073 288.876 343.88 288.236 343.88C287.783 343.88 287.383 343.96 287.036 344.12C286.703 344.267 286.35 344.507 285.976 344.84C285.896 344.907 285.823 344.967 285.756 345.02C285.69 345.073 285.603 345.1 285.496 345.1C285.363 345.1 285.283 345.033 285.256 344.9C285.243 344.767 285.263 344.627 285.316 344.48C285.503 343.933 285.87 343.46 286.416 343.06C286.963 342.647 287.643 342.447 288.456 342.46C289.443 342.46 290.243 342.753 290.856 343.34C291.483 343.927 291.963 344.753 292.296 345.82C292.483 346.447 292.65 346.96 292.796 347.36C292.956 347.747 293.163 348.033 293.416 348.22C293.523 348.287 293.65 348.353 293.796 348.42C293.956 348.487 294.143 348.52 294.356 348.52ZM312.881 348.52H313.981V350H312.921C312.348 350 311.848 349.9 311.421 349.7C310.994 349.487 310.654 349.22 310.401 348.9C309.774 349.633 308.934 350 307.881 350H300.401C299.854 350 299.381 349.913 298.981 349.74C298.581 349.553 298.248 349.313 297.981 349.02C297.434 349.673 296.634 350 295.581 350H295.061V348.52H295.621C296.154 348.52 296.554 348.347 296.821 348C297.088 347.64 297.221 347.18 297.221 346.62V345.36C297.221 344.92 297.328 344.587 297.541 344.36C297.768 344.133 298.068 344.02 298.441 344.02H298.581C298.688 344.02 298.741 344.067 298.741 344.16V346.64C298.741 347.28 298.894 347.753 299.201 348.06C299.508 348.367 299.888 348.52 300.341 348.52H300.381C300.688 347.413 301.154 346.407 301.781 345.5C302.408 344.58 303.181 343.847 304.101 343.3C305.021 342.74 306.068 342.46 307.241 342.46C308.028 342.46 308.721 342.62 309.321 342.94C309.934 343.247 310.414 343.693 310.761 344.28C311.108 344.867 311.281 345.56 311.281 346.36V346.68C311.294 347.293 311.448 347.753 311.741 348.06C312.048 348.367 312.428 348.52 312.881 348.52ZM302.041 348.52H307.781C308.381 348.52 308.854 348.3 309.201 347.86C309.548 347.407 309.721 346.88 309.721 346.28C309.721 345.72 309.594 345.267 309.341 344.92C309.101 344.56 308.788 344.3 308.401 344.14C308.028 343.967 307.621 343.88 307.181 343.88C306.354 343.88 305.601 344.087 304.921 344.5C304.241 344.913 303.654 345.473 303.161 346.18C302.681 346.873 302.308 347.653 302.041 348.52ZM314.253 350H313.733V348.52H314.293C314.826 348.52 315.226 348.347 315.493 348C315.76 347.64 315.893 347.18 315.893 346.62V340.24C315.893 339.8 316 339.467 316.213 339.24C316.44 339 316.74 338.88 317.113 338.88H317.253C317.36 338.88 317.413 338.933 317.413 339.04V346.64C317.413 347.693 317.133 348.52 316.573 349.12C316.013 349.707 315.24 350 314.253 350ZM320.394 350H320.254C320.147 350 320.094 349.947 320.094 349.84V340.24C320.094 339.8 320.201 339.467 320.414 339.24C320.641 339 320.941 338.88 321.314 338.88H321.454C321.561 338.88 321.614 338.933 321.614 339.04V348.64C321.614 349.08 321.507 349.42 321.294 349.66C321.081 349.887 320.781 350 320.394 350ZM330.086 340.48C329.846 340.48 329.64 340.393 329.466 340.22C329.306 340.047 329.226 339.833 329.226 339.58C329.226 339.313 329.306 339.1 329.466 338.94C329.64 338.767 329.846 338.68 330.086 338.68C330.34 338.68 330.546 338.767 330.706 338.94C330.88 339.1 330.966 339.313 330.966 339.58C330.966 339.833 330.88 340.047 330.706 340.22C330.546 340.393 330.34 340.48 330.086 340.48ZM332.626 340.48C332.373 340.48 332.16 340.393 331.986 340.22C331.813 340.047 331.726 339.833 331.726 339.58C331.726 339.313 331.813 339.1 331.986 338.94C332.16 338.767 332.373 338.68 332.626 338.68C332.866 338.68 333.066 338.767 333.226 338.94C333.4 339.1 333.486 339.313 333.486 339.58C333.486 339.833 333.4 340.047 333.226 340.22C333.066 340.393 332.866 340.48 332.626 340.48ZM336.146 348.52H337.226V350H336.186C335.093 350 334.273 349.673 333.726 349.02C333.433 349.38 333.066 349.667 332.626 349.88C332.186 350.08 331.686 350.18 331.126 350.18C330.486 350.18 329.906 350.04 329.386 349.76C328.866 349.467 328.453 349.047 328.146 348.5C327.84 347.953 327.686 347.293 327.686 346.52C327.686 345.733 327.84 345.067 328.146 344.52C328.453 343.973 328.866 343.56 329.386 343.28C329.906 342.987 330.486 342.84 331.126 342.84H333.006V342.72C333.006 342.28 333.113 341.947 333.326 341.72C333.553 341.48 333.853 341.36 334.226 341.36H334.366C334.473 341.36 334.526 341.413 334.526 341.52V346.62C334.526 347.18 334.66 347.64 334.926 348C335.206 348.347 335.613 348.52 336.146 348.52ZM331.126 348.76C331.713 348.76 332.173 348.553 332.506 348.14C332.84 347.713 333.006 347.173 333.006 346.52V344.26H331.126C330.54 344.26 330.08 344.473 329.746 344.9C329.413 345.313 329.246 345.853 329.246 346.52C329.246 347.173 329.413 347.713 329.746 348.14C330.08 348.553 330.54 348.76 331.126 348.76ZM337.495 350H336.975V348.52H337.535C338.068 348.52 338.468 348.347 338.735 348C339.015 347.64 339.155 347.18 339.155 346.62V344.18C339.155 343.753 339.261 343.427 339.475 343.2C339.688 342.96 339.981 342.84 340.355 342.84H340.495C340.615 342.84 340.675 342.893 340.675 343V346.64C340.675 347.693 340.388 348.52 339.815 349.12C339.255 349.707 338.481 350 337.495 350ZM337.675 353.3C337.435 353.3 337.228 353.213 337.055 353.04C336.895 352.867 336.815 352.647 336.815 352.38C336.815 352.127 336.895 351.913 337.055 351.74C337.228 351.58 337.435 351.5 337.675 351.5C337.928 351.5 338.141 351.58 338.315 351.74C338.488 351.913 338.575 352.127 338.575 352.38C338.575 352.647 338.488 352.867 338.315 353.04C338.141 353.213 337.928 353.3 337.675 353.3ZM340.215 353.3C339.961 353.3 339.748 353.213 339.575 353.04C339.415 352.867 339.335 352.647 339.335 352.38C339.335 352.127 339.415 351.913 339.575 351.74C339.748 351.58 339.961 351.5 340.215 351.5C340.455 351.5 340.655 351.58 340.815 351.74C340.988 351.913 341.075 352.127 341.075 352.38C341.075 352.647 340.988 352.867 340.815 353.04C340.655 353.213 340.455 353.3 340.215 353.3ZM347.576 350H346.536C345.536 350 344.756 349.707 344.196 349.12C343.636 348.52 343.356 347.693 343.356 346.64V340.24C343.356 339.8 343.462 339.467 343.676 339.24C343.902 339 344.202 338.88 344.576 338.88H344.716C344.822 338.88 344.876 338.933 344.876 339.04V346.62C344.876 347.18 345.009 347.64 345.276 348C345.556 348.347 345.962 348.52 346.496 348.52H347.576V350ZM352.967 348.52H355.367C355.793 348.52 356.12 348.633 356.347 348.86C356.587 349.073 356.707 349.333 356.707 349.64V349.76C356.707 349.92 356.62 350 356.447 350H347.327V348.52H350.067C349.813 348.187 349.62 347.82 349.487 347.42C349.353 347.02 349.28 346.627 349.267 346.24C349.267 345.453 349.44 344.78 349.787 344.22C350.133 343.647 350.587 343.213 351.147 342.92C351.72 342.613 352.347 342.46 353.027 342.46C353.76 342.46 354.367 342.613 354.847 342.92C355.34 343.227 355.6 343.6 355.627 344.04C355.653 344.32 355.567 344.46 355.367 344.46C355.327 344.46 355.287 344.453 355.247 344.44C355.22 344.413 355.173 344.387 355.107 344.36C354.907 344.253 354.647 344.147 354.327 344.04C354.007 343.933 353.633 343.88 353.207 343.88C352.553 343.88 351.993 344.087 351.527 344.5C351.06 344.913 350.82 345.493 350.807 346.24C350.807 346.573 350.88 346.92 351.027 347.28C351.187 347.627 351.427 347.92 351.747 348.16C352.067 348.4 352.473 348.52 352.967 348.52ZM363.491 348.52H364.591V350H363.531C362.905 350 362.358 349.873 361.891 349.62V349.74C361.891 351.14 361.631 352.247 361.111 353.06C360.591 353.887 359.765 354.293 358.631 354.28C358.138 354.267 357.671 354.14 357.231 353.9C356.778 353.66 356.465 353.347 356.291 352.96C356.225 352.813 356.225 352.693 356.291 352.6C356.345 352.52 356.418 352.48 356.511 352.48C356.565 352.48 356.618 352.487 356.671 352.5C356.725 352.527 356.771 352.547 356.811 352.56C357.105 352.653 357.365 352.727 357.591 352.78C357.818 352.833 358.078 352.86 358.371 352.86C359.078 352.847 359.585 352.593 359.891 352.1C360.211 351.607 360.371 350.933 360.371 350.08V344.18C360.371 343.287 360.771 342.84 361.571 342.84H361.711C361.831 342.84 361.891 342.893 361.891 343V346.64C361.891 347.28 362.045 347.753 362.351 348.06C362.658 348.367 363.038 348.52 363.491 348.52ZM364.819 350H364.299V348.52H364.859C365.393 348.52 365.793 348.347 366.059 348C366.326 347.64 366.459 347.18 366.459 346.62V340.24C366.459 339.8 366.566 339.467 366.779 339.24C367.006 339 367.306 338.88 367.679 338.88H367.819C367.926 338.88 367.979 338.933 367.979 339.04V346.64C367.979 347.693 367.699 348.52 367.139 349.12C366.579 349.707 365.806 350 364.819 350ZM370.96 350H370.82C370.714 350 370.66 349.947 370.66 349.84V340.24C370.66 339.8 370.767 339.467 370.98 339.24C371.207 339 371.507 338.88 371.88 338.88H372.02C372.127 338.88 372.18 338.933 372.18 339.04V348.64C372.18 349.08 372.074 349.42 371.86 349.66C371.647 349.887 371.347 350 370.96 350Z" fill="#0E3B96"/>
<rect width="40" height="40" rx="16" transform="matrix(-1 0 0 1 423.5 326)" fill="#EDF7FF"/>
<path d="M400.47 356H406.47C411.47 356 413.47 354 413.47 349V343C413.47 338 411.47 336 406.47 336H400.47C395.47 336 393.47 338 393.47 343V349C393.47 354 395.47 356 400.47 356Z" stroke="#0E3B96" stroke-width="1.5" stroke-linecap="round" stroke-linejoin="round"/>
<path d="M393.47 346.7L399.47 346.68C400.22 346.68 401.06 347.25 401.34 347.95L402.48 350.83C402.74 351.48 403.15 351.48 403.41 350.83L405.7 345.02C405.92 344.46 406.33 344.44 406.61 344.97L407.65 346.94C407.96 347.53 408.76 348.01 409.42 348.01H413.48" stroke="#0E3B96" stroke-width="1.5" stroke-linecap="round" stroke-linejoin="round"/>
<mask id="path-53-inside-6_381_7624" fill="white">
<path d="M65.5 378H423.5V442H65.5V378Z"/>
</mask>
<path d="M423.5 441H65.5V443H423.5V441Z" fill="#F4F6F7" mask="url(#path-53-inside-6_381_7624)"/>
<path d="M335.153 412.52H336.253V414H335.213C334.693 414 334.24 413.92 333.853 413.76C333.466 413.587 333.14 413.373 332.873 413.12C332.313 413.84 331.486 414.193 330.393 414.18C329.82 414.18 329.346 414.093 328.973 413.92C328.613 413.733 328.306 413.493 328.053 413.2C327.52 413.853 326.706 414.18 325.613 414.18C325.28 414.18 324.98 414.14 324.713 414.06C324.46 413.993 324.22 413.893 323.993 413.76C323.886 414.733 323.6 415.553 323.133 416.22C322.68 416.9 322.1 417.413 321.393 417.76C320.686 418.107 319.9 418.28 319.033 418.28C318.113 418.28 317.28 418.073 316.533 417.66C315.786 417.26 315.193 416.68 314.753 415.92C314.313 415.173 314.093 414.273 314.093 413.22C314.093 412.367 314.28 411.593 314.653 410.9C315.04 410.207 315.52 409.693 316.093 409.36C316.133 409.333 316.173 409.313 316.213 409.3C316.253 409.287 316.3 409.28 316.353 409.28C316.526 409.28 316.613 409.36 316.613 409.52C316.613 409.573 316.58 409.647 316.513 409.74C315.873 410.767 315.553 411.82 315.553 412.9C315.54 413.807 315.7 414.553 316.033 415.14C316.38 415.727 316.82 416.16 317.353 416.44C317.886 416.72 318.446 416.86 319.033 416.86C319.606 416.86 320.153 416.72 320.673 416.44C321.206 416.16 321.646 415.727 321.993 415.14C322.34 414.553 322.513 413.807 322.513 412.9V408.96C322.513 408.36 322.706 407.96 323.093 407.76C323.2 407.707 323.293 407.673 323.373 407.66C323.453 407.633 323.573 407.62 323.733 407.62H323.873C323.98 407.62 324.033 407.667 324.033 407.76V410.82C324.033 411.393 324.166 411.853 324.433 412.2C324.713 412.533 325.12 412.7 325.653 412.7C326.186 412.7 326.586 412.533 326.853 412.2C327.133 411.853 327.273 411.393 327.273 410.82V408.58C327.273 408.14 327.38 407.807 327.593 407.58C327.82 407.353 328.12 407.24 328.493 407.24H328.633C328.74 407.24 328.793 407.287 328.793 407.38V410.82C328.793 411.393 328.926 411.853 329.193 412.2C329.473 412.533 329.88 412.7 330.413 412.7C330.946 412.7 331.346 412.533 331.613 412.2C331.893 411.853 332.033 411.393 332.033 410.82V408.18C332.033 407.753 332.14 407.427 332.353 407.2C332.566 406.96 332.86 406.84 333.233 406.84H333.373C333.493 406.84 333.553 406.893 333.553 407V410.64C333.553 411.28 333.706 411.753 334.013 412.06C334.32 412.367 334.7 412.52 335.153 412.52ZM336.538 414H336.018V412.52H336.578C337.111 412.52 337.511 412.347 337.778 412C338.045 411.64 338.178 411.18 338.178 410.62V408.18C338.178 407.753 338.285 407.427 338.498 407.2C338.725 406.96 339.025 406.84 339.398 406.84H339.538C339.658 406.84 339.718 406.893 339.718 407V410.64C339.718 411.693 339.431 412.52 338.858 413.12C338.298 413.707 337.525 414 336.538 414ZM336.778 415.38C337.058 415.38 337.291 415.473 337.478 415.66C337.665 415.86 337.758 416.1 337.758 416.38C337.758 416.66 337.665 416.893 337.478 417.08C337.291 417.28 337.058 417.38 336.778 417.38C336.511 417.38 336.278 417.28 336.078 417.08C335.891 416.893 335.798 416.66 335.798 416.38C335.798 416.1 335.891 415.86 336.078 415.66C336.278 415.473 336.511 415.38 336.778 415.38ZM351.559 412.52H352.659V414H351.459C350.952 414 350.506 413.907 350.119 413.72C349.746 413.52 349.446 413.273 349.219 412.98C348.659 413.66 347.846 414 346.779 414H342.319C342.132 414 342.039 413.92 342.039 413.76V413.62C342.039 413.3 342.146 413.04 342.359 412.84C342.586 412.627 342.886 412.52 343.259 412.52H344.999L343.099 406.74C342.992 406.42 342.959 406.14 342.999 405.9C343.039 405.647 343.166 405.453 343.379 405.32C343.446 405.267 343.512 405.22 343.579 405.18C343.659 405.14 343.766 405.1 343.899 405.06L344.019 405.04C344.099 405.013 344.159 405.047 344.199 405.14L346.639 412.52H346.919C347.412 412.52 347.786 412.34 348.039 411.98C348.292 411.62 348.419 411.167 348.419 410.62V404.24C348.419 403.64 348.619 403.24 349.019 403.04C349.112 402.987 349.199 402.947 349.279 402.92C349.359 402.893 349.486 402.88 349.659 402.88H349.779C349.899 402.88 349.959 402.933 349.959 403.04V410.64C349.959 411.28 350.112 411.753 350.419 412.06C350.726 412.367 351.106 412.52 351.559 412.52ZM363.444 412.52H364.544V414H363.504C362.984 414 362.531 413.92 362.144 413.76C361.758 413.587 361.431 413.373 361.164 413.12C360.884 413.48 360.524 413.747 360.084 413.92C359.658 414.093 359.171 414.18 358.624 414.18C357.971 414.18 357.344 414.1 356.744 413.94C356.158 413.767 355.564 413.52 354.964 413.2C354.631 413.573 354.271 413.8 353.884 413.88C353.498 413.96 353.071 414 352.604 414H352.424V412.52H352.584C352.944 412.52 353.231 412.48 353.444 412.4C353.671 412.307 353.878 412.12 354.064 411.84C354.264 411.547 354.491 411.113 354.744 410.54C355.078 409.847 355.404 409.193 355.724 408.58C356.058 407.953 356.444 407.447 356.884 407.06C357.324 406.66 357.864 406.46 358.504 406.46C359.291 406.46 359.924 406.667 360.404 407.08C360.898 407.48 361.258 408 361.484 408.64C361.724 409.28 361.844 409.953 361.844 410.66V410.72C361.858 411.333 362.024 411.787 362.344 412.08C362.664 412.373 363.031 412.52 363.444 412.52ZM358.684 412.74C358.951 412.727 359.204 412.667 359.444 412.56C359.684 412.453 359.878 412.26 360.024 411.98C360.184 411.687 360.264 411.267 360.264 410.72C360.264 409.693 360.098 408.967 359.764 408.54C359.431 408.1 359.031 407.88 358.564 407.88C358.138 407.88 357.744 408.173 357.384 408.76C357.038 409.347 356.671 410.073 356.284 410.94C356.191 411.153 356.104 411.34 356.024 411.5C355.944 411.66 355.871 411.8 355.804 411.92C356.378 412.24 356.918 412.46 357.424 412.58C357.931 412.7 358.351 412.753 358.684 412.74ZM364.819 414H364.299V412.52H364.859C365.393 412.52 365.793 412.347 366.059 412C366.326 411.64 366.459 411.18 366.459 410.62V404.24C366.459 403.8 366.566 403.467 366.779 403.24C367.006 403 367.306 402.88 367.679 402.88H367.819C367.926 402.88 367.979 402.933 367.979 403.04V410.64C367.979 411.693 367.699 412.52 367.139 413.12C366.579 413.707 365.806 414 364.819 414ZM370.96 414H370.82C370.714 414 370.66 413.947 370.66 413.84V404.24C370.66 403.8 370.767 403.467 370.98 403.24C371.207 403 371.507 402.88 371.88 402.88H372.02C372.127 402.88 372.18 402.933 372.18 403.04V412.64C372.18 413.08 372.074 413.42 371.86 413.66C371.647 413.887 371.347 414 370.96 414Z" fill="#0E3B96"/>
<rect width="40" height="40" rx="16" transform="matrix(-1 0 0 1 423.5 390)" fill="#EDF7FF"/>
<path d="M411.88 401.46L407.5 400C407.5 401.061 407.078 402.078 406.328 402.828C405.578 403.579 404.561 404 403.5 404C402.439 404 401.422 403.579 400.671 402.828C399.921 402.078 399.5 401.061 399.5 400L395.12 401.46C394.667 401.611 394.283 401.918 394.038 402.327C393.792 402.736 393.7 403.22 393.78 403.69L394.36 407.16C394.398 407.395 394.518 407.609 394.7 407.763C394.881 407.916 395.112 408.001 395.35 408H397.5V418C397.5 419.1 398.4 420 399.5 420H407.5C408.03 420 408.539 419.789 408.914 419.414C409.289 419.039 409.5 418.53 409.5 418V408H411.65C411.888 408.001 412.118 407.916 412.3 407.763C412.481 407.609 412.602 407.395 412.64 407.16L413.22 403.69C413.299 403.22 413.208 402.736 412.962 402.327C412.716 401.918 412.332 401.611 411.88 401.46Z" stroke="#0E3B96" stroke-width="1.5" stroke-linecap="round" stroke-linejoin="round"/>
</g>
</g>
<defs>
<filter id="filter0_f_381_7624" x="103.5" y="-386" width="771" height="771" filterUnits="userSpaceOnUse" color-interpolation-filters="sRGB">
<feFlood flood-opacity="0" result="BackgroundImageFix"/>
<feBlend mode="normal" in="SourceGraphic" in2="BackgroundImageFix" result="shape"/>
<feGaussianBlur stdDeviation="100" result="effect1_foregroundBlur_381_7624"/>
</filter>
<filter id="filter1_f_381_7624" x="103.5" y="102" width="771" height="771" filterUnits="userSpaceOnUse" color-interpolation-filters="sRGB">
<feFlood flood-opacity="0" result="BackgroundImageFix"/>
<feBlend mode="normal" in="SourceGraphic" in2="BackgroundImageFix" result="shape"/>
<feGaussianBlur stdDeviation="100" result="effect1_foregroundBlur_381_7624"/>
</filter>
<filter id="filter2_f_381_7624" x="-384.5" y="-386" width="771" height="771" filterUnits="userSpaceOnUse" color-interpolation-filters="sRGB">
<feFlood flood-opacity="0" result="BackgroundImageFix"/>
<feBlend mode="normal" in="SourceGraphic" in2="BackgroundImageFix" result="shape"/>
<feGaussianBlur stdDeviation="100" result="effect1_foregroundBlur_381_7624"/>
</filter>
<filter id="filter3_f_381_7624" x="-384.5" y="102" width="771" height="771" filterUnits="userSpaceOnUse" color-interpolation-filters="sRGB">
<feFlood flood-opacity="0" result="BackgroundImageFix"/>
<feBlend mode="normal" in="SourceGraphic" in2="BackgroundImageFix" result="shape"/>
<feGaussianBlur stdDeviation="100" result="effect1_foregroundBlur_381_7624"/>
</filter>
<clipPath id="clip0_381_7624">
<rect x="0.5" width="488" height="488" rx="32" fill="white"/>
</clipPath>
<clipPath id="clip1_381_7624">
<rect x="49.5" y="48" width="390" height="392" rx="16" fill="white"/>
</clipPath>
</defs>
</svg>
