<svg width="36" height="40" viewBox="0 0 36 40" fill="none" xmlns="http://www.w3.org/2000/svg">
<path d="M16.8388 19.121L0.613281 36.3425C0.613891 36.346 0.61511 36.349 0.61572 36.3526C1.11331 38.2225 2.82128 39.5995 4.84838 39.5995C5.6587 39.5995 6.41949 39.3804 7.07193 38.9958L7.12374 38.9654L25.3876 28.4265L16.8388 19.121Z" fill="#EB3131"/>
<path d="M33.2541 16.1885L33.2386 16.1779L25.3536 11.6069L16.4702 19.5116L25.3845 28.4247L33.2279 23.8991C34.603 23.1568 35.5365 21.7072 35.5365 20.0355C35.5365 18.3758 34.6155 16.9333 33.2541 16.1885Z" fill="#F6B60B"/>
<path d="M0.612673 3.65694C0.515136 4.01661 0.463867 4.39334 0.463867 4.78456V35.2156C0.463867 35.6061 0.514526 35.9841 0.613282 36.3425L17.3972 19.5616L0.612673 3.65694Z" fill="#5778C5"/>
<path d="M16.9585 19.9997L25.3568 11.6039L7.11365 1.02691C6.45055 0.629745 5.67666 0.400534 4.8485 0.400534C2.8214 0.400534 1.11115 1.77992 0.613402 3.65218C0.612793 3.65401 0.612793 3.65523 0.612793 3.65691L16.9585 19.9997Z" fill="#3BAD49"/>
</svg>
