<svg width="23" height="29" viewBox="0 0 23 29" fill="none" xmlns="http://www.w3.org/2000/svg">
<path d="M21.6008 12.2371C22.3008 12.2371 22.8684 12.7987 22.8684 13.491C22.8684 19.2979 18.4321 24.0803 12.7288 24.7039V26.0261H15.2639C15.9637 26.0261 16.5312 26.587 16.5315 27.2791C16.5315 27.9713 15.9639 28.533 15.2639 28.533H7.65942C6.95944 28.533 6.39185 27.9713 6.39185 27.2791C6.3921 26.587 6.9596 26.0261 7.65942 26.0261H10.1946V24.7039C4.4912 24.0803 0.0549316 19.2979 0.0549316 13.491C0.0549372 12.7987 0.62253 12.2371 1.32251 12.2371C2.02238 12.2372 2.59008 12.7988 2.59009 13.491C2.59009 18.337 6.56227 22.2654 11.4622 22.2654C16.3618 22.2651 20.3342 18.3369 20.3342 13.491C20.3342 12.7988 20.901 12.2372 21.6008 12.2371ZM11.4622 0.504639C14.9625 0.504838 17.9022 2.90437 18.7268 6.14819C18.8238 6.5299 18.8725 6.72081 18.7551 6.87183C18.6377 7.0228 18.4265 7.02319 18.0042 7.02319H14.0686C13.5288 7.02341 13.0911 7.46088 13.0911 8.00073C13.0911 8.54054 13.5288 8.97805 14.0686 8.97827H18.175C18.5435 8.97827 18.7285 8.97823 18.843 9.09253C18.9576 9.20707 18.9573 9.3918 18.9573 9.7605V11.4548C18.9573 11.8236 18.9576 12.0083 18.843 12.1228C18.7285 12.2374 18.5438 12.2371 18.175 12.2371H14.0686C13.5288 12.2373 13.0911 12.6757 13.0911 13.2156C13.0913 13.7553 13.5289 14.1929 14.0686 14.1931H18.0042C18.4263 14.1931 18.6377 14.1928 18.7551 14.3435C18.8725 14.4945 18.8238 14.6856 18.7268 15.0671C17.9023 18.311 14.9626 20.7105 11.4622 20.7107C7.32238 20.7107 3.96626 17.3553 3.96606 13.2156V8.00073C3.96606 3.86083 7.32226 0.504639 11.4622 0.504639Z" fill="#1F2020"/>
</svg>
