<svg width="177" height="70" viewBox="0 0 177 70" fill="none" xmlns="http://www.w3.org/2000/svg">
<path d="M0 18.5938C0 15.722 1.52189 13.0685 3.99237 11.6327L18.5136 3.19312C21.7305 1.32352 25.8032 1.93412 28.3393 4.66622L32.8493 9.52471C34.2313 11.0135 35 12.9751 35 15.0128V53.1293C35 56.0174 33.4608 58.6837 30.9681 60.1134L16.2485 68.5554C13.14 70.338 9.23295 69.8216 6.68691 67.2919L2.37518 63.0071C0.855444 61.4964 0 59.4363 0 57.2864V18.5938Z" fill="#A6C1F8"/>
<path d="M35 18.5938C35 15.722 36.5219 13.0685 38.9924 11.6327L53.5136 3.19312C56.7306 1.32352 60.8032 1.93412 63.3391 4.66622L67.8491 9.52471C69.2311 11.0135 70 12.9751 70 15.0128V53.1293C70 56.0174 68.4605 58.6837 65.9679 60.1134L51.2485 68.5554C48.14 70.338 44.2329 69.8216 41.6869 67.2919L37.3752 63.0071C35.8554 61.4964 35 59.4363 35 57.2864V18.5938Z" fill="#0E3B96"/>
<path d="M17.5 18.5938C17.5 15.722 19.0219 13.0685 21.4924 11.6327L36.0136 3.19312C39.2305 1.32352 43.3032 1.93412 45.8393 4.66622L50.3493 9.52471C51.7313 11.0135 52.5 12.9751 52.5 15.0128V53.1293C52.5 56.0174 50.9608 58.6837 48.4681 60.1134L33.7485 68.5554C30.64 70.338 26.7329 69.8216 24.1869 67.2919L19.8752 63.0071C18.3554 61.4964 17.5 59.4363 17.5 57.2864V18.5938Z" fill="#1452CD"/>
<path fill-rule="evenodd" clip-rule="evenodd" d="M30.1404 6.60657L32.8493 9.52481C34.2313 11.0136 35 12.9752 35 15.0128V53.1293C35 56.0175 33.4608 58.6837 30.9681 60.1135L22.0883 65.206L19.8752 63.0071C18.3554 61.4964 17.5 59.4363 17.5 57.2865V18.5938C17.5 15.7221 19.0219 13.0685 21.4924 11.6327L30.1404 6.60657Z" fill="#0E3B96"/>
<path fill-rule="evenodd" clip-rule="evenodd" d="M47.6404 6.60657L50.3493 9.52481C51.7313 11.0136 52.5 12.9752 52.5 15.0128V53.1293C52.5 56.0175 50.9608 58.6837 48.4681 60.1135L39.5883 65.206L37.3752 63.0071C35.8554 61.4964 35 59.4363 35 57.2865V18.5938C35 15.7221 36.5219 13.0685 38.9924 11.6327L47.6404 6.60657Z" fill="#061941"/>
<mask id="mask0_306_14171" style="mask-type:luminance" maskUnits="userSpaceOnUse" x="78" y="24" width="99" height="22">
<path d="M177 24.2344H78V45.7657H177V24.2344Z" fill="white"/>
</mask>
<g mask="url(#mask0_306_14171)">
<path d="M78.0479 24.2725H84.6182L90.1918 37.5797H90.4491L96.0226 24.2725H102.593V45.7658H97.4267V32.5633H97.2445L91.971 45.629H88.6698L83.3963 32.4898H83.2141V45.7658H78.0479V24.2725ZM111.18 24.2725V45.7658H105.875V24.2725H111.18ZM114.408 45.7658V42.8063L125.073 28.4918H114.419V24.2725H131.783V27.232L121.118 41.5473H131.772V45.7658H114.408ZM139.749 45.7658H134.046L141.453 24.2725H148.516L155.923 45.7658H150.22L145.065 29.6882H144.893L139.749 45.7658ZM138.988 37.3069H150.906V41.2526H138.988V37.3069ZM176.941 24.2725V45.7658H172.439L163.703 33.3612H163.564V45.7658H158.258V24.2725H162.824L171.464 36.6568H171.646V24.2725H176.941Z" fill="#0E3B96"/>
</g>
</svg>
