<svg width="25" height="20" viewBox="0 0 25 20" fill="none" xmlns="http://www.w3.org/2000/svg">
<path d="M8.34021 19.5502C17.2102 19.5502 22.0602 12.2002 22.0602 5.8302C22.0602 5.6202 22.0602 5.4102 22.0502 5.2102C22.9902 4.5302 23.8102 3.6802 24.4602 2.7102C23.6002 3.0902 22.6702 3.3502 21.6902 3.4702C22.6902 2.8702 23.4502 1.9302 23.8102 0.800195C22.8802 1.3502 21.8502 1.7502 20.7502 1.9702C19.8702 1.0302 18.6202 0.450195 17.2302 0.450195C14.5702 0.450195 12.4102 2.6102 12.4102 5.2702C12.4102 5.6502 12.4502 6.0202 12.5402 6.3702C8.53021 6.1702 4.98021 4.2502 2.60022 1.3302C2.19022 2.0402 1.95022 2.8702 1.95022 3.7502C1.95022 5.4202 2.80022 6.9002 4.10021 7.7602C3.31021 7.7402 2.57021 7.5202 1.92021 7.1602C1.92021 7.1802 1.92021 7.2002 1.92021 7.2202C1.92021 9.5602 3.58021 11.5002 5.79021 11.9502C5.39021 12.0602 4.96021 12.1202 4.52021 12.1202C4.21021 12.1202 3.91021 12.0902 3.61021 12.0302C4.22021 13.9502 6.00022 15.3402 8.11022 15.3802C6.46022 16.6702 4.38021 17.4402 2.12021 17.4402C1.73021 17.4402 1.35021 17.4202 0.970215 17.3702C3.08021 18.7502 5.62021 19.5502 8.34021 19.5502Z" fill="white"/>
</svg>
